<svg width="61" height="19" viewBox="0 0 61 19" fill="none" xmlns="http://www.w3.org/2000/svg">
<path d="M59.7461 0.111755H1.06891C0.609101 0.111755 0.236328 0.484528 0.236328 0.944336V18.0557C0.236328 18.5155 0.609101 18.8882 1.06891 18.8882H59.7461C60.2059 18.8882 60.5786 18.5155 60.5786 18.0557V0.944336C60.5786 0.484528 60.2059 0.111755 59.7461 0.111755Z" fill="black"/>
<path d="M15.9055 15.7803C14.8713 16.7524 13.3923 16.9748 11.1894 16.9748H8.05049C3.65501 16.9748 2.25879 15.9406 2.25879 12.3828V10.4384H6.45777C6.45777 10.6194 6.45777 10.8056 6.45777 10.9556C6.45777 12.7344 6.90767 13.3033 8.66586 13.3033H10.693C12.3115 13.3033 12.5959 12.6982 12.5959 11.2348V2.10254H17.0897V12.6672C17.1192 13.8202 16.6938 14.9384 15.9055 15.7803Z" fill="white"/>
<path d="M33.4825 7.26348C33.4825 6.08963 32.7326 5.60356 31.1141 5.60356H27.4943C24.5777 5.60356 23.8744 5.98621 23.8744 8.49939V10.5679C23.8744 12.8742 24.8673 13.3396 27.4943 13.3396H30.0798C32.5723 13.3396 33.56 13.0759 33.56 11.3177V11.1522H38.1158C38.1158 11.54 38.1572 11.8813 38.1572 12.2278C38.1572 14.0481 37.7332 15.2633 36.6782 16.0286C35.6233 16.7939 33.8651 16.9956 31.2795 16.9956H26.2583C23.9313 16.9956 22.2921 16.8974 21.0148 15.9045C19.7375 14.9116 19.3135 13.5981 19.3135 11.5917V7.58409C19.3135 3.17309 21.2371 1.89581 26.2583 1.89581H31.2795C33.8651 1.89581 35.5923 2.01476 36.6679 2.84214C37.6194 3.57128 38.0227 4.78649 38.0227 6.54986C38.0227 6.81359 38.0227 7.09285 38.0227 7.37726H33.5083L33.4825 7.26348Z" fill="white"/>
<path d="M54.1722 12.1191C54.188 11.9502 54.1673 11.78 54.1115 11.6198C54.0558 11.4597 53.9663 11.3134 53.8491 11.1908C53.732 11.0682 53.5898 10.9722 53.4323 10.9094C53.2748 10.8465 53.1057 10.8181 52.9363 10.8263H44.6625V13.4739H52.9363C53.7223 13.4739 54.1722 12.9878 54.1722 12.1191ZM53.6861 6.61695C53.6994 6.45886 53.679 6.29974 53.6262 6.15012C53.5735 6.00049 53.4896 5.86376 53.3802 5.74893C53.2707 5.63409 53.1381 5.54378 52.9912 5.48393C52.8443 5.42408 52.6864 5.39607 52.5278 5.40174H44.6366V7.82702H52.5278C52.6884 7.84272 52.8504 7.82174 53.0016 7.76569C53.1529 7.70964 53.2894 7.61997 53.401 7.50344C53.5125 7.38691 53.5962 7.24657 53.6456 7.09301C53.695 6.93944 53.7088 6.77666 53.6861 6.61695ZM40.1377 16.8145V2.10254H53.4017C56.7009 2.10254 58.2988 3.4367 58.2988 6.20844C58.3462 6.89528 58.1571 7.57765 57.7629 8.1421C57.3687 8.70656 56.7932 9.1191 56.1321 9.31114C57.9989 9.61624 58.8056 10.7073 58.8056 12.812C58.8056 15.6458 57.3473 16.799 54.0895 16.799L40.1377 16.8145Z" fill="white"/>
<path d="M8.29831 2.10254H2.24805V8.1528H8.29831V2.10254Z" fill="#F8B004"/>
<path fill-rule="evenodd" clip-rule="evenodd" d="M5.9873 4.01093L6.58197 4.09883C6.66182 4.11337 6.73642 4.14879 6.79817 4.20147C6.85993 4.25414 6.90665 4.3222 6.9336 4.39876C6.9336 4.42979 7.00084 4.62628 7.01118 4.64697C7.02858 4.69335 7.02874 4.74445 7.01166 4.79096C6.99458 4.83746 6.96139 4.87626 6.91811 4.90035C6.9679 4.91126 7.01482 4.93258 7.05581 4.96287C7.09681 4.99317 7.13093 5.03178 7.15596 5.07618C7.15596 5.07618 7.26975 5.40712 7.28009 5.44332C7.29554 5.48119 7.30294 5.52189 7.30181 5.56278C7.30068 5.60367 7.29104 5.64386 7.27353 5.68082C7.25602 5.71779 7.23101 5.75069 7.20008 5.77747C7.16916 5.80424 7.133 5.82429 7.09391 5.83633L6.61817 5.96561L5.9873 4.01093ZM6.44234 4.41944H6.60267C6.61726 4.41952 6.63149 4.42401 6.64348 4.43231C6.65548 4.44062 6.66466 4.45236 6.66987 4.46599C6.66987 4.46599 6.72678 4.6211 6.73195 4.63662C6.73712 4.65213 6.76297 4.74005 6.69058 4.74005H6.55094L6.44234 4.41944ZM6.66473 5.12788H6.794C6.81663 5.12234 6.84049 5.12501 6.86133 5.13543C6.88217 5.14584 6.89862 5.16333 6.90775 5.18476C6.90775 5.18476 6.96464 5.35543 6.97498 5.37094C6.98532 5.38646 6.97497 5.47436 6.92843 5.48987L6.79915 5.51572L6.66473 5.12788Z" fill="black"/>
<path d="M3.79297 3.68469L4.68242 3.81397L4.8272 4.30006H4.62037C4.62037 4.30006 5.13749 5.93415 5.13749 5.98586C5.19954 6.17203 5.2409 6.36334 4.96166 6.45125L4.63069 6.5495C4.58779 6.56737 4.54163 6.57602 4.49517 6.57485C4.4487 6.57368 4.40298 6.56275 4.36103 6.54275C4.31907 6.52275 4.28182 6.49413 4.25166 6.45876C4.2215 6.4234 4.19911 6.38208 4.18598 6.3375L3.8602 5.30327L4.25839 5.27742C4.25839 5.27742 4.42385 5.79451 4.43936 5.83588C4.45488 5.87725 4.49626 5.98584 4.61002 5.95998C4.72379 5.93413 4.68758 5.9031 4.6669 5.8307C4.64621 5.75831 4.18081 4.24833 4.18081 4.24833H3.95327L3.79297 3.68469Z" fill="black"/>
<path d="M5.11677 3.87656L5.48911 3.93343C5.57527 3.94238 5.65722 3.9752 5.72574 4.02818C5.79425 4.08117 5.84662 4.15224 5.87695 4.23337C5.87695 4.29025 6.03208 4.71946 6.03208 4.71946H5.69597C5.69597 4.71946 5.63391 4.5126 5.61839 4.4764C5.60288 4.4402 5.58736 4.36263 5.48394 4.34712C5.38051 4.33161 5.38568 4.37815 5.41153 4.45055C5.43739 4.52294 5.72698 5.48478 5.74249 5.54683C5.77869 5.66577 5.78903 5.70715 5.89762 5.68646C6.00622 5.66578 5.97004 5.61407 5.94935 5.53134L5.84075 5.20037H6.17689C6.17689 5.20037 6.34752 5.7175 6.35786 5.76404C6.38331 5.8254 6.38466 5.8941 6.36165 5.95642C6.33864 6.01873 6.29298 6.07005 6.23376 6.10015H6.18203L5.85628 6.18805C5.82146 6.20284 5.78395 6.21027 5.74612 6.20986C5.7083 6.20945 5.67097 6.20123 5.63648 6.18568C5.60199 6.17014 5.5711 6.14763 5.54574 6.11956C5.52037 6.09149 5.50109 6.05849 5.48911 6.0226C5.48911 5.99675 4.9358 4.2075 4.90477 4.11959C4.87374 4.03168 4.90476 3.84553 5.11677 3.87656Z" fill="black"/>
<path fill-rule="evenodd" clip-rule="evenodd" d="M3.35509 3.26086L6.66465 3.77798C6.78089 3.78711 6.89186 3.83021 6.98381 3.90193C7.07575 3.97364 7.14461 4.07082 7.18176 4.18135C7.20762 4.24857 7.60061 5.43275 7.61612 5.48963C7.63723 5.5396 7.6475 5.59347 7.6462 5.6477C7.64491 5.70192 7.63208 5.75525 7.60861 5.80415C7.58514 5.85305 7.55154 5.89642 7.51004 5.93135C7.46855 5.96627 7.42011 5.99197 7.36792 6.00675L4.52896 6.9117C4.47264 6.94402 4.40958 6.96282 4.34476 6.96659C4.27994 6.97036 4.21513 6.95899 4.15545 6.93342C4.09577 6.90784 4.04283 6.86873 4.00086 6.81919C3.95888 6.76965 3.92902 6.71104 3.91359 6.64797L3.00863 3.80901C2.97095 3.70592 2.9483 3.59794 2.94141 3.4884C2.95175 3.17813 3.29304 3.26086 3.35509 3.26086ZM3.4275 3.40567L6.61809 3.92279C6.71465 3.92519 6.80813 3.95725 6.88584 4.0146C6.96355 4.07196 7.02174 4.15184 7.05249 4.2434L7.47649 5.52066C7.49749 5.55996 7.50916 5.60357 7.51055 5.64811C7.51193 5.69264 7.50302 5.73692 7.48451 5.77745C7.466 5.81798 7.43838 5.85368 7.4038 5.88179C7.36923 5.90991 7.32862 5.92966 7.28516 5.93952L4.45138 6.8238C4.38415 6.8238 4.12558 6.94789 4.02216 6.58074L3.15341 3.82968C3.1269 3.75416 3.10785 3.67624 3.09653 3.597C3.09653 3.37981 3.21547 3.36945 3.32407 3.38497L3.4275 3.40567Z" fill="black"/>
</svg>
