<svg width="107" height="17" viewBox="0 0 107 17" fill="none" xmlns="http://www.w3.org/2000/svg">
<path d="M107 16.2755L100.733 0.686402H90.8531L85.7779 13.3926V0.686402H79.559V16.2755H90.9802L91.8856 14.0408H99.6533L100.559 16.2755H107ZM29.8396 0H29.7522C22.469 0 19.7051 3.52356 19.7051 8.48857C19.7051 8.59535 19.7051 8.71737 19.7051 8.81652C18.7838 7.7564 17.0126 7.12337 14.1454 6.73441L9.91211 6.14716C8.32363 5.92598 7.32289 5.75818 7.32289 4.99551C7.32289 4.23283 7.9424 3.66083 9.70561 3.66083C11.6277 3.66083 12.684 4.37774 12.684 5.537H19.4827V5.20142C19.4827 2.08208 16.2501 0.0381244 9.88829 0.0381244C3.34375 0.0381244 0.468602 2.32615 0.468602 5.54464C0.468602 8.05383 2.1921 9.52581 6.20301 10.0597L10.9685 10.7079C12.6761 10.9215 13.232 11.2647 13.232 11.9587C13.232 12.8434 12.3584 13.3239 10.3887 13.3239C8.17273 13.3239 7.1561 12.424 7.1561 11.1427H0V11.5164C0 14.9713 3.40729 16.9619 10.0948 16.9619C16.266 16.9619 19.8401 15.6577 20.4199 12.3477C21.6589 15.1925 24.5658 17 29.784 17C33.7552 17 35.9552 15.9628 37.2975 14.3993L36.5033 16.2755H42.8572L43.7626 14.0408H51.5303L52.4357 16.2755H63.841V7.30641L70.87 16.2755H77.9467V0.686402H71.8708V8.90803L65.4692 0.686402H57.7651V13.3926L52.6343 0.686402H42.8095L39.1084 9.8995H33.0801C32.7783 11.7452 31.6743 12.7214 29.7205 12.7214C27.4807 12.7214 26.2337 11.0512 26.2337 8.48857C26.2337 5.92599 27.4966 4.25571 29.7205 4.25571C30.4879 4.18314 31.2549 4.3969 31.8627 4.85269C32.4704 5.30849 32.8722 5.97134 32.9848 6.70389H39.712V6.28443C39.712 2.8524 36.5747 0.0152535 29.8396 0ZM97.9774 9.91477H93.4979L95.7297 4.30147L97.9774 9.91477ZM49.9339 9.91477H45.4543L47.702 4.30147L49.9339 9.91477Z" fill="#020D45"/>
</svg>
