<svg width="137" height="19" viewBox="0 0 137 19" fill="none" xmlns="http://www.w3.org/2000/svg">
<path fill-rule="evenodd" clip-rule="evenodd" d="M71.9286 16.3387H81.503C83.4069 16.3387 84.1857 15.788 84.1464 13.0424V2.66553H81.1726V12.4287C81.1726 13.5931 81.031 13.7347 80.1105 13.7347H74.8946V2.66553H71.9286V16.3387ZM136.29 2.6734V16.3387H133.324V2.6734H136.29ZM87.1202 2.6734H96.6946C98.0556 2.6734 99.3773 2.87009 99.3379 5.63148V16.3466H96.372V6.59913C96.372 5.42691 96.2304 5.17517 95.3021 5.17517H90.094V16.3387H87.1202V2.6734ZM59.4276 2.6734L63.1488 8.25912L66.8307 2.6734H70.4417L64.6357 11.4138V16.3466H61.6619V11.4138L55.8166 2.6734H59.4276ZM41.7422 2.6734H44.7317V8.06244H51.3795V2.6734H54.3454V16.3466H51.3795V10.7609H44.7317V16.3387H41.7422V2.6734ZM111.65 6.44965C111.664 6.28041 111.642 6.11011 111.583 5.95053C111.525 5.79095 111.433 5.64592 111.313 5.52545C111.194 5.40499 111.049 5.31198 110.89 5.25286C110.731 5.19374 110.561 5.16991 110.391 5.18304H105.309V13.7268H110.415C111.579 13.6639 111.674 12.9401 111.674 12.413L111.65 6.44965ZM114.655 5.66293V13.0581C114.655 15.4183 113.334 16.3781 111.682 16.3781H102.312V2.66553H111.682C114.215 2.66553 114.655 4.27831 114.655 5.6236V5.66293ZM130.35 2.71273V16.3781H127.377V12.4445H120.595V16.3781H117.629V5.6236C117.629 3.72761 118.416 2.6734 120.595 2.6734L130.35 2.71273ZM127.377 5.22237H121.83C120.894 5.27744 120.627 5.50558 120.627 6.64633V9.79321H127.408L127.377 5.22237Z" fill="#003984"/>
<path fill-rule="evenodd" clip-rule="evenodd" d="M29.6894 3.46799C32.0024 4.73461 34.6222 6.96889 34.3547 9.93483C34.0321 12.6883 31.4674 14.6079 29.1781 15.7644C22.4831 18.9664 13.0818 19.0608 6.16651 16.2679C3.80635 15.3002 1.21018 13.6245 0.226776 11.1149C-0.0760415 10.1099 -0.0755811 9.03779 0.228096 8.033C0.531773 7.0282 1.12518 6.13533 1.93397 5.46624C5.15165 2.53964 9.25833 1.53266 13.483 0.95835C18.035 0.403736 22.6532 0.863139 27.0067 2.30363C27.9253 2.63306 28.8215 3.02201 29.6894 3.46799ZM25.9132 3.38144C26.0784 3.46798 26.2751 3.50732 26.3695 3.66467C26.4639 3.82201 26.2829 3.97148 26.1807 4.09735C23.9152 5.73093 21.3801 6.95323 18.6911 7.7084C17.3537 8.03882 16.0005 8.62886 14.4979 8.29844C14.3186 8.25245 14.1503 8.17096 14.003 8.05881C13.8557 7.94665 13.7324 7.80611 13.6404 7.64547C13.2706 6.61487 13.7662 5.54493 14.2068 4.64807C14.7811 3.52306 15.7802 2.20137 17.2278 2.18563C20.1647 2.17483 23.0885 2.57737 25.9132 3.38144ZM11.6893 2.89367L11.65 3.05888C8.77843 6.3159 6.92963 10.1394 5.09657 13.8763C4.75042 14.2067 4.41214 13.7662 4.09745 13.6245C2.52401 12.5782 1.0607 10.8868 1.46979 8.90423C2.13851 6.28445 4.83696 4.89193 7.08698 3.94C8.43725 3.41926 9.83694 3.03707 11.2645 2.79927C11.3903 2.73633 11.587 2.7206 11.6893 2.89367ZM30.7437 5.77307C32.1047 6.89021 33.3241 8.40858 32.9071 10.2416C32.2305 12.948 29.2804 14.3877 26.9359 15.3081C25.6667 15.7869 24.3469 16.1195 23.0023 16.2994C22.9158 16.2994 22.7742 16.2994 22.7506 16.1814V16.024C24.6568 13.8043 26.277 11.3542 27.5732 8.73115C28.1789 7.5904 28.7454 6.41031 29.2725 5.25383C29.3361 5.17637 29.4208 5.119 29.5164 5.08863C29.9727 5.0965 30.3188 5.48198 30.7122 5.7416L30.7437 5.77307ZM20.768 11.5476C21.0277 12.9008 20.3196 14.0258 19.7296 15.1114C19.4366 15.6579 18.9974 16.112 18.4611 16.4232C17.9249 16.7344 17.3126 16.8904 16.6928 16.8737C13.8462 16.8308 11.019 16.3967 8.29066 15.5835C8.22744 15.569 8.16775 15.5421 8.11507 15.5042C8.06238 15.4664 8.01776 15.4185 7.98384 15.3632C7.96435 15.2925 7.96589 15.2176 7.98824 15.1478C8.01059 15.0779 8.0528 15.0161 8.10971 14.9698C10.5249 13.0188 13.3965 12.114 16.2365 11.1621C17.3165 10.7715 18.4655 10.6081 19.6116 10.6822C19.8627 10.7141 20.1013 10.8106 20.304 10.9623C20.5067 11.1139 20.6666 11.3156 20.768 11.5476Z" fill="#003984"/>
</svg>
