<svg width="104" height="17" viewBox="0 0 104 17" fill="none" xmlns="http://www.w3.org/2000/svg">
<path d="M48.0431 15.4833V11.4756C48.0431 9.57005 47.3626 8.45092 45.9107 8.20895C47.597 7.76281 48.0582 6.34879 48.0582 4.53399C48.0582 1.98571 47.1433 0.397766 44.164 0.397766H38.833V16.9275H42.3643V9.70616H43.2415C43.4188 9.69912 43.5955 9.73091 43.7592 9.79932C43.9229 9.86774 44.0697 9.97112 44.1893 10.1022C44.3089 10.2333 44.3983 10.389 44.4514 10.5583C44.5045 10.7276 44.52 10.9065 44.4967 11.0824V15.4833C44.472 15.965 44.5573 16.4459 44.7462 16.8897H48.338C48.1126 16.4568 48.0106 15.9703 48.0431 15.4833ZM43.3246 6.95371H42.387V3.2107H43.4608C44.2699 3.2107 44.5345 3.80808 44.5345 5.10869C44.5345 6.40929 44.2396 6.95371 43.3246 6.95371Z" fill="black"/>
<path d="M8.23735 14.1145C8.49432 13.8987 8.69673 13.6253 8.82813 13.3165C8.95952 13.0077 9.01618 12.6723 8.99351 12.3375V9.87241H5.5454V13.2222C5.54343 13.4522 5.45117 13.6723 5.28851 13.8349C5.12586 13.9976 4.90583 14.0898 4.67581 14.0918C4.56364 14.0909 4.45279 14.0675 4.34981 14.0229C4.24684 13.9784 4.15383 13.9137 4.07629 13.8327C3.99875 13.7516 3.93824 13.6558 3.89835 13.551C3.85846 13.4461 3.83998 13.3343 3.84403 13.2222V3.72478C3.83998 3.61267 3.85846 3.50088 3.89835 3.39603C3.93824 3.29118 3.99875 3.19541 4.07629 3.11434C4.15383 3.03327 4.24684 2.96856 4.34981 2.92405C4.45279 2.87954 4.56364 2.85613 4.67581 2.85519C4.90583 2.85717 5.12586 2.94943 5.28851 3.11208C5.45117 3.27473 5.54343 3.49476 5.5454 3.72478V7.09727H8.98594V3.59624C8.98594 1.66802 7.72316 0.0725098 4.64556 0.0725098C1.56797 0.0725098 0.290039 1.66801 0.290039 3.60379V13.4869C0.289816 13.9378 0.38024 14.3842 0.555925 14.7995C0.73161 15.2148 0.988974 15.5906 1.31274 15.9045C1.6365 16.2184 2.02007 16.464 2.44062 16.6267C2.86117 16.7895 3.31014 16.866 3.76086 16.8518H4.82703L8.23735 14.1145Z" fill="black"/>
<path d="M103.023 15.476V11.4683C103.023 9.56279 102.342 8.44368 100.898 8.20171C102.576 7.75557 103.038 6.34154 103.038 4.5343C103.038 1.97846 102.123 0.390503 99.151 0.390503H93.7822V16.9127H97.3438V9.70647H98.2133C98.3906 9.69942 98.5674 9.73121 98.7311 9.79963C98.8948 9.86804 99.0416 9.97143 99.1612 10.1025C99.2808 10.2336 99.3702 10.3893 99.4233 10.5586C99.4764 10.7279 99.4919 10.9068 99.4686 11.0827V15.4836C99.4439 15.9653 99.5292 16.4463 99.7181 16.89H103.302C103.086 16.4518 102.989 15.9638 103.023 15.476ZM98.3192 6.94647H97.374V3.22612H98.4553C99.2644 3.22612 99.5366 3.8235 99.5366 5.12411C99.5366 6.42471 99.2191 6.94647 98.3192 6.94647Z" fill="black"/>
<path d="M89.7291 0.360229H84.9577L82.1221 16.9127H85.7139L86.0617 13.9939H88.6326L88.9805 16.9127H92.5798L89.7291 0.360229ZM86.4247 10.9466L87.3472 3.23365L88.2697 10.9466H86.4247Z" fill="black"/>
<path d="M65.9326 16.9124V0.397766H69.5773V13.7743H73.3657V16.9124H65.9326Z" fill="black"/>
<path d="M64.0043 0.397766H60.3672V16.92H64.0043V0.397766Z" fill="black"/>
<path d="M65.9326 16.9124V0.397766H69.5773V13.7743H73.3657V16.9124H65.9326Z" fill="black"/>
<path d="M74.2432 16.9124V0.397766H77.8803V13.7743H81.6763V16.9124H74.2432Z" fill="black"/>
<path d="M55.3315 0.397766H49.7812V16.92H53.3428V10.364H55.3315C58.5981 10.364 59.1502 8.27701 59.1502 5.3809C59.1502 2.48478 58.5981 0.397766 55.3315 0.397766ZM54.4165 7.43767H53.3277V3.2485H54.409C55.3315 3.2485 55.4827 3.88368 55.4827 5.39601C55.4827 6.90834 55.3315 7.43767 54.4165 7.43767Z" fill="black"/>
<path d="M32.6923 3.54372V6.81791H36.458V10.0543H32.6923V13.7217H37.1688V16.9052L29.0476 16.9127V0.390503H29.04H37.0176V3.54372H32.6923Z" fill="black"/>
<path d="M21.8331 14.5003V3.6039H19.4512V0.397766H28.0715V3.6039H25.6744V16.8671H24.6536L21.8331 14.5003Z" fill="black"/>
<path d="M23.3757 16.8898L14.9899 9.85748L6.29395 16.8898H23.3757Z" fill="#FFC400"/>
<path d="M17.4088 0.412842H12.6071L9.80176 12.9803L15.0193 8.76849L20.4561 13.3055L17.4088 0.412842ZM14.0892 7.9745L15.0193 3.22578L15.8965 7.96695L14.0892 7.9745Z" fill="black"/>
</svg>
