<svg width="33" height="33" viewBox="0 0 33 33" fill="none" xmlns="http://www.w3.org/2000/svg">
<path d="M14.5166 17.7179H18.4284V16.4377H18.0016C18.0016 16.6735 17.908 16.8996 17.7412 17.0664C17.5745 17.2331 17.3484 17.3268 17.1126 17.3268H16.5169V15.3709H17.157V14.9352H14.5166V15.3709H15.1745V17.3268H14.5166V17.7179Z" fill="black"/>
<path d="M20.3144 17.7178H21.8346L23.1415 15.3262H23.7905V14.8906H21.8346V15.3262H22.4036L21.4524 17.0688L20.51 15.3262H21.1945V14.8906H18.3496V15.3262H18.9986L20.3144 17.7178Z" fill="black"/>
<path d="M6.7207 14.8906H3.89355V15.3262H4.54255L5.85833 17.7178H7.37859L8.6677 15.3262H9.31669V14.8906H7.3697V15.3262H7.93868L6.98741 17.0688L6.03614 15.3262H6.7207V14.8906Z" fill="black"/>
<path d="M12.4015 16.3137C12.4015 16.8293 12.1792 17.3539 11.6903 17.345C11.2013 17.3361 11.0057 16.8027 11.0057 16.287C11.0057 15.7714 11.2813 15.2646 11.7258 15.2824C12.1703 15.3002 12.4015 15.7714 12.4015 16.3137ZM9.73438 16.3137C9.73438 17.1405 10.41 17.8073 11.7525 17.8073C13.0949 17.8073 13.7528 17.1494 13.7528 16.3137C13.7528 15.478 13.0594 14.8379 11.7436 14.8379C10.4278 14.8379 9.73438 15.4869 9.73438 16.3137Z" fill="black"/>
<path d="M26.1911 15.2824C26.6445 15.2824 26.8756 15.7714 26.8579 16.3137C26.8401 16.856 26.6267 17.3272 26.1555 17.3272C25.6843 17.3272 25.4709 16.7849 25.4709 16.2692C25.4709 15.7536 25.7377 15.2646 26.1911 15.2824ZM24.1641 16.3137C24.1641 17.1405 24.8308 17.8073 26.1733 17.8073C27.5157 17.8073 28.1825 17.1494 28.1825 16.3137C28.1825 15.478 27.4802 14.8379 26.1644 14.8379C24.8486 14.8379 24.1641 15.4869 24.1641 16.3137Z" fill="black"/>
<path d="M29.3828 7.32516L27.7381 8.96102C29.6262 11.8455 30.3793 15.327 29.8521 18.734C29.3249 22.141 27.5546 25.232 24.8829 27.4108C22.2112 29.5896 18.8272 30.7019 15.3838 30.533C11.9404 30.3641 8.68158 28.9261 6.23588 26.4963C3.79018 24.0664 2.33093 20.817 2.13962 17.3748C1.94831 13.9326 3.03849 10.5414 5.19986 7.85558C7.36124 5.16971 10.4407 3.37941 13.8441 2.82999C17.2476 2.28057 20.734 3.01096 23.6307 4.8803L25.2754 3.2356C21.9652 0.950393 17.9201 -0.0145645 13.9348 0.530336C9.94948 1.07524 6.31191 3.09057 3.73662 6.18049C1.16132 9.27041 -0.165587 13.2116 0.0165444 17.2299C0.198676 21.2482 1.87668 25.0531 4.72095 27.8974C7.56522 30.7417 11.3702 32.4197 15.3885 32.6018C19.4068 32.7839 23.3479 31.4571 26.4378 28.8818C29.5278 26.3065 31.5431 22.6689 32.088 18.6835C32.6329 14.6982 31.668 10.6532 29.3828 7.34296V7.32516Z" fill="black"/>
<path d="M24.2178 0.986633V1.44005C25.1922 1.9678 26.1124 2.59014 26.9649 3.29811L24.6712 5.59185C25.5361 6.27448 26.3178 7.05625 27.0005 7.92113L29.2942 5.61855C29.9959 6.47265 30.6178 7.38918 31.1523 8.35675H31.5879V0.986633H24.2178Z" fill="black"/>
</svg>
