<svg width="182" height="64" viewBox="0 0 182 64" fill="none" xmlns="http://www.w3.org/2000/svg">
<path fill-rule="evenodd" clip-rule="evenodd" d="M0.378429 26.1016C0.612662 25.9668 0.90147 25.9661 1.13638 26.0998L9.44554 30.8284C9.47272 30.8417 9.4992 30.8568 9.52481 30.8735L17.5582 35.4452C17.6599 35.4693 17.7568 35.5142 17.8422 35.5789C17.8737 35.6027 17.9031 35.6288 17.9301 35.6568L23.7491 38.9683H36.4342V37.4603C36.4342 37.0439 36.7741 36.7064 37.1933 36.7064H41.5199L41.5198 27.5079H39.6222C39.203 27.5079 38.8632 27.1704 38.8632 26.754C38.8632 26.3376 39.203 26 39.6222 26H55.4863C55.9055 26 56.2453 26.3376 56.2453 26.754C56.2453 27.1704 55.9055 27.5079 55.4863 27.5079H43.0379L43.0379 45.8294H48.0406L49.886 37.2278C49.9607 36.8797 50.2702 36.631 50.6284 36.631H76.436C81.7131 36.631 86 40.8892 86 46.131V56.8373C86 57.2537 85.6602 57.5913 85.241 57.5913H82.1653C81.786 61.1927 78.72 64 74.9939 64C71.2677 64 68.2017 61.1927 67.8224 57.5913H53.0178C52.6385 61.1927 49.5725 64 45.8463 64C42.1202 64 39.0542 61.1927 38.6749 57.5913H37.1933C36.7741 57.5913 36.4342 57.2537 36.4342 56.8373V54.8616L25.5649 48.676C25.4595 48.6525 25.359 48.6065 25.2709 48.5397C25.237 48.514 25.2057 48.4857 25.1771 48.4553L17.2199 43.927C17.1129 43.9038 17.0108 43.8575 16.9214 43.7897C16.8864 43.7631 16.854 43.7337 16.8245 43.702L0.381715 34.3447C0.145631 34.2103 0 33.9607 0 33.6905V26.754C0 26.4851 0.144196 26.2365 0.378429 26.1016ZM19.3947 43.4268L24.9726 46.6011V41.9157L19.3947 43.4268ZM26.4907 42.2663V46.9533L32.0705 45.4418L26.4907 42.2663ZM34.6355 45.1636C34.6069 45.1332 34.5756 45.105 34.5419 45.0794C34.4538 45.0126 34.3534 44.9666 34.248 44.9431L26.3988 40.4762H36.4342V46.1872L34.6355 45.1636ZM33.3221 46.6657L27.7423 48.1773L33.3221 51.3526V46.6657ZM34.8402 52.2165V47.0179L36.4342 47.9251V53.1237L34.8402 52.2165ZM37.9523 54.4392C37.9525 54.4299 37.9525 54.4207 37.9523 54.4114V47.5027C37.9525 47.4934 37.9525 47.4841 37.9523 47.4749V39.733C37.9524 39.7294 37.9524 39.7258 37.9524 39.7222C37.9524 39.7187 37.9524 39.7151 37.9523 39.7115V38.2143H41.5199V46.5833C41.5199 46.9997 41.8597 47.3373 42.2789 47.3373H48.6549C49.0131 47.3373 49.3226 47.0885 49.3973 46.7405L51.2427 38.1389H76.436C80.8747 38.1389 84.4819 41.722 84.4819 46.131V56.0833H82.1653C81.786 52.4819 78.72 49.6746 74.9939 49.6746C71.2677 49.6746 68.2017 52.4819 67.8224 56.0833H53.0178C52.6385 52.4819 49.5725 49.6746 45.8463 49.6746C42.1202 49.6746 39.0542 52.4819 38.6749 56.0833H37.9523V54.4392ZM23.7229 40.6912L18.1412 37.5148V42.2033L23.7229 40.6912ZM15.3806 35.9438L9.86761 32.8064V37.451L15.3806 35.9438ZM8.34951 37.1411V32.4825L2.74311 33.9506L8.34951 37.1411ZM1.51809 32.712V28.0549L7.12261 31.2443L1.51809 32.712ZM11.0663 38.6872L16.6231 41.8495V37.1681L11.0663 38.6872ZM70.5154 42.5873C70.5154 42.1709 70.8552 41.8333 71.2744 41.8333H79.0926C79.5118 41.8333 79.8516 42.1709 79.8516 42.5873C79.8516 43.0037 79.5118 43.3413 79.0926 43.3413H71.2744C70.8552 43.3413 70.5154 43.0037 70.5154 42.5873ZM70.5154 45.3016C70.5154 44.8852 70.8552 44.5476 71.2744 44.5476H79.0926C79.5118 44.5476 79.8516 44.8852 79.8516 45.3016C79.8516 45.718 79.5118 46.0556 79.0926 46.0556H71.2744C70.8552 46.0556 70.5154 45.718 70.5154 45.3016ZM45.8463 51.1825C42.7023 51.1825 40.1535 53.7143 40.1535 56.8373C40.1535 59.9603 42.7023 62.4921 45.8463 62.4921C48.9904 62.4921 51.5392 59.9603 51.5392 56.8373C51.5392 53.7143 48.9904 51.1825 45.8463 51.1825ZM74.9939 51.1825C71.8498 51.1825 69.301 53.7143 69.301 56.8373C69.301 59.9603 71.8498 62.4921 74.9939 62.4921C78.1379 62.4921 80.6867 59.9603 80.6867 56.8373C80.6867 53.7143 78.1379 51.1825 74.9939 51.1825ZM45.8464 54.4246C44.5049 54.4246 43.4174 55.5048 43.4174 56.8373C43.4174 58.1698 44.5049 59.25 45.8464 59.25C47.1879 59.25 48.2753 58.1698 48.2753 56.8373C48.2753 55.5048 47.1879 54.4246 45.8464 54.4246ZM41.8993 56.8373C41.8993 54.672 43.6665 52.9167 45.8464 52.9167C48.0263 52.9167 49.7934 54.672 49.7934 56.8373C49.7934 59.0026 48.0263 60.7579 45.8464 60.7579C43.6665 60.7579 41.8993 59.0026 41.8993 56.8373ZM74.9939 54.4246C73.6524 54.4246 72.5649 55.5048 72.5649 56.8373C72.5649 58.1698 73.6524 59.25 74.9939 59.25C76.3354 59.25 77.4228 58.1698 77.4228 56.8373C77.4228 55.5048 76.3354 54.4246 74.9939 54.4246ZM71.0469 56.8373C71.0469 54.672 72.814 52.9167 74.9939 52.9167C77.1738 52.9167 78.9409 54.672 78.9409 56.8373C78.9409 59.0026 77.1738 60.7579 74.9939 60.7579C72.814 60.7579 71.0469 59.0026 71.0469 56.8373Z" fill="#FF671F"/>
</svg>
