<svg width="88" height="64" viewBox="0 0 88 64" fill="none" xmlns="http://www.w3.org/2000/svg">
<path fill-rule="evenodd" clip-rule="evenodd" d="M13.8009 26.4646C13.8009 26.0423 14.1461 25.7 14.5719 25.7H35.6974C36.1232 25.7 36.4684 26.0423 36.4684 26.4646C36.4684 26.8869 36.1232 27.2292 35.6974 27.2292H33.3073V38.698H42.2509C44.2488 38.698 45.8753 40.2654 45.9491 42.2287L61.1639 44.1331C64.4682 44.5643 67 47.3274 67 50.702C67 51.1243 66.6548 51.4666 66.229 51.4666L38.6272 51.4666C38.4227 51.4666 38.2266 51.386 38.082 51.2427C37.9374 51.0993 37.8562 50.9048 37.8562 50.702C37.8562 49.1259 36.5718 47.7966 34.9263 47.7966L23.5926 47.7966C23.383 47.7966 23.1824 47.7119 23.037 47.5621L17.1774 41.5218C17.0392 41.3794 16.962 41.1894 16.962 40.9917V27.2292H14.5719C14.1461 27.2292 13.8009 26.8869 13.8009 26.4646ZM18.504 27.2292V35.1809H21.4338C22.8347 35.1809 24.1562 36.0741 24.5653 37.494C24.773 38.215 25.4562 38.698 26.214 38.698H31.7653V27.2292H18.504ZM31.7653 40.2272H26.214C24.8131 40.2272 23.4917 39.3339 23.0826 37.9141C22.8749 37.1931 22.1917 36.7101 21.4338 36.7101H18.504V40.6837L23.9208 46.2674H31.7653V40.2272ZM33.3073 46.2674L34.9263 46.2674C37.1716 46.2674 38.9684 47.8854 39.3312 49.9374L44.4097 49.9374L44.4097 42.9032C44.4097 42.9015 44.4097 42.8999 44.4097 42.8982V42.368C44.4097 41.1846 43.4442 40.2272 42.2509 40.2272H33.3073V46.2674ZM45.9517 49.9374H65.4007C65.0623 47.7038 63.2623 45.95 60.9645 45.6494C60.9639 45.6493 60.9633 45.6493 60.9627 45.6492L45.9517 43.7704L45.9517 49.9374ZM11.9552 52.3841C12.0373 51.0366 13.1955 49.9374 14.5719 49.9374H31.7653C34.1852 49.9374 36.237 51.875 36.237 54.372C36.237 54.4724 36.2175 54.5682 36.1821 54.656C36.3623 56.1111 37.6196 57.201 39.0898 57.201C39.2104 57.201 39.3246 57.2285 39.4263 57.2775H58.2106C58.6364 57.2775 58.9816 57.6198 58.9816 58.042C58.9816 58.4643 58.6364 58.8066 58.2106 58.8066H21.7422C21.3164 58.8066 20.9712 58.4643 20.9712 58.042C20.9712 57.6198 21.3164 57.2775 21.7422 57.2775H35.7797C35.0617 56.4968 34.618 55.4567 34.618 54.2956C34.618 54.1952 34.6375 54.0994 34.6729 54.0116C34.4927 52.5565 33.2354 51.4666 31.7653 51.4666H14.5719C13.9954 51.4666 13.4925 51.9653 13.4925 52.537V53.1433C13.4925 53.1451 13.4925 53.1469 13.4925 53.1487L13.4925 57.3657C14.923 57.701 15.9597 58.9545 15.9597 60.4887C15.9597 62.2873 14.5351 63.7 12.7215 63.7H3.23821C1.42459 63.7 0 62.2873 0 60.4887C0 58.6902 1.42459 57.2775 3.2382 57.2775L6.09093 57.2775V54.4485C6.09093 53.3381 7.05292 52.3841 8.17263 52.3841H11.9552ZM11.9505 53.9133H8.17263C7.90455 53.9133 7.63293 54.1826 7.63293 54.4485V57.2775L11.9505 57.2775V53.9133ZM12.7215 58.8066L3.23821 58.8066C2.27622 58.8066 1.542 59.5347 1.542 60.4887C1.542 61.4427 2.27621 62.1708 3.23821 62.1708H12.7215C13.6835 62.1708 14.4177 61.4427 14.4177 60.4887C14.4177 59.5347 13.6835 58.8066 12.7215 58.8066ZM17.0391 58.042C17.0391 54.9437 19.6202 52.3841 22.7445 52.3841H31.7652C32.191 52.3841 32.5362 52.7264 32.5362 53.1487C32.5362 53.571 32.191 53.9133 31.7652 53.9133H22.7445C20.4718 53.9133 18.5811 55.7883 18.5811 58.042C18.5811 60.2958 20.4718 62.1708 22.7445 62.1708H57.9022C60.1749 62.1708 62.0656 60.2958 62.0656 58.042C62.0656 55.7883 60.1749 53.9133 57.9022 53.9133H38.7813C38.3555 53.9133 38.0103 53.571 38.0103 53.1487C38.0103 52.7264 38.3555 52.3841 38.7813 52.3841H57.9022C61.0265 52.3841 63.6076 54.9437 63.6076 58.042C63.6076 61.1404 61.0265 63.7 57.9022 63.7H22.7445C19.6202 63.7 17.0391 61.1404 17.0391 58.042Z" fill="#FF671F"/>
</svg>
