<svg width="88" height="64" viewBox="0 0 88 64" fill="none" xmlns="http://www.w3.org/2000/svg">
<path d="M0.443822 51.1529C0.491246 50.9697 0.686211 50.8599 0.875906 50.907C1.06033 50.9593 1.17099 51.1529 1.11829 51.3361L0.84429 52.3356C0.791597 52.5187 0.601901 52.6286 0.412206 52.5815C0.22778 52.5292 0.117124 52.3356 0.169817 52.1524L0.443822 51.1529Z" fill="#FF671F"/>
<path d="M1.52403 50.368C1.719 50.368 1.87181 50.5249 1.87181 50.7186C1.87181 50.9122 1.71373 51.0639 1.51876 51.0639C1.31326 51.0639 1.18153 51.1477 1.11829 51.3465C1.06033 51.5297 0.860098 51.6343 0.675672 51.5768C0.491246 51.5192 0.385859 51.3256 0.443822 51.1424C0.601901 50.6453 1.00764 50.368 1.52403 50.368Z" fill="#FF671F"/>
<path d="M2.97836 54.2718C2.84136 54.4079 2.61478 54.3974 2.48305 54.2613C2.35132 54.12 2.35658 53.895 2.49886 53.7642L3.47368 52.8484C3.61595 52.7176 3.83726 52.7228 3.97426 52.8641C4.106 53.0054 4.10073 53.2252 3.95846 53.356L2.97836 54.2718Z" fill="#FF671F"/>
<path d="M5.98714 51.446C6.16103 51.5244 6.2348 51.7338 6.15049 51.9117C6.07145 52.0844 5.86068 52.1577 5.68152 52.0739L3.92684 51.2419C3.74768 51.1581 3.67391 50.9488 3.75822 50.7761C3.84253 50.5982 4.0533 50.5249 4.22719 50.6087L5.98714 51.446Z" fill="#FF671F"/>
<path d="M3.83199 50.5092C4.02169 50.5197 4.16923 50.6872 4.15869 50.8756C4.14815 51.0692 3.97953 51.2157 3.78984 51.2052L1.50295 51.0639C1.30799 51.0535 1.16045 50.886 1.17099 50.6976C1.18153 50.504 1.35014 50.3575 1.54511 50.368L3.83199 50.5092Z" fill="#FF671F"/>
<path d="M4.26408 53.2043C4.07438 53.2357 3.88996 53.1101 3.85307 52.9217C3.81618 52.7333 3.94265 52.5501 4.13234 52.5187L5.66572 52.2309C5.85541 52.1943 6.03984 52.3199 6.07145 52.5083C6.10834 52.6966 5.98187 52.8798 5.79218 52.9164L4.26408 53.2043Z" fill="#FF671F"/>
<path d="M4.12181 52.5187C4.3115 52.4769 4.49593 52.592 4.54335 52.7804C4.58551 52.9688 4.46431 53.1572 4.27988 53.199C4.13761 53.2304 4.05857 53.2671 3.94792 53.3612C3.80565 53.4921 3.58433 53.4764 3.45787 53.3351C3.32614 53.1938 3.33668 52.974 3.48422 52.8432C3.68445 52.6653 3.85834 52.5815 4.12181 52.5187Z" fill="#FF671F"/>
<path d="M5.82906 52.906C5.63937 52.9583 5.4444 52.8536 5.39171 52.6705C5.33902 52.4821 5.4444 52.2885 5.6341 52.2361C5.73949 52.2047 5.7711 52.1367 5.67098 52.0687C5.50237 51.9797 5.43387 51.7652 5.52344 51.5977C5.61302 51.425 5.82906 51.3622 5.99768 51.4512L6.12415 51.5297C6.31911 51.6919 6.39815 51.8384 6.42977 52.0896C6.43504 52.21 6.4245 52.2623 6.39815 52.3774C6.356 52.4873 6.32965 52.5344 6.26115 52.6339C6.18211 52.7228 6.13995 52.7594 6.03984 52.8222C5.9608 52.8641 5.91337 52.8798 5.82906 52.906Z" fill="#FF671F"/>
<path d="M0.00119902 52.4664C0.00119902 52.2728 0.159279 52.1158 0.348974 52.1158C0.543939 52.1158 0.702018 52.2728 0.702018 52.4664V57.307C0.702018 57.5006 0.543939 57.6576 0.348974 57.6576C0.159279 57.6576 0.00119902 57.5006 0.00119902 57.307V52.4664Z" fill="#FF671F"/>
<path d="M0.443822 51.1791C0.491245 50.975 0.68621 50.8546 0.875906 50.9122C1.06033 50.9645 1.17099 51.1738 1.11829 51.3779L0.781058 52.7176C0.733634 52.9217 0.538669 53.042 0.354243 52.9845C0.164548 52.9321 0.0591615 52.7228 0.106585 52.5187L0.443822 51.1791Z" fill="#FF671F"/>
<path d="M0.322627 57.9611C0.169817 57.8407 0.143471 57.6209 0.259396 57.4692C0.38059 57.3174 0.601901 57.2913 0.754712 57.4064L1.993 58.364C2.14581 58.4792 2.17216 58.6989 2.05623 58.8507C1.94031 59.0025 1.719 59.0339 1.56619 58.9135L0.322627 57.9611Z" fill="#FF671F"/>
<path d="M13.2799 62.1998C13.3326 62.383 13.2219 62.5766 13.0322 62.629C12.8478 62.6813 12.6528 62.5714 12.6054 62.383L12.5896 62.3307C12.5369 62.1423 12.6476 61.9539 12.832 61.9016C13.0164 61.8492 13.2114 61.9591 13.2641 62.1423L13.2799 62.1998Z" fill="#FF671F"/>
<path d="M13.2641 62.1475C13.3168 62.3307 13.2061 62.5243 13.0164 62.5766C12.8267 62.6237 12.637 62.5138 12.5843 62.3254L12.4842 61.9487C12.4315 61.7603 12.5474 61.5666 12.7319 61.5195C12.9216 61.4672 13.1113 61.5823 13.164 61.7655L13.2641 62.1475Z" fill="#FF671F"/>
<path d="M13.164 61.755C13.2114 61.9434 13.1007 62.1318 12.911 62.1841C12.7266 62.2312 12.5316 62.1213 12.4842 61.9382L11.9467 59.9496C11.8993 59.7665 12.01 59.5729 12.1944 59.5258C12.3841 59.4734 12.5791 59.5833 12.6265 59.7717L13.164 61.755Z" fill="#FF671F"/>
<path d="M12.6528 62.3254C12.6528 62.1318 12.8109 61.9748 13.0059 61.9748C13.1956 61.9748 13.3536 62.1318 13.3536 62.3254C13.3536 62.5191 13.1956 62.676 13.0059 62.676C12.8109 62.676 12.6528 62.5191 12.6528 62.3254Z" fill="#FF671F"/>
<path d="M6.35073 55.6376C6.58258 55.758 6.64054 56.0039 6.48773 56.1871C6.32965 56.365 6.01876 56.4121 5.78691 56.2917L0.364782 53.4345C0.132932 53.3089 0.0697002 53.0682 0.22778 52.885C0.38059 52.7071 0.696749 52.66 0.928599 52.7804L6.35073 55.6376Z" fill="#FF671F"/>
<path d="M13.1745 61.8178C13.1956 62.0115 13.0533 62.1841 12.8636 62.2051C12.6686 62.226 12.4947 62.0847 12.4737 61.8963V61.8859C12.4526 61.6922 12.5896 61.5195 12.7846 61.4986C12.9743 61.4777 13.1481 61.6137 13.1692 61.8074L13.1745 61.8178Z" fill="#FF671F"/>
<path d="M13.4959 59.4944C13.4959 59.688 13.3378 59.845 13.1481 59.845C12.9532 59.845 12.7951 59.688 12.7951 59.4944V58.9972C12.7951 58.8088 12.9532 58.6518 13.1481 58.6518C13.3378 58.6518 13.4959 58.8088 13.4959 58.9972V59.4944Z" fill="#FF671F"/>
<path d="M16.5837 58.9868C16.5837 58.7984 16.7418 58.6414 16.9368 58.6414C17.1318 58.6414 17.2898 58.7984 17.2898 58.9868V59.6304C17.2898 59.824 17.1318 59.981 16.9368 59.981C16.7418 59.981 16.5837 59.824 16.5837 59.6304V58.9868Z" fill="#FF671F"/>
<path d="M18.4227 62.3254C18.4227 62.1318 18.5808 61.9748 18.7758 61.9748C18.9707 61.9748 19.1288 62.1318 19.1288 62.3254C19.1288 62.5191 18.9707 62.676 18.7758 62.676C18.5808 62.676 18.4227 62.5191 18.4227 62.3254Z" fill="#FF671F"/>
<path d="M13.0059 62.676C12.8109 62.676 12.6528 62.5191 12.6528 62.3254C12.6528 62.1318 12.8109 61.9748 13.0059 61.9748H18.7758C18.9707 61.9748 19.1288 62.1318 19.1288 62.3254C19.1288 62.5191 18.9707 62.676 18.7758 62.676H13.0059Z" fill="#FF671F"/>
<path d="M12.9901 62.676C12.7951 62.676 12.637 62.5191 12.637 62.3254C12.637 62.1318 12.7951 61.9748 12.9901 61.9748H18.7916C18.9865 61.9748 19.1446 62.1318 19.1446 62.3254C19.1446 62.5191 18.9865 62.676 18.7916 62.676H12.9901Z" fill="#FF671F"/>
<path d="M19.5029 60.9282C19.6979 60.9282 19.856 61.0852 19.856 61.2788C19.856 61.4725 19.6979 61.6294 19.5029 61.6294H19.113C18.918 61.6294 18.76 61.4725 18.76 61.2788C18.76 61.0852 18.918 60.9282 19.113 60.9282H19.5029Z" fill="#FF671F"/>
<path d="M12.6686 60.9282C12.8636 60.9282 13.0217 61.0852 13.0217 61.2788C13.0217 61.4725 12.8636 61.6294 12.6686 61.6294H11.4145C11.2196 61.6294 11.0615 61.4725 11.0615 61.2788C11.0615 61.0852 11.2196 60.9282 11.4145 60.9282H12.6686Z" fill="#FF671F"/>
<path d="M19.308 61.8963C19.2869 62.0847 19.1077 62.226 18.918 62.2051C18.7231 62.1841 18.5861 62.0115 18.6072 61.8178V61.8074C18.6282 61.6137 18.8021 61.4777 18.9971 61.4986C19.1868 61.5195 19.3291 61.6922 19.308 61.8859V61.8963Z" fill="#FF671F"/>
<path d="M5.04394 59.4787C5.29159 59.4787 5.49183 59.6357 5.49183 59.8293C5.49183 60.0229 5.29159 60.1799 5.04394 60.1799H2.03516C1.79277 60.1799 1.59253 60.0229 1.59253 59.8293C1.59253 59.6357 1.79277 59.4787 2.03516 59.4787H5.04394Z" fill="#FF671F"/>
<path d="M5.98714 51.446C6.16103 51.5244 6.2348 51.7338 6.15049 51.9117C6.07145 52.0844 5.86068 52.1577 5.68152 52.0739L3.92684 51.2419C3.74768 51.1581 3.67391 50.9488 3.75822 50.7761C3.84253 50.5982 4.0533 50.5249 4.22719 50.6087L5.98714 51.446Z" fill="#FF671F"/>
<path d="M21.2524 53.9473C21.442 53.9473 21.6001 54.1043 21.6001 54.298C21.6001 54.4916 21.442 54.6486 21.2524 54.6486H20.541C20.346 54.6486 20.188 54.4916 20.188 54.298C20.188 54.1043 20.346 53.9473 20.541 53.9473H21.2524Z" fill="#FF671F"/>
<path d="M22.0744 56.7052C22.0744 56.8988 21.9163 57.0558 21.7213 57.0558C21.5264 57.0558 21.3683 56.8988 21.3683 56.7052V54.7794C21.3683 54.5858 21.5264 54.4288 21.7213 54.4288C21.9163 54.4288 22.0744 54.5858 22.0744 54.7794V56.7052Z" fill="#FF671F"/>
<path d="M19.2974 61.9382C19.25 62.1213 19.055 62.2312 18.8654 62.1841C18.6809 62.1318 18.5703 61.9434 18.6177 61.755L19.1973 59.6147C19.2447 59.4316 19.4397 59.3164 19.6241 59.3688C19.8138 59.4159 19.9245 59.6095 19.8771 59.7979L19.2974 61.9382Z" fill="#FF671F"/>
<path d="M19.1762 62.383C19.1236 62.5714 18.9339 62.6813 18.7442 62.629C18.5597 62.5766 18.4491 62.383 18.5018 62.1998L18.5176 62.1423C18.5703 61.9591 18.76 61.8492 18.9497 61.9016C19.1341 61.9539 19.2447 62.1423 19.1921 62.3307L19.1762 62.383Z" fill="#FF671F"/>
<path d="M19.1921 62.3254C19.1446 62.5138 18.9497 62.6237 18.7652 62.5766C18.5755 62.5243 18.4649 62.3307 18.5123 62.1475L18.6177 61.7655C18.6651 61.5823 18.8601 61.4672 19.0445 61.5195C19.2342 61.5666 19.3449 61.7603 19.2974 61.9487L19.1921 62.3254Z" fill="#FF671F"/>
<path d="M19.9139 54.2299C20.0404 54.0886 20.267 54.0729 20.4093 54.1985C20.5568 54.3241 20.5726 54.5491 20.4409 54.6904L19.4661 55.7998C19.3396 55.9464 19.113 55.9621 18.9707 55.8365C18.8232 55.7056 18.8074 55.4859 18.9391 55.3446L19.9139 54.2299Z" fill="#FF671F"/>
<path d="M7.1622 58.4478C7.35717 58.4478 7.51524 58.6047 7.51524 58.7984C7.51524 58.992 7.35717 59.149 7.1622 59.149H7.14639C6.95143 59.149 6.79335 58.992 6.79335 58.7984C6.79335 58.6047 6.95143 58.4478 7.14639 58.4478H7.1622Z" fill="#FF671F"/>
<path d="M13.048 58.4478C13.243 58.4478 13.4011 58.6047 13.4011 58.7984C13.4011 58.992 13.243 59.149 13.048 59.149H7.1622C6.96724 59.149 6.80916 58.992 6.80916 58.7984C6.80916 58.6047 6.96724 58.4478 7.1622 58.4478H13.048Z" fill="#FF671F"/>
<path d="M7.12005 59.149C6.92508 59.149 6.767 58.992 6.767 58.7984C6.767 58.6047 6.92508 58.4478 7.12005 58.4478H7.14639C7.34136 58.4478 7.49944 58.6047 7.49944 58.7984C7.49944 58.992 7.34136 59.149 7.14639 59.149H7.12005Z" fill="#FF671F"/>
<path d="M11.3197 59.149C11.1247 59.149 10.9666 58.992 10.9666 58.7984C10.9666 58.6047 11.1247 58.4478 11.3197 58.4478H19.034C19.2289 58.4478 19.387 58.6047 19.387 58.7984C19.387 58.992 19.2289 59.149 19.034 59.149H11.3197Z" fill="#FF671F"/>
<path d="M19.034 59.149C18.839 59.149 18.6809 58.992 18.6809 58.7984C18.6809 58.6047 18.839 58.4478 19.034 58.4478H20.0351C20.2301 58.4478 20.3829 58.6047 20.3829 58.7984C20.3829 58.992 20.2301 59.149 20.0351 59.149H19.034Z" fill="#FF671F"/>
<path d="M4.81209 56.9406C4.61712 56.9511 4.4485 56.8046 4.43796 56.611C4.42743 56.4173 4.57497 56.2551 4.76993 56.2446L7.12532 56.0981C7.31501 56.0877 7.48363 56.2342 7.49417 56.4278C7.50471 56.6162 7.35717 56.7836 7.16747 56.7941L4.81209 56.9406Z" fill="#FF671F"/>
<path d="M7.16747 56.7941C6.97251 56.8046 6.80389 56.6581 6.79335 56.4697C6.78281 56.276 6.93035 56.1086 7.12532 56.0981L18.8495 55.3864C19.0392 55.376 19.2079 55.5225 19.2184 55.7161C19.2289 55.9045 19.0814 56.072 18.8864 56.0824L7.16747 56.7941Z" fill="#FF671F"/>
<path d="M18.9128 55.3341C19.1025 55.3236 19.2711 55.4754 19.2816 55.6638C19.2869 55.8574 19.1394 56.0196 18.9497 56.0301L6.02403 56.7104C5.82906 56.7209 5.66572 56.5691 5.65518 56.3807C5.64464 56.1871 5.79745 56.0249 5.98714 56.0144L18.9128 55.3341Z" fill="#FF671F"/>
<path d="M4.69616 56.2132C4.92801 56.2132 5.11244 56.3702 5.11244 56.5639C5.11244 56.7523 4.92801 56.9092 4.69616 56.9092H1.97719C1.75061 56.9092 1.56619 56.7523 1.56619 56.5639C1.56619 56.3702 1.75061 56.2132 1.97719 56.2132H4.69616Z" fill="#FF671F"/>
<path d="M20.2986 59.0286C20.1721 59.1751 19.9456 59.1856 19.8033 59.06C19.6558 58.9344 19.6399 58.7146 19.7717 58.5681L21.3367 56.7889C21.4631 56.6424 21.6844 56.6319 21.832 56.7575C21.9795 56.8831 21.9901 57.1029 21.8636 57.2494L20.2986 59.0286Z" fill="#FF671F"/>
<path d="M18.9233 56.0615C18.7442 56.1348 18.5387 56.051 18.4649 55.8731C18.3911 55.6952 18.4754 55.4911 18.6546 55.4178L19.0656 55.2504C19.2447 55.1771 19.4502 55.2608 19.524 55.4388C19.5978 55.6167 19.5135 55.8208 19.3343 55.894L18.9233 56.0615Z" fill="#FF671F"/>
<path d="M3.83199 50.5092C4.02169 50.5197 4.16923 50.6872 4.15869 50.8756C4.14815 51.0692 3.97953 51.2157 3.78984 51.2052L1.50295 51.0639C1.30799 51.0535 1.16045 50.886 1.17099 50.6976C1.18153 50.504 1.35014 50.3575 1.54511 50.368L3.83199 50.5092Z" fill="#FF671F"/>
<path d="M4.26408 53.2043C4.07438 53.2357 3.88996 53.1101 3.85307 52.9217C3.81618 52.7333 3.94265 52.5501 4.13234 52.5187L5.66572 52.2309C5.85541 52.1943 6.03984 52.3199 6.07145 52.5083C6.10834 52.6966 5.98187 52.8798 5.79218 52.9164L4.26408 53.2043Z" fill="#FF671F"/>
<path d="M0.00119911 57.3384C-0.0146088 57.1447 0.127663 56.972 0.322628 56.9563C0.512323 56.9406 0.686211 57.0819 0.702018 57.2756C0.707288 57.3331 0.707288 57.3698 0.754712 57.4116C0.907522 57.532 0.933868 57.7518 0.812674 57.9035C0.69148 58.05 0.470169 58.0762 0.317358 57.9558C0.132932 57.8093 0.0538924 57.6419 0.00646855 57.4168L0.00119911 57.3384Z" fill="#FF671F"/>
<path d="M5.3074 60.1747C5.11244 60.1851 4.94909 60.0334 4.94382 59.8397C4.93328 59.6514 5.08609 59.4891 5.27578 59.4787C5.48129 59.4734 5.59194 59.4368 5.75529 59.3164C5.91337 59.2013 6.13468 59.2327 6.24534 59.3897C6.36126 59.5467 6.32965 59.7612 6.17157 59.8764C5.89756 60.0805 5.64991 60.1642 5.3074 60.1747Z" fill="#FF671F"/>
<path d="M4.12181 52.5187C4.3115 52.4769 4.49593 52.592 4.54335 52.7804C4.58551 52.9688 4.46431 53.1572 4.27988 53.199C4.13761 53.2304 4.05857 53.2671 3.94792 53.3612C3.80565 53.4921 3.58433 53.4764 3.45787 53.3351C3.32614 53.1938 3.33668 52.974 3.48422 52.8432C3.68445 52.6653 3.85834 52.5815 4.12181 52.5187Z" fill="#FF671F"/>
<path d="M1.52403 50.368C1.719 50.368 1.87181 50.5249 1.87181 50.7186C1.87181 50.9122 1.71373 51.0639 1.51876 51.0639C1.31326 51.0639 1.18153 51.1477 1.11829 51.3465C1.06033 51.5297 0.860098 51.6343 0.675672 51.5768C0.491246 51.5192 0.385859 51.3256 0.443822 51.1424C0.601901 50.6453 1.00764 50.368 1.52403 50.368Z" fill="#FF671F"/>
<path d="M4.20611 50.6034C4.39054 50.6715 4.47485 50.8756 4.40108 51.0535C4.33258 51.2366 4.12707 51.3204 3.94265 51.2471C3.88469 51.2262 3.84253 51.2052 3.7793 51.2052C3.58434 51.1843 3.44206 51.0169 3.45787 50.8232C3.47895 50.6348 3.64757 50.4935 3.83726 50.5092C3.97953 50.5197 4.07965 50.5511 4.20611 50.6034Z" fill="#FF671F"/>
<path d="M5.82906 52.906C5.63937 52.9583 5.4444 52.8536 5.39171 52.6705C5.33902 52.4821 5.4444 52.2885 5.6341 52.2361C5.73949 52.2047 5.7711 52.1367 5.67098 52.0687C5.50237 51.9797 5.43387 51.7652 5.52344 51.5977C5.61302 51.425 5.82906 51.3622 5.99768 51.4512L6.12415 51.5297C6.31911 51.6919 6.39815 51.8384 6.42977 52.0896C6.43504 52.21 6.4245 52.2623 6.39815 52.3774C6.356 52.4873 6.32965 52.5344 6.26115 52.6339C6.18211 52.7228 6.13995 52.7594 6.03984 52.8222C5.9608 52.8641 5.91337 52.8798 5.82906 52.906Z" fill="#FF671F"/>
<path d="M1.44499 56.8046C1.4608 56.5168 1.65576 56.297 1.88235 56.3179C2.1142 56.3336 2.28281 56.5848 2.27227 56.8726C2.24066 57.4325 2.16162 59.1124 2.23539 59.5258C2.23539 59.8136 2.04569 60.0491 1.81911 60.0491C1.58726 60.0491 1.40284 59.8136 1.40284 59.5258C1.40284 58.5995 1.39757 57.7308 1.44499 56.8046Z" fill="#FF671F"/>
<path d="M21.8847 57.2232C21.7687 57.3802 21.5474 57.4116 21.3946 57.3017C21.2365 57.1866 21.2049 56.9668 21.3156 56.815C21.3577 56.7627 21.363 56.7575 21.3683 56.6947C21.3736 56.5063 21.5316 56.3545 21.7266 56.3545C21.9216 56.3598 22.0744 56.5168 22.0691 56.7104C22.0691 56.7732 22.0586 56.8412 22.048 56.904C22.0059 57.0453 21.969 57.1081 21.8847 57.2232Z" fill="#FF671F"/>
<path d="M18.918 56.0824C18.7284 56.1086 18.5492 55.9778 18.5176 55.7841C18.4912 55.5958 18.623 55.4178 18.8179 55.3917C18.8864 55.3812 18.897 55.3812 18.9497 55.3289C19.0867 55.1928 19.308 55.1876 19.445 55.3236C19.5872 55.4545 19.5873 55.6795 19.4502 55.8155C19.2974 55.9778 19.1394 56.0458 18.918 56.0824Z" fill="#FF671F"/>
<path d="M22.0691 54.748C22.0849 54.9416 21.9426 55.1091 21.7477 55.1248C21.558 55.1405 21.3841 54.9992 21.3683 54.8056C21.3577 54.7061 21.3419 54.659 21.2313 54.6486C21.0363 54.6433 20.8835 54.4864 20.8888 54.2927C20.8888 54.0991 21.0521 53.9473 21.2418 53.9526C21.363 53.9526 21.4684 53.9787 21.5791 54.0206C21.8689 54.1671 21.9953 54.3503 22.0638 54.6643L22.0691 54.748Z" fill="#FF671F"/>
<path d="M20.5094 53.9526C20.7043 53.9317 20.873 54.0782 20.894 54.2666C20.9098 54.4602 20.7676 54.6276 20.5726 54.6486C20.4461 54.659 20.4672 54.68 20.3618 54.7585C20.2406 54.8317 20.0773 54.8265 19.9614 54.7323C19.8349 54.6381 19.798 54.4707 19.856 54.3294C19.8718 54.2875 19.8981 54.2456 19.9403 54.209C20.0193 54.1305 20.0668 54.0991 20.1616 54.0415C20.267 53.9944 20.3197 53.9787 20.4303 53.9578L20.5094 53.9526Z" fill="#FF671F"/>
<path d="M18.839 62.6708C18.644 62.697 18.4702 62.5609 18.4438 62.3725C18.428 62.226 18.4965 62.0952 18.6124 62.0271C18.7178 61.9382 18.8654 61.9173 18.9971 61.9801C19.171 62.069 19.2395 62.2783 19.1552 62.4458L19.1025 62.5295C19.0709 62.5662 19.0287 62.6028 18.9813 62.6289L18.9707 62.6342C18.9339 62.6499 18.897 62.6656 18.8548 62.6708H18.839Z" fill="#FF671F"/>
<path d="M12.6212 62.4406C12.5422 62.2679 12.6159 62.0585 12.7951 61.9748C12.9216 61.9173 13.0638 61.9434 13.1692 62.0271C13.2746 62.0899 13.3431 62.2103 13.3378 62.3411C13.3273 62.5348 13.1692 62.6813 12.9795 62.676C12.9005 62.6656 12.8794 62.6656 12.8056 62.6342C12.7688 62.6133 12.7319 62.5871 12.7003 62.5557C12.6739 62.5243 12.6476 62.4929 12.6318 62.451L12.6212 62.4406Z" fill="#FF671F"/>
<path d="M29.404 9.3619C29.1985 9.42993 28.9561 9.36713 28.856 9.22584C28.7611 9.08455 28.8507 8.91186 29.0562 8.84906L30.6528 8.32576C30.8583 8.26296 31.1007 8.32052 31.1956 8.46181C31.2957 8.60834 31.2061 8.7758 31.0006 8.84383L29.404 9.3619Z" fill="#FF671F"/>
<path d="M21.305 2.92527C21.3683 2.74211 21.5738 2.64791 21.7529 2.71594C21.9374 2.77874 22.0322 2.98283 21.9637 3.16075L11.1827 32.5861C11.1195 32.7693 10.9192 32.8635 10.7348 32.7954C10.5504 32.7326 10.4608 32.5338 10.524 32.3506L21.305 2.92527Z" fill="#FF671F"/>
<path d="M23.4497 3.60033C23.3864 3.77825 23.1809 3.87244 23.0018 3.80965C22.8173 3.74162 22.7225 3.54276 22.791 3.35961L23.4286 1.61701C23.4918 1.43385 23.6973 1.33966 23.8765 1.40769C24.0609 1.47572 24.1557 1.67457 24.0872 1.85249L23.4497 3.60033Z" fill="#FF671F"/>
<path d="M13.1798 32.1622C13.1165 32.3454 12.911 32.4396 12.7319 32.3715C12.5474 32.3088 12.4526 32.1047 12.5211 31.9267L22.928 3.51137C22.9965 3.32821 23.1967 3.23925 23.3812 3.30204C23.5603 3.37007 23.6552 3.56893 23.5919 3.74685L13.1798 32.1622Z" fill="#FF671F"/>
<path d="M13.3642 31.7593C13.301 31.9424 13.0955 32.0366 12.9163 31.9686C12.7319 31.9058 12.637 31.7017 12.7055 31.5238L22.9596 3.52183C23.0281 3.34391 23.2284 3.24971 23.4128 3.31251C23.5919 3.38054 23.6868 3.57939 23.6235 3.76255L13.3642 31.7593Z" fill="#FF671F"/>
<path d="M28.6189 9.68112C28.7822 9.57645 28.9983 9.61832 29.1089 9.78054C29.2143 9.93753 29.1721 10.1573 29.0141 10.262L28.1183 10.8585C27.9549 10.9684 27.7389 10.9213 27.6282 10.7644C27.5228 10.6021 27.565 10.3876 27.7231 10.2777L28.6189 9.68112Z" fill="#FF671F"/>
<path d="M30.6686 10.5969C30.8056 10.4556 31.0269 10.4556 31.1692 10.5917C31.3062 10.7225 31.3062 10.9423 31.1745 11.0836L31.1587 11.0993C31.0217 11.2353 30.8004 11.2406 30.6634 11.1045C30.5211 10.9684 30.5211 10.7487 30.6581 10.6126L30.6686 10.5969Z" fill="#FF671F"/>
<path d="M29.4303 9.89044C29.4303 10.0841 29.2723 10.241 29.0773 10.241C28.8823 10.241 28.7242 10.0841 28.7242 9.89044V9.15781C28.7242 8.96419 28.8823 8.8072 29.0773 8.8072C29.2723 8.8072 29.4303 8.96419 29.4303 9.15781V9.89044Z" fill="#FF671F"/>
<path d="M31.2746 10.8376C31.2746 11.0312 31.1165 11.1882 30.9216 11.1882C30.7266 11.1882 30.5685 11.0312 30.5685 10.8376V10.7591C30.5685 10.5655 30.7266 10.4085 30.9216 10.4085C31.1165 10.4085 31.2746 10.5655 31.2746 10.7591V10.8376Z" fill="#FF671F"/>
<path d="M31.243 10.6702C31.243 10.8638 31.0849 11.0208 30.8899 11.0208C30.695 11.0208 30.5369 10.8638 30.5369 10.6702V10.1783C30.5369 9.98463 30.695 9.82764 30.8899 9.82764C31.0849 9.82764 31.243 9.98463 31.243 10.1783V10.6702Z" fill="#FF671F"/>
<path d="M31.3009 10.0945C31.3009 10.2881 31.1429 10.4451 30.9479 10.4451C30.7529 10.4451 30.5949 10.2881 30.5949 10.0945V9.30434C30.5949 9.11071 30.7529 8.95372 30.9479 8.95372C31.1429 8.95372 31.3009 9.11071 31.3009 9.30434V10.0945Z" fill="#FF671F"/>
<path d="M30.6159 3.84105C30.6159 3.64742 30.774 3.49043 30.969 3.49043C31.1639 3.49043 31.322 3.64742 31.322 3.84105V4.64693C31.322 4.84056 31.1639 4.99755 30.969 4.99755C30.774 4.99755 30.6159 4.84056 30.6159 4.64693V3.84105Z" fill="#FF671F"/>
<path d="M31.4011 10.105C31.4011 10.2986 31.243 10.4556 31.048 10.4556C30.8531 10.4556 30.695 10.2986 30.695 10.105V9.51889C30.695 9.32527 30.8531 9.16828 31.048 9.16828C31.243 9.16828 31.4011 9.32527 31.4011 9.51889V10.105Z" fill="#FF671F"/>
<path d="M31.4748 8.92756C31.4748 9.12118 31.3168 9.27817 31.1271 9.27817C30.9321 9.27817 30.774 9.12118 30.774 8.92756V7.23205C30.774 7.03843 30.9321 6.88144 31.1271 6.88144C31.3168 6.88144 31.4748 7.03843 31.4748 7.23205V8.92756Z" fill="#FF671F"/>
<path d="M31.4748 7.19019C31.4748 7.38381 31.3168 7.5408 31.1271 7.5408C30.9321 7.5408 30.774 7.38381 30.774 7.19019V4.79869C30.774 4.60507 30.9321 4.44808 31.1271 4.44808C31.3168 4.44808 31.4748 4.60507 31.4748 4.79869V7.19019Z" fill="#FF671F"/>
<path d="M31.4959 4.24399C31.4959 4.05037 31.654 3.89338 31.849 3.89338C32.0439 3.89338 32.202 4.05037 32.202 4.24399V4.64693C32.202 4.84056 32.0439 4.99231 31.849 4.99231C31.654 4.99231 31.4959 4.84056 31.4959 4.64693V4.24399Z" fill="#FF671F"/>
<path d="M33.5667 10.7801C33.5667 10.5864 33.7248 10.4294 33.9198 10.4294C34.1148 10.4294 34.2728 10.5864 34.2728 10.7801V10.8481C34.2728 11.0417 34.1148 11.1987 33.9198 11.1987C33.7248 11.1987 33.5667 11.0417 33.5667 10.8481V10.7801Z" fill="#FF671F"/>
<path d="M33.8934 9.59215C33.8934 9.40376 34.0515 9.24677 34.2465 9.24677C34.4415 9.24677 34.5995 9.40376 34.5995 9.59215V10.7277C34.5995 10.9213 34.4415 11.0783 34.2465 11.0783C34.0515 11.0783 33.8934 10.9213 33.8934 10.7277V9.59215Z" fill="#FF671F"/>
<path d="M28.2289 10.2986C28.308 10.4713 28.2342 10.6806 28.055 10.7644C27.8812 10.8428 27.6704 10.7696 27.5913 10.5917L22.8806 0.554702C22.7963 0.382011 22.8753 0.17269 23.0492 0.0941945C23.2283 0.010466 23.4339 0.0889616 23.5182 0.261652L28.2289 10.2986Z" fill="#FF671F"/>
<path d="M24.4561 0.559935C24.3665 0.36108 24.4508 0.130826 24.6511 0.0366314C24.846 -0.0523302 25.0831 0.0313982 25.1727 0.22502L29.2248 8.85953C29.3197 9.05838 29.2301 9.29387 29.0351 9.38283C28.8349 9.47702 28.5978 9.38806 28.5082 9.19444L24.4561 0.559935Z" fill="#FF671F"/>
<path d="M34.2465 10.3719C34.4415 10.3719 34.5995 10.5289 34.5995 10.7225C34.5995 10.9109 34.4415 11.0679 34.2465 11.0679H30.9057C30.7108 11.0679 30.558 10.9109 30.558 10.7225C30.558 10.5289 30.7108 10.3719 30.9057 10.3719H34.2465Z" fill="#FF671F"/>
<path d="M29.1774 10.4137C28.9824 10.4137 28.8244 10.2567 28.8244 10.0631C28.8244 9.8695 28.9824 9.71251 29.1774 9.71251H31.1797C31.3747 9.71251 31.5328 9.8695 31.5328 10.0631C31.5328 10.2567 31.3747 10.4137 31.1797 10.4137H29.1774Z" fill="#FF671F"/>
<path d="M34.647 9.15258C34.8419 9.15258 35 9.30957 35 9.50319C35 9.69681 34.8419 9.8538 34.647 9.8538H31.0796C30.8847 9.8538 30.7266 9.69681 30.7266 9.50319C30.7266 9.30957 30.8847 9.15258 31.0796 9.15258H34.647Z" fill="#FF671F"/>
<path d="M31.2272 7.48324C31.0322 7.48324 30.8741 7.32625 30.8741 7.13263C30.8741 6.94424 31.0322 6.78725 31.2272 6.78725H34.4889C34.6786 6.78725 34.8367 6.94424 34.8367 7.13263C34.8367 7.32625 34.6786 7.48324 34.4889 7.48324H31.2272Z" fill="#FF671F"/>
<path d="M30.9795 5.63598C31.1745 5.63598 31.3326 5.7511 31.3326 5.89763C31.3326 6.03892 31.1745 6.15928 30.9795 6.15928H29.3934C29.1985 6.15928 29.0404 6.03892 29.0404 5.89763C29.0404 5.7511 29.1985 5.63598 29.3934 5.63598H30.9795Z" fill="#FF671F"/>
<path d="M21.3894 3.32821C21.2102 3.26018 21.1154 3.06132 21.1839 2.87817C21.2471 2.70025 21.4473 2.60605 21.6317 2.66885L23.5709 3.37007C23.75 3.4381 23.8449 3.63696 23.7816 3.82011C23.7131 3.99804 23.5129 4.09223 23.3285 4.02944L21.3894 3.32821Z" fill="#FF671F"/>
<path d="M21.695 3.39624C21.5158 3.32821 21.421 3.12935 21.4842 2.9462C21.5527 2.76828 21.7529 2.67408 21.9374 2.74211L23.3337 3.24448C23.5129 3.31251 23.6077 3.51137 23.5445 3.68929C23.476 3.87245 23.2758 3.96664 23.0913 3.89861L21.695 3.39624Z" fill="#FF671F"/>
<path d="M30.969 4.99755C30.774 4.99755 30.6159 4.84056 30.6159 4.64693C30.6159 4.45331 30.774 4.29632 30.969 4.29632H34.5626C34.7576 4.29632 34.9157 4.45331 34.9157 4.64693C34.9157 4.84056 34.7576 4.99755 34.5626 4.99755H30.969Z" fill="#FF671F"/>
<path d="M30.0837 4.0399C29.8888 4.0399 29.7307 3.88291 29.7307 3.68929C29.7307 3.49567 29.8888 3.33868 30.0837 3.33868H31.2904C31.4801 3.33868 31.6382 3.49567 31.6382 3.68929C31.6382 3.88291 31.4801 4.0399 31.2904 4.0399H30.0837Z" fill="#FF671F"/>
<path d="M24.7723 0C24.9672 0 25.1253 0.156991 25.1253 0.350613C25.1253 0.544236 24.9672 0.701227 24.7723 0.701227H22.7383C22.5433 0.701227 22.3853 0.544236 22.3853 0.350613C22.3853 0.156991 22.5433 0 22.7383 0H24.7723Z" fill="#FF671F"/>
<path d="M24.4561 0.743091C24.5615 0.580867 24.7828 0.539002 24.9461 0.643663C25.1095 0.748324 25.1516 0.962878 25.0463 1.1251C24.767 1.54898 24.6194 1.98332 24.6353 2.49092C24.6405 2.68455 24.4824 2.84154 24.2928 2.84677C24.0978 2.852 23.9397 2.69501 23.9344 2.50662C23.9186 1.85249 24.0978 1.28733 24.4561 0.743091Z" fill="#FF671F"/>
<path d="M31.0269 11.026C30.8531 11.1202 30.6423 11.0574 30.5474 10.8847C30.4684 10.7382 30.5105 10.555 30.637 10.4504C30.7213 10.3457 30.8636 10.2986 31.0059 10.3352C31.1903 10.3876 31.3009 10.5812 31.2482 10.7696L31.2377 10.7957C31.2114 10.8795 31.1534 10.958 31.0638 11.0051L31.0269 11.026Z" fill="#FF671F"/>
<path d="M31.0164 11.0208C30.8425 11.1097 30.6317 11.0469 30.5369 10.8742C30.4578 10.7277 30.5 10.5446 30.6265 10.4399C30.7108 10.3457 30.8478 10.2986 30.9848 10.3352C31.1692 10.3876 31.2799 10.5812 31.2272 10.7696C31.2061 10.8638 31.1429 10.9527 31.048 10.9998L31.0164 11.0208Z" fill="#FF671F"/>
<path d="M32.1967 4.21783C32.2125 4.41145 32.065 4.5789 31.87 4.58937C31.6803 4.60507 31.5117 4.45854 31.4959 4.27016C31.4854 4.11316 31.4221 4.04514 31.2693 4.03467C31.0744 4.0242 30.9268 3.85675 30.9374 3.66836C30.9479 3.47473 31.1165 3.32821 31.3062 3.33868C31.8173 3.37007 32.1598 3.71545 32.1967 4.21783Z" fill="#FF671F"/>
<path d="M17.2424 20.3042C17.058 20.2361 16.9631 20.0373 17.0316 19.8541C17.0949 19.6762 17.2951 19.582 17.4795 19.6448L17.548 19.671C17.7272 19.739 17.822 19.9379 17.7588 20.1158C17.6903 20.2989 17.4901 20.3931 17.3056 20.3251L17.2424 20.3042Z" fill="#FF671F"/>
<path d="M17.0264 20.0425C17.0053 19.8541 17.137 19.6814 17.332 19.6553C17.5217 19.6291 17.7008 19.7652 17.7219 19.9536L18.0275 22.2299C18.0539 22.4183 17.9169 22.5962 17.7219 22.6224C17.5322 22.6433 17.3531 22.5125 17.332 22.3189L17.0264 20.0425Z" fill="#FF671F"/>
<path d="M16.2623 30.0376C16.0673 30.0271 15.9198 29.8597 15.9356 29.6661C15.9462 29.4724 16.1148 29.3312 16.3097 29.3416L17.2266 29.4097C17.4216 29.4201 17.5691 29.5876 17.5533 29.7812C17.5428 29.9748 17.3741 30.1161 17.1792 30.1056L16.2623 30.0376Z" fill="#FF671F"/>
<path d="M16.2465 29.9801C16.0515 29.9696 15.904 29.8021 15.9198 29.6085C15.9303 29.4201 16.099 29.2736 16.2939 29.2841L17.2529 29.3521C17.4479 29.3626 17.5902 29.53 17.5796 29.7236C17.5691 29.9173 17.4005 30.0585 17.2055 30.0481L16.2465 29.9801Z" fill="#FF671F"/>
<path d="M12.9479 34.1089C12.9268 34.2607 12.7477 34.3706 12.558 34.3392C12.363 34.313 12.2313 34.1665 12.2576 34.0095L12.6265 31.8168C12.6528 31.6599 12.8267 31.5552 13.0217 31.5814C13.2114 31.6075 13.3484 31.7593 13.322 31.9163L12.9479 34.1089Z" fill="#FF671F"/>
<path d="M16.6206 29.5928C16.6733 29.7812 16.5679 29.9748 16.3835 30.0271C16.1991 30.0795 16.0041 29.9748 15.9462 29.7864L15.9303 29.7289C15.8777 29.5457 15.983 29.3521 16.1727 29.2998C16.3572 29.2474 16.5521 29.3521 16.6048 29.5352L16.6206 29.5928Z" fill="#FF671F"/>
<path d="M16.4836 21.3717C16.4942 21.1519 16.6628 20.9845 16.8577 20.9949C17.0474 21.0106 17.195 21.2043 17.1844 21.4293L16.6997 29.3155C16.6891 29.5352 16.5205 29.7027 16.3255 29.687C16.1306 29.6765 15.9883 29.4829 15.9988 29.2579L16.4836 21.3717Z" fill="#FF671F"/>
<path d="M17.5428 29.4149C17.5269 29.6085 17.3583 29.7603 17.1686 29.7498C16.9737 29.7341 16.8261 29.5614 16.8419 29.3626L17.3214 22.3398C17.3372 22.141 17.5006 21.9944 17.6956 22.0049C17.8905 22.0206 18.0381 22.1881 18.0223 22.3869L17.5428 29.4149Z" fill="#FF671F"/>
<path d="M22.2904 0.230253C22.3589 0.0470972 22.5591 -0.0418644 22.7383 0.020932C22.9227 0.0889614 23.0176 0.287817 22.9491 0.470973L11.1827 32.5861C11.1195 32.7693 10.9192 32.8635 10.7348 32.7954C10.5504 32.7326 10.4608 32.5338 10.524 32.3506L22.2904 0.230253Z" fill="#FF671F"/>
<path d="M10.5925 32.2407C10.7137 32.089 10.935 32.068 11.0826 32.1884C11.2354 32.3088 11.2565 32.5285 11.1353 32.6803C11.0984 32.7274 11.072 32.7588 11.051 32.8164C10.9825 32.9995 10.777 33.0885 10.5978 33.0204C10.4134 32.9524 10.3238 32.7483 10.3923 32.5704C10.445 32.4396 10.5029 32.3454 10.5925 32.2407Z" fill="#FF671F"/>
<path d="M14.2284 42.194C14.0597 42.0998 14.0018 41.8852 14.0966 41.7178C14.1915 41.5503 14.4075 41.4927 14.5761 41.5869L15.0188 41.8381C15.1874 41.9323 15.2453 42.1469 15.1505 42.3143C15.0556 42.4818 14.8396 42.5393 14.671 42.4451L14.2284 42.194Z" fill="#FF671F"/>
<path d="M11.62 41.0688C11.4672 40.9537 11.4356 40.7339 11.5568 40.5822C11.6727 40.4304 11.894 40.399 12.0469 40.5194L13.2904 41.4718C13.4432 41.5922 13.4696 41.8119 13.3536 41.9637C13.2325 42.1155 13.0111 42.1416 12.8583 42.0265L11.62 41.0688Z" fill="#FF671F"/>
<path d="M13.2219 42.1469C13.027 42.1469 12.8689 41.9899 12.8689 41.8015C12.8689 41.6078 13.027 41.4509 13.2219 41.4509H13.6382C13.8279 41.4509 13.986 41.6078 13.986 41.8015C13.986 41.9899 13.8279 42.1469 13.6382 42.1469H13.2219Z" fill="#FF671F"/>
<path d="M15.6721 37.7145C15.8513 37.7877 15.9409 37.9918 15.8671 38.1698C15.7986 38.3477 15.5931 38.4366 15.414 38.3634L13.2114 37.4842C13.0322 37.411 12.9426 37.2069 13.0164 37.0289C13.0849 36.851 13.2904 36.7621 13.4696 36.8353L15.6721 37.7145Z" fill="#FF671F"/>
<path d="M10.0498 35.9876C9.88644 35.8829 9.83901 35.6684 9.93913 35.5061C10.0392 35.3439 10.2553 35.2916 10.4186 35.391L11.8308 36.2597C11.9942 36.3591 12.0469 36.5737 11.9467 36.7411C11.8414 36.9034 11.6253 36.9557 11.462 36.851L10.0498 35.9876Z" fill="#FF671F"/>
<path d="M10.8138 36.401C10.6505 36.2963 10.5978 36.0818 10.6979 35.9195C10.8033 35.7521 11.0193 35.705 11.1827 35.8044L11.8308 36.2021C11.9942 36.3068 12.0469 36.5213 11.9467 36.6836C11.8414 36.851 11.6253 36.8981 11.462 36.7987L10.8138 36.401Z" fill="#FF671F"/>
<path d="M12.0416 34.9881C12.2366 34.9881 12.3946 35.1451 12.3946 35.3334C12.3946 35.5271 12.2366 35.6841 12.0416 35.6841H11.8888C11.6938 35.6841 11.5357 35.5271 11.5357 35.3334C11.5357 35.1451 11.6938 34.9881 11.8888 34.9881H12.0416Z" fill="#FF671F"/>
<path d="M12.3419 34.2764C12.2155 34.1403 12.2207 33.9258 12.3577 33.7949C12.4948 33.6693 12.7108 33.6746 12.8425 33.8106L16.1306 37.2958C16.2623 37.4319 16.257 37.6464 16.12 37.7773C15.983 37.9029 15.7617 37.8976 15.6353 37.7616L12.3419 34.2764Z" fill="#FF671F"/>
<path d="M13.2799 36.6626C13.3695 36.8353 13.301 37.0446 13.1323 37.1336C12.9585 37.2226 12.7477 37.1545 12.6581 36.9871L11.9467 35.6265C11.8572 35.4538 11.9257 35.2445 12.0943 35.1555C12.2682 35.0666 12.4789 35.1346 12.5685 35.302L13.2799 36.6626Z" fill="#FF671F"/>
<path d="M14.1493 42.9213C14.2178 43.0993 14.123 43.2981 13.9385 43.3662C13.7541 43.429 13.5539 43.3348 13.4907 43.1516L13.0428 41.9166C12.9795 41.7334 13.0744 41.5346 13.2535 41.4718C13.438 41.409 13.6382 41.5032 13.7014 41.6811L14.1493 42.9213Z" fill="#FF671F"/>
<path d="M13.7436 41.4456C13.6803 41.2625 13.7752 41.0636 13.9544 41.0008C14.1388 40.938 14.339 41.0322 14.4022 41.2101L14.5182 41.5189C14.5814 41.702 14.4866 41.9009 14.3021 41.9637C14.123 42.0265 13.9227 41.9323 13.8542 41.7544L13.7436 41.4456Z" fill="#FF671F"/>
<path d="M11.2933 35.5742C11.2933 35.3805 11.4514 35.2235 11.6464 35.2235C11.8414 35.2235 11.9994 35.3805 11.9994 35.5742V40.4147C11.9994 40.6083 11.8414 40.7653 11.6464 40.7653C11.4514 40.7653 11.2933 40.6083 11.2933 40.4147V35.5742Z" fill="#FF671F"/>
<path d="M16.3782 29.7132C16.3993 29.5248 16.5732 29.3835 16.7629 29.4044C16.9579 29.4201 17.0949 29.5928 17.0791 29.7864L16.1833 38.3791C16.1622 38.5727 15.9883 38.714 15.7986 38.6931C15.6036 38.6721 15.4666 38.4994 15.4825 38.311L16.3782 29.7132Z" fill="#FF671F"/>
<path d="M10.3923 32.5756C10.4555 32.3925 10.661 32.2983 10.8402 32.3663C11.0246 32.4291 11.1195 32.6332 11.051 32.8111L10.2658 34.9514C10.2026 35.1346 10.0024 35.2288 9.81794 35.1608C9.63351 35.0927 9.54393 34.8939 9.60716 34.7159L10.3923 32.5756Z" fill="#FF671F"/>
<path d="M14.1335 41.88C14.0281 42.0422 13.8068 42.0893 13.6487 41.9846C13.4854 41.88 13.438 41.6602 13.5433 41.5032L15.6036 38.3529C15.709 38.1907 15.9303 38.1436 16.0884 38.2482C16.2518 38.3581 16.2992 38.5727 16.1938 38.7349L14.1335 41.88Z" fill="#FF671F"/>
<path d="M11.2986 40.4461C11.2775 40.2577 11.4198 40.085 11.6148 40.0693C11.8045 40.0536 11.9784 40.1949 11.9942 40.3833C11.9994 40.4461 12.0047 40.4828 12.0521 40.5246C12.2049 40.645 12.226 40.8648 12.1048 41.0113C11.9836 41.163 11.7623 41.184 11.6095 41.0636C11.4988 40.9747 11.4251 40.8752 11.3671 40.7444C11.3513 40.7182 11.3408 40.6921 11.3302 40.6607C11.3144 40.5769 11.3039 40.5299 11.2986 40.4461Z" fill="#FF671F"/>
<path d="M9.6019 34.7316C9.65459 34.5485 9.85482 34.4438 10.0392 34.4962C10.2237 34.5537 10.3291 34.7473 10.2764 34.9305C10.2131 35.1346 10.2553 35.2706 10.4292 35.3962C10.5767 35.4904 10.6294 35.6841 10.5504 35.8463C10.4713 36.0085 10.2764 36.0765 10.1077 36.0137C10.0814 36.0033 10.0498 35.9876 10.0234 35.9666C9.60716 35.6684 9.45435 35.2236 9.6019 34.7316Z" fill="#FF671F"/>
<path d="M12.5369 35.255C12.6528 35.4067 12.6212 35.6265 12.4684 35.7416C12.3156 35.8567 12.0943 35.8306 11.9784 35.6788C11.8097 35.6474 11.6885 35.4957 11.6938 35.323C11.6991 35.1294 11.8677 34.9776 12.0574 34.9881L12.147 34.9985L12.226 35.0195C12.2629 35.0299 12.2998 35.0456 12.3314 35.0666L12.3788 35.0927C12.421 35.1189 12.4579 35.1503 12.4895 35.1922L12.5369 35.255Z" fill="#FF671F"/>
<path d="M11.8308 34.9933C12.0205 34.9619 12.1997 35.0875 12.2313 35.2759C12.2629 35.4538 12.1522 35.6213 11.9836 35.6736C11.9362 35.8306 11.7781 35.9405 11.6095 35.9248C11.4145 35.9039 11.2775 35.7259 11.2986 35.5375L11.3039 35.5009C11.3039 35.4643 11.3144 35.4276 11.325 35.391L11.3566 35.3177C11.3724 35.2811 11.3935 35.2497 11.4198 35.2183L11.4725 35.1555C11.4988 35.1294 11.5305 35.1032 11.5673 35.0823L11.6148 35.0561C11.6569 35.0299 11.6991 35.0142 11.7465 35.0038L11.8308 34.9933Z" fill="#FF671F"/>
<path d="M13.8648 41.7805C13.7857 41.6026 13.8648 41.3985 14.0387 41.32C14.2178 41.2363 14.4233 41.3148 14.5076 41.4927C14.5287 41.5398 14.5287 41.5555 14.5761 41.5869C14.7395 41.6811 14.8027 41.8904 14.7079 42.0579C14.6183 42.2254 14.4022 42.2881 14.2336 42.194C14.0808 42.1155 13.986 41.9951 13.9017 41.8538L13.8648 41.7805Z" fill="#FF671F"/>
<path d="M14.7079 42.4608C14.5287 42.3876 14.4444 42.1835 14.5234 42.0056C14.5972 41.8276 14.8027 41.7439 14.9819 41.8224L15.024 41.8381C15.0398 41.8329 15.0398 41.8119 15.0451 41.7962C15.1241 41.6183 15.3296 41.5398 15.5088 41.6183C15.688 41.6916 15.767 41.9009 15.6932 42.0736L15.6247 42.2044L15.5773 42.2724L15.5246 42.3352L15.4719 42.3771C15.4508 42.398 15.4245 42.4137 15.3981 42.4294L15.3296 42.4661L15.2559 42.4975L15.1768 42.5184L15.0978 42.5341H15.0135C14.9186 42.5289 14.8712 42.5184 14.7816 42.4922L14.7079 42.4608Z" fill="#FF671F"/>
<path d="M12.911 42.0579C12.7371 41.9637 12.6739 41.7544 12.7635 41.5869C12.8583 41.4142 13.0691 41.3514 13.2377 41.4404L13.2799 41.4561C13.4696 41.4875 13.6013 41.6654 13.5697 41.8538C13.5381 42.0474 13.3589 42.173 13.164 42.1416L13.0902 42.1312C13.0533 42.1259 13.0164 42.1155 12.9795 42.0945L12.911 42.0579Z" fill="#FF671F"/>
<path d="M13.6962 42.1416C13.5012 42.173 13.322 42.0474 13.2904 41.859C13.2588 41.6654 13.3853 41.4875 13.575 41.4561C13.712 41.3148 13.9333 41.3043 14.0755 41.4352C14.2178 41.566 14.2284 41.7858 14.0966 41.9271L14.0439 41.9846C14.0176 42.0108 13.9912 42.0317 13.9544 42.0527L13.9069 42.0788C13.87 42.105 13.8226 42.1207 13.7752 42.1312L13.6962 42.1416Z" fill="#FF671F"/>
<path d="M12.6686 37.0028C12.5685 36.8406 12.6212 36.626 12.7898 36.5266C12.9532 36.4271 13.1692 36.4795 13.2693 36.6469C13.3378 36.7568 13.3642 36.783 13.4801 36.8406C13.654 36.9138 13.7383 37.1179 13.6645 37.2906C13.5908 37.4685 13.3905 37.5522 13.2114 37.4842C12.9584 37.3796 12.8056 37.233 12.6686 37.0028Z" fill="#FF671F"/>
<path d="M13.2114 42.4085C13.1429 42.2149 13.243 42.0003 13.4327 41.9323C13.6277 41.8643 13.8437 41.9637 13.9122 42.1573L18.7758 55.6167C18.8443 55.8051 18.7442 56.0196 18.5545 56.0877C18.3595 56.1557 18.1487 56.0563 18.075 55.8626L13.2114 42.4085Z" fill="#FF671F"/>
<path d="M6.18738 59.8816C6.04511 60.0124 5.82379 60.0072 5.68679 59.8711C5.55506 59.7298 5.56033 59.5101 5.7026 59.374L6.25588 58.8559C6.39288 58.7199 6.61419 58.7303 6.75119 58.8664C6.88293 59.0077 6.87766 59.2275 6.73539 59.3583L6.18738 59.8816Z" fill="#FF671F"/>
<path d="M7.10424 58.4687C7.29393 58.4478 7.47309 58.5838 7.49417 58.7722C7.51525 58.9658 7.37824 59.1385 7.18855 59.1647C6.98831 59.1856 6.88293 59.2327 6.73012 59.3688C6.58258 59.4944 6.36126 59.4839 6.2348 59.3374C6.10307 59.1961 6.11888 58.9763 6.26115 58.8455C6.51408 58.6257 6.767 58.5105 7.10424 58.4687Z" fill="#FF671F"/>
<path d="M21.2734 59.3583C21.4631 59.3583 21.6212 59.5153 21.6212 59.7089C21.6212 59.8973 21.4631 60.0543 21.2734 60.0543H9.55447C9.35951 60.0543 9.20143 59.8973 9.20143 59.7089C9.20143 59.5153 9.35951 59.3583 9.55447 59.3583H21.2734Z" fill="#FF671F"/>
<path d="M15.7143 41.9951C15.6827 42.1887 15.4983 42.3143 15.3086 42.2777C15.1189 42.2463 14.9924 42.0631 15.024 41.8747L15.6774 38.311C15.709 38.1227 15.8935 37.9971 16.0832 38.0285C16.2729 38.0651 16.3993 38.243 16.3677 38.4314L15.7143 41.9951Z" fill="#FF671F"/>
<path d="M34.8419 9.2206C34.8419 9.41423 34.6838 9.57122 34.4889 9.57122C34.2939 9.57122 34.1358 9.41423 34.1358 9.2206V4.79869C34.1358 4.60507 34.2939 4.44808 34.4889 4.44808C34.6838 4.44808 34.8419 4.60507 34.8419 4.79869V9.2206Z" fill="#FF671F"/>
<path d="M21.4842 59.4577C22.1165 59.4577 22.6856 59.7089 23.1019 60.1223C23.5182 60.5357 23.7711 61.1009 23.7711 61.7289C23.7711 62.3568 23.5182 62.9272 23.1019 63.3354C22.6856 63.7488 22.1165 64 21.4842 64C20.8519 64 20.2828 63.7488 19.8665 63.3354C19.4502 62.9272 19.1973 62.3568 19.1973 61.7289C19.1973 61.1009 19.4502 60.5357 19.8665 60.1223C20.2828 59.7089 20.8519 59.4577 21.4842 59.4577ZM22.6066 60.6142C22.3168 60.3316 21.9216 60.1537 21.4842 60.1537C21.0469 60.1537 20.6517 60.3316 20.3671 60.6142C20.0773 60.902 19.8981 61.2945 19.8981 61.7289C19.8981 62.1632 20.0773 62.5557 20.3671 62.8435C20.6517 63.1261 21.0469 63.304 21.4842 63.304C21.9216 63.304 22.3168 63.1261 22.6066 62.8435C22.8911 62.5557 23.0703 62.1632 23.0703 61.7289C23.0703 61.2945 22.8911 60.902 22.6066 60.6142Z" fill="#FF671F"/>
<path d="M9.44908 59.374C10.0814 59.374 10.6558 59.6304 11.0668 60.0386C11.483 60.452 11.7412 61.0172 11.7412 61.6451C11.7412 62.2731 11.483 62.8435 11.0668 63.2517C10.6558 63.6651 10.0814 63.9215 9.44908 63.9215C8.82204 63.9215 8.24768 63.6651 7.8314 63.2517C7.4204 62.8435 7.1622 62.2731 7.1622 61.6451C7.1622 61.0172 7.4204 60.452 7.8314 60.0386C8.24768 59.6304 8.82204 59.374 9.44908 59.374ZM10.5714 60.5357C10.2869 60.2479 9.88644 60.0752 9.44908 60.0752C9.01173 60.0752 8.61653 60.2479 8.33199 60.5305C8.04218 60.8183 7.86829 61.2108 7.86829 61.6451C7.86829 62.0795 8.04218 62.4772 8.33199 62.7598C8.61653 63.0424 9.01173 63.2203 9.44908 63.2203C9.88644 63.2203 10.2869 63.0424 10.5714 62.7598C10.856 62.4772 11.0351 62.0795 11.0351 61.6451C11.0351 61.2108 10.856 60.8183 10.5714 60.5357Z" fill="#FF671F"/>
<path d="M30.0574 3.33868C30.2523 3.32821 30.421 3.4695 30.4368 3.66312C30.4473 3.85675 30.2998 4.0242 30.1101 4.03467L30.0205 4.04514L29.9573 4.0556L29.894 4.07653L29.8466 4.10793L29.7939 4.1498L29.7518 4.19166L29.7096 4.24399L29.6833 4.30155L29.6622 4.36435L29.6516 4.42715L29.6464 4.48994C29.6358 4.68357 29.4725 4.83009 29.2775 4.81962C29.0826 4.80916 28.935 4.64693 28.9456 4.45331C28.9772 3.85675 29.3566 3.44857 29.9415 3.34914L30.0574 3.33868Z" fill="#FF671F"/>
<path d="M29.0246 4.43761C29.0246 4.24399 29.1353 4.087 29.2723 4.087C29.4145 4.087 29.5252 4.24399 29.5252 4.43761V5.77727C29.5252 5.97089 29.4145 6.12788 29.2723 6.12788C29.1353 6.12788 29.0246 5.97089 29.0246 5.77727V4.43761Z" fill="#FF671F"/>
<path d="M20.4409 54.1567C20.5041 54.3451 20.4093 54.5596 20.2143 54.6224C20.0246 54.6904 19.8138 54.5962 19.7453 54.4026L15.1558 41.7125C15.0873 41.5241 15.1874 41.3096 15.3771 41.2468C15.5668 41.1787 15.7775 41.2782 15.846 41.4666L20.4409 54.1567Z" fill="#FF671F"/>
</svg>
