<svg width="182" height="64" viewBox="0 0 182 64" fill="none" xmlns="http://www.w3.org/2000/svg">
<path fill-rule="evenodd" clip-rule="evenodd" d="M6.01032 24.1031C6.25538 23.9652 6.55715 23.9657 6.80177 24.1042L25.0629 34.4489C25.838 34.8737 26.504 35.4336 27.0434 36.0852V26.0077C27.0434 25.5813 27.3974 25.2355 27.8341 25.2355H40.0116C44.7183 25.2355 48.5516 28.9789 48.5516 33.5753V41.2201H60.8872C64.4599 41.2201 67.3579 43.9496 67.5221 47.3977H69.5063C69.7536 47.3977 69.9866 47.5107 70.1361 47.703L81.8391 62.7609C82.0207 62.9946 82.0511 63.3085 81.9175 63.5711C81.784 63.8338 81.5096 64 81.2093 64H72.5902C68.9114 64 65.9479 61.106 65.9479 57.5135L65.9479 53.8842H63.9711V57.4363C63.9711 57.6411 63.8878 57.8375 63.7395 57.9823C63.5912 58.1271 63.39 58.2085 63.1803 58.2085L59.9713 58.2085C59.58 61.4696 56.7406 64 53.2961 64C49.8515 64 47.0121 61.4696 46.6208 58.2085H39.9689C38.3087 61.6321 34.7384 64 30.6017 64C24.8807 64 20.243 59.471 20.243 53.8842C20.243 51.6624 20.9765 49.6079 22.2198 47.939V41.3745C22.2198 40.5712 21.8185 39.8972 21.1101 39.4935C21.11 39.4934 21.1102 39.4935 21.1101 39.4935L9.88428 33.1225V41.4517C9.88428 41.727 9.73423 41.9815 9.49043 42.1196C9.24664 42.2578 8.94596 42.2588 8.70122 42.1222L7.19574 41.2821V47.7726L8.2229 48.3501C8.60137 48.5629 8.73153 49.035 8.51362 49.4046C8.29572 49.7742 7.81226 49.9013 7.4338 49.6885L6.19425 48.9916C6.06354 48.9564 5.9464 48.8892 5.8522 48.7992L2.21713 46.7554C2.21666 46.7551 2.2162 46.7549 2.21573 46.7546C0.864303 45.9998 0 44.5868 0 42.9961C0 40.0216 2.89728 38.0749 5.61425 38.7872V30.2681C5.61408 30.2588 5.61408 30.2495 5.61425 30.2401V24.7722C5.61425 24.496 5.76527 24.2409 6.01032 24.1031ZM7.19574 31.5967V39.5033L8.30279 40.1211V32.225L7.19574 31.5967ZM9.06793 30.873L7.19574 29.8105V26.1129L24.2744 35.7876L24.2848 35.7934C26.0015 36.7322 27.0434 38.5533 27.0434 40.4479V44.381C25.8431 44.8097 24.7468 45.4491 23.8013 46.2532V41.3745C23.8013 40.0158 23.0957 38.8366 21.9066 38.1592L9.79315 31.2846C9.6606 31.0396 9.39703 30.8726 9.09354 30.8726C9.08497 30.8726 9.07643 30.8727 9.06793 30.873ZM23.4871 48.8634C23.6019 48.7787 23.6922 48.664 23.746 48.5313C25.3545 46.5693 27.8278 45.3127 30.6017 45.3127C35.4492 45.3127 39.3789 49.1503 39.3789 53.8842C39.3789 58.618 35.4492 62.4556 30.6017 62.4556C25.7542 62.4556 21.8245 58.618 21.8245 53.8842C21.8245 52.009 22.4411 50.2745 23.4871 48.8634ZM28.6249 43.9523C29.2648 43.8316 29.9257 43.7683 30.6017 43.7683C36.3227 43.7683 40.9604 48.2974 40.9604 53.8842C40.9604 54.8483 40.8223 55.7808 40.5644 56.6641H46.6208C47.0121 53.4029 49.8515 50.8726 53.2961 50.8726C56.7406 50.8726 59.58 53.4029 59.9713 56.6641L62.3896 56.6641V42.9839C61.9153 42.8412 61.4108 42.7645 60.8872 42.7645H48.5516V49.4826C48.5516 49.9091 48.1976 50.2548 47.7608 50.2548H42.3838C42.0563 50.2548 41.7627 50.0577 41.6454 49.759C39.9385 45.4104 35.6362 42.3012 30.6017 42.3012C29.9472 42.3012 29.2836 42.3815 28.6249 42.487V43.9523ZM28.6249 40.9232C29.2528 40.8294 29.9238 40.7568 30.6017 40.7568C32.8273 40.7568 34.9243 41.2915 36.7695 42.2345V26.7799H28.6249V40.9232ZM38.351 26.7799V43.1845C40.3454 44.5767 41.9351 46.4886 42.9155 48.7104H46.9701V33.5753C46.9701 29.8319 43.8449 26.7799 40.0116 26.7799H38.351ZM63.9711 43.7814V47.3977H65.9383C65.8461 45.9212 65.097 44.6246 63.9711 43.7814ZM65.9479 48.9421H63.9711V52.3398H65.9479L65.9479 48.9421ZM67.5294 53.1084C67.5294 53.1096 67.5294 53.1108 67.5294 53.112C67.5294 53.1132 67.5294 53.1143 67.5294 53.1155V57.5135C67.5294 60.253 69.7848 62.4556 72.5902 62.4556H79.6164L69.1137 48.9421H67.5294L67.5294 53.1084ZM48.1663 57.7523C48.2106 57.6559 48.2353 57.5489 48.2353 57.4363C48.2353 57.3237 48.2106 57.2167 48.1663 57.1202C48.3333 54.4954 50.5661 52.417 53.2961 52.417C56.1347 52.417 58.4359 54.6642 58.4359 57.4363C58.4359 60.2084 56.1347 62.4556 53.2961 62.4556C50.5661 62.4556 48.3333 60.3772 48.1663 57.7523ZM5.61425 40.4196C3.7434 39.6251 1.58148 40.9387 1.58148 42.9961C1.58148 44.0305 2.13992 44.9336 3.00177 45.4145L3.004 45.4157L5.61425 46.8834V40.4196ZM30.4436 49.7143C28.1727 49.7143 26.3317 51.512 26.3317 53.7297C26.3317 55.9474 28.1727 57.7452 30.4436 57.7452C32.7145 57.7452 34.5554 55.9474 34.5554 53.7297C34.5554 51.512 32.7145 49.7143 30.4436 49.7143ZM24.7502 53.7297C24.7502 50.6591 27.2992 48.1699 30.4436 48.1699C33.5879 48.1699 36.1369 50.6591 36.1369 53.7297C36.1369 56.8003 33.5879 59.2896 30.4436 59.2896C27.2992 59.2896 24.7502 56.8003 24.7502 53.7297ZM53.2961 55.5058C52.2043 55.5058 51.3192 56.3701 51.3192 57.4363C51.3192 58.5025 52.2043 59.3668 53.2961 59.3668C54.3878 59.3668 55.2729 58.5025 55.2729 57.4363C55.2729 56.3701 54.3878 55.5058 53.2961 55.5058ZM49.7377 57.4363C49.7377 55.5171 51.3308 53.9614 53.2961 53.9614C55.2613 53.9614 56.8544 55.5171 56.8544 57.4363C56.8544 59.3554 55.2613 60.9112 53.2961 60.9112C51.3308 60.9112 49.7377 59.3554 49.7377 57.4363Z" fill="#FF671F"/>
</svg>
