<svg width="182" height="64" viewBox="0 0 182 64" fill="none" xmlns="http://www.w3.org/2000/svg">
<g clip-path="url(#clip0_1242_5200)">
<path d="M4.85833 56.3174C5.91989 56.3174 6.87645 56.7505 7.57054 57.4469C8.26463 58.1376 8.69625 59.1032 8.69625 60.1626C8.69625 61.2278 8.26463 62.1876 7.57054 62.8841C6.87645 63.5806 5.91989 64.0137 4.85833 64.0137C3.80261 64.0137 2.84022 63.5806 2.15196 62.8841C1.45786 62.1876 1.02624 61.2278 1.02624 60.1626C1.02624 59.1032 1.45786 58.1376 2.15196 57.4469C2.84022 56.7505 3.80261 56.3174 4.85833 56.3174ZM38.8338 22.6994L22.3856 26.8666L38.758 31.0161C39.0205 31.0805 39.108 31.1039 39.178 31.1215C39.7321 31.2561 40.0062 31.3205 40.0062 31.7536H40.0121C40.0121 32.175 39.7321 32.2452 39.178 32.3798L38.758 32.4852L22.3389 36.7284L39.0438 41.0418L39.3063 41.112C39.8662 41.2525 40.1345 41.3169 40.0762 41.7851C40.0354 42.1597 39.8021 42.2123 39.3705 42.3118C39.2771 42.3353 39.1546 42.3587 38.9972 42.3996L22.3914 46.5902L39.6504 50.9446C39.9246 50.9621 40.1695 51.0792 40.3503 51.2606V51.2665C40.5487 51.4596 40.6711 51.7347 40.6711 52.0332V56.6919L39.8954 56.1652C39.4988 55.896 39.0672 55.6853 38.6005 55.539C38.1572 55.4043 37.679 55.3283 37.1832 55.3283C35.8533 55.3283 34.646 55.8726 33.7769 56.7446C32.902 57.6225 32.3654 58.8282 32.3654 60.1626V60.6601H9.68198V60.1626C9.68198 58.8282 9.13954 57.6225 8.27046 56.7446C7.39556 55.8726 6.18819 55.3283 4.85833 55.3283C4.15841 55.3283 3.49348 55.4746 2.89854 55.7438C2.27444 56.0247 1.72034 56.4344 1.27122 56.9319L0.407978 57.9034V52.0332C0.407978 51.7347 0.530465 51.4596 0.722944 51.2665C0.810435 51.1787 0.915423 51.1026 1.03208 51.0441L18.326 46.5902L1.72034 42.3996C1.55702 42.3587 1.44037 42.3353 1.34704 42.3118C0.909591 42.2123 0.682115 42.1597 0.635454 41.7851C0.582959 41.3169 0.845431 41.2525 1.4112 41.112L1.67368 41.0418L18.3727 36.7284L1.95948 32.4852L1.53952 32.3798C0.985416 32.2452 0.705446 32.175 0.705446 31.7536C0.711279 31.3205 0.985416 31.2561 1.53952 31.1215C1.60952 31.1039 1.69701 31.0805 1.95948 31.0161L18.3319 26.8666L1.87199 22.6994C1.46953 22.6819 1.1079 22.5122 0.839598 22.2429C0.559628 21.962 0.384647 21.5699 0.384647 21.1426V9.46063C0.384647 8.06183 0.956252 6.79765 1.87199 5.87292C2.78772 4.95404 4.05342 4.38633 5.4416 4.38633H35.5909C36.9849 4.38633 38.2447 4.95404 39.1605 5.87292C40.082 6.79765 40.6478 8.06183 40.6478 9.46063V21.1426C40.6478 21.5699 40.4728 21.962 40.1929 22.2429C39.9129 22.5239 39.5221 22.6994 39.0963 22.6994H38.8338ZM20.3558 27.3816L3.09686 31.7536L20.3558 36.2133L37.6206 31.7536L20.3558 27.3816ZM20.3558 47.1052L5.1383 50.9446H35.5792L20.3558 47.1052ZM20.3558 46.0751L37.6615 41.709L20.3558 37.2375L3.05603 41.709L20.3558 46.0751ZM20.3558 26.3574L34.7859 22.6994H5.93155L20.3558 26.3574ZM35.5909 5.38129H5.4416C4.32756 5.38129 3.31267 5.84366 2.57191 6.5811C1.83699 7.31854 1.38204 8.33691 1.38204 9.46063V13.0893C1.55119 13.0191 1.74367 12.984 1.93615 12.984H39.0963C39.2946 12.984 39.4813 13.0191 39.6563 13.0893V9.46063C39.6563 8.33691 39.1955 7.31854 38.4606 6.5811C37.7256 5.84366 36.7107 5.38129 35.5909 5.38129ZM1.38204 20.1008C1.38204 20.5398 1.55702 20.9436 1.84866 21.2304C2.14029 21.523 2.53692 21.7045 2.9802 21.7045H38.0523C38.4955 21.7045 38.8922 21.523 39.1838 21.2304C39.4754 20.9436 39.6563 20.5398 39.6563 20.1008V14.5349C39.6504 14.3827 39.5921 14.2423 39.4929 14.1428C39.388 14.0433 39.248 13.9789 39.0963 13.9789H1.93615C1.7845 13.9789 1.64451 14.0433 1.54536 14.1428H1.53952C1.44037 14.2423 1.38204 14.3827 1.38204 14.5349V20.1008ZM39.5863 51.9395H1.48703C1.4637 51.9395 1.44037 51.9512 1.4287 51.9688H1.42287C1.4112 51.9805 1.39954 52.0039 1.39954 52.0332V55.4804C1.73783 55.2288 2.10529 55.0122 2.49609 54.8366C3.21934 54.5147 4.01842 54.3333 4.85833 54.3333C6.46233 54.3333 7.9205 54.9829 8.97039 56.0423C9.91529 56.9846 10.5336 58.2546 10.6502 59.6651H31.3913C31.508 58.2546 32.1321 56.9846 33.0711 56.0423C34.1269 54.9829 35.5792 54.3333 37.1832 54.3333C37.7723 54.3333 38.3497 54.4211 38.8922 54.5908C39.1605 54.6728 39.4229 54.7781 39.6738 54.8952V52.0332C39.6738 52.0039 39.6679 51.9805 39.6504 51.9688C39.6329 51.9512 39.6096 51.9395 39.5863 51.9395ZM37.1832 56.3174C38.2447 56.3174 39.2013 56.7505 39.8954 57.4469C40.5895 58.1376 41.0153 59.1032 41.0153 60.1626C41.0153 61.2278 40.5895 62.1876 39.8954 62.8841C39.2013 63.5806 38.2447 64.0137 37.1832 64.0137C36.1275 64.0137 35.1651 63.5806 34.471 62.8841C33.7769 62.1876 33.3511 61.2278 33.3511 60.1626C33.3511 59.1032 33.7769 58.1376 34.471 57.4469C35.1651 56.7505 36.1275 56.3174 37.1832 56.3174ZM39.1896 58.1493C38.6764 57.6342 37.9706 57.3123 37.1832 57.3123C36.4016 57.3123 35.69 57.6342 35.1767 58.1493C34.6635 58.6643 34.3427 59.3783 34.3427 60.1626C34.3427 60.9527 34.6635 61.6667 35.1767 62.1818C35.69 62.6968 36.4016 63.0129 37.1832 63.0129C37.9706 63.0129 38.6764 62.6968 39.1896 62.1818C39.7029 61.6667 40.0237 60.9527 40.0237 60.1626C40.0237 59.3783 39.7029 58.6643 39.1896 58.1493ZM6.87062 58.1493C6.35734 57.6342 5.64575 57.3123 4.85833 57.3123C4.07675 57.3123 3.36516 57.6342 2.85188 58.1493C2.3386 58.6643 2.0178 59.3783 2.0178 60.1626C2.0178 60.9527 2.3386 61.6667 2.85188 62.1818C3.36516 62.6968 4.07675 63.0129 4.85833 63.0129C5.64575 63.0129 6.35734 62.6968 6.87062 62.1818C7.38389 61.6667 7.69886 60.9527 7.69886 60.1626C7.69886 59.3783 7.38389 58.6643 6.87062 58.1493Z" fill="#FF671F"/>
<path fill-rule="evenodd" clip-rule="evenodd" d="M5.44159 4.57267C4.10422 4.57267 2.8849 5.11943 2.00241 6.00484C1.1191 6.89693 0.569321 8.11453 0.569321 9.46063V21.1426C0.569321 21.518 0.723076 21.8632 0.969821 22.1108C1.2066 22.3484 1.52506 22.4978 1.87995 22.5133L1.89871 22.5141L18.3768 26.6858L18.3769 27.0473L2.00446 31.1969L2.00309 31.1972C1.81094 31.2443 1.71416 31.2691 1.64774 31.2861C1.62354 31.2923 1.60336 31.2975 1.58407 31.3023L1.58274 31.3026C1.29235 31.3732 1.12147 31.4165 1.01452 31.4838C0.968358 31.5128 0.941883 31.5422 0.924551 31.5762C0.906271 31.6121 0.891445 31.6664 0.89012 31.7548C0.89026 31.8391 0.90435 31.8905 0.921807 31.9245C0.938516 31.957 0.964841 31.9864 1.01196 32.0158C1.12002 32.0834 1.29339 32.1284 1.58274 32.1986L1.58408 32.199L2.00531 32.3046L18.4185 36.5479L18.4185 36.9089L1.72101 41.2219L1.71947 41.2223L1.45533 41.293C1.31195 41.3286 1.19608 41.3574 1.0998 41.3882C1.003 41.4192 0.939793 41.4482 0.897781 41.478C0.860077 41.5048 0.840683 41.5313 0.828987 41.5645C0.815738 41.6021 0.807673 41.6625 0.818827 41.763C0.828326 41.8384 0.845389 41.8853 0.863714 41.9165C0.88116 41.9462 0.904665 41.9702 0.941045 41.9927C1.02644 42.0453 1.15716 42.0776 1.38765 42.1301L1.39161 42.131C1.42957 42.1405 1.47171 42.1501 1.52264 42.1616L1.54797 42.1674C1.60964 42.1814 1.68121 42.1978 1.76489 42.2188L18.3708 46.4094L18.3717 46.7707L1.09753 51.2195C1.005 51.2681 0.922158 51.3294 0.853167 51.3986C0.69427 51.558 0.592651 51.7861 0.592651 52.0332V57.4164L1.13369 56.8075L1.13467 56.8064C1.60059 56.2903 2.17544 55.8653 2.82328 55.5736C3.4423 55.2936 4.13292 55.1419 4.85832 55.1419C6.23902 55.1419 7.49241 55.7072 8.40025 56.612L8.40113 56.6129C9.30275 57.5237 9.86665 58.776 9.86665 60.1626V60.4737H9.68197L9.68198 60.6601H9.86665V60.4737H32.1807V60.6601H32.3654L32.3654 60.4737H32.1807V60.1626C32.1807 58.7765 32.7384 57.5239 33.6466 56.6125C34.5489 55.7071 35.8026 55.1419 37.1832 55.1419C37.6976 55.1419 38.1938 55.2209 38.6538 55.3605L38.6553 55.361C39.1394 55.5128 39.5872 55.7314 39.9985 56.0106L40.4865 56.3419V56.6919H40.6711L40.7743 56.5373L40.4865 56.3419V52.0332C40.4865 51.7863 40.3851 51.5593 40.2221 51.4005L40.1656 51.3456V51.3424C40.1845 51.3585 40.2027 51.3752 40.2201 51.3927L40.3503 51.2606H40.1656V51.3424C40.0227 51.221 39.8407 51.1435 39.6387 51.1305L39.6219 51.1295L22.3466 46.7709L22.3466 46.4094L38.951 42.2192L38.9972 42.3996L38.9523 42.2189C39.0337 42.1977 39.1053 42.1813 39.1678 42.1673C39.2318 42.1529 39.2822 42.142 39.3259 42.131L39.3293 42.1302C39.5572 42.0776 39.6879 42.0455 39.7735 41.9927C39.81 41.9702 39.8331 41.9464 39.85 41.9172C39.8679 41.8865 39.8844 41.84 39.8926 41.7647L39.893 41.7619C39.9055 41.661 39.8978 41.6009 39.8849 41.5637C39.8736 41.5311 39.8545 41.5048 39.8168 41.478C39.7747 41.4482 39.7115 41.4192 39.6149 41.3882C39.5202 41.3577 39.4067 41.3292 39.2672 41.2942L39.2617 41.2929L39.2589 41.2922L38.998 41.2223L39.0438 41.0418L38.9965 41.2219L22.2931 36.9089L22.2931 36.5479L38.7122 32.3046L38.7134 32.3043L39.1334 32.199L39.1347 32.1986C39.4241 32.1284 39.5975 32.0834 39.7055 32.0158C39.7526 31.9864 39.779 31.957 39.7957 31.9245C39.8064 31.9037 39.8158 31.8763 39.8215 31.8389V31.9399H40.012L40.0121 31.7536H40.1909C40.1909 31.6884 40.1856 31.6262 40.1737 31.5672H40.1967V31.7536C40.1967 31.8793 40.1759 31.9943 40.1236 32.096C40.0705 32.1994 39.9922 32.275 39.9001 32.3326C39.7339 32.4365 39.4982 32.4937 39.2413 32.5561L39.2225 32.5606L39.178 32.3798L39.2212 32.561L38.8038 32.6657L38.758 32.4852L38.8026 32.666L23.0835 36.7283L22.3847 36.5478L22.3389 36.7284L22.3848 36.9089L23.0835 36.7283L39.0912 40.8617L39.3508 40.9312L39.3063 41.112L39.3536 40.9319L39.3646 40.9347C39.4973 40.9679 39.6208 40.9989 39.7271 41.0331C39.8365 41.0683 39.9417 41.111 40.0294 41.1733C40.1214 41.2387 40.1935 41.3251 40.2336 41.4406C40.2719 41.5512 40.276 41.6742 40.2596 41.8069L40.2598 41.8055L40.0762 41.7851L40.2594 41.8083L40.2596 41.8069C40.2473 41.9183 40.2194 42.0184 40.1687 42.1056C40.1169 42.1948 40.0472 42.2606 39.9662 42.3106C39.8232 42.3988 39.6319 42.4428 39.4369 42.4877L39.415 42.4927L39.3705 42.3118L39.4116 42.4935L39.4132 42.4931C39.3737 42.503 39.3293 42.5129 39.2827 42.5233C39.2712 42.5258 39.2596 42.5284 39.2479 42.531C39.1867 42.5448 39.119 42.5604 39.0433 42.5801L39.042 42.5804L23.1526 46.5901L22.4362 46.4094L22.3914 46.5902L22.4362 46.7709L23.1526 46.5901L39.6795 50.7599C39.6737 50.7594 39.6679 50.759 39.6621 50.7586L39.6504 50.9446L39.6952 50.7638L39.6795 50.7599C39.9922 50.7841 40.2725 50.9197 40.4806 51.1285L40.535 51.1831V51.1912C40.5169 51.1709 40.498 51.1513 40.4786 51.1324L40.3503 51.2665H40.535V51.1912C40.7351 51.4139 40.8558 51.7122 40.8558 52.0332V57.0419L39.7923 56.3198C39.4105 56.0606 38.9953 55.8579 38.5463 55.7171L38.5473 55.7174L38.6005 55.539L38.5463 55.7171C38.1199 55.5877 37.6599 55.5146 37.1832 55.5146C35.9041 55.5146 34.743 56.038 33.9071 56.8767C33.0655 57.7212 32.55 58.8799 32.55 60.1626V60.8464H9.49728V60.1626C9.49728 58.8807 8.97654 57.7219 8.14037 56.8769C7.29843 56.0378 6.13719 55.5146 4.85832 55.5146C4.18401 55.5146 3.54488 55.6555 2.97411 55.9138C2.374 56.1839 1.84049 56.5782 1.40826 57.0568L0.223282 58.3904V52.0332C0.223282 51.6833 0.366637 51.3612 0.592699 51.1344C0.694547 51.0322 0.815828 50.9445 0.949834 50.8772L0.96739 50.8684L17.5722 46.592L18.2812 46.7709L18.326 46.5902L18.2804 46.4096L17.5722 46.592L1.67576 42.5805C1.59612 42.5605 1.52771 42.5448 1.4669 42.5309L1.4419 42.5253C1.39231 42.514 1.3462 42.5036 1.30439 42.4932L1.30642 42.4936L1.34704 42.3118L1.30247 42.4927L1.28559 42.4889C1.08597 42.4436 0.892689 42.3997 0.748336 42.3106C0.667333 42.2606 0.597879 42.195 0.54588 42.1064C0.494851 42.0194 0.46606 41.9196 0.452199 41.8083L0.451928 41.806C0.437026 41.6731 0.442074 41.5502 0.480904 41.4398C0.521338 41.3249 0.593079 41.2387 0.685154 41.1733C0.772919 41.111 0.878132 41.0682 0.98803 41.033C1.09662 40.9982 1.22329 40.9668 1.36015 40.9328L1.36385 40.9319L1.4112 41.112L1.36706 40.9311L1.62632 40.8617L1.62786 40.8613L17.6283 36.7283L18.3269 36.9089L18.3727 36.7284L18.3269 36.5479L17.6283 36.7283L1.9149 32.666L1.95948 32.4852L1.91363 32.6657L1.49628 32.561L1.53952 32.3798L1.49495 32.5606L1.47622 32.5561C1.21923 32.4937 0.983546 32.4365 0.817407 32.3326C0.725269 32.275 0.64697 32.1994 0.593869 32.096C0.541602 31.9943 0.52075 31.8793 0.52075 31.7536V31.751C0.522466 31.6237 0.544057 31.5079 0.596046 31.4058C0.649072 31.3018 0.726856 31.2255 0.819226 31.1674C0.982279 31.065 1.21253 31.0091 1.46361 30.9482C1.47427 30.9457 1.48496 30.9431 1.49569 30.9405C1.51313 30.9361 1.53209 30.9312 1.55512 30.9253C1.62138 30.9084 1.72126 30.8828 1.91517 30.8352L17.5734 26.8667L18.2869 27.0473L18.3319 26.8666L18.2869 26.6858L17.5734 26.8667L1.84473 22.8847C1.85115 22.885 1.85757 22.8853 1.864 22.8856L1.87199 22.6994L1.82703 22.8802L1.84473 22.8847C1.40243 22.8605 1.0049 22.6716 0.709353 22.375C0.396158 22.0608 0.199951 21.6217 0.199951 21.1426V9.46063C0.199951 8.00924 0.793296 6.69856 1.74133 5.74122C2.69029 4.789 4.00269 4.2 5.44159 4.2H35.5908C37.0357 4.2 38.3418 4.78866 39.2907 5.7408C40.2453 6.69869 40.8325 8.00972 40.8325 9.46063V21.1426C40.8325 21.6217 40.6363 22.0608 40.3231 22.375C40.0099 22.6893 39.5728 22.8858 39.0963 22.8858H38.8567L23.1438 26.8666L38.8016 30.8351C38.9956 30.8826 39.0961 30.9084 39.1624 30.9253C39.1854 30.9312 39.2043 30.9361 39.2217 30.9405L39.2541 30.9483C39.5049 31.0091 39.7354 31.065 39.8979 31.1677C39.9901 31.2259 40.0676 31.3027 40.1198 31.4074C40.1447 31.4575 40.1623 31.5109 40.1737 31.5672H40.0062L40.0062 31.7536H39.8274C39.8274 31.7868 39.8252 31.8149 39.8215 31.8389V31.7536C39.8215 31.6644 39.8073 31.6101 39.7897 31.5746C39.7731 31.5413 39.7474 31.5123 39.7019 31.4835C39.5958 31.4165 39.4253 31.3732 39.1347 31.3026L39.1334 31.3023C39.1141 31.2975 39.0939 31.2923 39.0697 31.2861C39.0033 31.2691 38.9065 31.2443 38.7144 31.1972L38.713 31.1969L22.3406 27.0473L22.3406 26.6858L38.811 22.5131H39.0963C39.4714 22.5131 39.8159 22.3584 40.0626 22.1108C40.3094 21.8632 40.4631 21.518 40.4631 21.1426V9.46063C40.4631 8.11394 39.9188 6.8966 39.0302 6.00504C38.1476 5.11942 36.934 4.57267 35.5908 4.57267H5.44159ZM2.44219 6.44846C3.21524 5.67886 4.27591 5.19496 5.44159 5.19496H35.5908C36.7621 5.19496 37.8231 5.67869 38.5908 6.44898C39.3584 7.21928 39.8409 8.28439 39.8409 9.46063V13.364L39.588 13.2624C39.4359 13.2014 39.2725 13.1703 39.0963 13.1703H1.93614C1.76497 13.1703 1.59672 13.2017 1.45231 13.2616L1.19734 13.3675V9.46063C1.19734 8.28506 1.67402 7.21926 2.44219 6.44846ZM2.7019 6.71345C2.00036 7.41752 1.56671 8.38887 1.56671 9.46063V12.8373C1.6875 12.8107 1.81231 12.7976 1.93614 12.7976H39.0963C39.2251 12.7976 39.3503 12.811 39.4716 12.8379V9.46063C39.4716 8.38942 39.0325 7.41779 38.3303 6.71322C37.6281 6.00862 36.6593 5.56763 35.5908 5.56763H5.44159C4.37932 5.56763 3.41033 6.00833 2.7019 6.71345ZM1.47542 13.9565C1.60076 13.8556 1.76204 13.7926 1.93614 13.7926H39.0963C39.3006 13.7926 39.4845 13.8791 39.6194 14.007L39.6232 14.0106C39.7584 14.1463 39.8333 14.3328 39.8408 14.5277L39.8411 14.5349L39.8409 20.1008C39.8409 20.5916 39.6389 21.0427 39.3133 21.3633C38.9892 21.6881 38.5468 21.8908 38.0522 21.8908H2.98019C2.48563 21.8908 2.04321 21.6881 1.71907 21.3632C1.39224 21.0414 1.19734 20.5898 1.19734 20.1008V14.5349C1.19734 14.3348 1.27415 14.1463 1.40928 14.0107L1.46331 13.9565H1.47542ZM1.93614 14.1652C1.83633 14.1652 1.74235 14.2079 1.67558 14.2749L1.63589 14.3147C1.59267 14.3744 1.56671 14.4508 1.56671 14.5349V20.1008C1.56671 20.4895 1.72152 20.8452 1.97755 21.097L1.97889 21.0983C2.23795 21.3582 2.58851 21.5181 2.98019 21.5181H38.0522C38.4439 21.5181 38.7945 21.3582 39.0536 21.0983L39.0549 21.097C39.3122 20.844 39.4716 20.4877 39.4716 20.1008V14.5388C39.4667 14.4319 39.426 14.3395 39.3645 14.2768C39.2897 14.2067 39.1945 14.1652 39.0963 14.1652H1.93614ZM5.88652 22.8802L5.93154 22.5131H34.7859L34.8309 22.8802L20.3558 26.5495L5.88652 22.8802ZM7.42394 22.8858L20.3558 26.1653L33.2929 22.8858H7.42394ZM20.3558 27.1895L37.6656 31.5728L37.6664 31.9341L20.3558 36.4057L3.05102 31.9341L3.05187 31.5728L20.3558 27.1895ZM20.3558 27.5737L3.84817 31.7554L20.3558 36.021L36.8691 31.7554L20.3558 27.5737ZM20.3558 37.0452L37.7073 41.5285L37.7063 41.8898L20.3558 46.2672L3.0112 41.8898L3.01018 41.5285L20.3558 37.0452ZM20.3558 37.4299L3.80855 41.7069L20.3558 45.8831L36.9087 41.7069L20.3558 37.4299ZM20.3558 46.9131L35.624 50.7638L35.5792 51.1309H5.13829L5.09349 50.7638L20.3558 46.9131ZM20.3558 47.2973L6.63814 50.7582H34.0788L20.3558 47.2973ZM1.36786 51.7825C1.40584 51.7628 1.4475 51.7532 1.48702 51.7532H39.5863C39.6621 51.7532 39.7253 51.7865 39.7689 51.8255C39.855 51.8946 39.8584 51.9986 39.8584 52.0332V55.1867L39.5962 55.0643C39.3515 54.95 39.0971 54.8481 38.8387 54.7692L38.8375 54.7688C38.3131 54.6047 37.7542 54.5196 37.1832 54.5196C35.6297 54.5196 34.2237 55.1486 33.2014 56.1744C32.2919 57.087 31.6882 58.3162 31.5753 59.6806L31.5612 59.8514H10.4803L10.4662 59.6806C10.3533 58.3158 9.75512 57.0868 8.84055 56.1748L8.83978 56.174C7.82365 55.1488 6.4121 54.5196 4.85832 54.5196C4.04525 54.5196 3.27169 54.6952 2.57121 55.0069C2.19266 55.1769 1.83675 55.3867 1.50913 55.6304L1.21484 55.8493V52.0332C1.21484 51.9575 1.24393 51.8855 1.29262 51.8367L1.34665 51.7825H1.36786ZM1.58421 52.1259H39.4891V54.6099C39.3127 54.5362 39.1313 54.4692 38.9465 54.4127C38.386 54.2374 37.7903 54.147 37.1832 54.147C35.5287 54.147 34.03 54.8173 32.9409 55.9102C32.0102 56.844 31.3788 58.0906 31.2239 59.4788H10.8177C10.6632 58.0914 10.0375 56.8448 9.10097 55.9105C8.01733 54.8171 6.51253 54.147 4.85832 54.147C3.99181 54.147 3.1674 54.3342 2.42154 54.6661C2.12922 54.7975 1.84896 54.9513 1.58421 55.1248V52.1259ZM4.85832 56.5037C3.85327 56.5037 2.93748 56.9159 2.28273 57.5785L2.28163 57.5796C1.62134 58.2366 1.21092 59.155 1.21092 60.1626C1.21092 61.1757 1.62116 62.0887 2.28218 62.752C2.93693 63.4145 3.85327 63.8273 4.85832 63.8273C5.86892 63.8273 6.77926 63.4153 7.4403 62.752C8.10132 62.0887 8.51156 61.1757 8.51156 60.1626C8.51156 59.155 8.10113 58.2366 7.44085 57.5796C6.77981 56.9163 5.86892 56.5037 4.85832 56.5037ZM2.02171 57.3148C2.74344 56.5848 3.75221 56.131 4.85832 56.131C5.9706 56.131 6.97321 56.585 7.70031 57.3144C8.42815 58.0386 8.88093 59.0515 8.88093 60.1626C8.88093 61.2799 8.42792 62.2866 7.70076 63.0162C6.97362 63.7459 5.97083 64.2 4.85832 64.2C3.752 64.2 2.74305 63.7461 2.02129 63.0158M37.1832 56.5037C36.1783 56.5037 35.2621 56.9159 34.6012 57.5791C33.9414 58.2355 33.5358 59.1543 33.5358 60.1626C33.5358 61.1764 33.9407 62.0892 34.6012 62.752C35.2621 63.4152 36.1783 63.8273 37.1832 63.8273C38.1938 63.8273 39.1041 63.4153 39.7652 62.752C40.4257 62.0892 40.8306 61.1764 40.8306 60.1626C40.8306 59.1543 40.4255 58.2361 39.7657 57.5796C39.1047 56.9163 38.1938 56.5037 37.1832 56.5037ZM34.341 57.3145C35.0682 56.585 36.0768 56.131 37.1832 56.131C38.2954 56.131 39.298 56.585 40.0251 57.3143C40.7535 58.0391 41.2 59.0522 41.2 60.1626C41.2 61.2791 40.7533 62.286 40.0256 63.0162C39.2985 63.7459 38.2957 64.2 37.1832 64.2C36.0767 64.2 35.068 63.746 34.3407 63.0162C33.613 62.286 33.1664 61.2791 33.1664 60.1626C33.1664 59.0523 33.6128 58.0393 34.341 57.3145ZM2.72164 58.0171C3.2679 57.469 4.0257 57.126 4.85832 57.126C5.69658 57.126 6.45442 57.4689 7.00084 58.0171C7.54782 58.566 7.88353 59.3271 7.88353 60.1626C7.88353 61.0037 7.54797 61.7649 7.00084 62.3139C6.45373 62.8629 5.69563 63.1992 4.85832 63.1992C4.02665 63.1992 3.2686 62.8627 2.72164 62.3139C2.17521 61.7656 1.83311 61.0047 1.83311 60.1626C1.83311 59.3262 2.17536 58.5653 2.72164 58.0171ZM4.85832 57.4987C4.12778 57.4987 3.4624 57.7994 2.9821 58.2814C2.50183 58.7633 2.20248 59.4305 2.20248 60.1626C2.20248 60.9007 2.50198 61.5679 2.9821 62.0497C3.4617 62.5309 4.12683 62.8265 4.85832 62.8265C5.59585 62.8265 6.26092 62.5307 6.74037 62.0497C7.2198 61.5686 7.51416 60.9017 7.51416 60.1626C7.51416 59.4295 7.21994 58.7626 6.74037 58.2814C6.26023 57.7996 5.59489 57.4987 4.85832 57.4987ZM35.0465 58.0171C35.5928 57.469 36.3506 57.126 37.1832 57.126C38.0218 57.126 38.7737 57.4692 39.3199 58.0171C39.8661 58.5653 40.2084 59.3262 40.2084 60.1626C40.2084 61.0047 39.8663 61.7656 39.3199 62.3139C38.7731 62.8626 38.0209 63.1992 37.1832 63.1992C36.3515 63.1992 35.5935 62.8627 35.0465 62.3139C34.5001 61.7656 34.158 61.0047 34.158 60.1626C34.158 59.3262 34.5002 58.5653 35.0465 58.0171ZM37.1832 57.4987C36.4526 57.4987 35.7872 57.7994 35.307 58.2814C34.8267 58.7633 34.5273 59.4305 34.5273 60.1626C34.5273 60.9007 34.8268 61.5679 35.307 62.0497C35.7866 62.5309 36.4517 62.8265 37.1832 62.8265C37.9203 62.8265 38.5797 62.531 39.0594 62.0497C39.5395 61.5679 39.839 60.9007 39.839 60.1626C39.839 59.4305 39.5397 58.7633 39.0594 58.2814C38.579 57.7993 37.9193 57.4987 37.1832 57.4987Z" fill="#FF671F"/>
</g>
<defs>
<clipPath id="clip0_1242_5200">
<rect width="182" height="64" fill="white"/>
</clipPath>
</defs>
</svg>
