<svg width="88" height="64" viewBox="0 0 88 64" fill="none" xmlns="http://www.w3.org/2000/svg">
<path fill-rule="evenodd" clip-rule="evenodd" d="M7.08842 26.7867C7.08842 26.3522 7.445 26 7.88488 26H18.9557C22.312 26 25.2395 28.0111 26.3921 31.0747C26.3922 31.0751 26.3924 31.0755 26.3926 31.076L33.2861 49.2091H36.6372V37.8012C36.6372 37.3667 36.9938 37.0145 37.4336 37.0145C37.8735 37.0145 38.2301 37.3667 38.2301 37.8012V57.6273H44.2035C44.6434 57.6273 45 57.9796 45 58.4141C45 58.8486 44.6434 59.2008 44.2035 59.2008H37.4336C36.9938 59.2008 36.6372 58.8486 36.6372 58.4141V54.795H33.6106V58.4141C33.6106 61.4991 31.0788 64 27.9557 64C25.103 64 22.7436 61.9133 22.3565 59.2008L11.2541 59.2008C10.867 61.9133 8.50763 64 5.65487 64C2.53177 64 0 61.4991 0 58.4141C0 58.395 9.69868e-05 58.3759 0.000290486 58.3569C9.72241e-05 58.3497 0 58.3426 0 58.3354V49.8385C0 45.9686 3.1805 42.8008 7.08842 42.7582V26.7867ZM7.5373 44.3313C7.64233 44.3817 7.76026 44.4099 7.88488 44.4099C8.00949 44.4099 8.12742 44.3817 8.23245 44.3313H17.2832V49.9959C17.2832 50.4304 17.6398 50.7826 18.0796 50.7826L32.0177 50.7826V54.0004C32.0177 54.003 32.0177 54.0056 32.0177 54.0083C32.0177 54.0109 32.0177 54.0136 32.0177 54.0162V54.5278C30.9898 53.4797 29.5498 52.8282 27.9557 52.8282C25.103 52.8282 22.7436 54.9148 22.3565 57.6273L11.2541 57.6273C10.867 54.9148 8.50763 52.8282 5.65487 52.8282C4.06084 52.8282 2.62085 53.4797 1.59292 54.5278V49.8385C1.59292 46.8113 4.10359 44.3313 7.16814 44.3313H7.5373ZM23.9063 58.7307C23.9494 58.6339 23.9734 58.5267 23.9734 58.4141C23.9734 58.3014 23.9494 58.1943 23.9063 58.0974C24.0697 56.0294 25.8203 54.4017 27.9557 54.4017C30.1991 54.4017 32.0177 56.1981 32.0177 58.4141C32.0177 60.6301 30.1991 62.4265 27.9557 62.4265C25.8203 62.4265 24.0697 60.7987 23.9063 58.7307ZM33.6106 53.2215H36.6372V50.7826H33.6106V53.2215ZM31.5846 49.2091L18.8761 49.2091V43.5445C18.8761 43.5419 18.8761 43.5392 18.8761 43.5366V27.5735H18.9557C21.6519 27.5735 23.9808 29.1809 24.8993 31.6238L24.9003 31.6265L31.5846 49.2091ZM17.2831 27.5735H8.68134V42.7578H17.2831V27.5735ZM5.65487 54.4017C3.41152 54.4017 1.59292 56.1981 1.59292 58.4141C1.59292 60.6301 3.41152 62.4265 5.65487 62.4265C7.89822 62.4265 9.71681 60.6301 9.71681 58.4141C9.71681 56.1981 7.89822 54.4017 5.65487 54.4017ZM5.65479 57.0766C4.90701 57.0766 4.30081 57.6754 4.30081 58.4141C4.30081 59.1527 4.907 59.7516 5.65479 59.7516C6.40257 59.7516 7.00877 59.1527 7.00877 58.4141C7.00877 57.6754 6.40257 57.0766 5.65479 57.0766ZM2.70789 58.4141C2.70789 56.8064 4.02726 55.5031 5.65479 55.5031C7.28232 55.5031 8.60169 56.8064 8.60169 58.4141C8.60169 60.0218 7.28232 61.3251 5.65479 61.3251C4.02726 61.3251 2.70789 60.0218 2.70789 58.4141ZM27.9557 57.0766C27.2079 57.0766 26.6017 57.6754 26.6017 58.4141C26.6017 59.1527 27.2079 59.7516 27.9557 59.7516C28.7035 59.7516 29.3097 59.1527 29.3097 58.4141C29.3097 57.6754 28.7035 57.0766 27.9557 57.0766ZM25.0088 58.4141C25.0088 56.8064 26.3281 55.5031 27.9557 55.5031C29.5832 55.5031 30.9026 56.8064 30.9026 58.4141C30.9026 60.0218 29.5832 61.3251 27.9557 61.3251C26.3281 61.3251 25.0088 60.0218 25.0088 58.4141Z" fill="#FF671F"/>
</svg>
