<svg width="182" height="64" viewBox="0 0 182 64" fill="none" xmlns="http://www.w3.org/2000/svg">
<path fill-rule="evenodd" clip-rule="evenodd" d="M38.6462 27.1577C40.3906 25.1398 42.9173 24 45.5323 24H63.2039C63.4656 24 63.7106 24.1295 63.8592 24.3465C64.0078 24.5634 64.041 24.84 63.948 25.0863L62.4356 29.0944C62.3182 29.4055 62.022 29.6112 61.6915 29.6112H58.3077L61.1798 39.8717H63.204C63.6436 39.8717 64 40.2306 64 40.6733V56.8657C64 57.3084 63.6436 57.6673 63.204 57.6673H57.9502C57.5106 57.6673 57.1542 57.3084 57.1542 56.8657V50.7048L53.6404 47.1663H42.3596L38.6126 50.9396C38.4362 51.1172 38.1874 51.2013 37.9403 51.1667L28.8048 49.889C28.6963 49.8985 28.5841 49.8856 28.4746 49.8472C28.468 49.8449 28.4615 49.8426 28.4551 49.8401L19.5643 48.5966C19.4344 48.6203 19.2969 48.6118 19.1632 48.5654C19.1322 48.5546 19.1023 48.5421 19.0735 48.528L0.686515 45.9563C0.450294 45.9233 0.241228 45.7853 0.116843 45.5804C-0.00754117 45.3755 -0.0341383 45.1252 0.0443703 44.8984L3.06924 36.161C3.18072 35.839 3.48227 35.6232 3.8209 35.6232H13.5137C13.526 35.623 13.5384 35.623 13.5507 35.6232H23.3048C23.3171 35.623 23.3295 35.623 23.3418 35.6232H31.1652L38.6462 27.1577ZM31.9944 37.2265H23.8908L20.5042 47.1095L28.2057 48.1866L31.9944 37.2265ZM29.8137 48.4115L37.511 49.4881L41.7153 37.2265H33.6802L29.8137 48.4115ZM33.2963 35.6232H42.265L43.4294 32.2274C44.339 29.6627 46.7096 28.008 49.3532 28.008H51.0754C51.1804 27.9567 51.2983 27.9279 51.4228 27.9279C51.5474 27.9279 51.6653 27.9567 51.7702 28.008H56.8865C56.928 27.9878 56.9719 27.971 57.0178 27.9579C57.213 27.9025 57.4117 27.9254 57.5808 28.008H61.1424L62.0499 25.6032H45.5323C43.3728 25.6032 41.2841 26.5462 39.8444 28.2134L39.8384 28.2203L33.2963 35.6232ZM56.6536 29.6112H52.2189V39.8717H59.5257L56.6536 29.6112ZM60.559 41.475H42.0299C42.001 41.475 41.9725 41.4734 41.9444 41.4704L39.9297 47.3459L41.467 45.7979C41.6163 45.6476 41.8187 45.5631 42.0299 45.5631H53.9702C54.1813 45.5631 54.3837 45.6476 54.533 45.7979L58.5131 49.8059C58.6624 49.9563 58.7463 50.1601 58.7463 50.3727V56.0641H62.408V41.475H60.5944C60.5825 41.4752 60.5708 41.4752 60.559 41.475ZM42.4925 39.8717H50.6268V29.6112H49.3532C47.3813 29.6112 45.6136 30.8406 44.9301 32.7627C44.9297 32.764 44.9292 32.7653 44.9287 32.7666L42.4925 39.8717ZM18.8971 46.8847L22.2066 37.2265H14.1003L11.1701 45.804L18.8971 46.8847ZM9.56331 45.5792L12.4167 37.2265H4.38639L1.86733 44.5029L9.56331 45.5792ZM15.602 50.0521C12.2169 50.0521 9.47265 52.8156 9.47265 56.2245C9.47265 59.6333 12.2169 62.3968 15.602 62.3968C18.9871 62.3968 21.7314 59.6333 21.7314 56.2245C21.7314 52.8156 18.9871 50.0521 15.602 50.0521ZM7.88061 56.2245C7.88061 51.9301 11.3376 48.4489 15.602 48.4489C19.8664 48.4489 23.3234 51.9301 23.3234 56.2245C23.3234 60.5188 19.8664 64 15.602 64C11.3376 64 7.88061 60.5188 7.88061 56.2245ZM48 50.0521C44.6148 50.0521 41.8706 52.8156 41.8706 56.2245C41.8706 59.6333 44.6148 62.3968 48 62.3968C51.3851 62.3968 54.1293 59.6333 54.1293 56.2245C54.1293 52.8156 51.3851 50.0521 48 50.0521ZM40.2786 56.2245C40.2786 51.9301 43.7355 48.4489 48 48.4489C52.2644 48.4489 55.7213 51.9301 55.7213 56.2245C55.7213 60.5188 52.2644 64 48 64C43.7355 64 40.2786 60.5188 40.2786 56.2245ZM15.602 53.4188C14.0633 53.4188 12.8159 54.675 12.8159 56.2245C12.8159 57.774 14.0633 59.0301 15.602 59.0301C17.1407 59.0301 18.388 57.774 18.388 56.2245C18.388 54.675 17.1407 53.4188 15.602 53.4188ZM11.2239 56.2245C11.2239 53.7895 13.184 51.8156 15.602 51.8156C18.0199 51.8156 19.9801 53.7895 19.9801 56.2245C19.9801 58.6594 18.0199 60.6333 15.602 60.6333C13.184 60.6333 11.2239 58.6594 11.2239 56.2245ZM48 53.4188C46.4613 53.4188 45.2139 54.675 45.2139 56.2245C45.2139 57.774 46.4613 59.0301 48 59.0301C49.5387 59.0301 50.7861 57.774 50.7861 56.2245C50.7861 54.675 49.5387 53.4188 48 53.4188ZM43.6219 56.2245C43.6219 53.7895 45.582 51.8156 48 51.8156C50.418 51.8156 52.3781 53.7895 52.3781 56.2245C52.3781 58.6594 50.418 60.6333 48 60.6333C45.582 60.6333 43.6219 58.6594 43.6219 56.2245Z" fill="#FF671F"/>
</svg>
