<svg width="88" height="64" viewBox="0 0 88 64" fill="none" xmlns="http://www.w3.org/2000/svg">
<path fill-rule="evenodd" clip-rule="evenodd" d="M9.78524 54.2791C8.37369 54.2791 7.2294 55.4331 7.2294 56.8566C7.2294 58.2801 8.37369 59.4341 9.78524 59.4341C11.1968 59.4341 12.3411 58.2801 12.3411 56.8566C12.3411 55.4331 11.1968 54.2791 9.78524 54.2791ZM5.76892 56.8566C5.76892 54.6196 7.56708 52.8062 9.78524 52.8062C12.0034 52.8062 13.8016 54.6196 13.8016 56.8566C13.8016 59.0936 12.0034 60.907 9.78524 60.907C7.56708 60.907 5.76892 59.0936 5.76892 56.8566Z" fill="#FF671F"/>
<path fill-rule="evenodd" clip-rule="evenodd" d="M9.78518 51.186C6.67977 51.186 4.16233 53.7248 4.16233 56.8566C4.16233 59.9883 6.67977 62.5271 9.78518 62.5271C12.8906 62.5271 15.408 59.9883 15.408 56.8566C15.408 53.7248 12.8906 51.186 9.78518 51.186ZM2.70185 56.8566C2.70185 52.9114 5.87317 49.7132 9.78518 49.7132C13.6972 49.7132 16.8685 52.9114 16.8685 56.8566C16.8685 60.8018 13.6972 64 9.78518 64C5.87317 64 2.70185 60.8018 2.70185 56.8566Z" fill="#FF671F"/>
<path fill-rule="evenodd" clip-rule="evenodd" d="M22.5644 54.2791C21.1529 54.2791 20.0086 55.4331 20.0086 56.8566C20.0086 58.2801 21.1529 59.4341 22.5644 59.4341C23.976 59.4341 25.1203 58.2801 25.1203 56.8566C25.1203 55.4331 23.976 54.2791 22.5644 54.2791ZM18.5481 56.8566C18.5481 54.6196 20.3463 52.8062 22.5644 52.8062C24.7826 52.8062 26.5808 54.6196 26.5808 56.8566C26.5808 59.0936 24.7826 60.907 22.5644 60.907C20.3463 60.907 18.5481 59.0936 18.5481 56.8566Z" fill="#FF671F"/>
<path fill-rule="evenodd" clip-rule="evenodd" d="M22.5644 51.186C19.459 51.186 16.9415 53.7248 16.9415 56.8566C16.9415 59.9883 19.459 62.5271 22.5644 62.5271C25.6698 62.5271 28.1872 59.9883 28.1872 56.8566C28.1872 53.7248 25.6698 51.186 22.5644 51.186ZM15.4811 56.8566C15.4811 52.9114 18.6524 49.7132 22.5644 49.7132C26.4764 49.7132 29.6477 52.9114 29.6477 56.8566C29.6477 60.8018 26.4764 64 22.5644 64C18.6524 64 15.4811 60.8018 15.4811 56.8566Z" fill="#FF671F"/>
<path fill-rule="evenodd" clip-rule="evenodd" d="M77.8436 54.2791C76.432 54.2791 75.2878 55.4331 75.2878 56.8566C75.2878 58.2801 76.432 59.4341 77.8436 59.4341C79.2551 59.4341 80.3994 58.2801 80.3994 56.8566C80.3994 55.4331 79.2551 54.2791 77.8436 54.2791ZM73.8273 56.8566C73.8273 54.6196 75.6254 52.8062 77.8436 52.8062C80.0617 52.8062 81.8599 54.6196 81.8599 56.8566C81.8599 59.0936 80.0617 60.907 77.8436 60.907C75.6254 60.907 73.8273 59.0936 73.8273 56.8566Z" fill="#FF671F"/>
<path fill-rule="evenodd" clip-rule="evenodd" d="M77.8436 51.186C74.7382 51.186 72.2208 53.7248 72.2208 56.8566C72.2208 59.9883 74.7382 62.5271 77.8436 62.5271C80.949 62.5271 83.4665 59.9883 83.4665 56.8566C83.4665 53.7248 80.949 51.186 77.8436 51.186ZM70.7603 56.8566C70.7603 52.9114 73.9316 49.7132 77.8436 49.7132C81.7556 49.7132 84.927 52.9114 84.927 56.8566C84.927 60.8018 81.7556 64 77.8436 64C73.9316 64 70.7603 60.8018 70.7603 56.8566Z" fill="#FF671F"/>
<path fill-rule="evenodd" clip-rule="evenodd" d="M7.08333 37.6357C3.98148 37.6357 1.46048 40.178 1.46048 43.3062V56.1202H3.3591C3.76241 56.1202 4.08934 56.4499 4.08934 56.8566C4.08934 57.2633 3.76241 57.593 3.3591 57.593H0.73024C0.32694 57.593 0 57.2633 0 56.8566V43.3062C0 39.3646 3.17488 36.1628 7.08333 36.1628H31.1082C31.5115 36.1628 31.8385 36.4925 31.8385 36.8992V56.8566C31.8385 57.2633 31.5115 57.593 31.1082 57.593H28.9175C28.5142 57.593 28.1872 57.2633 28.1872 56.8566C28.1872 56.4499 28.5142 56.1202 28.9175 56.1202H30.378V37.6357H7.08333Z" fill="#FF671F"/>
<path fill-rule="evenodd" clip-rule="evenodd" d="M37.9725 32.8488C37.9725 32.4421 38.2994 32.1124 38.7027 32.1124H47.0275C47.4308 32.1124 47.7577 32.4421 47.7577 32.8488V46.3256C47.7577 46.7323 47.4308 47.062 47.0275 47.062H38.7027C38.2994 47.062 37.9725 46.7323 37.9725 46.3256V32.8488ZM39.433 33.5853V45.5891H46.2972V33.5853H39.433Z" fill="#FF671F"/>
<path fill-rule="evenodd" clip-rule="evenodd" d="M30.378 26.7364C30.378 26.3297 30.7049 26 31.1082 26H42.5C45.3861 26 47.7577 28.3917 47.7577 31.3023V50.376C47.7577 50.6271 47.6308 50.861 47.421 50.9963L37.4897 57.4033C37.3722 57.4791 37.2357 57.5194 37.0962 57.5194H31.1082C30.7049 57.5194 30.378 57.1897 30.378 56.7829V26.7364ZM31.8385 27.4729V56.0465H36.8826L46.2972 49.9728V31.3023C46.2972 29.2052 44.5795 27.4729 42.5 27.4729H31.8385Z" fill="#FF671F"/>
<path fill-rule="evenodd" clip-rule="evenodd" d="M2.62885 43.0853C2.62885 42.6785 2.95579 42.3488 3.35909 42.3488H16.2843C16.6876 42.3488 17.0146 42.6785 17.0146 43.0853C17.0146 43.492 16.6876 43.8217 16.2843 43.8217H3.35909C2.95579 43.8217 2.62885 43.492 2.62885 43.0853Z" fill="#FF671F"/>
<path fill-rule="evenodd" clip-rule="evenodd" d="M2.62885 46.3256C2.62885 45.9189 2.95579 45.5891 3.35909 45.5891H16.2843C16.6876 45.5891 17.0146 45.9189 17.0146 46.3256C17.0146 46.7323 16.6876 47.062 16.2843 47.062H3.35909C2.95579 47.062 2.62885 46.7323 2.62885 46.3256Z" fill="#FF671F"/>
<path fill-rule="evenodd" clip-rule="evenodd" d="M57.689 50.376C57.689 49.9692 58.0159 49.6395 58.4192 49.6395H77.8436C78.2469 49.6395 78.5738 49.9692 78.5738 50.376C78.5738 50.7827 78.2469 51.1124 77.8436 51.1124H59.1495V56.1056L62.661 59.5814H66.3058C66.7091 59.5814 67.0361 59.9111 67.0361 60.3178C67.0361 60.7246 66.7091 61.0543 66.3058 61.0543H62.3625C62.1712 61.0543 61.9875 60.9786 61.851 60.8434L57.9077 56.9403C57.7678 56.8018 57.689 56.6124 57.689 56.4147V50.376Z" fill="#FF671F"/>
<path fill-rule="evenodd" clip-rule="evenodd" d="M46.2972 40.9496C46.2972 40.5429 46.6242 40.2132 47.0275 40.2132H74.9957C75.1894 40.2132 75.3751 40.2908 75.512 40.4289L81.0619 46.0258C81.1988 46.1639 81.2758 46.3512 81.2758 46.5465V50.9651C81.2758 51.3718 80.9488 51.7016 80.5455 51.7016C80.1422 51.7016 79.8153 51.3718 79.8153 50.9651V46.8516L74.6932 41.686H47.7577V45.5891H72.805C72.9986 45.5891 73.1844 45.6667 73.3213 45.8048L75.7311 48.2351C75.8681 48.3732 75.945 48.5605 75.945 48.7558V50.9651C75.945 51.3718 75.6181 51.7016 75.2148 51.7016C74.8115 51.7016 74.4845 51.3718 74.4845 50.9651V49.0609L72.5025 47.062H47.0275C46.6242 47.062 46.2972 46.7323 46.2972 46.3256V40.9496Z" fill="#FF671F"/>
<path fill-rule="evenodd" clip-rule="evenodd" d="M79.8153 46.6202C79.8153 46.2134 80.1422 45.8837 80.5455 45.8837H84.2698C84.6731 45.8837 85 46.2134 85 46.6202V56.8566C85 57.2633 84.6731 57.593 84.2698 57.593C83.8665 57.593 83.5395 57.2633 83.5395 56.8566V47.3566H81.2758L81.2758 50.9651C81.2758 51.3718 80.9488 51.7016 80.5455 51.7016C80.1422 51.7016 79.8153 51.3718 79.8153 50.9651L79.8153 46.6202Z" fill="#FF671F"/>
</svg>
