<svg width="182" height="64" viewBox="0 0 182 64" fill="none" xmlns="http://www.w3.org/2000/svg">
<path fill-rule="evenodd" clip-rule="evenodd" d="M5.91693 53.7804C3.55998 53.7804 1.59917 55.7383 1.59917 58.0918C1.59917 60.4453 3.55998 62.4032 5.91693 62.4032H53.2523C55.6093 62.4032 57.5701 60.4453 57.5701 58.0918C57.5701 57.0226 57.1703 56.0793 56.5515 55.3239C56.2718 54.9827 56.3222 54.4797 56.664 54.2004C57.0057 53.9212 57.5095 53.9715 57.7891 54.3128C58.6095 55.314 59.1693 56.6061 59.1693 58.0918C59.1693 61.3272 56.4925 64 53.2523 64H5.91693C2.67678 64 0 61.3272 0 58.0918C0 54.8565 2.67678 52.1836 5.91693 52.1836H52.8525C53.2941 52.1836 53.6521 52.5411 53.6521 52.982C53.6521 53.423 53.2941 53.7804 52.8525 53.7804H5.91693Z" fill="#FF671F"/>
<path fill-rule="evenodd" clip-rule="evenodd" d="M3.75801 58.0918C3.75801 57.6509 4.11599 57.2934 4.55759 57.2934H45.4963C45.9379 57.2934 46.2959 57.6509 46.2959 58.0918C46.2959 58.5328 45.9379 58.8902 45.4963 58.8902H4.55759C4.11599 58.8902 3.75801 58.5328 3.75801 58.0918Z" fill="#FF671F"/>
<path fill-rule="evenodd" clip-rule="evenodd" d="M57.4902 58.0918C57.4902 57.6509 57.8481 57.2934 58.2897 57.2934H62.6875C63.129 57.2934 63.487 57.6509 63.487 58.0918C63.487 58.5328 63.129 58.8902 62.6875 58.8902H58.2897C57.8481 58.8902 57.4902 58.5328 57.4902 58.0918Z" fill="#FF671F"/>
<path fill-rule="evenodd" clip-rule="evenodd" d="M56.3707 61.2854C56.3707 60.8445 56.7287 60.487 57.1703 60.487H62.6874C63.129 60.487 63.487 60.8445 63.487 61.2854C63.487 61.7264 63.129 62.0838 62.6874 62.0838H57.1703C56.7287 62.0838 56.3707 61.7264 56.3707 61.2854Z" fill="#FF671F"/>
<path fill-rule="evenodd" clip-rule="evenodd" d="M8.95531 24.7984C8.95531 24.3575 9.31329 24 9.75489 24H30.8639C31.3055 24 31.6635 24.3575 31.6635 24.7984V52.982C31.6635 53.423 31.3055 53.7804 30.8639 53.7804H9.75489C9.31329 53.7804 8.95531 53.423 8.95531 52.982C8.95531 52.5411 9.31329 52.1836 9.75489 52.1836H30.0643V25.5968H10.5545V38.8503C10.5545 39.2912 10.1965 39.6487 9.75489 39.6487C9.31329 39.6487 8.95531 39.2912 8.95531 38.8503V24.7984Z" fill="#FF671F"/>
<path fill-rule="evenodd" clip-rule="evenodd" d="M30.0644 36.8543C30.0644 36.4133 30.4223 36.0559 30.8639 36.0559H38.6999C38.7786 36.0559 38.857 36.0675 38.9323 36.0904L53.4048 40.4816C53.7417 40.5838 53.9719 40.894 53.9719 41.2455V52.8224C53.9719 53.1985 53.7114 53.5139 53.3607 53.5985C53.2225 53.7122 53.0455 53.7804 52.8525 53.7804H30.8639C30.4223 53.7804 30.0644 53.423 30.0644 52.982V36.8543ZM52.3728 52.1836V41.8373L38.5811 37.6527H31.6635V52.1836H52.3728Z" fill="#FF671F"/>
<path fill-rule="evenodd" clip-rule="evenodd" d="M65.3032 47.1182C65.6246 47.0065 65.9816 47.1102 66.1928 47.3767L76.8273 60.7899C77.0176 61.0299 77.0537 61.3575 76.9202 61.6331C76.7867 61.9087 76.507 62.0838 76.2004 62.0838H65.5659C65.1243 62.0838 64.7663 61.7264 64.7663 61.2854V47.8723C64.7663 47.5324 64.9818 47.2299 65.3032 47.1182ZM66.3655 50.1671V60.487H74.5476L66.3655 50.1671Z" fill="#FF671F"/>
<path fill-rule="evenodd" clip-rule="evenodd" d="M64.1267 47.2335C63.7687 47.2335 63.487 47.5148 63.487 47.8723V60.487H64.7664L64.7663 47.8723C64.7663 47.5148 64.4847 47.2335 64.1267 47.2335ZM61.8879 47.8723C61.8879 46.6329 62.8855 45.6367 64.1267 45.6367C65.3679 45.6367 66.3655 46.6329 66.3655 47.8723V61.2854C66.3655 61.7264 66.0075 62.0838 65.5659 62.0838L62.6874 62.0838C62.2458 62.0838 61.8879 61.7264 61.8879 61.2854V47.8723Z" fill="#FF671F"/>
<path fill-rule="evenodd" clip-rule="evenodd" d="M43.7086 31.6054C43.2802 31.9111 43.2194 32.5044 43.4883 32.8505L48.365 39.077C48.6371 39.4244 48.5756 39.9261 48.2277 40.1978C47.8799 40.4694 47.3774 40.4081 47.1053 40.0607L42.2265 33.8315C41.3782 32.7424 41.6352 31.1055 42.799 30.292L42.814 30.2818C43.8669 29.5809 45.3155 29.7888 46.0625 30.8742L63.3162 52.8082C63.4813 53.0182 63.5305 53.2966 63.4471 53.5503C63.3638 53.8039 63.159 53.9992 62.9014 54.0707L45.6304 58.8611C45.2049 58.9791 44.7641 58.7304 44.646 58.3055C44.5278 57.8806 44.7769 57.4406 45.2024 57.3225L61.3177 52.8527L44.7876 31.8385C44.7747 31.8222 44.7626 31.8054 44.7511 31.7882C44.5341 31.4633 44.0844 31.3606 43.7086 31.6054Z" fill="#FF671F"/>
<path fill-rule="evenodd" clip-rule="evenodd" d="M61.4584 50.531C61.5776 50.9555 61.3296 51.3962 60.9044 51.5153L52.3563 53.9084C51.1467 54.2742 50.46 55.4632 50.7498 56.6207C50.8569 57.0485 50.5964 57.482 50.168 57.5889C49.7396 57.6959 49.3055 57.4358 49.1984 57.008C48.6891 54.974 49.9184 52.9715 51.9032 52.377L51.9171 52.3729L60.4727 49.9777C60.8979 49.8587 61.3392 50.1064 61.4584 50.531Z" fill="#FF671F"/>
<path fill-rule="evenodd" clip-rule="evenodd" d="M6.47662 24.7984C6.47662 24.3575 6.8346 24 7.2762 24H33.3427C33.7843 24 34.1422 24.3575 34.1422 24.7984C34.1422 25.2393 33.7843 25.5968 33.3427 25.5968H7.2762C6.8346 25.5968 6.47662 25.2393 6.47662 24.7984Z" fill="#FF671F"/>
<path fill-rule="evenodd" clip-rule="evenodd" d="M8.58937 39.4621C7.58348 39.1942 6.47252 39.339 5.65239 39.9059C5.64058 39.9141 5.62855 39.922 5.61632 39.9295L4.57936 40.5667C3.54665 41.2122 2.95842 42.3063 2.95842 43.5609V45.8763C2.95842 46.6736 3.32675 47.3787 3.89671 47.7771L3.90602 47.7837L10.1241 52.2635H20.8691V45.5569C20.8691 43.9036 19.737 42.4046 18.1965 42.0201L18.1844 42.017L8.58937 39.4621ZM9.06894 53.4724L2.97466 49.0817C1.94852 48.3619 1.35925 47.1527 1.35925 45.8763V43.5609C1.35925 41.7824 2.20943 40.1626 3.73402 39.2112L3.73873 39.2082L4.76073 38.5803C6.01673 37.7212 7.6154 37.5501 9.00141 37.9192L18.5906 40.4725C20.8847 41.0484 22.4683 43.2203 22.4683 45.5569V53.0619C22.4683 53.5028 22.1103 53.8603 21.6687 53.8603H9.75489C9.46362 53.8603 9.20873 53.7048 9.06894 53.4724Z" fill="#FF671F"/>
<path fill-rule="evenodd" clip-rule="evenodd" d="M38.6999 36.0559C39.1415 36.0559 39.4995 36.4133 39.4995 36.8543V43.6407C39.4995 45.1958 40.7407 46.4351 42.298 46.4351H53.2523C53.6939 46.4351 54.0519 46.7926 54.0519 47.2335C54.0519 47.6745 53.6939 48.0319 53.2523 48.0319H42.298C39.8575 48.0319 37.9003 46.0777 37.9003 43.6407V36.8543C37.9003 36.4133 38.2583 36.0559 38.6999 36.0559Z" fill="#FF671F"/>
<path fill-rule="evenodd" clip-rule="evenodd" d="M21.6687 24C22.1103 24 22.4683 24.3575 22.4683 24.7984V46.1956C22.4683 46.6366 22.1103 46.994 21.6687 46.994C21.2271 46.994 20.8691 46.6366 20.8691 46.1956V24.7984C20.8691 24.3575 21.2271 24 21.6687 24Z" fill="#FF671F"/>
</svg>
