<svg width="88" height="64" viewBox="0 0 88 64" fill="none" xmlns="http://www.w3.org/2000/svg">
<path fill-rule="evenodd" clip-rule="evenodd" d="M83.4629 22.1663C83.6085 22.2889 83.699 22.4649 83.7142 22.6551L83.9977 26.2144C84.0285 26.6015 83.7448 26.942 83.3599 26.9797L80.2432 27.2849V30.7559C80.2432 31.7542 79.6482 32.6468 78.7589 33.0437C78.7529 33.0464 78.7469 33.049 78.7409 33.0515C77.8291 33.4285 77.2673 34.3756 77.5283 35.424C77.5303 35.4318 77.5321 35.4396 77.5338 35.4475C77.6879 36.17 78.3254 36.8101 79.0448 36.965L79.0618 36.9688C80.3751 37.2853 81.59 36.2888 81.59 34.9559C81.59 34.5628 81.9074 34.2441 82.2989 34.2441C82.6903 34.2441 83.0077 34.5628 83.0077 34.9559C83.0077 37.1796 80.9669 38.8867 78.7392 38.3552C77.4816 38.0808 76.4247 37.0203 76.1501 35.7577C75.7104 33.9675 76.7012 32.3609 78.1904 31.7394C78.5729 31.5653 78.8254 31.1788 78.8254 30.7559V27.4237L19.4992 33.233C21.2621 35.28 22.3291 37.9479 22.3291 40.8644V47.6983H47.7772L47.7772 45.1428C47.7772 45.1404 47.7772 45.138 47.7772 45.1356C47.7772 45.1332 47.7772 45.1308 47.7772 45.1284L47.7772 33.1763C47.7772 32.9875 47.8518 32.8064 47.9848 32.6729C48.1177 32.5394 48.298 32.4644 48.486 32.4644H59.4477C59.5412 32.4188 59.6461 32.3932 59.757 32.3932C59.8679 32.3932 59.9729 32.4188 60.0664 32.4644H67.2708C70.4269 32.4644 73.0126 35.0611 73.0126 38.2305V57.0949C73.0126 57.4881 72.6953 57.8068 72.3038 57.8068L64.3994 57.8068C64.0446 61.2859 61.1177 64 57.5595 64C54.0014 64 51.0745 61.2859 50.7197 57.8068L30.8702 57.8068C30.5154 61.2859 27.5885 64 24.0304 64C21.3259 64 18.9862 62.432 17.8633 60.152C16.7405 62.432 14.4007 64 11.6962 64C8.1381 64 5.21119 61.2859 4.85638 57.8068H0.708861C0.317368 57.8068 0 57.4881 0 57.0949V48.4102C0 48.017 0.317368 47.6983 0.708861 47.6983H4.53664V39.8678C4.53664 39.4746 4.85401 39.1559 5.2455 39.1559H7.72652V29.9017C7.72652 29.5349 8.00405 29.2281 8.36763 29.1931L82.9398 22.0033C83.1289 21.985 83.3174 22.0438 83.4629 22.1663ZM9.14424 39.1482L20.7467 39.0222C20.3451 36.8034 19.2313 34.8326 17.6522 33.3577C17.4614 33.2979 17.3029 33.1588 17.219 32.9753C15.4508 31.5006 13.1796 30.6136 10.7037 30.6136H9.14424V39.1482ZM14.9389 29.9898C16.1291 30.4581 17.2239 31.1178 18.1856 31.9312L79.3373 25.9431C79.3998 25.925 79.4659 25.9153 79.5343 25.9153C79.5548 25.9153 79.5751 25.9161 79.5952 25.9179L82.5289 25.6306L82.3584 23.4896L14.9389 29.9898ZM20.9029 40.4443L8.43538 40.5797L5.95436 40.5797V47.6983H20.9113V40.8644C20.9113 40.7237 20.9085 40.5837 20.9029 40.4443ZM1.41772 49.122V56.3831H4.85638C5.21119 52.9039 8.1381 50.1898 11.6962 50.1898C14.4007 50.1898 16.7405 51.7578 17.8633 54.0379C18.9862 51.7578 21.3259 50.1898 24.0304 50.1898C27.5885 50.1898 30.5154 52.9039 30.8702 56.3831H47.7772L47.7772 49.122H1.41772ZM49.195 56.3831L50.7197 56.383C51.0745 52.9039 54.0014 50.1898 57.5595 50.1898C61.1177 50.1898 64.0446 52.9039 64.3994 56.3831L71.5949 56.383V45.8475H59.7598C59.7589 45.8475 59.758 45.8475 59.757 45.8475C59.7561 45.8475 59.7551 45.8475 59.7542 45.8475H49.1949L49.1949 48.4041C49.1949 48.4061 49.195 48.4081 49.195 48.4102V56.3831ZM49.1949 44.4237H59.0482V33.8881H49.1949L49.1949 44.4237ZM60.4659 33.8881V44.4237H71.5949V38.2305C71.5949 35.8474 69.6439 33.8881 67.2708 33.8881H60.4659ZM17.1545 57.0949C17.1545 54.0676 14.7107 51.6136 11.6962 51.6136C8.68175 51.6136 6.23801 54.0676 6.23801 57.0949C6.23801 60.1222 8.68174 62.5763 11.6962 62.5763C14.7107 62.5763 17.1545 60.1222 17.1545 57.0949ZM18.5722 57.0949C18.5722 60.1222 21.0159 62.5763 24.0304 62.5763C27.0449 62.5763 29.4886 60.1222 29.4886 57.0949C29.4886 54.0676 27.0449 51.6136 24.0304 51.6136C21.0159 51.6136 18.5722 54.0676 18.5722 57.0949ZM57.5595 51.6136C54.545 51.6136 52.1013 54.0676 52.1013 57.0949C52.1013 60.1222 54.545 62.5763 57.5595 62.5763C60.574 62.5763 63.0177 60.1222 63.0177 57.0949C63.0177 54.0676 60.574 51.6136 57.5595 51.6136ZM11.6962 54.6034C10.326 54.6034 9.21519 55.7189 9.21519 57.0949C9.21519 58.4709 10.326 59.5864 11.6962 59.5864C13.0664 59.5864 14.1772 58.4709 14.1772 57.0949C14.1772 55.7189 13.0664 54.6034 11.6962 54.6034ZM7.79747 57.0949C7.79747 54.9326 9.543 53.1797 11.6962 53.1797C13.8494 53.1797 15.5949 54.9326 15.5949 57.0949C15.5949 59.2573 13.8494 61.0102 11.6962 61.0102C9.543 61.0102 7.79747 59.2573 7.79747 57.0949ZM24.0303 54.6034C22.6601 54.6034 21.5493 55.7189 21.5493 57.0949C21.5493 58.4709 22.6601 59.5864 24.0303 59.5864C25.4005 59.5864 26.5113 58.4709 26.5113 57.0949C26.5113 55.7189 25.4005 54.6034 24.0303 54.6034ZM20.1316 57.0949C20.1316 54.9326 21.8771 53.1797 24.0303 53.1797C26.1835 53.1797 27.9291 54.9326 27.9291 57.0949C27.9291 59.2573 26.1835 61.0102 24.0303 61.0102C21.8771 61.0102 20.1316 59.2573 20.1316 57.0949ZM57.5595 54.6034C56.1893 54.6034 55.0785 55.7189 55.0785 57.0949C55.0785 58.4709 56.1893 59.5864 57.5595 59.5864C58.9297 59.5864 60.0405 58.4709 60.0405 57.0949C60.0405 55.7189 58.9297 54.6034 57.5595 54.6034ZM53.6607 57.0949C53.6607 54.9326 55.4063 53.1797 57.5595 53.1797C59.7127 53.1797 61.4582 54.9326 61.4582 57.0949C61.4582 59.2573 59.7127 61.0102 57.5595 61.0102C55.4063 61.0102 53.6607 59.2573 53.6607 57.0949Z" fill="#FF671F"/>
</svg>
