<svg width="88" height="64" viewBox="0 0 88 64" fill="none" xmlns="http://www.w3.org/2000/svg">
<path fill-rule="evenodd" clip-rule="evenodd" d="M28.7119 29.2458C28.7119 27.4628 30.1734 26 31.9549 26H38.2825C41.4288 26 44.135 28.2491 44.6773 31.3249L44.6782 31.33L46.8124 43.9094C47.2976 46.4638 45.3296 48.8 42.7119 48.8H28.7782C28.9177 49.0056 29.0495 49.2169 29.1732 49.4333H36.4633C36.4765 49.4333 36.4896 49.4337 36.5027 49.4343C36.5158 49.4337 36.5291 49.4333 36.5424 49.4333H47.5301C49.0564 45.4404 52.9326 42.625 57.5029 42.625C61.8346 42.625 65.5216 45.1505 67.2058 48.8476L69.3402 49.2068C69.7211 49.2709 70 49.6009 70 49.9875V54.5C70 54.8508 69.7694 55.1597 69.4333 55.2592L67.9094 55.7101C66.8507 60.4958 62.6082 64 57.5029 64C53.329 64 49.7842 61.6435 47.9946 58.2208H36.5424C36.5291 58.2208 36.516 58.2205 36.5029 58.2199C36.4898 58.2205 36.4766 58.2208 36.4633 58.2208L29.6146 58.2208C28.099 61.6261 24.6881 64 20.7232 64C16.5228 64 12.9441 61.3357 11.5821 57.6034L0.610713 55.0333C0.252983 54.9495 0 54.6302 0 54.2625V49.9875C0 48.4419 1.22418 47.2167 2.76836 47.2167H5.6158V43.8125C5.6158 43.5725 5.72456 43.3455 5.91152 43.1952C11.2701 38.8883 17.851 36.5292 24.7571 36.5292H28.7119C28.7118 36.5292 28.7119 36.5292 28.7119 36.5292L28.7119 29.2458ZM28.7119 38.1125C28.7118 38.1125 28.7119 38.1125 28.7119 38.1125H24.7571C18.3431 38.1125 12.225 40.2597 7.19772 44.1952V47.2167H14.0079C15.754 45.549 18.1191 44.525 20.7232 44.525C23.3273 44.525 25.6924 45.549 27.4385 47.2167H28.7119L28.7119 38.1125ZM30.2938 47.2167H35.7514V27.5833H31.9549C31.0471 27.5833 30.2938 28.3372 30.2938 29.2458V47.2167ZM37.3333 27.5833V47.2167H42.7119C44.3624 47.2167 45.5567 45.7583 45.2572 44.1995L45.2542 44.1825L43.1194 31.6001C43.1193 31.5993 43.1192 31.5985 43.119 31.5977C42.7112 29.2914 40.6722 27.5833 38.2825 27.5833H37.3333ZM12.6682 48.8H2.76836C2.09785 48.8 1.58192 49.3164 1.58192 49.9875V53.6347L11.1264 55.8705C11.0396 55.3474 10.9944 54.8102 10.9944 54.2625C10.9944 52.2379 11.6117 50.3577 12.6682 48.8ZM30.1606 56.6375H31.322V51.0167H29.8984C30.2569 52.0319 30.452 53.1244 30.452 54.2625C30.452 55.0817 30.3509 55.8773 30.1606 56.6375ZM32.904 51.0167V53.075H35.6723V51.0167H32.904ZM35.6723 54.6583H32.904V56.6375H35.6723V54.6583ZM37.3333 56.6375V53.8725C37.3333 53.8706 37.3333 53.8686 37.3333 53.8667C37.3333 53.8647 37.3333 53.8628 37.3333 53.8608V51.0167H48.0721C48.0845 51.017 48.0969 51.017 48.1092 51.0167H53.2316C54.0675 51.0167 54.7974 50.8292 55.4868 50.5704C55.5022 50.5646 55.5175 50.5583 55.5326 50.5516L57.7994 49.5345C58.5713 49.2573 59.3696 49.1358 60.14 49.264C60.14 49.264 60.1401 49.264 60.14 49.264C60.1404 49.2641 60.1408 49.2642 60.1411 49.2642L68.4181 50.6572V53.9085L67.2221 54.2624C67.0731 54.2641 66.9311 54.308 66.8101 54.3843L59.8887 56.4325C59.8801 56.435 59.8714 56.4378 59.8629 56.4406C59.4646 56.5735 59.0743 56.6375 58.6893 56.6375H48.5025C48.4911 56.6372 48.4798 56.6372 48.4684 56.6375H37.3333ZM49.8235 58.2208C51.4504 60.7443 54.2545 62.4167 57.5029 62.4167C61.5455 62.4167 64.9366 59.851 66.1261 56.2378L60.3498 57.9471C59.8033 58.128 59.2488 58.2208 58.6893 58.2208H49.8235ZM49.2466 49.4333H53.2316C53.8118 49.4333 54.3411 49.3075 54.9086 49.0964L57.1793 48.0776C57.1967 48.0697 57.2145 48.0625 57.2325 48.056C58.1922 47.7067 59.2824 47.5158 60.4012 47.7024L60.4023 47.7026L65.2413 48.517C63.6458 45.9154 60.7969 44.2083 57.5029 44.2083C53.8197 44.2083 50.6783 46.3451 49.2466 49.4333ZM20.7232 46.1083C16.2238 46.1083 12.5763 49.7591 12.5763 54.2625C12.5763 58.7659 16.2238 62.4167 20.7232 62.4167C25.2226 62.4167 28.8701 58.7659 28.8701 54.2625C28.8701 49.7591 25.2226 46.1083 20.7232 46.1083ZM20.7231 50.7C18.7574 50.7 17.1638 52.295 17.1638 54.2625C17.1638 56.23 18.7574 57.825 20.7231 57.825C22.6889 57.825 24.2825 56.23 24.2825 54.2625C24.2825 52.295 22.6889 50.7 20.7231 50.7ZM15.5819 54.2625C15.5819 51.4205 17.8837 49.1167 20.7231 49.1167C23.5626 49.1167 25.8644 51.4205 25.8644 54.2625C25.8644 57.1045 23.5626 59.4083 20.7231 59.4083C17.8837 59.4083 15.5819 57.1045 15.5819 54.2625ZM57.5029 52.2833C56.935 52.2833 56.4746 52.7441 56.4746 53.3125C56.4746 53.8809 56.935 54.3417 57.5029 54.3417C58.0708 54.3417 58.5311 53.8809 58.5311 53.3125C58.5311 52.7441 58.0708 52.2833 57.5029 52.2833ZM54.8927 53.3125C54.8927 51.8697 56.0613 50.7 57.5029 50.7C58.9444 50.7 60.113 51.8697 60.113 53.3125C60.113 54.7553 58.9444 55.925 57.5029 55.925C56.0613 55.925 54.8927 54.7553 54.8927 53.3125Z" fill="#FF671F"/>
</svg>
