<svg width="88" height="64" viewBox="0 0 88 64" fill="none" xmlns="http://www.w3.org/2000/svg">
<path fill-rule="evenodd" clip-rule="evenodd" d="M27.0269 28.6232C27.0785 28.2655 27.3838 28 27.7438 28H35.712C38.3894 28 40.5819 29.939 40.9209 32.5573L41.9133 39.4935H46.3604C46.7605 39.4935 47.0848 39.8191 47.0848 40.2209L47.0848 41.0211H54.4011C55.27 41.0211 56.0072 41.5631 56.2973 42.3304H58.2554C58.493 41.5563 59.1952 40.9483 60.1237 40.9483C61.1476 40.9483 62.0796 41.7555 62.0796 42.9124V53.7527C62.3881 55.4375 63.6521 56.7944 65.3063 57.24C65.2802 56.9777 65.2668 56.7117 65.2668 56.4427C65.2668 52.04 68.8508 48.4409 73.235 48.4409H74.6113C74.8942 48.4409 75.1512 48.6063 75.2694 48.8643L81.9337 63.413C82.0369 63.6382 82.0187 63.9007 81.8855 64.1095C81.7524 64.3182 81.5225 64.4444 81.2756 64.4444H73.235C69.6624 64.4444 66.6211 62.0545 65.6176 58.7873C64.1146 58.5675 62.7956 57.7891 61.8815 56.6694C61.1522 61.0809 57.3348 64.4444 52.735 64.4444C47.6142 64.4444 43.4629 60.2757 43.4629 55.1333C43.4629 49.9909 47.6142 45.8221 52.735 45.8221C54.7642 45.8221 56.6412 46.4767 58.1679 47.5871V43.7853H56.2973C56.0072 44.5527 55.27 45.0947 54.4011 45.0947H52.735C50.5047 45.0947 48.4182 45.8414 46.8101 47.1199C46.8017 47.1266 46.7932 47.133 46.7846 47.1393C44.358 48.8991 42.7385 51.8113 42.7385 55.1333C42.7385 55.6566 42.8031 56.1177 42.8761 56.6308C42.9058 56.8395 42.8438 57.051 42.7062 57.2103C42.5687 57.3696 42.369 57.4611 42.159 57.4611H36.2915C35.8914 57.4611 35.5671 57.1354 35.5671 56.7336V54.4058H31.076V56.7336C31.076 57.1354 30.7517 57.4611 30.3516 57.4611H28.2486C27.2193 61.477 23.589 64.4444 19.2686 64.4444C14.9482 64.4444 11.3179 61.477 10.2886 57.4611H5.43286C2.42502 57.4611 0 55.0258 0 52.0053V50.6232C0 50.2214 0.324317 49.8958 0.724382 49.8958H2.31802V44.0763C2.31802 41.143 4.57478 38.7901 7.41789 38.6218L25.7485 37.4934L27.0269 28.6232ZM25.5247 38.9648L7.50367 40.0741C5.42132 40.1972 3.76679 41.9178 3.76679 44.0763V50.6232C3.76679 51.0249 3.44247 51.3506 3.0424 51.3506H1.44876V52.0053C1.44876 54.2223 3.22515 56.0062 5.43286 56.0062H10.0367C10.0101 55.7188 9.9965 55.4276 9.9965 55.1333C9.9965 49.9909 14.1478 45.8221 19.2686 45.8221C24.3894 45.8221 28.5407 49.9909 28.5407 55.1333C28.5407 55.4276 28.5271 55.7188 28.5005 56.0062H29.6272V46.0404H25.3534C25.1434 46.0404 24.9437 45.9488 24.8061 45.7895C24.6685 45.6302 24.6066 45.4188 24.6363 45.2101L25.5247 38.9648ZM31.076 46.0404V49.8958H35.5671V46.0404H31.076ZM33.9735 44.5855H41.1782L39.4862 32.759L39.4848 32.7487C39.242 30.8595 37.6689 29.4549 35.712 29.4549H33.9735V44.5855ZM32.5248 29.4549V44.5855H26.1901L28.3709 29.4549H32.5248ZM42.0141 46.0404H37.0159V50.6162C37.0159 50.6185 37.0159 50.6208 37.0159 50.6232C37.0159 50.6255 37.0159 50.6279 37.0159 50.6302V53.6714C37.0159 53.6737 37.0159 53.6761 37.0159 53.6784C37.0159 53.6808 37.0159 53.6831 37.0159 53.6855V56.0062H41.3359C41.3084 55.7323 41.2897 55.4425 41.2897 55.1333C41.2897 51.4647 43.0148 48.2262 45.6361 46.1855L45.636 40.9483H42.1335L42.7312 45.2095L42.7314 45.2115C42.7607 45.42 42.6985 45.6311 42.5609 45.7901C42.4233 45.9491 42.2239 46.0404 42.0141 46.0404ZM47.0848 45.1704C48.7407 44.188 50.691 43.6398 52.735 43.6398H54.4011C54.7254 43.6398 54.9806 43.3836 54.9806 43.0579C54.9806 42.7322 54.7254 42.4759 54.4011 42.4759H47.0848L47.0848 45.1704ZM35.5671 52.951V51.3506H31.076V52.951H35.5671ZM59.6167 48.893C59.9939 49.3122 60.3337 49.7662 60.6308 50.2495V42.9124C60.6308 42.6144 60.4037 42.4032 60.1237 42.4032C59.827 42.4032 59.6167 42.6312 59.6167 42.9124V48.893ZM66.9329 58.1156C67.6744 60.912 70.2261 62.9896 73.235 62.9896H80.1451L74.1472 49.8958H73.235C69.6509 49.8958 66.7155 52.8435 66.7155 56.4427C66.7155 56.9031 66.7636 57.3529 66.8549 57.7872C66.9049 57.8862 66.9329 57.9979 66.9329 58.1156ZM19.2686 47.277C14.9479 47.277 11.4453 50.7944 11.4453 55.1333C11.4453 59.4722 14.9479 62.9896 19.2686 62.9896C23.5893 62.9896 27.0919 59.4722 27.0919 55.1333C27.0919 50.7944 23.5893 47.277 19.2686 47.277ZM52.735 47.277C48.4143 47.277 44.9117 50.7944 44.9117 55.1333C44.9117 59.4722 48.4143 62.9896 52.735 62.9896C57.0557 62.9896 60.5583 59.4722 60.5583 55.1333C60.5583 50.7944 57.0557 47.277 52.735 47.277ZM19.2685 52.2235C17.6683 52.2235 16.371 53.5263 16.371 55.1333C16.371 56.7403 17.6683 58.043 19.2685 58.043C20.8688 58.043 22.1661 56.7403 22.1661 55.1333C22.1661 53.5263 20.8688 52.2235 19.2685 52.2235ZM14.9222 55.1333C14.9222 52.7228 16.8681 50.7687 19.2685 50.7687C21.6689 50.7687 23.6148 52.7228 23.6148 55.1333C23.6148 57.5438 21.6689 59.4979 19.2685 59.4979C16.8681 59.4979 14.9222 57.5438 14.9222 55.1333ZM52.735 52.2235C51.1348 52.2235 49.8375 53.5263 49.8375 55.1333C49.8375 56.7403 51.1348 58.043 52.735 58.043C54.3353 58.043 55.6326 56.7403 55.6326 55.1333C55.6326 53.5263 54.3353 52.2235 52.735 52.2235ZM48.3887 55.1333C48.3887 52.7228 50.3346 50.7687 52.735 50.7687C55.1354 50.7687 57.0813 52.7228 57.0813 55.1333C57.0813 57.5438 55.1354 59.4979 52.735 59.4979C50.3346 59.4979 48.3887 57.5438 48.3887 55.1333Z" fill="#FF671F"/>
</svg>
