<svg width="88" height="64" viewBox="0 0 88 64" fill="none" xmlns="http://www.w3.org/2000/svg">
<path fill-rule="evenodd" clip-rule="evenodd" d="M7.30214 54.0904C4.95813 54.0904 3.08938 56.0319 3.08938 58.3373C3.08938 60.7004 5.0153 62.5843 7.30214 62.5843H37.0723C39.3592 62.5843 41.2851 60.7004 41.2851 58.3373C41.2851 55.9743 39.3592 54.0904 37.0723 54.0904H7.30214ZM1.68512 58.3373C1.68512 55.2633 4.16957 52.6747 7.30214 52.6747H37.0723C40.1217 52.6747 42.6894 55.1793 42.6894 58.3373C42.6894 61.4954 40.1217 64 37.0723 64H7.30214C4.25282 64 1.68512 61.4954 1.68512 58.3373Z" fill="#FF671F"/>
<path fill-rule="evenodd" clip-rule="evenodd" d="M2.87872 42.4819C2.07288 42.4819 1.40426 43.156 1.40426 43.9684V51.259C1.40426 52.0714 2.07288 52.7455 2.87872 52.7455H20.8532V42.4819H2.87872ZM0 43.9684C0 42.3741 1.29733 41.0663 2.87872 41.0663H21.5553C21.9431 41.0663 22.2574 41.3832 22.2574 41.7741V53.4533C22.2574 53.8442 21.9431 54.1611 21.5553 54.1611H2.87872C1.29733 54.1611 0 52.8533 0 51.259V43.9684Z" fill="#FF671F"/>
<path fill-rule="evenodd" clip-rule="evenodd" d="M23.9426 33.634C23.0801 33.634 22.3277 34.3651 22.3277 35.3328V52.7455H36.5107C37.6143 52.7455 38.3878 51.7447 38.1446 50.7152L38.1431 50.7087L35.1949 37.6875C34.6343 35.3068 32.5917 33.634 30.1915 33.634H23.9426ZM20.9234 35.3328C20.9234 33.6109 22.2774 32.2184 23.9426 32.2184H30.1915C33.267 32.2184 35.8578 34.3666 36.562 37.364L36.5633 37.3696L39.5115 50.3906C39.968 52.3327 38.4953 54.1611 36.5107 54.1611H21.6256C21.2378 54.1611 20.9234 53.8442 20.9234 53.4533V35.3328Z" fill="#FF671F"/>
<path fill-rule="evenodd" clip-rule="evenodd" d="M15.8718 41.8109C15.8718 42.2018 15.5575 42.5187 15.1697 42.5187H5.1995C4.81172 42.5187 4.49737 42.2018 4.49737 41.8109V39.4751C4.49737 39.0841 4.81172 38.7672 5.1995 38.7672H15.1697C15.5575 38.7672 15.8718 39.0841 15.8718 39.4751V41.8109ZM14.4676 41.1031V40.1829H5.90162V41.1031H14.4676Z" fill="#FF671F"/>
<path fill-rule="evenodd" clip-rule="evenodd" d="M4.49363 46.3042C4.49363 45.9133 4.80799 45.5964 5.19576 45.5964H15.166C15.5537 45.5964 15.8681 45.9133 15.8681 46.3042C15.8681 46.6951 15.5537 47.012 15.166 47.012H5.19576C4.80799 47.012 4.49363 46.6951 4.49363 46.3042Z" fill="#FF671F"/>
<path fill-rule="evenodd" clip-rule="evenodd" d="M4.49363 48.9232C4.49363 48.5323 4.80799 48.2154 5.19576 48.2154H15.166C15.5537 48.2154 15.8681 48.5323 15.8681 48.9232C15.8681 49.3141 15.5537 49.631 15.166 49.631H5.19576C4.80799 49.631 4.49363 49.3141 4.49363 48.9232Z" fill="#FF671F"/>
<path fill-rule="evenodd" clip-rule="evenodd" d="M27.9447 32.2184C28.3325 32.2184 28.6468 32.5353 28.6468 32.9262V53.4533C28.6468 53.8442 28.3325 54.1611 27.9447 54.1611C27.5569 54.1611 27.2426 53.8442 27.2426 53.4533V32.9262C27.2426 32.5353 27.5569 32.2184 27.9447 32.2184Z" fill="#FF671F"/>
<path fill-rule="evenodd" clip-rule="evenodd" d="M57.11 22.8843C58.8003 22.6016 60.383 23.9239 60.383 25.7063V41.8449C60.383 42.2358 60.0687 42.5527 59.6809 42.5527H56.2405C55.8527 42.5527 55.5383 42.2358 55.5383 41.8449V28.5377C55.5383 28.2436 55.2803 28.0516 55.0441 28.0992C55.0359 28.1009 55.0276 28.1024 55.0192 28.1038L39.931 30.5799L39.9273 30.5805C38.4675 30.8373 37.217 31.5353 36.2777 32.6715L36.2701 32.6805L34.5148 34.7333C34.2616 35.0293 33.8183 35.0625 33.5246 34.8072C33.2309 34.552 33.198 34.105 33.4512 33.8089L35.2028 31.7606C36.3688 30.3523 37.9239 29.4949 39.6904 29.1852L39.6979 29.1839L54.7825 26.7083C55.9447 26.4829 56.9426 27.4205 56.9426 28.5377V41.137H58.9788V25.7063C58.9788 24.7997 58.1755 24.1405 57.3389 24.281L57.3352 24.2816L38.1715 27.3954C36.7119 27.6522 35.4615 28.3502 34.5224 29.4863L31.2918 33.3803C31.043 33.6802 30.6002 33.72 30.3028 33.4692C30.0053 33.2184 29.9659 32.772 30.2147 32.4721L33.4436 28.58C34.61 27.1692 36.1668 26.3099 37.9351 25.9999L37.9436 25.9984L57.108 22.8846L57.11 22.8843Z" fill="#FF671F"/>
<path fill-rule="evenodd" clip-rule="evenodd" d="M55.5248 41.6368C55.6355 41.3766 55.8893 41.2078 56.1702 41.2078H60.1021C63.3686 41.2078 66 43.8606 66 47.1536C66 50.0432 64.0046 52.454 61.2228 53.0149L61.2182 53.0158L51.0374 54.9977C50.7822 55.0474 50.5207 54.9509 50.3576 54.7469C50.1945 54.5429 50.1565 54.2647 50.2589 54.0239L55.5248 41.6368ZM56.6332 42.6235L52.0712 53.3546L60.9474 51.6267L60.9496 51.6262C63.0816 51.1953 64.5957 49.3597 64.5957 47.1536C64.5957 44.6424 62.5931 42.6235 60.1021 42.6235H56.6332Z" fill="#FF671F"/>
<path fill-rule="evenodd" clip-rule="evenodd" d="M60.3037 20.709C60.3658 21.0949 60.1058 21.4584 59.723 21.521L49.3346 23.2193L49.3334 23.2195C49.1054 23.2583 48.8675 23.4259 48.768 23.5931L48.7662 23.5963L47.5725 25.5782C47.3713 25.9124 46.9394 26.0188 46.608 25.8159C46.2765 25.613 46.1709 25.1777 46.3722 24.8435L47.565 22.863C47.8868 22.3235 48.4902 21.926 49.1037 21.8229L49.1068 21.8224L59.4983 20.1236C59.881 20.061 60.2417 20.3231 60.3037 20.709Z" fill="#FF671F"/>
<path fill-rule="evenodd" clip-rule="evenodd" d="M59.2239 28.6363C59.4801 28.3428 59.9238 28.3143 60.2149 28.5725L61.9702 30.1298C62.0009 30.157 62.0291 30.1868 62.0546 30.219C62.3854 30.6357 62.7 31.2139 62.7 31.8645V42.2696C62.7 42.6605 62.3856 42.9774 61.9979 42.9774C61.6101 42.9774 61.2957 42.6605 61.2957 42.2696V31.8645C61.2957 31.6761 61.2 31.4227 60.9934 31.149L59.2872 29.6353C58.9961 29.377 58.9678 28.9298 59.2239 28.6363Z" fill="#FF671F"/>
<path fill-rule="evenodd" clip-rule="evenodd" d="M59.6106 17C59.9984 17 60.3128 17.3169 60.3128 17.7078V26.9804C60.3128 27.3713 59.9984 27.6883 59.6106 27.6883C59.2229 27.6883 58.9085 27.3713 58.9085 26.9804V17.7078C58.9085 17.3169 59.2229 17 59.6106 17Z" fill="#FF671F"/>
<path fill-rule="evenodd" clip-rule="evenodd" d="M45.8637 28.3581C46.1947 28.5618 46.2992 28.9974 46.0972 29.3311L37.7419 43.1338C37.5399 43.4675 37.1078 43.5729 36.7768 43.3693C36.4458 43.1656 36.3412 42.73 36.5432 42.3963L44.8986 28.5936C45.1006 28.2599 45.5326 28.1545 45.8637 28.3581Z" fill="#FF671F"/>
<path fill-rule="evenodd" clip-rule="evenodd" d="M5.33615 58.3373C5.33615 57.9464 5.65051 57.6295 6.03828 57.6295H38.3361C38.7239 57.6295 39.0383 57.9464 39.0383 58.3373C39.0383 58.7283 38.7239 59.0452 38.3361 59.0452H6.03828C5.65051 59.0452 5.33615 58.7283 5.33615 58.3373Z" fill="#FF671F"/>
</svg>
