<svg width="88" height="64" viewBox="0 0 88 64" fill="none" xmlns="http://www.w3.org/2000/svg">
<path fill-rule="evenodd" clip-rule="evenodd" d="M0 34.4979C0 34.166 0.272997 33.897 0.609755 33.897H12.9268C13.2636 33.897 13.5366 34.166 13.5366 34.4979V52.2232C13.5366 52.555 13.2636 52.824 12.9268 52.824C12.59 52.824 12.3171 52.555 12.3171 52.2232V35.0987H1.21951V58.4721C1.21951 58.8039 0.946513 59.073 0.609755 59.073C0.272997 59.073 0 58.8039 0 58.4721V34.4979Z" fill="#FF671F"/>
<path fill-rule="evenodd" clip-rule="evenodd" d="M12.317 26.1459C12.317 25.8141 12.59 25.5451 12.9268 25.5451H15.9146C16.2513 25.5451 16.5243 25.8141 16.5243 26.1459V54.867C16.5243 55.1988 16.2513 55.4678 15.9146 55.4678C15.5778 55.4678 15.3048 55.1988 15.3048 54.867V26.7468H13.5365L13.5366 52.2232C13.5366 52.555 13.2636 52.824 12.9268 52.824C12.59 52.824 12.3171 52.555 12.3171 52.2232L12.317 26.1459Z" fill="#FF671F"/>
<path fill-rule="evenodd" clip-rule="evenodd" d="M10.9756 22.6009C10.9756 22.269 11.2486 22 11.5853 22H15.9146C16.2514 22 16.5244 22.269 16.5244 22.6009L16.5243 26.1459C16.5243 26.4778 16.2514 26.7468 15.9146 26.7468H12.9268C12.7361 26.7468 12.5563 26.6588 12.441 26.5091L11.0996 24.7666C11.0191 24.6621 10.9756 24.5346 10.9756 24.4034V22.6009ZM12.1951 23.2017V24.2013L13.2296 25.5451H15.3049V23.2017H12.1951Z" fill="#FF671F"/>
<path fill-rule="evenodd" clip-rule="evenodd" d="M0 34.4979C0 34.166 0.272997 33.897 0.609755 33.897H12.9268C13.2636 33.897 13.5366 34.166 13.5366 34.4979V37.0215C13.5366 37.3533 13.2636 37.6223 12.9268 37.6223H0.609755C0.272997 37.6223 0 37.3533 0 37.0215V34.4979ZM1.21951 35.0987V36.4206H12.3171V35.0987H1.21951Z" fill="#FF671F"/>
<path fill-rule="evenodd" clip-rule="evenodd" d="M29.6342 57.9914C28.2871 57.9914 27.1951 59.0675 27.1951 60.3948C27.1951 61.7222 28.2871 62.7983 29.6342 62.7983C30.9812 62.7983 32.0732 61.7222 32.0732 60.3948C32.0732 59.0675 30.9812 57.9914 29.6342 57.9914ZM25.9756 60.3948C25.9756 58.4038 27.6136 56.7897 29.6342 56.7897C31.6547 56.7897 33.2927 58.4038 33.2927 60.3948C33.2927 62.3859 31.6547 64 29.6342 64C27.6136 64 25.9756 62.3859 25.9756 60.3948Z" fill="#FF671F"/>
<path fill-rule="evenodd" clip-rule="evenodd" d="M29.6341 59.8541C29.331 59.8541 29.0853 60.0962 29.0853 60.3949C29.0853 60.6935 29.331 60.9356 29.6341 60.9356C29.9371 60.9356 30.1828 60.6935 30.1828 60.3949C30.1828 60.0962 29.9371 59.8541 29.6341 59.8541ZM27.8658 60.3949C27.8658 59.4325 28.6575 58.6524 29.6341 58.6524C30.6107 58.6524 31.4024 59.4325 31.4024 60.3949C31.4024 61.3572 30.6107 62.1373 29.6341 62.1373C28.6575 62.1373 27.8658 61.3572 27.8658 60.3949Z" fill="#FF671F"/>
<path fill-rule="evenodd" clip-rule="evenodd" d="M0 58.412C0 58.0802 0.272997 57.8112 0.609755 57.8112H25.4268C25.6291 57.8112 25.8183 57.9101 25.9317 58.0752C26.0451 58.2403 26.0681 58.4501 25.9929 58.6352C25.7667 59.1924 25.6097 59.775 25.6097 60.3948C25.6097 61.0167 25.7679 61.5944 25.984 62.0736C26.0678 62.2594 26.0505 62.4745 25.9381 62.645C25.8256 62.8156 25.6332 62.9185 25.4268 62.9185H9.28237C8.64615 63.5217 7.77324 63.9399 6.76828 63.9399C5.76332 63.9399 4.89041 63.5217 4.25419 62.9185H0.609755C0.272997 62.9185 0 62.6494 0 62.3176V58.412ZM1.21951 59.0129V61.7167H4.51219C4.68504 61.7167 4.84978 61.789 4.96541 61.9156C5.41609 62.4091 6.05108 62.7382 6.76828 62.7382C7.48548 62.7382 8.12047 62.4091 8.57115 61.9156C8.68678 61.789 8.85152 61.7167 9.02437 61.7167H24.5675C24.4583 61.3093 24.3902 60.8645 24.3902 60.3948C24.3902 59.9038 24.4647 59.4423 24.5804 59.0129H1.21951Z" fill="#FF671F"/>
<path fill-rule="evenodd" clip-rule="evenodd" d="M15.3049 43.9914C15.3049 43.6596 15.5779 43.3906 15.9147 43.3906H34.3902C34.727 43.3906 35 43.6596 35 43.9914C35 44.3233 34.727 44.5923 34.3902 44.5923H15.9147C15.5779 44.5923 15.3049 44.3233 15.3049 43.9914Z" fill="#FF671F"/>
<path fill-rule="evenodd" clip-rule="evenodd" d="M15.3049 46.5751C15.3049 46.2433 15.5779 45.9742 15.9147 45.9742H34.3902C34.727 45.9742 35 46.2433 35 46.5751C35 46.907 34.727 47.176 34.3902 47.176H15.9147C15.5779 47.176 15.3049 46.907 15.3049 46.5751Z" fill="#FF671F"/>
<path fill-rule="evenodd" clip-rule="evenodd" d="M8.55789 45.9461C8.66956 45.8481 8.81387 45.794 8.9634 45.794H12.9268C13.2636 45.794 13.5366 46.063 13.5366 46.3948V51.953L17.6608 55.5591C17.7912 55.6732 17.8658 55.8368 17.8658 56.0086V58.4721C17.8658 58.8039 17.5928 59.073 17.2561 59.073H0.609755C0.272997 59.073 0 58.8039 0 58.4721V53.7253C0 53.5539 0.0743163 53.3906 0.204243 53.2766L8.55789 45.9461ZM9.19554 46.9957L1.21951 53.9948V57.8712H16.6463V56.2787L12.5221 52.6726C12.3917 52.5586 12.3171 52.395 12.3171 52.2232V46.9957H9.19554Z" fill="#FF671F"/>
<path fill-rule="evenodd" clip-rule="evenodd" d="M8.96337 36.4206C9.30013 36.4206 9.57312 36.6896 9.57312 37.0215V46.3948C9.57312 46.7267 9.30013 46.9957 8.96337 46.9957C8.62661 46.9957 8.35361 46.7267 8.35361 46.3948V37.0215C8.35361 36.6896 8.62661 36.4206 8.96337 36.4206Z" fill="#FF671F"/>
</svg>
