<svg width="182" height="64" viewBox="0 0 182 64" fill="none" xmlns="http://www.w3.org/2000/svg">
<path fill-rule="evenodd" clip-rule="evenodd" d="M43.002 0.0820245C42.9804 0.0707311 42.958 0.0604308 42.9349 0.0512024C42.5649 -0.0966569 42.1462 0.086623 41.9999 0.460569L29.7867 31.6724H25.1607C23.1656 31.6724 21.6301 33.3212 21.6301 35.2401V41.1649H0.720545C0.322599 41.1649 0 41.4909 0 41.893V51.6495C0 51.8426 0.0759143 52.0278 0.211043 52.1643C0.346171 52.3009 0.529445 52.3776 0.720545 52.3776H38.1889C38.4053 52.3776 38.5994 52.2812 38.7315 52.1286L41.9541 49.5778V58.6211C41.9541 59.0232 42.2767 59.3492 42.6746 59.3492H45.4848C45.8827 59.3492 46.2053 59.0232 46.2053 58.6211V3.4621L50.8121 11.553V33.0559H50.5239C49.6937 33.0559 49.0108 33.7459 49.0108 34.5849V39.2447C49.0108 40.0837 49.6937 40.7737 50.5239 40.7737H50.8121L50.8121 55.8132L47.4664 58.0008C47.2612 58.135 47.1373 58.3651 47.1373 58.6121V63.2719C47.1373 63.674 47.4599 64 47.8578 64H55.2795C55.6774 64 56 63.674 56 63.2719V58.6121C56 58.3628 55.8738 58.1309 55.6655 57.9973L52.2532 55.8091L52.2532 40.7737H52.5415C53.3717 40.7737 54.0546 40.0837 54.0546 39.2447V34.5849C54.0546 33.7459 53.3717 33.0559 52.5415 33.0559H52.2532V11.3585C52.2532 11.2311 52.2201 11.1059 52.1572 10.9954L46.1046 0.365189C45.9113 0.0258191 45.4886 -0.0968651 45.1481 0.0820245H43.002ZM44.7642 1.53822H43.3952V57.893H44.7642V1.53822ZM51.8471 39.3175H52.5415C52.554 39.3175 52.5723 39.3124 52.5904 39.2941C52.6085 39.2758 52.6135 39.2574 52.6135 39.2447V34.5849C52.6135 34.5722 52.6085 34.5537 52.5904 34.5354C52.5723 34.5172 52.554 34.512 52.5415 34.512H50.5239C50.5114 34.512 50.4931 34.5172 50.475 34.5354C50.4569 34.5537 50.4519 34.5722 50.4519 34.5849V39.2447C50.4519 39.2574 50.4569 39.2758 50.475 39.2941C50.4931 39.3124 50.5114 39.3175 50.5239 39.3175H51.2182C51.3133 39.2708 51.42 39.2447 51.5327 39.2447C51.6454 39.2447 51.7521 39.2708 51.8471 39.3175ZM51.5364 57.0741L48.5784 59.0082V62.5438H54.5589V59.0124L51.5364 57.0741ZM41.9541 47.728V4.53796L31.3363 31.6724H35.3925C37.2915 31.6724 38.9232 33.2241 38.9232 35.2401V41.8658C38.9232 41.9145 38.9184 41.962 38.9094 42.0079V50.138L41.9541 47.728ZM37.4683 50.9214V42.6211H1.44109V50.9214H37.4683ZM37.4821 41.1377V35.2401C37.4821 34.0525 36.5198 33.1286 35.3925 33.1286H30.9972V41.1377H37.4821ZM29.5561 41.1377V33.1286H25.1607C23.9855 33.1286 23.0712 34.101 23.0712 35.2401V41.1377H29.5561ZM3.25617 45.1423C3.25617 44.7401 3.57877 44.4142 3.97672 44.4142H12.335C12.733 44.4142 13.0556 44.7401 13.0556 45.1423C13.0556 45.5444 12.733 45.8704 12.335 45.8704H3.97672C3.57877 45.8704 3.25617 45.5444 3.25617 45.1423ZM3.25617 48.3459C3.25617 47.9438 3.57877 47.6178 3.97672 47.6178H12.335C12.733 47.6178 13.0556 47.9438 13.0556 48.3459C13.0556 48.748 12.733 49.074 12.335 49.074H3.97672C3.57877 49.074 3.25617 48.748 3.25617 48.3459ZM0.0137213 58.612C0.0137213 55.5814 2.43326 53.2241 5.34575 53.2241H33.5191C36.4389 53.2241 38.8511 55.6616 38.8511 58.612C38.8511 61.5625 36.4389 64 33.5191 64H5.34575C2.4259 64 0.0137213 61.5625 0.0137213 58.612ZM5.34575 54.6803C3.21443 54.6803 1.45481 56.4004 1.45481 58.612C1.45481 60.7583 3.22179 62.5438 5.34575 62.5438H33.5191C35.643 62.5438 37.41 60.7583 37.41 58.612C37.41 56.4658 35.643 54.6803 33.5191 54.6803H5.34575ZM3.40025 58.6121C3.40025 58.2099 3.72285 57.884 4.12079 57.884H34.744C35.1419 57.884 35.4645 58.2099 35.4645 58.6121C35.4645 59.0142 35.1419 59.3402 34.744 59.3402H4.12079C3.72285 59.3402 3.40025 59.0142 3.40025 58.6121Z" fill="#FF671F"/>
</svg>
