<svg width="88" height="64" viewBox="0 0 88 64" fill="none" xmlns="http://www.w3.org/2000/svg">
<path fill-rule="evenodd" clip-rule="evenodd" d="M19.8534 27.517C19.1749 27.517 18.578 27.9309 18.3802 28.5744L18.3758 28.5882L16.595 34.0097V36.777L24.4758 38.998V27.517H19.8534ZM19.8534 26C18.5642 26 17.3447 26.7966 16.934 28.1208L15.2887 33.1297H4.24348C3.58556 33.1297 2.86305 33.4388 2.41946 33.8828L0.828155 35.4756C0.351104 35.9532 0 36.5905 0 37.3014V52.2435C0 52.9021 0.308787 53.6252 0.752379 54.0693L2.87412 56.193C2.88676 56.2057 2.89981 56.2178 2.91323 56.2295C3.05217 56.3897 3.25711 56.491 3.4857 56.491C3.60426 56.491 3.71646 56.4638 3.81638 56.4152H5.02898C5.37573 60.6618 8.92882 64 13.2608 64C17.5671 64 21.1036 60.7015 21.4862 56.491H26.7834C27.166 60.7015 30.7025 64 35.0087 64C39.3149 64 42.8515 60.7015 43.2341 56.491H43.5635L43.0701 58.2547L43.0696 58.2566C42.7041 59.5404 43.3027 60.8751 44.4137 61.5257L43.98 63.0314C43.914 63.2604 43.9594 63.5071 44.1026 63.6975C44.2457 63.888 44.47 64 44.7081 64H60.2422C60.5328 64 60.7978 63.8337 60.9243 63.5719C61.0509 63.3101 61.0167 62.9989 60.8364 62.7708L51.0613 50.4075C50.9175 50.2258 50.6987 50.1198 50.4671 50.1198H48.2696C47.9319 50.1198 47.635 50.3434 47.5415 50.6681L46.5049 54.2665C46.4361 54.2623 46.3676 54.2607 46.2994 54.2615V45.7964C46.2994 45.4579 46.0753 45.1604 45.7503 45.0672L38.5097 42.9914L33.5325 28.1187C33.1212 26.7958 31.9022 26 30.6137 26H19.8534ZM25.9913 27.517V39.4251L30.6708 40.7439L36.7418 42.4845L32.0927 28.5922C32.0907 28.5863 32.0888 28.5803 32.0869 28.5744C31.8891 27.9309 31.2923 27.517 30.6137 27.517H25.9913ZM37.395 44.2497L31.2199 42.4793V46.024C31.2199 46.4429 30.8806 46.7824 30.4621 46.7824H19.323C19.0986 46.7824 18.8857 46.6829 18.7417 46.5106L15.4085 42.5214L8.44726 40.537L13.6184 43.3073C13.8648 43.4393 14.0186 43.6963 14.0186 43.976V45.9481C14.0186 46.367 13.6793 46.7066 13.2608 46.7066C8.57288 46.7066 4.69919 50.261 4.28087 54.8982H5.04276C5.46067 50.724 8.98054 47.4651 13.2608 47.4651C17.5671 47.4651 21.1036 50.7636 21.4862 54.9741H26.7834C27.166 50.7636 30.7025 47.4651 35.0087 47.4651C39.3149 47.4651 42.8515 50.7636 43.2341 54.9741H44.4638C44.5648 54.8851 44.6718 54.8034 44.7839 54.7297V46.3681L38.1813 44.4751C37.8903 44.5625 37.5853 44.466 37.395 44.2497ZM45.2192 56.4004C45.3657 56.3212 45.4832 56.1951 45.5516 56.0421C45.6016 56.005 45.6541 55.9714 45.7087 55.9416C45.7976 55.9216 45.8806 55.8859 45.9546 55.8377C45.9894 55.8269 46.0246 55.8176 46.0603 55.8098L44.863 59.9661C44.5357 59.6201 44.3977 59.1256 44.5274 58.6714L44.5284 58.6676L45.0589 56.7714L45.0614 56.7623C45.0963 56.6312 45.1501 56.5098 45.2192 56.4004ZM2.8619 54.0355C3.63066 49.224 7.61868 45.562 12.5031 45.2163V44.4304L7.52315 41.7625C7.51698 41.7592 7.51085 41.7558 7.50477 41.7524C6.73566 41.3125 6.28942 40.5287 6.28942 39.6527V39.3642C6.28924 39.3545 6.28924 39.3449 6.28942 39.3352V35.5569C6.28942 35.0889 5.89453 34.7226 5.45588 34.7226C5.33732 34.7226 5.22512 34.6953 5.12519 34.6467H4.24348C3.99207 34.6467 3.65372 34.7927 3.4911 34.9555L1.89979 36.5483C1.61908 36.8293 1.51553 37.1021 1.51553 37.3014V52.2435C1.51553 52.4952 1.6614 52.8338 1.82402 52.9966L2.8619 54.0355ZM7.80495 35.8758V38.7767L15.9836 41.1081C16.0251 41.1162 16.0661 41.1278 16.1059 41.1429L29.7044 45.0193V42.0475L15.8237 38.1356C15.6886 38.1332 15.5621 38.0955 15.4531 38.0312L7.80495 35.8758ZM15.0795 36.3499V34.6467H9.03585L15.0795 36.3499ZM25.0348 45.2655L18.002 43.2607L19.6771 45.2655H25.0348ZM13.2608 48.982C9.53619 48.982 6.51675 52.0043 6.51675 55.7325C6.51675 59.4607 9.53619 62.483 13.2608 62.483C16.9855 62.483 20.0049 59.4607 20.0049 55.7325C20.0049 52.0043 16.9855 48.982 13.2608 48.982ZM35.0087 48.982C31.2841 48.982 28.2646 52.0043 28.2646 55.7325C28.2646 59.4607 31.2841 62.483 35.0087 62.483C38.7334 62.483 41.7528 59.4607 41.7528 55.7325C41.7528 52.0043 38.7334 48.982 35.0087 48.982ZM48.8397 51.6367L45.7152 62.483H58.6762L50.1004 51.6367H48.8397ZM13.2608 52.8503C11.6705 52.8503 10.3813 54.1407 10.3813 55.7325C10.3813 57.3243 11.6705 58.6148 13.2608 58.6148C14.8511 58.6148 16.1403 57.3243 16.1403 55.7325C16.1403 54.1407 14.8511 52.8503 13.2608 52.8503ZM8.8658 55.7325C8.8658 53.3029 10.8335 51.3333 13.2608 51.3333C15.6881 51.3333 17.6559 53.3029 17.6559 55.7325C17.6559 58.1621 15.6881 60.1317 13.2608 60.1317C10.8335 60.1317 8.8658 58.1621 8.8658 55.7325ZM35.0087 52.8503C33.4184 52.8503 32.1292 54.1407 32.1292 55.7325C32.1292 57.3243 33.4184 58.6148 35.0087 58.6148C36.599 58.6148 37.8882 57.3243 37.8882 55.7325C37.8882 54.1407 36.599 52.8503 35.0087 52.8503ZM30.6137 55.7325C30.6137 53.3029 32.5814 51.3333 35.0087 51.3333C37.436 51.3333 39.4037 53.3029 39.4037 55.7325C39.4037 58.1621 37.436 60.1317 35.0087 60.1317C32.5814 60.1317 30.6137 58.1621 30.6137 55.7325Z" fill="#FF671F"/>
</svg>
