<svg width="89" height="64" viewBox="0 0 89 64" fill="none" xmlns="http://www.w3.org/2000/svg">
<path fill-rule="evenodd" clip-rule="evenodd" d="M27.6939 28.6232C27.7455 28.2655 28.0508 28 28.4108 28H36.379C39.0564 28 41.2489 29.939 41.5879 32.5573L42.5803 39.4935H47.0274C47.4275 39.4935 47.7518 39.8191 47.7518 40.2209L47.7518 41.0211H55.0681C55.937 41.0211 56.6742 41.5631 56.9643 42.3304H58.9224C59.1599 41.5563 59.8622 40.9483 60.7907 40.9483C61.8146 40.9483 62.7465 41.7555 62.7465 42.9124V53.7527C63.0551 55.4375 64.319 56.7944 65.9733 57.24C65.9472 56.9777 65.9338 56.7117 65.9338 56.4427C65.9338 52.04 69.5178 48.4409 73.902 48.4409H75.2783C75.5612 48.4409 75.8182 48.6063 75.9364 48.8643L82.6007 63.413C82.7039 63.6382 82.6857 63.9007 82.5525 64.1095C82.4193 64.3182 82.1895 64.4444 81.9426 64.4444H73.902C70.3294 64.4444 67.2881 62.0545 66.2846 58.7873C64.7816 58.5675 63.4626 57.7891 62.5485 56.6694C61.8192 61.0809 58.0018 64.4444 53.402 64.4444C48.2812 64.4444 44.1299 60.2757 44.1299 55.1333C44.1299 49.9909 48.2812 45.8221 53.402 45.8221C55.4312 45.8221 57.3082 46.4767 58.8349 47.5871V43.7853H56.9643C56.6742 44.5527 55.937 45.0947 55.0681 45.0947H53.402C51.1716 45.0947 49.0852 45.8414 47.4771 47.1199C47.4687 47.1266 47.4602 47.133 47.4515 47.1393C45.025 48.8991 43.4055 51.8113 43.4055 55.1333C43.4055 55.6566 43.4701 56.1177 43.5431 56.6308C43.5728 56.8395 43.5108 57.051 43.3732 57.2103C43.2356 57.3696 43.036 57.4611 42.826 57.4611H36.9585C36.5584 57.4611 36.2341 57.1354 36.2341 56.7336V54.4058H31.743V56.7336C31.743 57.1354 31.4187 57.4611 31.0186 57.4611H28.9156C27.8863 61.477 24.256 64.4444 19.9356 64.4444C15.6152 64.4444 11.9849 61.477 10.9556 57.4611H6.09986C3.09202 57.4611 0.666992 55.0258 0.666992 52.0053V50.6232C0.666992 50.2214 0.991309 49.8958 1.39137 49.8958H2.98501V44.0763C2.98501 41.143 5.24177 38.7901 8.08488 38.6218L26.4155 37.4934L27.6939 28.6232ZM26.1917 38.9648L8.17066 40.0741C6.08831 40.1972 4.43378 41.9178 4.43378 44.0763V50.6232C4.43378 51.0249 4.10946 51.3506 3.7094 51.3506H2.11576V52.0053C2.11576 54.2223 3.89215 56.0062 6.09986 56.0062H10.7037C10.6771 55.7188 10.6635 55.4276 10.6635 55.1333C10.6635 49.9909 14.8148 45.8221 19.9356 45.8221C25.0564 45.8221 29.2077 49.9909 29.2077 55.1333C29.2077 55.4276 29.1941 55.7188 29.1675 56.0062H30.2942V46.0404H26.0204C25.8104 46.0404 25.6107 45.9488 25.4731 45.7895C25.3355 45.6302 25.2736 45.4188 25.3033 45.2101L26.1917 38.9648ZM31.743 46.0404V49.8958H36.2341V46.0404H31.743ZM34.6405 44.5855H41.8452L40.1532 32.759L40.1518 32.7487C39.909 30.8595 38.3359 29.4549 36.379 29.4549H34.6405V44.5855ZM33.1918 29.4549V44.5855H26.8571L29.0379 29.4549H33.1918ZM42.6811 46.0404H37.6829V50.6162C37.6829 50.6185 37.6829 50.6208 37.6829 50.6232C37.6829 50.6255 37.6829 50.6279 37.6829 50.6302V53.6714C37.6829 53.6737 37.6829 53.6761 37.6829 53.6784C37.6829 53.6808 37.6829 53.6831 37.6829 53.6855V56.0062H42.0029C41.9754 55.7323 41.9567 55.4425 41.9567 55.1333C41.9567 51.4647 43.6817 48.2262 46.303 46.1855L46.303 40.9483H42.8005L43.3982 45.2095L43.3984 45.2115C43.4277 45.42 43.3655 45.6311 43.2279 45.7901C43.0903 45.9491 42.8909 46.0404 42.6811 46.0404ZM47.7518 45.1704C49.4077 44.188 51.358 43.6398 53.402 43.6398H55.0681C55.3924 43.6398 55.6476 43.3836 55.6476 43.0579C55.6476 42.7322 55.3924 42.4759 55.0681 42.4759H47.7518L47.7518 45.1704ZM36.2341 52.951V51.3506H31.743V52.951H36.2341ZM60.2836 48.893C60.6609 49.3122 61.0007 49.7662 61.2978 50.2495V42.9124C61.2978 42.6144 61.0707 42.4032 60.7907 42.4032C60.494 42.4032 60.2836 42.6312 60.2836 42.9124V48.893ZM67.5999 58.1156C68.3414 60.912 70.8931 62.9896 73.902 62.9896H80.812L74.8142 49.8958H73.902C70.3179 49.8958 67.3825 52.8435 67.3825 56.4427C67.3825 56.9031 67.4306 57.3529 67.5219 57.7872C67.5719 57.8862 67.5999 57.9979 67.5999 58.1156ZM19.9356 47.277C15.6149 47.277 12.1123 50.7944 12.1123 55.1333C12.1123 59.4722 15.6149 62.9896 19.9356 62.9896C24.2563 62.9896 27.7589 59.4722 27.7589 55.1333C27.7589 50.7944 24.2563 47.277 19.9356 47.277ZM53.402 47.277C49.0813 47.277 45.5787 50.7944 45.5787 55.1333C45.5787 59.4722 49.0813 62.9896 53.402 62.9896C57.7227 62.9896 61.2253 59.4722 61.2253 55.1333C61.2253 50.7944 57.7227 47.277 53.402 47.277ZM19.9355 52.2235C18.3353 52.2235 17.038 53.5263 17.038 55.1333C17.038 56.7403 18.3353 58.043 19.9355 58.043C21.5358 58.043 22.8331 56.7403 22.8331 55.1333C22.8331 53.5263 21.5358 52.2235 19.9355 52.2235ZM15.5892 55.1333C15.5892 52.7228 17.5351 50.7687 19.9355 50.7687C22.3359 50.7687 24.2818 52.7228 24.2818 55.1333C24.2818 57.5438 22.3359 59.4979 19.9355 59.4979C17.5351 59.4979 15.5892 57.5438 15.5892 55.1333ZM53.402 52.2235C51.8018 52.2235 50.5045 53.5263 50.5045 55.1333C50.5045 56.7403 51.8018 58.043 53.402 58.043C55.0023 58.043 56.2995 56.7403 56.2995 55.1333C56.2995 53.5263 55.0023 52.2235 53.402 52.2235ZM49.0557 55.1333C49.0557 52.7228 51.0016 50.7687 53.402 50.7687C55.8024 50.7687 57.7483 52.7228 57.7483 55.1333C57.7483 57.5438 55.8024 59.4979 53.402 59.4979C51.0016 59.4979 49.0557 57.5438 49.0557 55.1333Z" fill="#FF671F"/>
</svg>
