<svg width="89" height="64" viewBox="0 0 89 64" fill="none" xmlns="http://www.w3.org/2000/svg">
<path fill-rule="evenodd" clip-rule="evenodd" d="M7.63613 54.0904C5.29211 54.0904 3.42336 56.0319 3.42336 58.3373C3.42336 60.7004 5.34928 62.5843 7.63613 62.5843H37.4063C39.6932 62.5843 41.6191 60.7004 41.6191 58.3373C41.6191 55.9743 39.6932 54.0904 37.4063 54.0904H7.63613ZM2.01911 58.3373C2.01911 55.2633 4.50355 52.6747 7.63613 52.6747H37.4063C40.4557 52.6747 43.0234 55.1793 43.0234 58.3373C43.0234 61.4954 40.4557 64 37.4063 64H7.63613C4.58681 64 2.01911 61.4954 2.01911 58.3373Z" fill="#FF671F"/>
<path fill-rule="evenodd" clip-rule="evenodd" d="M3.21271 42.4819C2.40686 42.4819 1.73824 43.156 1.73824 43.9684V51.259C1.73824 52.0714 2.40686 52.7455 3.21271 52.7455H21.1872V42.4819H3.21271ZM0.333984 43.9684C0.333984 42.3741 1.63132 41.0663 3.21271 41.0663H21.8893C22.2771 41.0663 22.5914 41.3832 22.5914 41.7741V53.4533C22.5914 53.8442 22.2771 54.1611 21.8893 54.1611H3.21271C1.63132 54.1611 0.333984 52.8533 0.333984 51.259V43.9684Z" fill="#FF671F"/>
<path fill-rule="evenodd" clip-rule="evenodd" d="M24.2766 33.634C23.4141 33.634 22.6617 34.3651 22.6617 35.3328V52.7455H36.8447C37.9482 52.7455 38.7218 51.7447 38.4786 50.7152L38.4771 50.7087L35.5289 37.6875C34.9683 35.3068 32.9257 33.634 30.5255 33.634H24.2766ZM21.2574 35.3328C21.2574 33.6109 22.6114 32.2184 24.2766 32.2184H30.5255C33.601 32.2184 36.1918 34.3666 36.896 37.364L36.8973 37.3696L39.8455 50.3906C40.302 52.3327 38.8293 54.1611 36.8447 54.1611H21.9595C21.5718 54.1611 21.2574 53.8442 21.2574 53.4533V35.3328Z" fill="#FF671F"/>
<path fill-rule="evenodd" clip-rule="evenodd" d="M16.2058 41.8109C16.2058 42.2018 15.8915 42.5187 15.5037 42.5187H5.53348C5.14571 42.5187 4.83135 42.2018 4.83135 41.8109V39.4751C4.83135 39.0841 5.14571 38.7672 5.53348 38.7672H15.5037C15.8915 38.7672 16.2058 39.0841 16.2058 39.4751V41.8109ZM14.8016 41.1031V40.1829H6.23561V41.1031H14.8016Z" fill="#FF671F"/>
<path fill-rule="evenodd" clip-rule="evenodd" d="M4.82762 46.3042C4.82762 45.9133 5.14197 45.5964 5.52975 45.5964H15.5C15.8877 45.5964 16.2021 45.9133 16.2021 46.3042C16.2021 46.6951 15.8877 47.012 15.5 47.012H5.52975C5.14197 47.012 4.82762 46.6951 4.82762 46.3042Z" fill="#FF671F"/>
<path fill-rule="evenodd" clip-rule="evenodd" d="M4.82762 48.9232C4.82762 48.5323 5.14197 48.2154 5.52975 48.2154H15.5C15.8877 48.2154 16.2021 48.5323 16.2021 48.9232C16.2021 49.3141 15.8877 49.631 15.5 49.631H5.52975C5.14197 49.631 4.82762 49.3141 4.82762 48.9232Z" fill="#FF671F"/>
<path fill-rule="evenodd" clip-rule="evenodd" d="M28.2787 32.2184C28.6665 32.2184 28.9808 32.5353 28.9808 32.9262V53.4533C28.9808 53.8442 28.6665 54.1611 28.2787 54.1611C27.8909 54.1611 27.5766 53.8442 27.5766 53.4533V32.9262C27.5766 32.5353 27.8909 32.2184 28.2787 32.2184Z" fill="#FF671F"/>
<path fill-rule="evenodd" clip-rule="evenodd" d="M57.444 22.8843C59.1342 22.6016 60.717 23.9239 60.717 25.7063V41.8449C60.717 42.2358 60.4027 42.5527 60.0149 42.5527H56.5744C56.1867 42.5527 55.8723 42.2358 55.8723 41.8449V28.5377C55.8723 28.2436 55.6143 28.0516 55.3781 28.0992C55.3698 28.1009 55.3615 28.1024 55.3532 28.1038L40.265 30.5799L40.2613 30.5805C38.8015 30.8373 37.5509 31.5353 36.6117 32.6715L36.6041 32.6805L34.8488 34.7333C34.5956 35.0293 34.1523 35.0625 33.8586 34.8072C33.5649 34.552 33.532 34.105 33.7852 33.8089L35.5368 31.7606C36.7027 30.3523 38.2579 29.4949 40.0244 29.1852L40.0318 29.1839L55.1165 26.7083C56.2787 26.4829 57.2766 27.4205 57.2766 28.5377V41.137H59.3127V25.7063C59.3127 24.7997 58.5095 24.1405 57.6729 24.281L57.6692 24.2816L38.5055 27.3954C37.0459 27.6522 35.7955 28.3502 34.8564 29.4863L31.6258 33.3803C31.377 33.6802 30.9342 33.72 30.6368 33.4692C30.3393 33.2184 30.2999 32.772 30.5486 32.4721L33.7776 28.58C34.944 27.1692 36.5008 26.3099 38.269 25.9999L38.2776 25.9984L57.442 22.8846L57.444 22.8843Z" fill="#FF671F"/>
<path fill-rule="evenodd" clip-rule="evenodd" d="M55.8588 41.6368C55.9695 41.3766 56.2233 41.2078 56.5042 41.2078H60.4361C63.7026 41.2078 66.334 43.8606 66.334 47.1536C66.334 50.0432 64.3386 52.454 61.5568 53.0149L61.5522 53.0158L51.3714 54.9977C51.1162 55.0474 50.8546 54.9509 50.6915 54.7469C50.5285 54.5429 50.4905 54.2647 50.5929 54.0239L55.8588 41.6368ZM56.9672 42.6235L52.4052 53.3546L61.2814 51.6267L61.2836 51.6262C63.4156 51.1953 64.9297 49.3597 64.9297 47.1536C64.9297 44.6424 62.9271 42.6235 60.4361 42.6235H56.9672Z" fill="#FF671F"/>
<path fill-rule="evenodd" clip-rule="evenodd" d="M60.6377 20.709C60.6998 21.0949 60.4398 21.4584 60.057 21.521L49.6686 23.2193L49.6674 23.2195C49.4393 23.2583 49.2015 23.4259 49.102 23.5931L49.1001 23.5963L47.9065 25.5782C47.7053 25.9124 47.2734 26.0188 46.942 25.8159C46.6105 25.613 46.5049 25.1777 46.7062 24.8435L47.899 22.863C48.2208 22.3235 48.8242 21.926 49.4377 21.8229L49.4408 21.8224L59.8323 20.1236C60.215 20.061 60.5756 20.3231 60.6377 20.709Z" fill="#FF671F"/>
<path fill-rule="evenodd" clip-rule="evenodd" d="M59.5579 28.6363C59.8141 28.3428 60.2578 28.3143 60.5489 28.5725L62.3042 30.1298C62.3349 30.157 62.3631 30.1868 62.3886 30.219C62.7193 30.6357 63.034 31.2139 63.034 31.8645V42.2696C63.034 42.6605 62.7196 42.9774 62.3318 42.9774C61.9441 42.9774 61.6297 42.6605 61.6297 42.2696V31.8645C61.6297 31.6761 61.534 31.4227 61.3274 31.149L59.6212 29.6353C59.3301 29.377 59.3018 28.9298 59.5579 28.6363Z" fill="#FF671F"/>
<path fill-rule="evenodd" clip-rule="evenodd" d="M59.9446 17C60.3324 17 60.6468 17.3169 60.6468 17.7078V26.9804C60.6468 27.3713 60.3324 27.6883 59.9446 27.6883C59.5569 27.6883 59.2425 27.3713 59.2425 26.9804V17.7078C59.2425 17.3169 59.5569 17 59.9446 17Z" fill="#FF671F"/>
<path fill-rule="evenodd" clip-rule="evenodd" d="M46.1976 28.3581C46.5286 28.5618 46.6332 28.9974 46.4312 29.3311L38.0759 43.1338C37.8739 43.4675 37.4418 43.5729 37.1108 43.3693C36.7798 43.1656 36.6752 42.73 36.8772 42.3963L45.2325 28.5936C45.4345 28.2599 45.8666 28.1545 46.1976 28.3581Z" fill="#FF671F"/>
<path fill-rule="evenodd" clip-rule="evenodd" d="M5.67014 58.3373C5.67014 57.9464 5.98449 57.6295 6.37226 57.6295H38.6701C39.0579 57.6295 39.3723 57.9464 39.3723 58.3373C39.3723 58.7283 39.0579 59.0452 38.6701 59.0452H6.37226C5.98449 59.0452 5.67014 58.7283 5.67014 58.3373Z" fill="#FF671F"/>
</svg>
