<svg width="155" height="20" viewBox="0 0 155 20" fill="none" xmlns="http://www.w3.org/2000/svg">
<path fill-rule="evenodd" clip-rule="evenodd" d="M5.37572 18.114V8.02631L0 2.76315V18.114H5.37572Z" fill="#27203E"/>
<path fill-rule="evenodd" clip-rule="evenodd" d="M16.5752 7.14911L6.27169 7.13227L0.895966 1.88596H16.5752V7.14911Z" fill="#27203E"/>
<path fill-rule="evenodd" clip-rule="evenodd" d="M6.71964 18.114V8.46487H16.5751L6.71964 18.114Z" fill="#FF671F"/>
<path fill-rule="evenodd" clip-rule="evenodd" d="M65.4546 11.9737H64.1329C63.237 11.9737 62.341 11.0965 62.341 9.7807C62.341 8.46492 63.237 7.58772 64.1329 7.58772H65.4769L65.4546 11.9737ZM69.9566 11.9737H68.6127V7.58772H69.9566C70.8526 7.58772 71.7486 8.46492 71.7486 9.7807C71.7486 11.0965 70.8526 11.9737 69.9566 11.9737ZM65.4769 15.4825H68.6127V14.1757H70.4046C73.0925 14.1757 74.4364 12.7838 74.4364 9.7807C74.4364 7.20733 73.0925 5.39474 70.4046 5.39474H68.6127V4.51755H65.4769V5.39474H63.685C60.9971 5.39474 59.6532 7.14913 59.6532 9.7807C59.6532 12.4123 60.9971 14.1757 63.8644 14.1757H65.4892L65.4769 15.4825ZM53.8295 10.6579H51.5896V13.2895H53.8295C54.2334 13.2895 55.6214 13.2895 55.6214 11.9737C55.6214 10.6579 54.7254 10.6579 53.8295 10.6579ZM48.4537 4.51755H51.5896V8.46492H54.7254C55.4287 8.44406 56.3118 8.65019 56.9653 8.90351C57.8613 9.34211 58.3092 10.6579 58.3092 11.9737C58.3092 13.2895 57.8613 14.6345 56.9653 15.0439C56.3049 15.3456 55.4846 15.446 54.7549 15.4595H48.4537V4.51755ZM46.6618 4.51755H37.2543V11.5351C37.2543 11.558 37.2544 11.5809 37.2544 11.6035C37.2551 12.1554 37.2558 12.6288 36.8063 12.8509C36.3384 13.0821 35.4624 13.0702 35.0144 12.8509V15.0439C35.0144 15.0439 35.4624 15.4825 37.2543 15.4825C39.0462 15.4825 40.3902 14.6053 40.3902 11.9737V7.14913H43.5279V15.4595H46.6618V4.51755ZM27.3988 6.71053L29.1907 11.5351H26.0549L27.3988 6.71053ZM25.6069 13.2895H29.6387L30.5347 15.4825H33.6705L29.6387 4.51755H25.1533L21.5751 15.4825H24.711L25.6069 13.2895ZM80.7082 6.71053L82.5001 11.5351H79.3642L80.7082 6.71053ZM78.9163 13.2895H82.948L83.844 15.4825H86.9798L82.948 4.51755H78.4626L74.8845 15.4825H78.0203L78.9163 13.2895Z" fill="#27203E"/>
<path fill-rule="evenodd" clip-rule="evenodd" d="M98.1791 11.5306H95.9392C95.9392 12.8479 94.761 13.7246 93.2485 13.7246C90.8517 13.7926 89.6293 11.9771 89.6676 9.77422C89.5966 7.72222 91.1319 6.28168 93.2514 6.28168C94.1473 6.28168 95.9392 6.70056 95.9392 8.01784H98.1791C98.1791 5.82237 95.9392 4.51755 93.2514 4.51755C89.6676 4.51755 87.4277 6.28168 87.4277 9.77423C87.4277 13.7246 89.6676 15.4825 93.2485 15.4825C95.9392 15.4825 98.1791 14.1652 98.1791 11.5306ZM142.529 4.51755H139.393C138.325 6.39855 137.285 8.25704 136.246 10.113L136.245 10.1146C135.653 11.1724 135.061 12.2295 134.465 13.2895V4.51755H132.225V15.4825H135.361C136.032 14.2834 136.702 13.0963 137.373 11.9092C138.345 10.1888 139.317 8.46818 140.289 6.71053V15.4825H142.529V4.51755ZM121.032 15.4825L121.026 4.51755H127.298C129.538 4.51755 130.434 5.83334 130.434 7.58772C130.434 8.90351 129.986 9.77443 128.759 9.77443C129.986 9.77443 130.882 11.0965 130.882 12.1911C130.882 13.2857 130.434 15.4825 127.298 15.4825H121.032ZM123.266 10.6579V13.7281H126.402C127.746 13.7281 128.18 13.2857 128.18 12.1911C128.18 11.0965 127.746 10.6579 126.402 10.6579H123.266ZM123.266 6.27193V8.90351H126.402C127.746 8.90351 128.18 8.46492 128.18 7.58772C128.18 6.71053 127.746 6.27193 126.402 6.27193H123.266ZM112.067 10.2193H114.754C116.098 10.2193 116.994 9.56141 116.994 8.24562C116.994 7.36842 116.098 6.27193 114.754 6.27193H112.067V10.2193ZM109.827 15.4825V4.51755H114.754C118.338 4.51755 119.234 6.05264 119.234 8.24562C119.234 10.4386 118.338 11.9737 114.754 11.9737H112.067V15.4825H109.827ZM102.211 6.27193V8.90351H108.035V10.6579H102.211V13.7281H108.035V15.4825H99.9711V4.51755H108.035V6.27193H102.211ZM152.384 11.5306H154.624C154.624 14.1652 152.384 15.4825 149.694 15.4825C146.113 15.4825 143.873 13.7246 143.873 9.77423C143.873 6.28168 146.113 4.51755 149.696 4.51755C152.384 4.51755 154.624 5.82237 154.624 8.01784H152.384C152.384 6.70056 150.592 6.28168 149.696 6.28168C147.577 6.28168 146.042 7.72222 146.113 9.77422C146.074 11.9771 147.297 13.7926 149.694 13.7246C151.206 13.7246 152.384 12.8479 152.384 11.5306Z" fill="#FF671F"/>
</svg>
