<svg width="113" height="20" viewBox="0 0 113 20" fill="none" xmlns="http://www.w3.org/2000/svg">
<path d="M13.1832 6.32196H19.785C19.9085 6.32192 20.0308 6.34569 20.1449 6.39191C20.259 6.43812 20.3626 6.50587 20.4499 6.59129C20.5372 6.67672 20.6065 6.77813 20.6537 6.88973C20.7009 7.00134 20.7252 7.12095 20.7251 7.24174V13.7896L13.1832 6.32196Z" fill="#F36E1E"/>
<path fill-rule="evenodd" clip-rule="evenodd" d="M40.6925 6.54912H45.2671V16.7455H40.6925V6.54912ZM74.8896 11.7477C74.8896 8.79613 77.671 6.40296 81.1025 6.40296C84.5335 6.40296 87.3151 8.79613 87.3151 11.7477C87.3151 14.6992 84.5335 17.0924 81.1025 17.0924C77.671 17.0924 74.8896 14.6992 74.8896 11.7477ZM79.1233 11.7477C79.1233 9.96626 80.0097 8.52247 81.1025 8.52247C82.1951 8.52247 83.0813 9.96626 83.0813 11.7477C83.0813 13.5274 82.1951 14.9712 81.1025 14.9712C80.0097 14.9712 79.1233 13.5274 79.1233 11.7477ZM88.7897 6.41776H92.6972L95.7507 10.9244V6.41776H99.8969V16.7803H96.7671L92.9788 11.3007V16.7803H88.7897V6.41776ZM58.1897 6.54938L58.1822 13.104C58.1822 15.1154 56.5195 16.7474 54.466 16.7474H50.873C48.8211 16.7474 47.1568 15.1157 47.1568 13.104V6.54912H51.6324V14.7376H53.7139V6.54912L58.1897 6.54938ZM110.995 16.7965L105.573 16.7893C103.522 16.7893 101.422 15.1577 101.422 13.1459V10.0521C101.422 8.04065 103.522 6.4087 105.573 6.4087H113V8.48215H105.596V14.8127H109.072V12.5037H107.34V10.7733H112.978V15.9719C112.978 15.9719 113.007 16.7951 111.991 16.7951L110.995 16.7965ZM71.2442 16.9152L64.5829 16.9081C62.2074 16.9081 59.731 14.9419 59.731 12.5199V8.79449C59.731 6.37031 62.2074 4.4063 64.5829 4.4063H73.1284V6.90342H65.0003V14.2958H68.6343V11.746H67.0182V9.66133H73.1026V15.9222C73.1026 15.9222 73.1379 16.9133 71.9615 16.9133L71.2442 16.9152ZM39.3224 16.7455V14.4345H34.2194V4.45539H29.0099L28.9971 15.7525C28.9971 15.7525 28.9599 16.7455 30.1382 16.7455H39.3224ZM20.7271 15.7854H7.8121C5.95768 15.7854 4.45343 14.3106 4.45343 12.4925V0H0V12.7571C0 16.7564 3.30834 20 7.38946 20H20.7271V15.7854ZM10.5504 13.8227H8.54325C8.00901 13.8227 7.49668 13.6146 7.11893 13.2442C6.74116 12.8738 6.52889 12.3715 6.52883 11.8478V2.6356C6.52883 1.18083 7.73156 0.00164537 9.21537 0.00164537H20.1666V3.7838H10.5339V9.97339H14.5387L18.3776 13.823L10.5504 13.8227Z" fill="#003370"/>
</svg>
