<svg width="131" height="18" viewBox="0 0 131 18" fill="none" xmlns="http://www.w3.org/2000/svg">
<path fill-rule="evenodd" clip-rule="evenodd" d="M11.7144 7.26498L18.3719 17.5662H13.5301L6.70754 7.26498H11.7144Z" fill="#CA0237"/>
<path fill-rule="evenodd" clip-rule="evenodd" d="M5.93737 13.5C3.24136 12.7952 4.23174 11.1145 4.83696 10.0301C5.93737 8.0241 7.69803 5.96386 8.6884 3.8494L6.21248 0L2.41604 5.96386C-0.50005 9.92169 -1.21531 13.4458 2.74617 16.4819C3.43476 17.0152 4.24831 17.3694 5.11206 17.5121H10.8342V13.5H5.93737Z" fill="#002859"/>
<path d="M30.5867 15.0723H26.5151L25.7999 17.2951C25.7961 17.3953 25.7572 17.4911 25.6898 17.5662H23.2139C23.1039 17.5662 22.9938 17.5662 22.9938 17.4578C22.9668 17.428 22.9518 17.3894 22.9518 17.3493C22.9518 17.3093 22.9668 17.2707 22.9938 17.2409L26.6802 6.18068C26.7323 6.00952 26.8063 5.84555 26.9003 5.69272C26.9623 5.57718 27.0581 5.48272 27.1754 5.42164L27.5055 5.25899H29.5963L29.9814 5.36742C30.0915 5.42164 30.1465 5.53007 30.2565 5.69272L30.4766 6.18068L34.163 17.2409C34.218 17.2951 34.218 17.3494 34.163 17.4578C34.108 17.5662 34.108 17.5662 33.9429 17.5662H31.467C31.412 17.5662 31.3569 17.4578 31.3019 17.3493L30.5867 15.0723ZM27.1754 12.9036H29.9814L29.2662 10.6265L28.6059 8.13248H28.4959L27.8356 10.6265L27.1754 12.9036Z" fill="#002859"/>
<path d="M38.0145 6.50601C38.0132 6.17895 38.1088 5.85864 38.2896 5.58433C38.4547 5.36746 38.7298 5.31324 39.1699 5.31324H45.6073C45.9249 5.29126 46.2393 5.38806 46.4877 5.58433C46.6626 5.85905 46.74 6.18324 46.7077 6.50601V17.2952C46.7077 17.4578 46.7078 17.512 46.6527 17.5663H44.0668C44.0117 17.512 44.0117 17.4578 44.0117 17.2952V7.64457H40.5454L40.4354 8.83734C40.3804 10.1385 40.2703 11.3313 40.1603 12.3072C40.0737 13.2052 39.908 14.0941 39.6651 14.9639C39.4267 15.6567 39.0316 16.287 38.5097 16.8072C37.9544 17.3806 37.2504 17.7932 36.4739 18H36.1438C36.0879 17.9753 36.0387 17.9378 36.0005 17.8907C35.9622 17.8436 35.9359 17.7881 35.9237 17.7289L35.3185 16.4277C35.2743 16.3251 35.2554 16.2136 35.2635 16.1024C35.3076 16.0061 35.3858 15.929 35.4835 15.8855C35.9267 15.7051 36.322 15.4269 36.639 15.0723C36.9461 14.7279 37.1717 14.3204 37.2992 13.8795C37.4862 13.2623 37.597 12.6252 37.6293 11.9819C37.7394 11.2229 37.7944 10.247 37.8494 9.10842L38.0145 6.50601Z" fill="#002859"/>
<path d="M50.504 17.6204C50.0639 17.6204 49.7887 17.5662 49.6237 17.3493C49.4476 17.1159 49.3689 16.8249 49.4036 16.5361V5.63851C49.4036 5.36742 49.5136 5.25899 49.7887 5.25899H51.7695C51.9345 5.25899 52.0446 5.31321 52.0446 5.36742C52.0831 5.40104 52.1131 5.44305 52.1322 5.49012C52.1513 5.53719 52.159 5.588 52.1546 5.63851V9.75899H54.7406C55.6058 9.72675 56.4682 9.87455 57.2715 10.1927C57.8049 10.4509 58.2743 10.821 58.6471 11.2771C58.8995 11.6792 59.0853 12.1185 59.1973 12.5783C59.2561 12.9554 59.2929 13.3355 59.3073 13.7168C59.309 14.2578 59.1966 14.7932 58.9772 15.2891C58.7483 15.7594 58.4309 16.1825 58.0418 16.5361C57.633 16.8815 57.168 17.1564 56.6663 17.3493C56.1347 17.5274 55.5772 17.619 55.0157 17.6204H50.504ZM56.5013 13.6084C56.5085 13.3993 56.4732 13.1909 56.3976 12.9954C56.3221 12.7999 56.2076 12.6212 56.0611 12.4698C55.887 12.3032 55.6798 12.1739 55.4526 12.0899C55.2254 12.0059 54.9829 11.9691 54.7406 11.9819H52.1546V15.2891H54.7406C55.0248 15.2993 55.3075 15.2436 55.5659 15.1265L56.1161 14.6927C56.2404 14.5299 56.3336 14.3462 56.3912 14.1506C56.4491 13.9746 56.486 13.7927 56.5013 13.6084Z" fill="#002859"/>
<path d="M69.1013 17.2951C69.0975 17.3953 69.0586 17.4911 68.9912 17.5662H66.7354C66.4603 17.5662 66.3503 17.4578 66.3503 17.2409V16.5903C64.8576 16.5367 63.4334 15.9599 62.3338 14.9638C61.4075 13.9788 60.9132 12.6734 60.9582 11.3313C60.9749 10.6464 61.105 9.9688 61.3434 9.32526C61.6257 8.73198 61.9966 8.18372 62.4438 7.69875C62.9584 7.2462 63.532 6.86331 64.1494 6.56019C64.8438 6.24103 65.5879 6.03941 66.3503 5.96381V5.58429C66.3503 5.36742 66.4603 5.25899 66.7354 5.25899H68.7161C68.8812 5.25899 68.9912 5.25899 68.9912 5.31321C69.0586 5.38832 69.0975 5.48411 69.1013 5.58429V5.96381C70.6 6.03701 72.0236 6.63271 73.1178 7.64453C73.6051 8.11466 73.9848 8.68196 74.2315 9.30844C74.4782 9.93492 74.5862 10.6061 74.5483 11.2771C74.5645 11.9826 74.4334 12.6838 74.1632 13.3373C73.9016 13.9419 73.5285 14.4934 73.0628 14.9638C72.5602 15.4173 71.9836 15.7839 71.3571 16.0481C70.6409 16.3604 69.8799 16.5616 69.1013 16.6445V17.2951ZM66.3503 8.13248C65.9362 8.1869 65.5407 8.33539 65.1948 8.56622C64.8305 8.72613 64.5237 8.99069 64.3145 9.32526C64.0967 9.60204 63.9292 9.91386 63.8193 10.2469C63.7105 10.5984 63.6549 10.9638 63.6543 11.3313C63.6511 11.7168 63.7067 12.1006 63.8193 12.4698C63.8738 12.8283 64.026 13.1656 64.2595 13.4457C64.4784 13.7523 64.7594 14.0107 65.0848 14.2048C65.4842 14.395 65.9111 14.523 66.3503 14.5843V8.13248ZM71.9624 11.3313C71.966 10.9635 71.9103 10.5975 71.7973 10.2469C71.6997 9.89245 71.5313 9.5607 71.3021 9.27104C71.0478 8.97705 70.7512 8.72133 70.4218 8.51201C69.9899 8.29558 69.5254 8.14913 69.0463 8.07827V14.5843C69.5104 14.5236 69.9585 14.3765 70.3668 14.1506C70.7249 13.9587 71.0424 13.7011 71.3021 13.3915C71.5209 13.0955 71.6882 12.7657 71.7973 12.4156C71.9017 12.0632 71.9573 11.6984 71.9624 11.3313Z" fill="#002859"/>
<path d="M82.9663 15.0725H78.8947L78.1795 17.2954C78.1245 17.4038 78.1245 17.5122 78.0144 17.5665H75.5935C75.4835 17.5665 75.3734 17.5665 75.3734 17.458C75.3297 17.3944 75.3102 17.3176 75.3184 17.2412L79.0598 6.18093C79.0884 6.00204 79.1643 5.83373 79.2799 5.69297L79.555 5.42188C79.5918 5.36971 79.6413 5.32748 79.699 5.29906C79.7567 5.27064 79.8207 5.25695 79.8851 5.25924H81.9759L82.306 5.36767L82.6361 5.69297L82.8562 6.18093L86.5426 17.2412C86.5976 17.2954 86.5976 17.3496 86.5426 17.458C86.4876 17.5665 86.4326 17.5665 86.3225 17.5665H83.8466C83.7916 17.5665 83.7366 17.458 83.6815 17.3496L82.9663 15.0725ZM79.5 12.9038H82.306L81.6458 10.6267L80.9855 8.13273H80.8755L80.2152 10.6267L79.5 12.9038Z" fill="#002859"/>
<path d="M93.1451 16.3191C93.6448 16.3187 94.143 16.2642 94.6306 16.1565C95.0856 16.0358 95.5278 15.8724 95.9511 15.6685C96.1161 15.6143 96.1712 15.6143 96.2262 15.6685C96.2812 15.7227 96.3362 15.777 96.3913 15.8312L96.7214 16.536C96.7764 16.6986 96.8314 16.8071 96.7764 16.8613C96.7214 16.9155 96.7214 16.9697 96.6113 17.0239L95.731 17.4035L94.7406 17.6746L93.7503 17.783H92.8149C92.0651 17.7765 91.3216 17.6483 90.6141 17.4035C89.9745 17.1392 89.3947 16.7522 88.9085 16.2649C88.4415 15.7031 88.0867 15.0592 87.8631 14.3673C87.6317 13.4637 87.5207 12.5342 87.5329 11.6023C87.514 10.6842 87.644 9.76905 87.9181 8.89142C88.1504 8.14268 88.5237 7.44375 89.0185 6.83118C89.4973 6.29384 90.0763 5.8521 90.7241 5.52997C91.4272 5.19632 92.1997 5.02921 92.98 5.04202L94.5756 5.20467C95.1724 5.31393 95.748 5.5152 96.2812 5.80106L96.4463 5.90949C96.4498 6.00285 96.4309 6.09571 96.3913 6.18057L95.9511 6.99383C95.9511 7.10226 95.8961 7.10226 95.8411 7.15648C95.786 7.2107 95.731 7.15648 95.621 7.15648C94.8132 6.77483 93.9307 6.57131 93.035 6.56009C92.4203 6.5555 91.8145 6.70474 91.2743 6.99383C90.7985 7.27194 90.4012 7.66345 90.1189 8.13238C89.7834 8.60814 89.5409 9.14133 89.4036 9.70466C89.2489 10.3254 89.175 10.9631 89.1836 11.6023C89.1686 12.206 89.2427 12.8087 89.4036 13.3914C89.4939 13.9172 89.7005 14.417 90.0089 14.8553C90.331 15.2818 90.7442 15.6335 91.2193 15.8854C91.8209 16.1628 92.4815 16.293 93.1451 16.2649" fill="#CA0237"/>
<path d="M104.809 11.0061C105.086 11.0883 105.346 11.2167 105.579 11.3856C105.794 11.4908 105.968 11.6621 106.075 11.8736C106.236 12.0401 106.35 12.2459 106.405 12.47C106.515 12.6868 106.57 12.9579 106.68 13.229L107.78 17.2953C107.807 17.3251 107.822 17.3637 107.822 17.4037C107.822 17.4437 107.807 17.4823 107.78 17.5122C107.78 17.5664 107.67 17.6206 107.56 17.6206H106.295C106.185 17.5664 106.13 17.5121 106.13 17.4037L105.029 13.4459C104.987 13.1526 104.874 12.8736 104.699 12.6326C104.581 12.4149 104.411 12.2288 104.204 12.0905C104.027 11.9631 103.817 11.8879 103.599 11.8736L102.773 11.7652H100.242V17.3495C100.24 17.4248 100.221 17.4986 100.187 17.5664H98.7018C98.6468 17.5664 98.5918 17.4579 98.5918 17.3495V5.58443C98.5918 5.42178 98.6468 5.36756 98.7018 5.36756H100.187C100.242 5.36756 100.242 5.42178 100.242 5.58443V10.3013H103.213L103.819 10.0844C104.029 9.93209 104.214 9.7493 104.369 9.54226C104.559 9.25693 104.707 8.94665 104.809 8.62058L105.579 5.53022C105.634 5.42178 105.634 5.36756 105.744 5.36756H106.9C107.01 5.36756 107.12 5.42178 107.12 5.476C107.12 5.53021 107.175 5.63864 107.12 5.69286L106.35 8.83744C106.219 9.30846 106.035 9.76323 105.799 10.1929C105.537 10.5494 105.199 10.8454 104.809 11.0603V11.0061Z" fill="#CA0237"/>
<path d="M117.959 17.6204C117.881 17.5463 117.823 17.4527 117.794 17.3493L116.914 14.8011H111.852L110.972 17.3493C110.965 17.3923 110.95 17.4335 110.927 17.4706C110.904 17.5076 110.873 17.5397 110.837 17.565C110.801 17.5903 110.761 17.6082 110.718 17.6177C110.674 17.6272 110.63 17.6282 110.587 17.6204H109.376C109.266 17.6204 109.156 17.6204 109.156 17.512C109.156 17.4036 109.101 17.4035 109.156 17.2951L113.172 5.96378C113.228 5.75597 113.343 5.568 113.503 5.42161C113.677 5.296 113.893 5.23811 114.108 5.25897H114.603C114.836 5.22956 115.072 5.28762 115.263 5.42161C115.409 5.57844 115.522 5.76289 115.593 5.96378L119.61 17.2951C119.665 17.4035 119.665 17.4578 119.61 17.512C119.555 17.5662 119.5 17.6204 119.39 17.6204H117.959ZM115.208 9.65054L114.383 7.10234H114.273L113.503 9.59632L112.292 13.3373H116.419L115.208 9.65054Z" fill="#CA0237"/>
<path d="M129.349 5.58443C129.349 5.476 129.349 5.36756 129.404 5.36756H130.944C130.964 5.38957 130.979 5.41534 130.989 5.4433C130.998 5.47127 131.002 5.50084 130.999 5.53022V17.4037C131.002 17.4331 130.998 17.4627 130.989 17.4906C130.979 17.5186 130.964 17.5444 130.944 17.5664H129.404C129.349 17.5664 129.349 17.4579 129.349 17.3495V11.8194H123.076V17.3495C123.076 17.4579 123.021 17.5664 122.966 17.5664H121.481C121.426 17.5664 121.371 17.4579 121.371 17.3495V5.58443C121.371 5.476 121.426 5.36756 121.481 5.36756H122.966C123.021 5.36756 123.076 5.476 123.076 5.58443V10.4097H129.349V5.58443Z" fill="#CA0237"/>
</svg>
