<svg width="51" height="18" viewBox="0 0 51 18" fill="none" xmlns="http://www.w3.org/2000/svg">
<path fill-rule="evenodd" clip-rule="evenodd" d="M21.3708 5.78025L23.502 5.75177L44.6065 5.7233C46.3528 5.7233 48.5728 4.78365 49.4904 2.1071H25.13C23.7684 2.1071 23.058 2.44878 22.2588 3.75859C21.9924 4.24265 21.5188 5.21077 21.3708 5.78025Z" fill="#E30016"/>
<path fill-rule="evenodd" clip-rule="evenodd" d="M21.0157 1.5376C17.4045 1.39523 14.563 0.996591 12.047 3.35994C10.4487 5.09685 7.5183 7.28935 7.07431 9.39643C7.90309 8.28594 8.31749 7.88731 10.2119 7.77341C11.899 7.68799 12.9054 7.31782 13.4086 6.12192C12.5502 6.49208 11.5734 6.97614 10.4191 6.89072C11.3662 6.12192 13.231 5.55244 14.711 5.46701C15.895 5.41007 16.2206 5.01143 16.7533 4.44195C17.0789 4.07179 17.4933 3.44536 17.6709 2.90435C17.1381 3.35994 16.7238 4.15721 15.3622 4.55584C14.6222 4.78364 13.7934 4.66974 11.5734 5.38159C13.8822 2.3064 17.1973 2.33487 20.4533 2.53419C20.1573 3.38841 19.3285 5.01143 19.0325 5.83718C20.5717 5.95107 20.6901 5.49549 21.0453 4.55584C21.7261 2.76198 22.1405 1.28133 24.538 1.28133C28.4452 1.28133 32.3227 1.22438 36.2594 1.28133L46.4121 1.30981H46.5009C48.336 1.25286 50.26 1.19591 51 0C42.3273 0 33.5363 0.0569481 24.8932 0C22.7325 0 22.1997 0.42711 21.0157 1.5376Z" fill="#003269"/>
<path fill-rule="evenodd" clip-rule="evenodd" d="M7.99185 12.2154C8.11025 11.9592 10.271 9.85208 10.3894 9.82361L11.0406 16.0879H12.4318L13.8526 14.5218C13.6454 13.4968 13.2606 11.3897 13.0534 10.1653C12.9942 9.85208 12.935 9.53887 12.8166 9.25413C12.7574 9.02633 12.6686 8.82702 12.5502 8.6277C11.9582 8.42838 9.38303 8.14364 8.46544 8.94091L5.32789 12.1585C6.36387 12.1585 7.39986 12.2154 7.99185 12.2154Z" fill="#E30016"/>
<path fill-rule="evenodd" clip-rule="evenodd" d="M7.78465 12.5571C6.60067 12.5571 3.58151 12.4147 2.57513 12.671C1.89434 12.8418 1.27275 13.4682 1.03596 13.9523H3.64071L6.36387 13.9808C7.19266 13.9238 8.37664 14.0947 9.05743 13.753C9.61982 13.4682 10.0934 12.7564 10.3302 12.0161C9.29422 12.4432 9.14622 12.5856 7.78465 12.5571Z" fill="#003269"/>
<path fill-rule="evenodd" clip-rule="evenodd" d="M6.0383 14.3225L3.31515 14.294C3.07835 14.7496 1.36158 16.458 0.887986 16.9421C0.710389 17.1129 0.0887986 17.7393 0 17.9671C3.49274 18.2519 3.87754 16.6573 6.0383 14.3225Z" fill="#E30016"/>
<path fill-rule="evenodd" clip-rule="evenodd" d="M13.1422 16.0594H15.6286L18.6477 12.4432C18.6773 12.4147 18.7661 12.3008 18.8253 12.3008C18.8845 12.3008 18.8845 12.4147 18.9141 12.4432L19.4173 16.0594H21.9037L20.7197 10.8771C20.6901 10.7917 20.5717 10.3931 19.5061 10.3931C18.4405 10.3931 18.0261 10.7917 17.9373 10.8771L13.1422 16.0594Z" fill="#E30016"/>
<path fill-rule="evenodd" clip-rule="evenodd" d="M25.1892 13.7245H26.7284C27.1132 13.7245 27.202 13.8099 27.2316 13.8099C27.3204 13.8953 27.2908 14.0377 27.2316 14.1516C27.202 14.2655 27.1428 14.4363 26.9356 14.5218C26.8172 14.5787 26.6396 14.6072 26.4028 14.6072H25.3964C25.2188 14.6072 25.1004 14.5502 25.0412 14.4933C24.9524 14.4079 24.982 14.2655 25.0116 14.1231L25.1892 13.7245ZM23.8572 10.45L22.2884 14.9489C22.1108 15.4329 22.2588 15.6892 22.3476 15.7746C22.5548 16.0309 22.9692 16.0594 23.2356 16.0594H27.4092C27.8531 16.0594 28.2675 16.0309 28.7115 15.7177C29.3331 15.319 29.5699 14.7211 29.7179 14.3225C30.0139 13.4967 29.9843 13.0411 29.8363 12.7849C29.7179 12.5855 29.4219 12.3008 28.7115 12.3008H25.6924L26.3436 10.4215H23.8572V10.45Z" fill="#E30016"/>
<path fill-rule="evenodd" clip-rule="evenodd" d="M36.6146 14.1516L37.5322 11.4751H37.7986C38.1834 11.4751 38.8345 11.4751 39.0121 11.8737C39.0417 11.9591 39.1009 12.1584 38.8641 12.8418C38.7161 13.2404 38.5681 13.5252 38.361 13.7245C37.8874 14.1801 37.2954 14.1516 36.8218 14.1516H36.6146ZM34.1578 14.1516H33.921C33.4474 14.1516 32.8258 14.1801 32.6778 13.7245C32.6186 13.5252 32.6482 13.2404 32.7962 12.8418C33.033 12.1869 33.2402 11.9591 33.329 11.8737C33.8026 11.4466 34.4538 11.4751 34.8386 11.4751H35.105L34.1578 14.1516ZM35.845 9.28256L35.6082 9.99441H34.0098C32.7666 9.99441 31.9675 10.393 31.4939 10.8486C30.8723 11.4181 30.5171 12.3008 30.3395 12.8418C30.1027 13.5537 29.9251 14.294 30.1915 14.8635C30.5171 15.4899 31.3459 15.6038 32.1154 15.6038H33.6842L33.5066 16.1448H35.9634L36.141 15.6038H37.7098C38.4793 15.6038 39.3673 15.4899 40.1369 14.8635C40.8177 14.294 41.1433 13.5537 41.3801 12.8418C41.5577 12.3008 41.8241 11.4181 41.6169 10.8486C41.4393 10.393 40.9361 9.99441 39.6929 9.99441H38.0946L38.3313 9.28256H35.845Z" fill="#E30016"/>
<path fill-rule="evenodd" clip-rule="evenodd" d="M46.1161 13.8669L45.9977 14.2086C45.9681 14.294 45.9089 14.4079 45.7609 14.4933C45.6721 14.5503 45.4945 14.5788 45.3761 14.5788H44.1033C43.9849 14.5788 43.8665 14.5503 43.8073 14.4933C43.7481 14.4079 43.7481 14.3225 43.7777 14.2371C43.8073 14.1517 43.8665 14.0378 43.9849 13.9808C44.1329 13.8954 44.3105 13.8954 44.3697 13.8954H46.1161V13.8669ZM43.0377 10.45L42.5641 11.8453H45.9385C46.2049 11.8453 46.5009 11.8453 46.6192 12.073C46.6784 12.1869 46.6488 12.3578 46.6192 12.4432L46.5896 12.5286H43.6593C43.2745 12.5286 42.8305 12.5286 42.3865 12.7849C41.7353 13.1266 41.4689 13.7245 41.3209 14.2086C41.1729 14.6642 40.9361 15.4045 41.3209 15.7747C41.5873 16.0594 42.0313 16.0594 42.4457 16.0594H46.3825C46.7672 16.0594 47.2112 16.0309 47.6256 15.7747C48.0104 15.5184 48.1584 15.1767 48.2768 14.8635L49.1056 12.5002C49.2536 12.0446 49.4312 11.3897 49.0168 10.9341C48.8096 10.6778 48.3656 10.45 47.5368 10.45H43.0377Z" fill="#E30016"/>
<path fill-rule="evenodd" clip-rule="evenodd" d="M44.8433 4.10031L44.9617 3.75862C44.9913 3.70168 45.0209 3.61625 45.1689 3.61625H45.7017C45.8201 3.61625 45.9089 3.61625 45.9681 3.6732C46.0273 3.73015 45.9977 3.7871 45.9977 3.84405C45.9681 3.92947 45.9089 4.01489 45.8497 4.04336C45.7609 4.10031 45.6425 4.10031 45.5241 4.10031H44.8433ZM44.3697 5.3247L44.6065 4.66979H45.8201C45.9681 4.66979 46.2049 4.64132 46.3825 4.5559C46.6785 4.38505 46.8561 4.01489 46.9153 3.84405C47.0337 3.53083 47.0337 3.33151 46.9153 3.21762C46.7969 3.07525 46.5897 3.04677 46.3529 3.04677H44.7545C44.5473 3.04677 44.3993 3.10372 44.3105 3.16067C44.1921 3.24609 44.1033 3.38846 44.0737 3.47388L43.3929 5.29622H44.3697V5.3247ZM42.9489 5.3247L43.1561 4.78369H41.7353C41.6761 4.78369 41.5873 4.78369 41.5577 4.75522C41.5281 4.75522 41.5281 4.72674 41.5577 4.66979L41.6465 4.41353H43.2449L43.4225 3.92947H41.8241L41.8833 3.75862C41.8833 3.73015 41.9129 3.6732 41.9721 3.64473C42.0017 3.61625 42.0905 3.61625 42.1201 3.61625H43.5705L43.7777 3.07525H41.6761C41.5577 3.07525 41.4393 3.07525 41.2913 3.16067C41.1433 3.24609 41.1138 3.33151 41.0842 3.41694L40.4922 4.95453C40.4626 5.06843 40.433 5.15385 40.5218 5.23927C40.6106 5.29622 40.729 5.3247 40.8474 5.3247H42.9489ZM36.585 5.3247H37.5914L38.8642 3.84405L38.9234 3.7871C38.953 3.7871 38.953 3.81557 38.953 3.84405L39.101 5.3247H40.1074L39.7522 3.27457C39.7226 3.04677 39.397 3.04677 39.2194 3.04677C39.0418 3.04677 38.7162 3.04677 38.509 3.27457L36.585 5.3247ZM34.6907 2.44882C34.6907 2.59119 34.7794 2.79051 34.8979 2.87593C35.0458 2.98983 35.2826 3.0183 35.549 3.0183C35.8154 3.0183 36.0818 2.96135 36.3186 2.87593C36.5258 2.79051 36.733 2.59119 36.8514 2.44882H36.2594C36.2002 2.50577 36.141 2.56271 36.0522 2.61966C35.9634 2.67661 35.7858 2.70508 35.6674 2.70508C35.549 2.70508 35.4306 2.67661 35.3418 2.61966C35.2826 2.59119 35.253 2.50577 35.253 2.44882H34.6907ZM36.289 5.3247L36.9402 3.58778C36.9994 3.41694 37.1178 3.0183 36.4666 3.0183C36.289 3.0183 36.0226 3.0183 35.7266 3.27457L34.5131 4.35658C34.4539 4.41353 34.4243 4.442 34.3947 4.442C34.3355 4.442 34.3651 4.38505 34.3947 4.3281L34.9274 3.04677H33.9803L33.3291 4.78369C33.2403 5.06843 33.2107 5.3247 33.7731 5.3247C34.1875 5.3247 34.3651 5.2108 34.4835 5.0969L35.7266 4.01489C35.8154 3.92947 35.845 3.90099 35.8746 3.90099C35.9042 3.90099 35.9042 3.92947 35.8746 3.98642L35.3418 5.3247H36.289ZM32.6187 5.3247L32.8259 4.78369H31.4051C31.3459 4.78369 31.2571 4.78369 31.2275 4.75522C31.1979 4.75522 31.1979 4.72674 31.2275 4.66979L31.3163 4.41353H32.9147L33.0923 3.92947H31.4939L31.5531 3.75862C31.5531 3.73015 31.5827 3.6732 31.6419 3.64473C31.6715 3.61625 31.7307 3.61625 31.7899 3.61625H33.2403L33.4475 3.07525H31.3755C31.2571 3.07525 31.1387 3.07525 30.9907 3.16067C30.8427 3.24609 30.8131 3.33151 30.7835 3.41694L30.1915 4.95453C30.1619 5.06843 30.1323 5.15385 30.2211 5.23927C30.3099 5.29622 30.4283 5.3247 30.5467 5.3247H32.6187ZM27.9716 4.10031L28.09 3.75862C28.1196 3.70168 28.1492 3.61625 28.2972 3.61625H28.83C28.9483 3.61625 29.0371 3.61625 29.0963 3.6732C29.1555 3.73015 29.1259 3.7871 29.1259 3.84405C29.0963 3.92947 29.0371 4.01489 28.9779 4.04336C28.8891 4.10031 28.7708 4.10031 28.6524 4.10031H27.9716ZM27.498 5.3247L27.7348 4.66979H28.9483C29.0963 4.66979 29.3331 4.64132 29.5107 4.5559C29.8067 4.38505 29.9843 4.01489 30.0435 3.84405C30.1619 3.53083 30.1619 3.33151 30.0435 3.21762C29.9251 3.07525 29.7179 3.04677 29.4811 3.04677H27.8828C27.6756 3.04677 27.5276 3.10372 27.4684 3.16067C27.35 3.24609 27.2612 3.38846 27.2316 3.47388L26.5508 5.29622H27.498V5.3247ZM25.1596 5.3247L25.7812 3.61625H26.8172L27.0244 3.04677H24.0348L23.8276 3.61625H24.8636L24.242 5.3247H25.1596Z" fill="white"/>
<path fill-rule="evenodd" clip-rule="evenodd" d="M3.04877 17.9387C4.85434 17.9956 41.1434 17.9387 44.2809 17.9387C45.6425 17.9387 46.9745 17.8248 47.7736 17.1699C48.1288 16.8567 48.5728 16.458 48.7208 15.974C47.8624 16.3726 48.0696 16.5719 45.5241 16.5719H7.3111C5.00234 16.6289 4.41035 16.4865 3.04877 17.9387Z" fill="#003269"/>
</svg>
