<svg width="100" height="18" viewBox="0 0 100 18" fill="none" xmlns="http://www.w3.org/2000/svg">
<path fill-rule="evenodd" clip-rule="evenodd" d="M0.189819 12.9701L4.11249 15.2162L8.63622 12.6222L4.93499 10.1547L0.189819 12.9701Z" fill="#00BAED"/>
<path fill-rule="evenodd" clip-rule="evenodd" d="M0 2.87878V12.7171L4.71354 9.93327V5.66262L0 2.87878Z" fill="#16479E"/>
<path fill-rule="evenodd" clip-rule="evenodd" d="M13.2548 15.5325L8.95254 18L4.68188 15.5325L8.95254 13.0017L13.2548 15.5325Z" fill="#00BAED"/>
<path fill-rule="evenodd" clip-rule="evenodd" d="M17.7469 12.9701L13.8243 15.2162L9.30054 12.6222L13.0018 10.1547L17.7469 12.9701Z" fill="#00BAED"/>
<path fill-rule="evenodd" clip-rule="evenodd" d="M17.9367 2.87878V12.7171L13.2231 9.93327V5.66262L17.9367 2.87878Z" fill="#16479E"/>
<path fill-rule="evenodd" clip-rule="evenodd" d="M8.95264 2.65729L4.49218 0L0.0633545 2.59403L4.71362 5.34622L4.74526 5.37786L8.95264 7.84535L13.16 5.37786L13.2233 5.34622L17.8419 2.59403L13.4447 0L8.95264 2.65729Z" fill="#00BAED"/>
<path fill-rule="evenodd" clip-rule="evenodd" d="M21.5431 12.5589H22.8717V4.90333L27.6485 11.0404L32.4253 4.90333V12.5589H33.754V3.19507H31.9825L27.6485 8.76273L23.3146 3.19507H21.5431V12.5589Z" fill="black"/>
<path fill-rule="evenodd" clip-rule="evenodd" d="M38.6257 9.68021L40.5554 6.20042L42.4851 9.68021H38.6257ZM35.7153 12.5589H37.044L37.9614 10.914H43.1494L44.0668 12.5589H45.3955L41.2197 4.96667H39.8911L35.7153 12.5589Z" fill="black"/>
<path fill-rule="evenodd" clip-rule="evenodd" d="M54.1899 8.13012H49.2233V6.16878H54.1583C54.4746 6.16878 54.9175 6.51676 54.9175 7.14945C54.9175 7.78214 54.443 8.13012 54.1899 8.13012ZM54.3164 11.3252H48.6855V9.36387H54.3164C54.5695 9.36387 55.0757 9.61694 55.0757 10.3445C55.0757 11.0721 54.5379 11.3252 54.3164 11.3252ZM54.2848 12.5589C55.4553 12.5589 56.5308 11.5466 56.5308 10.5343C56.5308 9.52204 55.8982 8.82608 55.0124 8.60464C55.6767 8.31993 56.1196 7.6556 56.1196 6.86474C56.1196 5.82081 55.2971 4.99831 54.2532 4.96667H47.2936V12.5589H54.2848Z" fill="black"/>
<path fill-rule="evenodd" clip-rule="evenodd" d="M58.334 12.5589H60.6117L65.6099 6.35859H65.6732V12.5589H67.0018V4.96667H65.0405L59.6626 11.3885V4.96667H58.334V12.5589Z" fill="black"/>
<path fill-rule="evenodd" clip-rule="evenodd" d="M68.9315 12.5589H70.2602V9.23733H76.3024V12.5589H77.6626V4.96667H76.3024V7.97195H70.2602V4.96667H68.9315V12.5589Z" fill="black"/>
<path fill-rule="evenodd" clip-rule="evenodd" d="M83.167 12.5589H84.5273V6.29532H88.1653V4.96667H79.5291V6.29532H83.167V12.5589Z" fill="black"/>
<path fill-rule="evenodd" clip-rule="evenodd" d="M91.6136 9.01581L93.8912 4.71352L96.1689 9.01581H91.6136ZM88.1654 12.5589H89.7471L90.8227 10.5343H96.9598L98.0354 12.5589H99.6171L94.6821 3.19507H93.1004L88.1654 12.5589Z" fill="black"/>
</svg>
