<svg width="90" height="18" viewBox="0 0 90 18" fill="none" xmlns="http://www.w3.org/2000/svg">
<path fill-rule="evenodd" clip-rule="evenodd" d="M5.71499 9.13079V8.76426C5.68956 7.17868 6.11983 5.61859 6.95567 4.26578C7.79151 2.91297 8.9985 1.82315 10.436 1.12331C11.7202 0.518718 13.1401 0.251681 14.5588 0.34793L14.4876 0.305639L14.3808 0.270392C13.2946 -0.0279256 12.1544 -0.0801777 11.0449 0.117511C9.93546 0.3152 8.88524 0.757758 7.97224 1.41231C2.44661 5.1764 3.48623 15.1505 11.3047 17.4343C11.6821 17.5471 11.7604 17.3709 11.5254 17.2581C11.2905 17.1453 11.1552 17.1242 10.9914 17.0537C10.6596 16.8993 10.3363 16.7276 10.023 16.5391C8.23762 15.3645 6.88576 13.6478 6.17072 11.6472C5.90129 10.8342 5.75491 9.98623 5.73636 9.13079" fill="#E32025"/>
<path fill-rule="evenodd" clip-rule="evenodd" d="M3.30337 11.1176C3.72437 9.05184 3.20347 7.89614 1.42668 7.20272L0.713118 6.93547L0.035228 6.61765C-0.0664117 7.39084 0.0529769 8.17733 0.379255 8.88397C0.705533 9.5906 1.22503 10.1878 1.87623 10.6048C2.31161 10.8742 2.79764 11.0489 3.30337 11.1176Z" fill="#E32025"/>
<path fill-rule="evenodd" clip-rule="evenodd" d="M0.264698 12.7272C0.460741 13.1389 0.71736 13.5199 1.02629 13.858C1.55022 14.4315 2.24273 14.8301 3.00758 14.9986C3.77242 15.167 4.57162 15.0969 5.29411 14.798C5.1556 14.3362 4.94209 13.8994 4.66184 13.5046C3.36857 11.6882 1.50768 12.7554 0.264698 12.7272Z" fill="#E32025"/>
<path fill-rule="evenodd" clip-rule="evenodd" d="M3.70589 16.6392C4.19793 17.2662 4.87658 17.7134 5.63965 17.9133C6.11767 18.0289 6.6156 18.0289 7.09361 17.9133C7.48467 17.7931 7.8586 17.6212 8.20589 17.4022C8.03229 17.0153 7.7711 16.676 7.44378 16.412C7.11647 16.148 6.73236 15.9669 6.32301 15.8836C5.63102 15.8653 4.94883 16.0532 4.36017 16.4243C4.15691 16.5168 3.94808 16.5959 3.73497 16.6614" fill="#E32025"/>
<path fill-rule="evenodd" clip-rule="evenodd" d="M1.85956 4.03093C1.85639 4.52622 1.98436 5.01245 2.22882 5.43396C2.38708 5.70054 2.88823 6.29683 3.11243 6.35295C3.34099 6.05659 3.51342 5.71593 3.62017 5.34979C3.73574 4.95607 3.73444 4.53402 3.61645 4.14111C3.49845 3.7482 3.2695 3.40353 2.96076 3.15403L2.41346 2.58581C2.36739 2.51434 2.31671 2.44636 2.26179 2.38236C1.99591 2.8783 1.85507 3.43895 1.85296 4.00988" fill="#E32025"/>
<path fill-rule="evenodd" clip-rule="evenodd" d="M3.97301 1.49249C3.95041 1.90895 4.08675 2.31911 4.35679 2.64706C4.59258 2.54157 4.79976 2.38574 4.9623 2.19164C5.12483 1.99754 5.23837 1.77036 5.29412 1.52769C5.27957 1.0138 5.1271 0.51206 4.85129 0.0704049L4.807 2.66587e-09C4.56087 0.178153 4.35958 0.406508 4.21784 0.668385C4.07611 0.930261 3.9975 1.21904 3.98777 1.51361" fill="#E32025"/>
<path fill-rule="evenodd" clip-rule="evenodd" d="M8.31537 7.88319L8.43034 9.1235C8.15261 9.25426 7.89205 9.41754 7.65435 9.60975C7.64702 10.0265 7.79814 10.4309 8.07827 10.7443C8.39365 10.7527 8.70908 10.7291 9.01951 10.6739C9.23506 10.9346 9.22069 11.0192 9.62306 11.4984C10.0254 11.9776 8.81114 12.3018 9.62306 12.8726C9.77394 12.9712 9.90327 13.1263 10.0398 13.1968C10.3631 13.3588 10.7583 12.9713 10.9523 12.7457C11.0071 12.7385 11.0627 12.7385 11.1175 12.7457L11.5127 12.2806C11.3834 12.3159 11.7714 12.0269 11.6061 11.9706C11.4984 11.6393 11.1535 11.4068 11.0673 11.2236C10.981 11.0403 10.6433 10.8078 10.4709 10.5823C9.86845 9.81015 9.55215 8.85978 9.57412 7.88775C9.5961 6.91573 9.95503 5.98005 10.5918 5.23489C11.2285 4.48973 12.1051 3.97955 13.077 3.78842C14.049 3.5973 15.0583 3.73663 15.9387 4.18345C16.2046 4.3103 16.5782 4.62038 16.6932 4.64856C16.8081 4.67675 17.2823 5.07844 17.6344 5.12777C17.6775 5.21233 18.784 3.71833 18.4751 3.3096C18.3494 3.18798 18.2175 3.07273 18.0799 2.9643C17.3614 2.25958 17.1961 3.47168 16.7003 3.19684C16.2046 2.922 16.0681 2.91496 15.7663 2.75288C15.7672 2.44284 15.7359 2.13351 15.6729 1.8297C15.3083 1.61546 14.8761 1.54021 14.4586 1.61829C14.3092 1.88134 14.191 2.16035 14.1065 2.44985L12.842 2.5626C12.5114 2.01997 12.4899 1.61828 11.7714 1.85789C10.9235 2.16796 11.1247 2.19615 11.2612 3.07704C11.211 3.13342 10.3272 3.72538 10.2266 3.78176C9.99668 3.67605 9.5081 3.30256 9.24225 3.43645C9.10744 3.53854 8.98879 3.65966 8.89018 3.79585C8.77186 3.91439 8.67254 4.04982 8.59559 4.19755C8.50937 4.50057 8.96203 4.90225 9.10573 5.09253C9.05544 5.19824 8.60996 6.15664 8.56685 6.21302C7.66153 6.21302 7.59687 6.04389 7.4388 6.91774C7.30228 7.65769 7.69746 7.62247 8.301 7.83388" fill="#272443"/>
<path d="M47.931 13.1833L47.0574 10.3375L46.1981 13.1833H47.931ZM48.3145 14.4568H45.7719L45.4239 15.588H43.4566L45.5873 9.02135H48.4282L50.5588 15.588H48.6839L48.3145 14.4568ZM37.1569 13.4324H37.8104V11.1628H37.1569C36.9596 11.1541 36.7628 11.1906 36.5817 11.2695C36.4404 11.3454 36.3336 11.4728 36.2834 11.6253C36.2089 11.8546 36.1776 12.0959 36.191 12.3367C36.1786 12.5775 36.2099 12.8186 36.2834 13.0482C36.3085 13.1237 36.3485 13.1935 36.4009 13.2534C36.4534 13.3132 36.5172 13.362 36.5888 13.3968C36.7736 13.4483 36.9672 13.4605 37.1569 13.4324ZM39.6995 13.4324H40.3387C40.5333 13.4437 40.7278 13.4096 40.9069 13.3327C40.9771 13.299 41.0398 13.2513 41.091 13.1926C41.1423 13.1339 41.1812 13.0654 41.2052 12.9912C41.2813 12.7621 41.315 12.521 41.3046 12.2798C41.3333 11.9679 41.2584 11.6553 41.0916 11.3905C40.9911 11.2976 40.8719 11.2273 40.7421 11.1844C40.6122 11.1414 40.4747 11.1268 40.3387 11.1415H39.6995V13.4324ZM39.6995 15.5667H37.8104V14.9264H36.8444C36.4354 14.9362 36.0269 14.8907 35.63 14.7912C35.3316 14.7185 35.0574 14.5689 34.8345 14.3572C34.6145 14.1327 34.4598 13.8523 34.3871 13.5462C34.2852 13.1296 34.2374 12.7015 34.245 12.2727C34.2343 11.7395 34.3309 11.2096 34.5291 10.7146C34.6866 10.343 34.982 10.0471 35.353 9.88932C35.8363 9.69905 36.354 9.61181 36.8729 9.63319H37.8388V9.02135H39.728V9.63319H40.6797C41.1985 9.61181 41.7162 9.69905 42.1995 9.88932C42.5683 10.048 42.8611 10.3439 43.0163 10.7146C43.2138 11.2167 43.3034 11.7549 43.2791 12.294C43.2873 12.7253 43.2395 13.1557 43.137 13.5746C43.0576 13.8775 42.901 14.1546 42.6825 14.3786C42.4606 14.5916 42.186 14.7414 41.887 14.8125C41.4926 14.9126 41.0864 14.958 40.6797 14.9477H39.6995V15.5667ZM29.657 12.8347H30.978C31.1817 12.8138 31.3866 12.8614 31.5604 12.9699C31.6231 13.0424 31.6695 13.1276 31.6965 13.2197C31.7235 13.3117 31.7303 13.4085 31.7166 13.5035C31.7289 13.5929 31.7212 13.6839 31.6942 13.77C31.6672 13.8561 31.6215 13.9352 31.5604 14.0015C31.3843 14.1037 31.1807 14.1485 30.978 14.1296H29.657V12.8347ZM29.657 9.00001H27.7678V15.5667H31.4112C31.8248 15.5806 32.2366 15.5054 32.6186 15.3461C32.924 15.2064 33.1739 14.9686 33.3288 14.6703C33.4882 14.2945 33.5704 13.8904 33.5704 13.4821C33.5704 13.0739 33.4882 12.6698 33.3288 12.294C33.1785 11.9838 32.9284 11.7332 32.6186 11.5826C32.23 11.4295 31.8145 11.3568 31.397 11.3691H29.657V9.00001ZM20.8502 9.00001H26.5888V15.5667H24.6925V10.5225H22.64V13.2829C22.6494 13.7114 22.5721 14.1374 22.4127 14.5351C22.2651 14.8705 22.0169 15.1515 21.7025 15.339C21.3433 15.5338 20.9389 15.6295 20.5306 15.6165C20.207 15.6202 19.8836 15.594 19.5647 15.5382V14.1153C19.7524 14.1645 19.9462 14.186 20.14 14.1794C20.2403 14.1902 20.3417 14.1779 20.4365 14.1433C20.5313 14.1088 20.617 14.053 20.6869 13.9802C20.8149 13.7664 20.8697 13.5166 20.8431 13.2687L20.8502 9.00001ZM16.9156 13.162L16.0349 10.3162L15.1756 13.162H16.9156ZM17.292 14.4355H14.7565L14.4085 15.5667H12.4412L14.5719 9.00001H17.4128L19.5434 15.5667H17.6613L17.292 14.4355Z" fill="#272443"/>
<path d="M88.6699 13.2041H89.9971V13.5813C90.0185 13.9926 89.9226 14.4016 89.7203 14.7621C89.4998 15.0698 89.1752 15.2902 88.8047 15.3839C87.7539 15.6298 86.6609 15.6441 85.6038 15.4258C85.2592 15.3392 84.9482 15.1545 84.7096 14.8948C84.4639 14.6012 84.3 14.2496 84.234 13.8748C84.1257 13.3154 84.0781 12.7463 84.0921 12.177C84.0703 11.5524 84.1567 10.9286 84.3476 10.3326C84.502 9.89797 84.8194 9.538 85.2348 9.32647C85.7976 9.08426 86.4099 8.97423 87.0233 9.00509C87.6198 8.97952 88.216 9.05999 88.7834 9.24263C89.1502 9.36155 89.4589 9.61061 89.6493 9.9413C89.8388 10.3378 89.945 10.768 89.9616 11.2059H88.6415C88.6376 10.947 88.577 10.6921 88.4641 10.4583C88.4136 10.3744 88.3458 10.3019 88.2651 10.2453C88.1845 10.1888 88.0927 10.1495 87.9956 10.1299C87.6761 10.0639 87.3496 10.0358 87.0233 10.0461C86.6888 10.0274 86.3542 10.0823 86.0439 10.2068C85.9286 10.2705 85.8293 10.3588 85.7532 10.4652C85.677 10.5715 85.626 10.6933 85.6038 10.8216C85.5017 11.2991 85.4588 11.7871 85.4761 12.2748C85.4724 12.6533 85.4961 13.0315 85.5471 13.4067C85.5721 13.6547 85.6547 13.8937 85.7884 14.1053C85.905 14.2611 86.0691 14.3762 86.2568 14.4337C86.5157 14.5025 86.7836 14.5332 87.0517 14.5246C87.3801 14.5353 87.7086 14.5095 88.0311 14.4477C88.2254 14.4209 88.4026 14.3238 88.5279 14.1752C88.6316 14.0073 88.6811 13.8124 88.6699 13.6163V13.2041ZM82.992 9.06796H81.0473L78.6413 13.3857L78.4284 13.77L78.0523 14.4686C78.13 14.094 78.1657 13.7121 78.1587 13.3298V9.0959H76.796V15.5376H78.7478L81.1538 11.2059C81.2319 11.0522 81.317 10.9124 81.388 10.7867C81.459 10.6609 81.5725 10.4443 81.7358 10.1439C81.6612 10.5213 81.6279 10.9054 81.6364 11.2897V15.5376H82.992V9.06796ZM70.0677 15.5097V9.06796H73.6945C74.0622 9.05683 74.4286 9.11615 74.7733 9.24263C75.0464 9.34016 75.2787 9.52455 75.4333 9.76663C75.5987 10.046 75.6799 10.3658 75.6675 10.6889C75.7143 11.0156 75.6365 11.3478 75.4491 11.6213C75.2616 11.8949 74.9779 12.0904 74.6526 12.17V12.205C74.9939 12.2398 75.3074 12.4055 75.5256 12.6661C75.7364 12.954 75.8415 13.3038 75.8237 13.6582C75.8261 13.9214 75.7854 14.1833 75.703 14.4337C75.624 14.6526 75.4954 14.8509 75.3269 15.0136C75.1462 15.1808 74.9306 15.3072 74.6952 15.3839C74.4081 15.4718 74.1087 15.5143 73.8081 15.5097H70.0677ZM71.4091 12.6801V14.4966H73.1267C73.4797 14.5208 73.8328 14.4508 74.1487 14.294C74.2578 14.2138 74.3444 14.1076 74.4003 13.9854C74.4562 13.8631 74.4795 13.7289 74.4681 13.5953C74.4788 13.4093 74.4397 13.2238 74.3545 13.0573C74.2792 12.9281 74.1578 12.831 74.0139 12.7849C73.8037 12.7277 73.586 12.7018 73.368 12.708L71.4091 12.6801ZM71.4091 10.095V11.7578H73.1267C73.365 11.7645 73.6032 11.7434 73.8364 11.6949C73.9097 11.6786 73.9788 11.6478 74.0398 11.6046C74.1008 11.5614 74.1523 11.5066 74.1913 11.4434C74.2791 11.2654 74.3182 11.068 74.3049 10.8705C74.3217 10.7581 74.3105 10.6434 74.2722 10.5363C74.2338 10.4292 74.1695 10.3328 74.0848 10.2557C73.8694 10.1347 73.6226 10.0788 73.3751 10.095H71.4091ZM64.7518 12.4006H66.4268C66.6784 12.4072 66.9296 12.3766 67.172 12.3098C67.3354 12.2523 67.4717 12.138 67.5553 11.9884C67.6426 11.7806 67.6814 11.5562 67.6688 11.3316C67.6772 11.0937 67.6386 10.8565 67.5553 10.633C67.4771 10.4688 67.3371 10.3411 67.1649 10.2766C66.9364 10.2011 66.6962 10.1656 66.4552 10.1718H64.7802L64.7518 12.4006ZM63.3962 15.5446V9.10289H66.3771C66.88 9.08733 67.3824 9.14621 67.8676 9.27756C68.2262 9.36882 68.5344 9.59447 68.7263 9.90635C68.9461 10.3088 69.0469 10.7639 69.0173 11.2199C69.0264 11.5872 68.9834 11.9541 68.8896 12.3098C68.8213 12.5791 68.673 12.8224 68.4638 13.0084C68.2411 13.1849 67.9779 13.3048 67.6972 13.3578C67.3021 13.4321 66.9 13.4649 66.4978 13.4556H64.7234V15.5516L63.3962 15.5446ZM58.9107 10.1299V11.8067H62.2252V12.722H58.9107V14.4966H62.4594V15.5097H57.6048V9.06796H62.431V10.095L58.9107 10.1299ZM55.4046 13.239H56.7389V13.6163C56.7586 14.0283 56.6602 14.4374 56.455 14.797C56.2377 15.1079 55.9119 15.3292 55.5395 15.4188C54.9752 15.5675 54.3916 15.6334 53.8077 15.6145C53.3158 15.6239 52.8245 15.5723 52.3457 15.4608C51.9983 15.3758 51.6846 15.1909 51.4443 14.9298C51.2016 14.6343 51.0381 14.2836 50.9688 13.9097C50.864 13.3499 50.8165 12.7811 50.8269 12.212C50.805 11.5873 50.8914 10.9636 51.0824 10.3675C51.2371 9.93094 51.5576 9.57036 51.9766 9.36139C52.5393 9.11869 53.1517 9.00864 53.7652 9.04001C54.3616 9.01444 54.9578 9.09491 55.5253 9.27756C55.8901 9.39995 56.1977 9.6481 56.3912 9.97622C56.578 10.3733 56.6818 10.8034 56.6964 11.2408H55.3762C55.3759 10.9816 55.3152 10.7258 55.1988 10.4932C55.1491 10.4101 55.0825 10.338 55.0031 10.2815C54.9237 10.225 54.8332 10.1853 54.7375 10.1649C54.4178 10.0996 54.0915 10.0714 53.7652 10.081C53.4283 10.0618 53.0913 10.1167 52.7786 10.2417C52.6643 10.3066 52.5657 10.3952 52.4898 10.5014C52.4138 10.6076 52.3622 10.7288 52.3386 10.8566C52.2396 11.3345 52.1991 11.8224 52.2179 12.3098C52.2107 12.6883 52.2344 13.0668 52.2889 13.4416C52.3105 13.6903 52.3933 13.9301 52.5302 14.1403C52.6442 14.2987 52.8093 14.4144 52.9986 14.4686C53.2575 14.5379 53.5254 14.5685 53.7935 14.5595C54.1219 14.5696 54.4504 14.5438 54.773 14.4826C54.9647 14.4542 55.1391 14.3572 55.2627 14.2101C55.3663 14.0423 55.4158 13.8474 55.4046 13.6512V13.239Z" fill="#E32025"/>
</svg>
