<svg width="118" height="18" viewBox="0 0 118 18" fill="none" xmlns="http://www.w3.org/2000/svg">
<path fill-rule="evenodd" clip-rule="evenodd" d="M57.2457 17.8731H54.5243L58.0368 8.07224H61.6444L65.0937 17.8731H61.7393L59.5083 10.911L57.2457 17.8731ZM69.0334 16.8423V17.8731H65.7266V8.07224H69.0334V11.9894C69.0334 12.5128 69.0018 13.1313 68.9385 13.8449C69.3499 13.0678 69.7455 12.37 70.141 11.7674L71.8973 9.11893V8.07224H75.2042V17.8731H71.8973V13.9877C71.8973 13.4326 71.929 12.8141 71.9764 12.1322C71.6442 12.7982 71.2486 13.4802 70.7739 14.2097L69.0334 16.8423ZM76.3909 14.7965L79.4921 14.511C79.587 15.0026 79.7453 15.3357 79.9826 15.5577C80.2199 15.7639 80.568 15.8749 81.0269 15.8749C81.9762 15.8749 82.4509 15.4943 82.4509 14.733C82.4509 14.067 82.0712 13.7339 81.3117 13.7339H80.5364V12.0053H81.2009C81.8655 12.0053 82.1977 11.6722 82.1977 11.0062C82.1977 10.3718 81.7547 10.0546 80.8528 10.0546C80.4573 10.0546 80.125 10.1339 79.8877 10.2766C79.6503 10.4194 79.4763 10.7524 79.3813 11.2758L76.6757 10.8951C76.8972 8.91276 78.3371 7.9295 80.9952 7.9295C82.2927 7.9295 83.3844 8.15153 84.2705 8.59558C85.1407 9.03964 85.5838 9.70572 85.5838 10.6097C85.5838 11.5454 85.0141 12.2273 83.8591 12.6238C85.2515 13.052 85.9318 13.7974 85.9318 14.8599C85.9318 15.748 85.5046 16.5093 84.6344 17.096C83.7642 17.6987 82.5775 18 81.0585 18C79.6345 18 78.4953 17.7304 77.6567 17.1753C76.8023 16.652 76.3909 15.8432 76.3909 14.7965ZM90.6628 16.8423V17.8731H87.3559V8.07224H90.6628V11.9894C90.6628 12.5128 90.6311 13.1313 90.5678 13.8449C90.9792 13.0678 91.3748 12.37 91.7703 11.7674L93.5266 9.11893V8.07224H96.8335V17.8731H93.5266V13.9877C93.5266 13.4326 93.5583 12.8141 93.6057 12.1322C93.2893 12.7982 92.8779 13.4802 92.4032 14.2097L90.6628 16.8423ZM108.162 8.07224V17.8731H104.745V14.067H102.166V17.8731H98.748V8.07224H102.166V11.6881H104.745V8.07224H108.162ZM110.093 17.8731V8.07224H117.165V10.3718H113.51V17.8573H110.093V17.8731Z" fill="#F29114"/>
<path fill-rule="evenodd" clip-rule="evenodd" d="M53.3218 0L41.4233 0.015859L43.0688 4.71014L51.6762 4.69428L47.0877 17.8731H52.0401L58.2742 0H53.3218Z" fill="#2B2A29"/>
<path fill-rule="evenodd" clip-rule="evenodd" d="M32.3094 17.8731L32.262 17.7463L35.9486 7.13657L39.6827 17.8731H44.6352L38.4327 0H33.4645L29.7779 10.6097L26.107 0H21.1388L14.9364 17.8731H19.8888L23.6229 7.13657L27.3096 17.7463L27.2621 17.8731H32.3094Z" fill="#2B2A29"/>
<path fill-rule="evenodd" clip-rule="evenodd" d="M11.851 8.34186C11.851 8.34186 6.61379 8.56389 5.99671 8.65904C5.37964 8.7542 4.93661 9.45199 4.79421 9.68988C4.6518 9.92777 4.60434 10.2449 5.07901 10.2449C5.55369 10.2449 11.946 10.2132 11.946 10.2132L11.851 8.34186ZM1.56642 13.3216V12.9886C1.56642 12.9886 1.94616 12.5762 2.23097 12.5287C2.4683 12.4969 4.33536 12.4652 4.96825 12.4652C4.74674 12.7507 4.55687 13.052 4.43029 13.3216H1.56642ZM8.11692 13.5119C8.95551 13.5119 9.63588 14.2097 9.63588 15.082C9.63588 15.9542 8.95551 16.652 8.11692 16.652C7.27833 16.652 6.59797 15.9542 6.59797 15.082C6.59797 14.2097 7.27833 13.5119 8.11692 13.5119ZM8.11692 12.2432C9.63588 12.2432 10.8542 13.5119 10.8542 15.082C10.8542 16.652 9.62006 17.9207 8.11692 17.9207C6.59797 17.9207 5.37964 16.652 5.37964 15.082C5.36382 13.5119 6.59797 12.2432 8.11692 12.2432ZM4.19295 14.5586H1.56642V14.0194H4.25624C4.2246 14.1939 4.20878 14.3683 4.19295 14.5586ZM4.16131 15.7798H1.64554C1.58225 15.637 1.56642 15.4626 1.56642 15.2405H4.16131C4.16131 15.304 4.16131 15.3674 4.16131 15.415C4.16131 15.5419 4.16131 15.6687 4.16131 15.7798ZM8.2435 3.53657L10.2846 3.45727C10.6643 3.66344 10.6485 4.67842 10.5852 5.04318C10.5219 5.43965 10.5061 6.10573 8.62324 6.3912C8.55995 6.40706 8.48084 6.40706 8.41755 6.42292C8.41755 6.42292 8.13275 6.26433 8.08528 6.12159C8.03781 5.99472 7.99035 4.93217 7.99035 3.96476C7.99035 3.77445 8.08528 3.63172 8.2435 3.53657ZM3.56005 3.72688L6.89859 3.6C7.10429 3.77445 7.23087 3.98062 7.21504 4.18679C7.19922 4.39296 6.93024 6.62908 6.93024 6.62908C5.34799 6.85111 3.38601 7.089 2.29426 7.24759L2.42084 7.21587C2.42084 7.21587 2.48413 4.42468 2.51577 4.12335C2.54742 3.82203 2.57906 3.83789 2.64235 3.7586C2.87969 3.7586 3.19614 3.7586 3.56005 3.72688ZM10.8384 2.2837C10.8384 2.2837 4.05055 2.41058 3.22778 2.42643C2.40501 2.45815 2.19932 2.45815 1.80376 2.47401C1.83541 2.58503 1.93034 2.93392 1.96199 3.01322H5.47457C5.87013 2.99736 6.23405 2.99736 6.48721 2.99736H11.5979C11.8827 4.15507 11.9934 7.21587 11.9934 7.21587C11.9934 7.21587 12.0725 7.23173 11.677 7.23173C11.2814 7.24759 2.0411 8.00882 1.21833 8.13569C0.601254 8.21499 0.522141 8.91279 0.474674 9.88019C0.506319 9.86433 0.537964 9.84847 0.569609 9.83261C0.759478 9.76918 0.933526 9.73746 1.07593 9.73746V12.1956L1.72465 12.1798L1.70883 8.62732L5.69609 8.29428V8.46873C5.69609 8.46873 5.09483 8.50045 4.6518 9.11895C4.20878 9.73746 4.19295 9.92777 4.19295 10.1181C4.19295 10.3084 4.367 10.5621 4.62016 10.5621C4.87332 10.5621 12.0093 10.4987 12.0093 10.4987C12.0093 10.4987 12.2941 10.8952 12.5156 10.9903C11.6137 10.9903 6.06 10.8159 5.41128 11.3234C5.06319 11.593 4.81003 11.926 4.63598 12.1005C4.81003 12.0687 5.1423 12.0212 5.36382 11.9894C5.72773 11.5771 6.29734 11.4344 6.58215 11.4027C6.86695 11.3709 8.8764 11.3709 9.68335 11.4027C9.79411 11.4027 9.90486 11.4185 10.0156 11.4502H12.4839C12.4997 11.6564 12.4997 11.8467 12.5156 11.8626C12.5314 11.8784 12.563 11.926 12.6105 11.9894H10.9491C11.2181 12.259 11.4396 12.5921 11.6137 12.9568L14.351 12.9727L13.9238 14.1939H11.9776C11.9934 14.3207 12.0093 14.4317 12.0093 14.5428H13.7972L13.4491 15.5736H12.0409C12.0409 15.6687 12.0409 15.7639 12.0409 15.8273C12.3732 15.8273 12.8637 15.8273 13.3542 15.8273L13.0852 16.6044C12.563 16.6044 12.0725 16.6044 11.6453 16.6044C11.6453 16.4934 11.6453 16.319 11.6295 16.0969C11.6295 16.0969 11.6295 14.6855 11.4871 14.1304C11.3447 13.5753 10.6643 12.7348 10.2371 12.3859C9.80993 12.0212 9.12956 11.9894 9.12956 11.9894C9.12956 11.9894 7.16758 11.9894 6.86695 11.9894C6.07583 11.9894 5.22141 13.052 4.90496 13.5912C4.62016 14.067 4.57269 15.1454 4.57269 15.4309V16.2714L4.58851 16.652C4.58851 16.652 1.39238 16.6203 0.743656 16.4934C0.0791123 16.3031 0 15.8115 0 15.7005C0 15.5894 0.0632899 15.0344 0.0632899 14.8441C0.0632899 14.7013 0.0791123 14.5745 0.110757 14.5269V13.2423C0.0791123 13.2106 0.0632899 13.1472 0.0632899 13.052C0.0474674 12.4969 -0.0474674 11.6247 0.0316449 10.9269C-0.0158225 8.62733 0.427207 7.72336 1.12339 7.45375V7.4379L1.70883 3.82203C1.2658 3.83789 0.427207 3.88547 0.427207 3.93304C0.427207 3.98062 0.553786 2.90221 0.585431 2.80705C0.585431 2.80705 0.886058 1.60176 1.12339 1.09427C1.37655 0.586785 1.66136 0 3.57588 0C5.4904 0 9.69917 0 9.69917 0C9.69917 0 9.69917 0 9.79411 0.253745C9.87322 0.50749 9.8574 0.555067 9.95233 0.618503C10.0473 0.681939 10.4586 0.618503 10.8226 1.06256C11.1865 1.50661 11.3447 2.2837 11.3447 2.2837H10.8384Z" fill="#2B2A29"/>
<path fill-rule="evenodd" clip-rule="evenodd" d="M18.8445 0H10.6168C10.5219 0 10.8542 0.475772 11.0282 0.539208C11.5187 0.745375 11.8668 1.37974 12.0092 1.87137C12.12 2.23613 12.1833 2.25199 12.1833 2.25199L18.085 2.20441L18.8445 0Z" fill="#2B2A29"/>
<path fill-rule="evenodd" clip-rule="evenodd" d="M12.7371 10.5145C12.7845 10.5779 13.1168 10.7365 13.1168 10.7365C13.1168 10.7365 13.1326 11.8149 13.1643 11.8625C13.1959 11.9101 13.3542 12.1321 13.5915 12.148C13.7181 12.1638 14.2719 12.1638 14.62 12.148L17.7844 2.99731H12.2308C12.563 4.15502 12.6896 10.4511 12.7371 10.5145Z" fill="#2B2A29"/>
</svg>
