<svg width="52" height="18" viewBox="0 0 52 18" fill="none" xmlns="http://www.w3.org/2000/svg">
<path fill-rule="evenodd" clip-rule="evenodd" d="M27.0426 5.03219H30.3263V2.32251H30.0798V4.81008H28.8077V2.32251H28.5612V4.81008H27.2921V2.32251H27.0426V5.03219Z" fill="#575657"/>
<path fill-rule="evenodd" clip-rule="evenodd" d="M31.546 3.84963L32.4022 3.09677H32.0734L30.9567 4.08804V3.09677H30.7126V5.03225H30.9567V4.37664L31.3669 4.01275L32.145 5.03225H32.451L31.546 3.84963Z" fill="#575657"/>
<path fill-rule="evenodd" clip-rule="evenodd" d="M33.326 3.09677C32.7932 3.09677 32.4509 3.47913 32.4509 4.06303C32.4509 4.64694 32.7902 5.03225 33.326 5.03225C33.8619 5.03225 34.1893 4.67658 34.1893 4.08378C34.1893 3.49098 33.8529 3.10863 33.326 3.10863V3.09677ZM33.326 3.28647C33.719 3.28647 33.969 3.58287 33.969 4.06896C33.969 4.55505 33.7249 4.84552 33.335 4.84552C32.945 4.84552 32.686 4.54913 32.686 4.06303C32.686 3.57694 32.9331 3.28647 33.3201 3.28647H33.326Z" fill="#575657"/>
<path fill-rule="evenodd" clip-rule="evenodd" d="M36.121 4.99219V3.09677H34.888L34.8511 4.2371C34.8356 4.67166 34.7432 4.8535 34.5891 4.8535C34.5186 4.85628 34.4484 4.84475 34.3825 4.8196V4.99219C34.4475 5.01729 34.5163 5.03085 34.586 5.03225C34.8942 5.03225 35.0607 4.80727 35.0791 4.24019L35.1131 3.28785H35.8836V4.99219H36.121Z" fill="#575657"/>
<path fill-rule="evenodd" clip-rule="evenodd" d="M38.2455 4.79844C38.2164 4.80333 38.1868 4.80333 38.1578 4.79844C38.0308 4.79844 38.0338 4.72407 38.0338 4.614V3.62631C38.0338 3.28122 37.7678 3.09677 37.3475 3.09677C36.9273 3.09677 36.6159 3.32287 36.5977 3.71556H36.8154C36.8146 3.65267 36.8278 3.59036 36.854 3.533C36.8803 3.47565 36.9189 3.42464 36.9673 3.38354C37.0157 3.34244 37.0727 3.31225 37.1342 3.29509C37.1957 3.27793 37.2602 3.27421 37.3233 3.28419C37.6257 3.28419 37.8101 3.37642 37.8101 3.67986C37.8101 3.77208 37.792 3.82266 37.7436 3.85538C37.57 3.92078 37.3853 3.95308 37.1994 3.95058C36.7398 3.99818 36.507 4.18263 36.507 4.5188C36.507 4.85497 36.7368 5.03049 37.1117 5.03049C37.2508 5.03981 37.3899 5.01213 37.5143 4.95037C37.6388 4.8886 37.7441 4.79503 37.8192 4.67945C37.8192 4.84604 37.8403 5.01562 38.0641 5.01562C38.1258 5.0159 38.1871 5.00584 38.2455 4.98587V4.79844ZM37.8101 3.98331V4.2808C37.8083 4.35951 37.7902 4.43703 37.7568 4.50858C37.7234 4.58014 37.6755 4.64422 37.6161 4.69689C37.5566 4.74956 37.4868 4.78969 37.411 4.81483C37.3352 4.83997 37.2549 4.84958 37.1752 4.84307C36.9122 4.84307 36.7459 4.70622 36.7459 4.495C36.7459 4.1975 37.0663 4.14098 37.3022 4.10826C37.538 4.07553 37.7375 4.06066 37.8101 3.98331Z" fill="#575657"/>
<path fill-rule="evenodd" clip-rule="evenodd" d="M28.5867 8.75406C28.595 8.63518 28.5587 8.51761 28.4854 8.42677C28.4122 8.33593 28.308 8.27911 28.1954 8.2686C28.29 8.24436 28.3736 8.1861 28.4319 8.10386C28.4901 8.02162 28.5193 7.92055 28.5144 7.81804C28.5144 7.50075 28.2977 7.3548 27.9124 7.3548H27.0426V9.29028H27.9124C28.3399 9.29028 28.5777 9.09673 28.5777 8.74137L28.5867 8.75406ZM28.2857 7.87198C28.2857 8.07188 28.1472 8.18928 27.8914 8.18928H27.2894V7.55469H27.8914C28.1563 7.55469 28.2857 7.66574 28.2857 7.87198ZM28.3579 8.72867C28.3579 8.97616 28.2104 9.09991 27.8914 9.09991H27.2894V8.37648H27.8914C28.2014 8.37648 28.3579 8.5034 28.3579 8.72867Z" fill="#575657"/>
<path fill-rule="evenodd" clip-rule="evenodd" d="M29.7533 7.3548C29.1613 7.3548 28.7809 7.73477 28.7809 8.32254C28.7809 8.91031 29.1579 9.29028 29.7533 9.29028C30.3487 9.29028 30.7125 8.91921 30.7125 8.32848C30.7125 7.73774 30.3387 7.3548 29.7533 7.3548ZM29.7533 7.54182C30.1866 7.54182 30.4644 7.83867 30.4644 8.32551C30.4644 8.81235 30.1932 9.10623 29.7599 9.10623C29.3266 9.10623 29.0389 8.80938 29.0389 8.32254C29.0389 7.8357 29.3167 7.54182 29.75 7.54182H29.7533Z" fill="#575657"/>
<path fill-rule="evenodd" clip-rule="evenodd" d="M32.8373 9.87093V9.06527H32.5507V7.3548H31.233V7.59959C31.2703 8.10243 31.1741 8.6061 30.953 9.06527H30.7126V9.87093H30.9629V9.25119H32.61V9.87093H32.8373ZM32.3037 9.06527H31.2001C31.3981 8.62708 31.4893 8.15273 31.4669 7.67706V7.55001H32.3037V9.06527Z" fill="#575657"/>
<path fill-rule="evenodd" clip-rule="evenodd" d="M34.5757 9.29028V7.3548H34.2869L33.2639 9.01064V7.3548H33.0304V9.29028H33.3192L34.3422 7.63129V9.29028H34.5757Z" fill="#575657"/>
<path fill-rule="evenodd" clip-rule="evenodd" d="M36.314 7.55274V7.3548H34.7687V7.55274H35.4326V9.29028H35.6501V7.55274H36.314Z" fill="#575657"/>
<path fill-rule="evenodd" clip-rule="evenodd" d="M38.2266 8.62868H37.9971C37.9806 8.76403 37.9106 8.88855 37.8011 8.97748C37.6916 9.06641 37.5506 9.11323 37.4061 9.10861C36.9377 9.10861 36.7491 8.75311 36.7491 8.37094H38.2455V8.30577C38.2455 7.80214 37.9657 7.3548 37.3935 7.3548C36.8748 7.3548 36.507 7.76066 36.507 8.33836C36.507 8.91605 36.8591 9.28933 37.3967 9.28933C37.5981 9.29891 37.7959 9.236 37.95 9.11335C38.1041 8.99069 38.2029 8.81745 38.2266 8.62868ZM38.0097 8.19023H36.7522C36.7962 7.84954 36.966 7.53847 37.381 7.53847C37.7488 7.54144 37.9814 7.78733 38.0097 8.19319V8.19023Z" fill="#575657"/>
<path fill-rule="evenodd" clip-rule="evenodd" d="M39.9841 9.25002V7.3548H38.7511L38.7141 8.49751C38.7141 8.93725 38.6093 9.11686 38.4521 9.11686C38.3818 9.11792 38.3119 9.10639 38.2456 9.0828V9.25002C38.3106 9.27524 38.3794 9.28887 38.449 9.29028C38.7573 9.29028 38.9268 9.06422 38.9453 8.49751L38.9761 7.53751H39.7529V9.25002H39.9841Z" fill="#575657"/>
<path fill-rule="evenodd" clip-rule="evenodd" d="M40.3704 7.3548V9.29028H41.3377C41.491 9.29028 41.638 9.22797 41.7464 9.11706C41.8548 9.00616 41.9156 8.85573 41.9156 8.69888C41.9156 8.54204 41.8548 8.39161 41.7464 8.2807C41.638 8.16979 41.491 8.10748 41.3377 8.10748H40.6145V7.3548H40.3704ZM41.6962 8.71153C41.6962 8.96454 41.5386 9.10053 41.2697 9.10053H40.6022V8.32254H41.2697C41.5386 8.32254 41.6962 8.46169 41.6962 8.71153Z" fill="#575657"/>
<path fill-rule="evenodd" clip-rule="evenodd" d="M43.8474 8.58178H43.6064C43.6005 8.72488 43.5339 8.86011 43.4208 8.95827C43.3078 9.05643 43.1575 9.10965 43.0023 9.10643C42.6006 9.10643 42.3596 8.81002 42.3596 8.32389C42.3596 7.83777 42.6199 7.54135 43.0376 7.54135C43.1753 7.53461 43.3106 7.57704 43.4153 7.65983C43.52 7.74262 43.5861 7.85941 43.6 7.98598H43.8474C43.8389 7.89542 43.8111 7.80729 43.7656 7.72666C43.7202 7.64602 43.6579 7.57446 43.5823 7.51608C43.5068 7.4577 43.4195 7.41364 43.3255 7.38644C43.2315 7.35924 43.1325 7.34943 43.0344 7.35757C42.4753 7.35757 42.1089 7.74292 42.1089 8.34168C42.1089 8.94044 42.4721 9.29021 43.0248 9.29021C43.2345 9.2928 43.4371 9.22054 43.5904 9.08852C43.7437 8.9565 43.8358 8.77494 43.8474 8.58178Z" fill="#575657"/>
<path fill-rule="evenodd" clip-rule="evenodd" d="M44.976 8.10888L45.7328 7.3548H45.441L44.4503 8.34453V7.3548H44.2337V9.29028H44.4503V8.6336L44.8143 8.26912L45.5046 9.29028H45.779L44.976 8.10888Z" fill="#575657"/>
<path fill-rule="evenodd" clip-rule="evenodd" d="M46.8472 7.3548C46.3143 7.3548 45.972 7.73477 45.972 8.32254C45.972 8.91031 46.3114 9.29028 46.8472 9.29028C47.383 9.29028 47.7105 8.91921 47.7105 8.32848C47.7105 7.73774 47.3771 7.3548 46.8472 7.3548ZM46.8472 7.54182C47.2401 7.54182 47.4902 7.83867 47.4902 8.32551C47.4902 8.81235 47.2431 9.10623 46.8531 9.10623C46.4632 9.10623 46.2042 8.80938 46.2042 8.32254C46.2042 7.8357 46.4543 7.54182 46.8442 7.54182H46.8472Z" fill="#575657"/>
<path fill-rule="evenodd" clip-rule="evenodd" d="M49.256 7.55274V7.3548H48.097V9.29028H48.3124V7.55274H49.256Z" fill="#575657"/>
<path fill-rule="evenodd" clip-rule="evenodd" d="M50.3214 7.3548C49.7915 7.3548 49.4492 7.73477 49.4492 8.32254C49.4492 8.91031 49.7885 9.29028 50.3214 9.29028C50.8542 9.29028 51.1876 8.92812 51.1876 8.33441C51.1876 7.74071 50.8632 7.3548 50.3214 7.3548ZM50.3214 7.54182C50.7143 7.54182 50.9644 7.83867 50.9644 8.32551C50.9644 8.81235 50.7173 9.10623 50.3303 9.10623C49.9433 9.10623 49.6724 8.80344 49.6724 8.33441C49.6724 7.86539 49.9314 7.54182 50.3184 7.54182H50.3214Z" fill="#575657"/>
<path fill-rule="evenodd" clip-rule="evenodd" d="M28.9742 13.5484V11.8065H28.6786L28.0113 13.308L27.3382 11.8065H27.0426V13.5484H27.265V12.1147H27.2738L27.9089 13.5484H28.1079L28.743 12.1147H28.7517V13.5484H28.9742Z" fill="#575657"/>
<path fill-rule="evenodd" clip-rule="evenodd" d="M31.0867 13.4856C31.0575 13.4899 31.0279 13.4899 30.9987 13.4856C30.8713 13.4856 30.8743 13.4037 30.8743 13.2826V12.1923C30.8743 11.8125 30.6104 11.6128 30.1887 11.6128C29.767 11.6128 29.4545 11.8584 29.4363 12.2906H29.6517C29.651 12.2199 29.6648 12.1499 29.6922 12.0857C29.7196 12.0215 29.7599 11.9646 29.8101 11.9192C29.8603 11.8738 29.9192 11.841 29.9825 11.8231C30.0459 11.8052 30.1122 11.8027 30.1765 11.8158C30.4799 11.8158 30.665 11.9173 30.665 12.2513C30.665 12.3528 30.6468 12.4084 30.5983 12.4444C30.4255 12.5182 30.2409 12.5538 30.0552 12.5492C29.591 12.6016 29.3604 12.8046 29.3604 13.1746C29.3604 13.5445 29.588 13.741 29.9672 13.741C30.1079 13.7479 30.2478 13.7139 30.3722 13.6424C30.4965 13.571 30.6008 13.4648 30.6741 13.335C30.6741 13.5216 30.6953 13.705 30.9168 13.705C30.9789 13.7074 31.0408 13.6963 31.0989 13.6722V13.4856H31.0867ZM30.6498 12.5852V12.9126C30.648 12.9993 30.6298 13.0846 30.5964 13.1633C30.5629 13.2421 30.5148 13.3126 30.4551 13.3706C30.3955 13.4285 30.3254 13.4727 30.2493 13.5004C30.1732 13.528 30.0927 13.5386 30.0127 13.5314C29.7518 13.5314 29.5849 13.3841 29.5849 13.1484C29.5849 12.821 29.8883 12.7588 30.1401 12.7227C30.3919 12.6867 30.577 12.6736 30.6498 12.5852Z" fill="#575657"/>
<path fill-rule="evenodd" clip-rule="evenodd" d="M32.8374 12.9626H32.6235C32.6183 13.1205 32.5588 13.2698 32.4579 13.3778C32.357 13.4859 32.2229 13.544 32.0847 13.5396C31.7311 13.5396 31.5145 13.2136 31.5145 12.6789C31.5145 12.1443 31.7454 11.8183 32.116 11.8183C32.2381 11.8117 32.3577 11.8586 32.4504 11.9495C32.5432 12.0404 32.602 12.1684 32.615 12.3073H32.8317C32.8245 12.2075 32.8001 12.1104 32.7599 12.0215C32.7196 11.9326 32.6644 11.8537 32.5973 11.7894C32.5302 11.7252 32.4526 11.6767 32.369 11.647C32.2854 11.6172 32.1975 11.6068 32.1103 11.6162C31.6171 11.6162 31.2921 12.04 31.2921 12.6985C31.2921 13.357 31.6114 13.7417 32.1046 13.7417C32.2912 13.7454 32.4717 13.6663 32.6084 13.521C32.745 13.3758 32.8271 13.1756 32.8374 12.9626Z" fill="#575657"/>
<path fill-rule="evenodd" clip-rule="evenodd" d="M34.5757 11.9846V11.8065H33.0304V11.9846H33.6931V13.5484H33.913V11.9846H34.5757Z" fill="#575657"/>
<path fill-rule="evenodd" clip-rule="evenodd" d="M36.2972 13.0141H36.0928C36.0781 13.163 36.0158 13.3 35.9183 13.3978C35.8208 13.4956 35.6952 13.5471 35.5665 13.542C35.1494 13.542 34.9815 13.151 34.9815 12.7306H36.314V12.6589C36.314 12.1049 36.0676 11.6128 35.5553 11.6128C35.0934 11.6128 34.7687 12.0593 34.7687 12.6947C34.7687 13.3302 35.0794 13.7408 35.5609 13.7408C35.74 13.7513 35.9158 13.682 36.0526 13.547C36.1893 13.412 36.2768 13.2215 36.2972 13.0141ZM36.104 12.5318H34.9843C35.0263 12.157 35.1774 11.8149 35.5441 11.8149C35.8801 11.8149 36.0816 12.0854 36.104 12.5318Z" fill="#575657"/>
<path fill-rule="evenodd" clip-rule="evenodd" d="M36.9122 11.6765H36.7007V14.3225H36.9245V13.2422C36.982 13.3729 37.0769 13.4826 37.1968 13.557C37.3167 13.6314 37.4559 13.6668 37.5959 13.6587C38.1018 13.6587 38.4391 13.2547 38.4391 12.641C38.4391 12.0272 38.1018 11.6139 37.5867 11.6139C37.4451 11.6059 37.3046 11.6424 37.1839 11.7186C37.0633 11.7947 36.9685 11.9068 36.9122 12.0398V11.6765ZM37.5591 11.8143C37.9547 11.8143 38.2061 12.1274 38.2061 12.6472C38.2061 13.167 37.9516 13.4677 37.5653 13.4677C37.179 13.4677 36.9183 13.1545 36.9183 12.6441C36.9183 12.1337 37.1606 11.8206 37.5591 11.8206V11.8143Z" fill="#575657"/>
<path fill-rule="evenodd" clip-rule="evenodd" d="M40.3704 12.9723H40.1537C40.1471 13.1283 40.0872 13.275 39.987 13.3811C39.8868 13.4872 39.7542 13.5441 39.6177 13.5396C39.2613 13.5396 39.0475 13.2136 39.0475 12.6788C39.0475 12.1441 39.2813 11.818 39.6491 11.818C39.7713 11.8106 39.8913 11.8573 39.9842 11.9484C40.0771 12.0394 40.1357 12.1679 40.148 12.3071H40.3676C40.36 12.2075 40.3354 12.1106 40.295 12.0219C40.2547 11.9332 40.1994 11.8545 40.1324 11.7902C40.0654 11.726 39.9879 11.6776 39.9045 11.6476C39.8211 11.6177 39.7333 11.6069 39.6462 11.6159C39.1502 11.6159 38.8251 12.0398 38.8251 12.6984C38.8251 13.3571 39.1473 13.7418 39.6377 13.7418C39.8225 13.7441 40.001 13.6657 40.1371 13.5228C40.2733 13.3799 40.3567 13.183 40.3704 12.9723Z" fill="#575657"/>
<path fill-rule="evenodd" clip-rule="evenodd" d="M42.1087 11.9846V11.8065H40.5634V11.9846H41.2261V13.5484H41.4461V11.9846H42.1087Z" fill="#575657"/>
<path fill-rule="evenodd" clip-rule="evenodd" d="M43.8462 13.0507C43.8545 12.9443 43.8176 12.8391 43.7434 12.7581C43.6693 12.677 43.5639 12.6267 43.4503 12.618C43.5459 12.5981 43.6308 12.5471 43.69 12.4741C43.7492 12.4011 43.7788 12.3108 43.7736 12.2193C43.7736 11.9507 43.5561 11.8065 43.1693 11.8065H42.302V13.5484H43.1753C43.6074 13.5484 43.8462 13.3759 43.8462 13.0592V13.0507ZM43.544 12.2646C43.544 12.4427 43.405 12.5473 43.1481 12.5473H42.5287V11.9818H43.1481C43.411 11.9818 43.544 12.0808 43.544 12.2646ZM43.6165 13.0281C43.6165 13.2486 43.4684 13.3589 43.1481 13.3589H42.5287V12.7114H43.1481C43.4624 12.7114 43.6195 12.8273 43.6195 13.0281H43.6165Z" fill="#575657"/>
<path fill-rule="evenodd" clip-rule="evenodd" d="M45.7791 13.4855C45.75 13.4897 45.7205 13.4897 45.6914 13.4855C45.5644 13.4855 45.5674 13.4036 45.5674 13.2825V12.1923C45.5674 11.8125 45.3044 11.6128 44.8841 11.6128C44.4639 11.6128 44.1495 11.8584 44.1313 12.2905H44.349C44.3487 12.2215 44.3622 12.1532 44.3887 12.0903C44.4151 12.0275 44.4537 11.9716 44.502 11.9265C44.5503 11.8814 44.607 11.8481 44.6683 11.829C44.7295 11.8099 44.7939 11.8054 44.8569 11.8158C45.1593 11.8158 45.3437 11.9173 45.3437 12.2512C45.3437 12.3527 45.3256 12.4084 45.2772 12.4444C45.1041 12.5184 44.919 12.554 44.733 12.5492C44.2734 12.6015 44.0406 12.8045 44.0406 13.1745C44.0406 13.5444 44.2704 13.7409 44.6453 13.7409C44.7852 13.7483 44.9243 13.7144 45.0478 13.6429C45.1714 13.5714 45.2747 13.465 45.3467 13.3349C45.3467 13.5215 45.3709 13.7048 45.5916 13.7048C45.6535 13.7068 45.7151 13.6956 45.773 13.6721V13.4855H45.7791ZM45.3437 12.5852V12.9126C45.3419 12.9992 45.3238 13.0845 45.2904 13.1632C45.257 13.242 45.2092 13.3125 45.1497 13.3705C45.0902 13.4284 45.0204 13.4726 44.9446 13.5003C44.8688 13.5279 44.7885 13.5385 44.7088 13.5313C44.4488 13.5313 44.2795 13.384 44.2795 13.1483C44.2795 12.8209 44.5999 12.7587 44.8358 12.7227C45.0716 12.6867 45.2802 12.6736 45.3437 12.5852Z" fill="#575657"/>
<path fill-rule="evenodd" clip-rule="evenodd" d="M16.1663 14.152C15.6556 14.2555 15.0653 14.3042 14.5362 14.3742C12.8664 14.5934 11.3403 14.7943 9.67655 15.1201C8.65507 15.321 6.26651 15.869 5.55086 16.5966C5.37372 16.7397 5.24814 16.9363 5.19304 17.1567C5.1129 17.4341 5.1247 17.7298 5.22668 18C5.42241 17.793 5.27561 17.8508 5.69155 17.5921C6.26118 17.2411 6.86338 16.9455 7.48984 16.7092C8.37019 16.3692 9.27111 16.0845 10.1873 15.8568C11.5788 15.5037 13.108 15.1718 14.5515 14.8887C15.0256 14.7943 15.5791 14.6573 16.0501 14.5843C16.0501 15.0714 16.0868 15.2327 16.3559 15.4976C17.093 16.1704 18.4111 15.254 18.9708 14.8156C19.3847 14.5072 19.7809 14.1759 20.1574 13.8232L20.7875 13.2143C20.8731 13.1139 20.8486 13.1291 21.026 13.1169C21.3991 13.0926 21.7906 13.0225 22.1637 12.9951C21.8355 13.2969 21.5468 13.6385 21.3043 14.0119C20.974 14.563 20.9771 15.0348 21.812 14.9587C22.6885 14.8181 23.5429 14.5643 24.3535 14.2037C24.5217 14.1337 24.5706 14.1276 24.5003 13.9511C24.2261 14.0389 23.9567 14.1405 23.6929 14.2555C23.4061 14.353 23.1128 14.4303 22.8151 14.4869C22.02 14.6299 21.286 14.563 21.8976 13.7197C22.1204 13.4023 22.4004 13.1288 22.7234 12.913C22.758 12.8983 22.7887 12.8758 22.813 12.8473C22.8373 12.8188 22.8546 12.785 22.8635 12.7486C22.8725 12.7123 22.8727 12.6743 22.8643 12.6379C22.8559 12.6014 22.8391 12.5674 22.8151 12.5385C22.7264 12.4533 22.5368 12.5385 22.4084 12.575C22.0414 12.6542 21.1636 12.7486 20.8792 12.642C20.9343 12.4837 21.3655 12.1975 21.445 12.0758C21.4748 12.0274 21.486 11.9698 21.4765 11.9138C21.4669 11.8578 21.4372 11.8072 21.393 11.7713C21.1147 11.6069 19.8914 12.505 19.9097 12.8825C19.9097 13.1382 20.3409 13.1169 20.5581 13.1321C20.2706 13.741 18.4937 15.0592 17.5701 15.3514C17.148 15.4854 16.7076 15.5737 16.8728 14.9587C16.9215 14.7977 16.9807 14.6401 17.0502 14.4869C17.1358 14.2859 17.096 14.3864 17.4753 14.2585C18.0821 14.0383 18.6347 13.6916 19.0962 13.2417C19.402 12.983 20.1269 12.2493 19.9709 11.5643C19.8149 10.8794 19.0534 10.651 18.3224 11.0803C17.4997 11.5856 16.6128 12.9495 16.1663 14.152ZM5.33678 9.91735V9.138C5.54136 9.23335 5.71818 9.37898 5.85058 9.56116C5.88728 9.60987 5.92092 9.68294 5.96985 9.73773C6.15641 9.71947 6.42555 9.64336 6.62434 9.61292C6.82313 9.58247 7.07085 9.54594 7.29717 9.54594C8.64283 9.45766 10.1139 9.79253 9.64596 11.5978C9.38295 12.6024 8.78352 13.3118 8.22384 14.0119L7.48373 14.7974C7.22198 15.0528 6.94631 15.2936 6.65798 15.5189C5.61509 16.3317 4.00641 17.1141 2.69744 16.5083C2.32129 16.345 2.01667 16.0525 1.83924 15.6842C1.66181 15.3158 1.6234 14.8963 1.73101 14.5021C1.90534 13.7288 2.57205 13.123 3.04915 12.7851C3.0214 13.0817 2.88539 13.3579 2.66686 13.5614C2.0399 14.3346 1.74936 15.4245 2.77696 15.8172C4.17462 16.35 5.96985 14.8765 6.66715 14.0272C7.17963 13.352 7.64068 12.6397 8.04646 11.8962C8.26972 11.476 8.77434 10.5475 8.1535 10.2553C7.68863 10.0391 6.4072 10.2553 6.14418 10.4014C6.15082 10.7842 6.1273 11.1669 6.07384 11.5461C5.9403 12.2078 5.76875 12.8614 5.56004 13.5035L5.29091 14.4503C5.17917 14.3447 5.07684 14.2296 4.98507 14.1063C4.73429 13.8019 4.58749 13.7288 4.63031 13.534C4.81992 12.6511 5.17469 11.403 5.24197 10.6175C4.29351 10.8746 3.39799 11.2961 2.59652 11.8627L1.88393 12.4289C2.06131 11.3208 3.29382 10.6662 4.23272 10.2979L5.32761 9.90821L5.33678 9.91735ZM11.7042 4.37061C11.8021 4.31885 11.8357 4.09966 12.0957 4.01138C12.0498 4.20621 11.5115 5.62486 11.4014 5.91407C11.2363 6.34637 11.2516 6.30679 10.8265 6.64471C10.7286 6.72386 10.1445 7.18355 9.95791 7.04047C9.89675 6.96436 10.4167 5.55789 10.4503 5.46656C10.7256 4.74506 11.1017 3.9444 11.4198 3.23508C11.5421 2.95805 11.8908 2.32178 11.799 2.05388C11.7623 1.94429 11.328 1.6703 11.2057 1.57897C11.1002 1.49455 10.9876 1.41918 10.8693 1.35369C10.9458 1.7615 10.9099 2.18232 10.7653 2.57142C10.4085 3.5302 10.0001 4.46921 9.54198 5.38436C9.32178 5.87145 8.8141 6.97654 9.29426 7.44841C9.77441 7.92028 10.8234 6.94001 11.0803 6.76648C10.9519 7.22922 9.97932 9.33588 9.60926 9.60683L9.46552 9.67685H9.44717L9.41353 9.69511H9.39518C9.9885 9.99954 10.2118 10.1487 10.75 9.24455C11.0192 8.79095 11.273 8.24297 11.5085 7.74066C12.0223 6.6508 12.7318 4.95512 13.1814 3.75566C13.2609 3.55473 13.3129 3.6004 13.5545 3.55778C14.9093 3.31727 16.9401 3.25334 18.0747 2.97631C18.216 2.95635 18.3516 2.90767 18.4731 2.8333C18.5947 2.75893 18.6995 2.66046 18.7812 2.54402C18.9001 2.23056 18.9098 1.8864 18.8087 1.56679C18.613 2.01126 18.3071 2.09955 17.7872 2.23959C16.8086 2.5014 15.3039 2.6597 14.1601 2.90629C13.949 2.95196 13.6432 3.04937 13.4505 3.06764C13.5851 2.62621 14.3955 0.83007 14.7381 0.501284C14.7814 0.441623 14.8391 0.393855 14.906 0.362445C14.9728 0.331034 15.0466 0.317005 15.1204 0.32167C14.923 0.155281 14.6842 0.0448644 14.4292 0.00201634C14.2927 -0.00818325 14.1561 0.0204598 14.0354 0.0846037C13.9146 0.148748 13.8147 0.245748 13.7472 0.36429C13.2609 0.936621 12.7043 2.41616 12.4046 3.18332C12.2211 3.65824 12.3404 3.36903 11.8877 3.70695C11.7827 3.77538 11.6973 3.8698 11.64 3.98094C11.616 4.00976 11.5985 4.04336 11.5887 4.07948C11.5789 4.1156 11.5769 4.15339 11.583 4.19032C11.5891 4.22725 11.6031 4.26245 11.624 4.29355C11.6449 4.32465 11.6722 4.35092 11.7042 4.37061ZM0 6.38899C1.20192 6.35854 4.08287 6.38899 5.13799 6.28548C5.23586 6.28548 5.22668 6.26417 5.27256 6.20024L5.54475 5.82275C6.42249 4.60502 8.05563 2.37658 8.64589 1.1345C8.9012 1.27503 9.09192 1.50852 9.17804 1.78598C9.22392 2.1513 8.84468 2.45269 8.80798 2.58359C9.22086 2.62013 9.4747 2.70841 9.41965 3.17724C9.38906 3.41165 8.9976 4.69939 8.89973 5.00383C8.79405 5.30231 8.70823 5.6074 8.64283 5.91712L9.07711 5.85014C9.1077 6.3281 8.89667 6.35854 8.48686 6.40725L8.00364 8.02378C6.69162 7.98116 7.48373 7.03743 7.46538 6.39508C7.02192 6.39508 6.54788 6.41943 6.09831 6.44683C5.73131 6.46814 5.79247 6.44683 5.5998 6.66906C5.11352 7.27793 4.60278 7.83504 4.09204 8.40737L3.5813 8.96448C3.26018 9.26891 2.80143 9.74382 2.47419 10.0148C2.2232 10.2632 1.9174 10.4498 1.58116 10.5597C1.07959 10.6784 0.816574 10.4197 0.853274 9.95084C0.967126 10.0079 1.08719 10.0519 1.2111 10.0817C1.80441 10.1487 2.41914 9.57943 2.80449 9.22629C3.30401 8.74297 3.76516 8.22185 4.18379 7.6676C4.32447 7.4819 4.94532 6.68733 5.00954 6.54425C4.67312 6.54425 3.42227 6.69646 3.00022 6.74213C2.4222 6.80301 0.782932 7.08309 0.305833 6.82432C0.207966 6.76953 0 6.55338 0 6.39203V6.38899ZM14.9858 13.6131C15.2091 13.5797 15.4598 13.0043 15.5577 12.7881C15.8819 12.1153 16.9982 9.43939 17.1175 8.83053C17.1603 8.60525 17.1756 8.43477 17.3407 8.35866C17.3803 8.34078 17.4232 8.33109 17.4667 8.33019C17.5101 8.3293 17.5534 8.3372 17.5937 8.35343C17.634 8.36965 17.6706 8.39386 17.7012 8.42459C17.7319 8.45532 17.7559 8.49192 17.7719 8.53218C18.4876 9.81688 16.1663 13.5797 15.2488 13.9815C15.1636 14.0146 15.0723 14.0296 14.9809 14.0254C14.8895 14.0213 14.8 13.9981 14.7181 13.9573C14.6363 13.9166 14.5639 13.8592 14.5057 13.7889C14.4475 13.7186 14.4048 13.637 14.3803 13.5492C14.2354 13.1605 14.184 12.7435 14.2304 12.3315C14.2512 11.9545 14.349 11.5858 14.5179 11.2477C14.6372 11.0437 14.6953 11.0498 14.943 10.9768C15.1188 10.9166 15.3001 10.8738 15.4843 10.8489C15.2916 11.3725 14.6372 13.1443 14.9705 13.6131H14.9858ZM14.9858 5.72228C14.8715 5.84866 14.7692 5.98522 14.68 6.13022L14.3741 6.54425L13.4566 7.76197C13.3685 7.90363 13.2439 8.01924 13.0958 8.09685C12.1293 8.53218 12.2425 6.82128 13.2884 5.46352C13.4658 5.18307 13.7221 4.96075 14.0255 4.82421C14.3986 4.73897 14.8818 5.12864 14.7992 5.39654H14.7075C14.6586 5.37827 14.5852 5.27781 14.4292 5.35088C14.1968 5.45743 13.9062 5.94147 13.7778 6.16066C13.6493 6.37985 13.1661 7.27793 13.1661 7.47885C13.4719 7.46059 14.68 5.76186 14.9644 5.32043C15.0286 5.22301 15.102 5.05558 15.1662 4.97947C15.4721 5.06167 15.4721 5.2839 15.4721 5.60964C15.4721 6.26113 15.1479 7.69804 15.5332 7.99639C15.8697 8.2582 17.1389 7.59454 17.5089 7.38752C17.6917 7.26745 17.8816 7.15866 18.0778 7.06178C18.197 7.60062 17.512 7.85026 17.1205 8.00247C15.4507 8.65091 14.3313 8.59003 14.7748 6.48032C14.8237 6.23068 14.9338 5.92321 14.9644 5.70706L14.9858 5.72228ZM11.0987 12.7242C10.9112 12.7661 10.7156 12.7523 10.5359 12.6846C10.1322 12.5172 10.4564 12.5476 10.1231 12.6511C9.57562 12.8216 9.5848 11.7378 10.0955 11.5156C10.1965 11.476 10.5084 11.3695 10.6185 11.4486C10.7286 11.5278 10.6185 11.8688 10.6185 12.0149C10.6002 12.365 10.8051 12.5933 11.0742 12.4289C11.2791 12.3041 11.0742 12.1519 11.4596 11.8566C11.744 11.6374 12.3006 11.7104 12.1936 12.1306C12.1263 12.4076 11.7134 12.9069 11.7348 13.604C11.7348 13.8202 11.8571 13.9298 11.799 14.1307C11.5115 14.2372 11.2944 13.8993 11.2118 13.6832C11.1038 13.3757 11.0651 13.0483 11.0987 12.7242ZM13.6401 10.2888C13.845 10.2279 13.9827 10.3892 14.0408 10.5536C14.1968 10.9889 13.8726 11.9022 13.7166 12.2919C12.9245 14.2768 12.0682 14.3925 12.2731 13.9632C12.3526 13.7988 12.4535 13.6893 12.5422 13.5127C12.6975 13.1719 12.8263 12.8197 12.9275 12.4593C13.1147 11.8937 13.2528 11.3132 13.3404 10.7241C13.3404 10.4471 13.4108 10.3588 13.6463 10.2888H13.6401ZM17.2551 14.0028C17.3194 13.8712 17.3908 13.7431 17.4692 13.6192L17.6924 13.2509C17.9187 12.8734 18.9616 11.199 19.454 11.6557C19.9464 12.1123 18.301 13.9389 17.2551 14.0028ZM5.98209 6.22764C6.50812 6.20908 7.03228 6.15517 7.55101 6.06629L8.09539 3.51211C7.90077 3.72683 7.71997 3.95358 7.55407 4.19099L5.98209 6.22764ZM13.6799 8.87619C14.1631 8.68744 14.5485 9.53681 13.9337 9.90213C13.319 10.2674 13.2578 9.03754 13.6799 8.87619Z" fill="#002A5A"/>
</svg>
