<svg width="36" height="18" viewBox="0 0 36 18" fill="none" xmlns="http://www.w3.org/2000/svg">
<path fill-rule="evenodd" clip-rule="evenodd" d="M1.91423 13.9929C1.97773 14.0565 1.97773 14.1201 2.04123 14.1201C2.35871 14.4382 2.67619 14.7562 3.05717 15.0106C3.56514 15.3922 4.07311 15.7102 4.51758 15.7739C4.45409 15.7102 4.39059 15.583 4.2636 15.5194C4.07311 15.4558 3.94612 15.4558 3.75563 15.3286C3.12066 15.0106 2.5492 14.5018 1.97773 13.9929C1.97773 14.0565 1.97773 13.9929 1.91423 13.9929ZM1.21577 12.5936C1.53325 13.0389 1.91423 13.4205 2.29521 13.8021C2.73969 14.1837 3.18416 14.5018 3.62863 14.5654C3.56514 14.5018 3.50164 14.3746 3.43815 14.311C3.18416 14.2474 2.99367 14.1201 2.73969 13.9929C2.23171 13.6113 1.72374 13.1025 1.27927 12.53C1.27927 12.53 1.21577 12.53 1.21577 12.5936ZM0.644306 10.6855C0.898291 11.1307 1.15228 11.576 1.46976 11.9576C1.85074 12.4028 2.29521 12.7845 2.73969 12.9117C2.67619 12.7845 2.67619 12.7208 2.61269 12.5936C2.4222 12.53 2.23171 12.4028 2.04123 12.2756C1.53325 11.8304 1.02528 11.258 0.644306 10.6855ZM0.326824 8.07774C0.326824 8.07774 0.326824 8.14134 0.326824 8.20495C0.39032 8.65018 0.580809 9.15901 0.771298 9.60424C1.08878 10.2403 1.59675 10.8127 2.16822 11.0671C2.16822 10.9399 2.10472 10.8763 2.10472 10.7491C1.40626 10.3675 0.898291 9.54064 0.580809 8.71378C0.453817 8.52297 0.39032 8.26855 0.326824 8.07774ZM0.517313 6.61484C0.580809 7.12367 0.707802 7.63251 0.898291 8.07774C1.08878 8.52297 1.40626 8.90459 1.85074 9.09541C1.85074 9.0318 1.85074 8.90459 1.85074 8.84099C1.53325 8.65018 1.27927 8.39576 1.08878 8.01413C0.898291 7.63251 0.707802 7.18728 0.644306 6.74205C0.644306 6.61484 0.580809 6.61484 0.517313 6.61484ZM1.21577 5.02474C1.15228 5.59717 1.27927 6.23322 1.46976 6.74205C1.59675 6.99647 1.78724 7.18728 1.97773 7.37809C1.97773 7.31449 2.04123 7.18728 2.04123 7.12367C1.72374 6.86926 1.53325 6.36042 1.40626 5.85159C1.27927 5.53357 1.27927 5.21555 1.27927 4.96113C1.21577 4.96113 1.21577 5.02474 1.21577 5.02474ZM2.4222 2.9258C2.29521 3.30742 2.16822 3.62544 2.10472 3.94346C1.97773 4.57951 2.04123 5.15194 2.29521 5.53357C2.35871 5.53357 2.35871 5.34276 2.4222 5.27915C2.4222 5.21555 2.35871 5.02473 2.29521 4.89753C2.16822 4.32509 2.29521 3.62544 2.4222 2.9258C2.4857 2.9894 2.4857 2.9258 2.4222 2.9258ZM5.72401 4.26148C5.21604 5.15194 4.83507 6.0424 4.58108 6.99647C4.39059 7.88693 4.3271 8.90459 4.39059 9.79505C4.58108 11.0035 4.89856 12.1484 5.40653 13.2933C5.78751 14.0565 6.29548 14.8198 6.93045 15.4558C7.12093 15.6466 7.24793 15.7739 7.43842 15.9011C7.43842 15.7739 7.31142 15.7102 7.24793 15.6466C6.73996 15.1378 6.35898 14.5654 6.0415 13.9929C5.59702 13.2297 5.27954 12.4028 5.02556 11.6396C4.77157 10.8763 4.70807 10.0495 4.64458 9.22262C4.64458 8.14134 4.77157 7.12368 5.08905 6.0424C5.40653 5.08834 5.85101 4.19788 6.48597 3.30742C6.73996 2.92579 7.05744 2.60777 7.43842 2.28975C7.43842 2.22615 7.43842 2.16254 7.43842 2.16254C6.80345 2.79859 6.16849 3.56184 5.72401 4.26148ZM3.31115 2.41696C3.05717 2.9894 2.86668 3.68905 3.12066 4.07067C3.18416 3.94346 3.31115 3.81625 3.24766 3.68905C3.12066 3.30742 3.24766 2.79859 3.43815 2.28975C3.50164 2.09894 3.62863 1.97173 3.62863 1.78092C3.50164 2.03534 3.43815 2.22615 3.31115 2.41696ZM4.58108 1.20848C4.2636 1.78092 3.94612 2.35336 4.07311 2.73498C4.13661 2.67138 4.2001 2.60777 4.2636 2.48057C4.2001 2.16254 4.39059 1.59011 4.70807 1.08127C4.64458 1.14488 4.64458 1.14488 4.58108 1.20848ZM6.35898 0.954064C5.47003 1.5265 4.64458 2.35336 4.00961 3.18021C3.43815 4.00707 2.93017 4.83392 2.61269 5.72438C2.29521 6.55124 2.16822 7.5053 2.10472 8.39576C2.10472 8.90459 2.10472 9.47703 2.16822 9.98587C2.29521 10.8127 2.4857 11.6396 2.80318 12.4664C3.12066 13.2933 3.56514 14.0565 4.07311 14.8834C4.64458 15.7102 5.34304 16.5371 6.16849 17.1731C6.35898 17.3004 6.61296 17.4912 6.80345 17.6184C7.18443 17.4912 7.37492 17.1095 7.37492 16.6007C7.37492 16.6007 7.31142 16.6007 7.31142 16.6643C7.31142 17.1095 6.99394 17.3004 6.67646 17.364C6.35898 17.1095 5.978 16.8551 5.66052 16.5371C5.85101 16.4735 6.0415 16.3463 6.10499 16.1555C6.23199 15.9647 6.29548 15.7739 6.29548 15.4558C6.29548 15.4558 6.29548 15.3922 6.23199 15.3286C6.16849 15.4558 6.16849 15.583 6.10499 15.7102C5.978 15.9647 5.66052 16.1555 5.40653 16.2191C5.08905 15.9011 4.83507 15.5194 4.58108 15.2014C5.02555 15.0742 5.34304 14.6926 5.34304 14.0565H5.27954C5.15255 14.5654 4.83507 14.8198 4.39059 14.8834C4.13661 14.5018 3.88262 14.0565 3.69213 13.6749C3.81912 13.6113 4.00961 13.5477 4.13661 13.4205C4.3271 13.2297 4.51758 12.9117 4.58108 12.53C4.51758 12.5936 4.51758 12.7208 4.45409 12.7845C4.2636 13.1025 3.94612 13.2933 3.62863 13.3569C3.43815 12.9753 3.31115 12.5936 3.18416 12.2756C3.50164 12.212 3.81912 11.894 4.07311 11.4488C4.13661 11.3216 4.2001 11.1943 4.2001 11.0035C4.13661 11.0671 4.13661 11.1307 4.13661 11.1307C4.07311 11.3216 3.88262 11.5124 3.75563 11.6396C3.56514 11.7668 3.31115 11.894 3.05717 11.9576C2.80318 11.4488 2.67619 10.9399 2.5492 10.3675C2.99367 10.2403 3.43815 9.92226 3.69213 9.41343C3.75563 9.28622 3.81912 9.22262 3.81912 9.09541C3.75563 9.22262 3.69213 9.34982 3.62863 9.41343C3.31115 9.79505 2.93017 9.98587 2.5492 10.1131C2.4857 9.60424 2.4222 9.0318 2.4857 8.52297C2.93018 8.39576 3.43815 8.14134 3.81912 7.69611C3.94612 7.56891 4.07311 7.4417 4.07311 7.25088C3.94612 7.31449 3.88262 7.5053 3.75563 7.5689C3.37465 7.95053 2.93018 8.14134 2.4857 8.26855C2.5492 7.75972 2.61269 7.31449 2.67619 6.80565C3.12066 6.74205 3.62864 6.61484 4.07311 6.29682C4.2001 6.10601 4.39059 5.9788 4.45409 5.78799C4.3271 5.85159 4.2001 5.9788 4.07311 6.0424C3.62864 6.36042 3.18416 6.42403 2.73969 6.48763C2.86668 6.0424 2.99367 5.66078 3.18416 5.21555C3.50164 5.15194 3.81912 5.15194 4.2001 4.96113C4.58108 4.83392 4.96206 4.57951 5.27954 4.19788C5.08905 4.26148 4.96206 4.4523 4.77157 4.5159C4.2636 4.77032 3.75563 4.89753 3.24766 4.89753C3.43815 4.4523 3.69213 4.07067 3.94612 3.62544C4.39059 3.62544 4.89856 3.49823 5.47003 3.24382C5.72401 3.11661 5.978 2.9258 6.23199 2.67138C6.23199 2.67138 6.16849 2.67138 6.10499 2.67138C5.9145 2.86219 5.66052 2.9894 5.40653 3.11661C4.96206 3.30742 4.51758 3.37102 4.13661 3.43463C4.3271 3.18021 4.51758 2.86219 4.77157 2.60777C5.08905 2.54417 5.47003 2.48057 5.85101 2.35336C6.23199 2.22615 6.61296 1.97173 6.99394 1.65371V1.59011C6.73996 1.78092 6.48597 1.90813 6.23199 1.97173C5.78751 2.16254 5.40653 2.28975 5.02556 2.28975C5.21604 2.09894 5.34304 1.90813 5.53353 1.78092C5.9145 1.78092 6.29548 1.65371 6.73996 1.39929C6.86695 1.33569 7.05744 1.20848 7.18443 1.08127H7.12093C6.61296 1.39929 6.16849 1.5265 5.72401 1.59011C6.0415 1.33569 6.29548 1.14488 6.61296 0.954064C6.54947 0.954064 6.48597 0.890459 6.35898 0.954064ZM5.40653 0.763251C5.15255 1.14488 4.89856 1.5265 4.89856 1.90813C4.96206 1.84452 5.02555 1.78092 5.08905 1.65371C5.15255 1.59011 5.08905 1.5265 5.15255 1.5265C5.21604 1.27208 5.40653 0.954064 5.53353 0.699647C5.47003 0.699647 5.47003 0.763251 5.40653 0.763251ZM5.9145 0.636042C5.78751 0.890459 5.66052 1.08127 5.53353 1.33569C5.59702 1.27208 5.66052 1.27208 5.72401 1.20848C5.72401 1.01767 5.9145 0.826855 5.9145 0.636042ZM2.99367 15.4558C3.37465 15.8375 3.75563 16.2191 4.2001 16.4735C4.51758 16.6643 4.83507 16.8551 5.15255 17.0459C5.40653 17.1731 5.72401 17.2367 5.978 17.2367C5.85101 17.1731 5.72401 16.9823 5.59702 16.9187C5.27954 16.9187 4.89856 16.7279 4.45409 16.4735C3.94612 16.2191 3.50164 15.8375 2.99367 15.4558ZM6.54947 0.0636042C6.67646 0 6.86695 0 7.05744 0C9.85128 0 7.05744 0 9.78778 0C10.2958 0 10.8037 0 11.3117 0.0636042C12.4546 0.254417 13.4071 0.699647 14.1055 1.27208C14.9945 1.97173 15.6294 2.79859 16.0739 3.62544L16.1374 3.68905C16.2009 3.81625 16.2644 3.94346 16.3914 4.07067C16.8359 4.89753 17.0899 5.78799 17.2804 6.67845H15.1215C14.931 5.59717 14.55 4.57951 13.9785 3.56184C13.915 3.43463 13.8516 3.37102 13.7881 3.24382C13.1531 2.73498 12.3911 2.48057 11.6292 2.48057C9.08932 2.48057 6.99394 5.46997 6.99394 9.09541C6.99394 12.7845 9.08932 15.7102 11.6292 15.7102C12.2641 15.7102 12.8356 15.5194 13.4071 15.2014C13.4706 15.1378 13.5341 15.0742 13.5976 15.0106L13.6611 15.0742L14.423 16.5371C14.2325 16.7279 13.9785 16.8551 13.7246 16.9823C13.4071 17.1731 13.1531 17.364 12.7721 17.4912C12.0737 17.8092 11.3117 18 10.4862 18C7.50191 18 10.1688 18 7.18443 18C6.23199 18 5.34304 17.7456 4.58108 17.4276C3.88262 17.1095 3.31115 16.6643 2.80318 16.2191C2.16822 15.6466 1.72374 14.947 1.27927 14.2473C0.453817 12.7845 0.0728384 11.1943 0.00934206 9.60424C-0.0541543 7.88693 0.199831 6.10601 0.961788 4.4523C1.53325 3.24382 2.29521 2.03534 3.62863 1.14488C4.39059 0.572438 5.40653 0.127208 6.54947 0.0636042Z" fill="#1A1918"/>
<path fill-rule="evenodd" clip-rule="evenodd" d="M32.7099 8.3958L32.7734 8.3322L32.8369 8.3958L33.2179 9.41347H32.3924L32.7099 8.3958ZM30.4241 11.1308H31.7575L32.075 10.3039H33.4719L33.7894 11.1308H35.1228L33.6624 7.56894C33.4719 7.12371 33.1544 7.06011 32.7734 7.06011C32.1385 7.06011 32.0115 7.25092 31.8845 7.56894L30.4241 11.1308ZM30.7415 11.1308L29.2176 9.41347C29.1541 9.34986 29.0271 9.15905 29.0271 9.03184C29.0271 8.96824 29.0271 8.90463 29.2176 8.71382L30.6145 7.06011H29.0906L27.9477 8.65022C27.8842 8.77743 27.7572 8.96824 27.7572 9.09545C27.7572 9.28626 27.8842 9.47707 28.0112 9.60428L29.2176 11.1308H30.7415ZM26.4238 11.1308H27.6937V7.18732H26.4238V11.1308ZM24.3284 11.1308L26.4238 7.18732H25.0269L24.2014 8.84103L23.376 7.18732H21.979L23.5664 9.98591L22.9315 11.1308H24.3284ZM20.5821 9.54068C20.6456 9.54068 20.7726 9.54068 20.8361 9.60428C20.8996 9.66788 20.8996 9.73149 20.8996 9.8587C20.8996 9.9223 20.8996 10.0495 20.8361 10.1131C20.7726 10.1767 20.6456 10.1767 20.5186 10.1767H19.7567C19.5662 10.1767 19.5027 10.1767 19.5027 9.9223V9.54068H20.5821ZM22.0425 7.18732H18.9312C18.8042 7.18732 18.2962 7.25092 18.2962 7.82336V10.5583C18.2962 10.8764 18.5502 11.1308 18.8677 11.1308H21.4076C21.7885 11.1308 21.979 10.8764 22.0425 10.8128C22.233 10.5583 22.233 10.1767 22.233 9.8587C22.233 9.60428 22.233 9.15905 21.979 8.90463C21.852 8.77742 21.6616 8.65022 21.3441 8.65022H19.5027V8.3958C19.5027 8.26859 19.5027 8.14138 19.7567 8.14138H21.979V7.18732H22.0425ZM14.4865 11.1308H16.6453C16.9628 11.1308 17.4073 11.1944 17.7248 10.94C18.0423 10.7492 18.0423 10.3039 18.0423 10.0495C18.0423 9.8587 18.0423 9.60428 17.9153 9.41347C17.7883 9.15905 17.5343 9.09545 17.3438 9.09545C17.5343 9.03184 17.6613 8.96824 17.7248 8.90463C17.9153 8.71382 17.9153 8.4594 17.9153 8.20499C17.9153 7.95057 17.9153 7.63255 17.6613 7.37813C17.4073 7.12371 16.9628 7.12372 16.5818 7.12372H14.423V8.07778H16.1374C16.3914 8.07778 16.4549 8.07778 16.5183 8.07778C16.6453 8.14138 16.6453 8.20499 16.6453 8.26859C16.6453 8.3322 16.6453 8.4594 16.5818 8.52301C16.5183 8.58661 16.3279 8.58661 16.2009 8.58661H14.55V9.54068H16.2644C16.5183 9.54068 16.5818 9.54068 16.6453 9.60428C16.7723 9.66788 16.7723 9.79509 16.7723 9.8587C16.7723 9.9223 16.7723 10.0495 16.6453 10.1131C16.5818 10.1767 16.5183 10.1767 16.2644 10.1767H14.4865V11.1308Z" fill="#1C4583"/>
<path fill-rule="evenodd" clip-rule="evenodd" d="M17.9788 17.4275L10.2957 4.32507C7.69238 4.32507 8.20035 6.48761 8.20035 6.48761V12.2756L9.91475 10.9399L9.97825 7.88691L12.4546 12.0848H9.91475V11.5124L8.26384 12.9116L9.91475 14.1837L9.97825 13.6749H13.4071L15.6294 17.4275H17.9788Z" fill="#1C4583"/>
<path fill-rule="evenodd" clip-rule="evenodd" d="M35.1227 11.7669H33.7893V13.1661H32.2654V11.7669H30.932V15.7103H32.2654V14.1202H33.7893V15.7103H35.1227V11.7669ZM30.3605 12.7209C30.3605 12.4029 30.297 11.7669 29.3446 11.7669C29.0906 11.7669 28.7096 11.7669 28.4556 12.2121L27.3127 14.1202C27.2492 14.1838 27.2492 14.2474 27.1857 14.2474C27.1222 14.2474 27.1222 14.1838 27.1222 14.1202V14.0566L27.1857 11.8305H25.7888V14.8835C25.7888 15.3287 25.9158 15.8375 26.7412 15.8375C27.3127 15.8375 27.5032 15.6467 27.6302 15.4559L28.8366 13.5478C28.9001 13.4206 28.9636 13.357 28.9636 13.357C29.0271 13.357 29.0271 13.4206 29.0271 13.4842L28.9636 15.7739H30.3605V12.7209ZM21.5345 11.7669V14.7563H20.7091C20.6456 14.7563 20.5821 14.7563 20.5186 14.6926C20.4551 14.629 20.4551 14.5654 20.4551 14.5018V11.8305H19.1217V15.2015C19.1217 15.3287 19.1217 15.5195 19.3121 15.6467C19.3756 15.7103 19.5661 15.7739 19.8201 15.7739H24.6458C24.8363 15.7739 25.0268 15.7103 25.1538 15.6467C25.2808 15.5195 25.3443 15.3287 25.3443 15.2015V11.8305H24.0109V14.5018C24.0109 14.629 24.0109 14.6926 23.9474 14.6926C23.8839 14.7563 23.8204 14.7563 23.7569 14.7563H22.8679V11.7669H21.5345Z" fill="#1A1918"/>
</svg>
