<svg width="98" height="18" viewBox="0 0 98 18" fill="none" xmlns="http://www.w3.org/2000/svg">
<path fill-rule="evenodd" clip-rule="evenodd" d="M3.23372 2.07324H0V17.9995H3.23372L9.95394 10.0342L3.23372 2.07324Z" fill="#FAB800"/>
<path fill-rule="evenodd" clip-rule="evenodd" d="M18.7181 2.07324H14.5991L21.3474 10.0342L14.5991 17.9995H18.7181L25.4655 10.0342L18.7181 2.07324Z" fill="#FAB800"/>
<path fill-rule="evenodd" clip-rule="evenodd" d="M10.9189 2.07324H6.80176L13.551 10.0342L6.80176 17.9995H10.9189L17.6681 10.0342L10.9189 2.07324Z" fill="#FAB800"/>
<path fill-rule="evenodd" clip-rule="evenodd" d="M95.5633 8.58265C95.5633 9.29105 94.9861 9.86799 94.2774 9.86799C93.5689 9.86799 92.9917 9.29105 92.9917 8.58265C92.9917 7.87054 93.5689 7.29736 94.2774 7.29736C94.9861 7.29736 95.5633 7.87054 95.5633 8.58265Z" fill="black"/>
<path fill-rule="evenodd" clip-rule="evenodd" d="M31.1538 10.7612V13.4915H32.3586L34.6452 10.7612H36.4933V11.1809L33.9019 14.2732L36.4933 17.3705V17.7891H34.6452L32.4416 15.1668H31.1538V17.7891H29.2642V10.7612H31.1538Z" fill="black"/>
<path fill-rule="evenodd" clip-rule="evenodd" d="M42.0183 15.9544C41.3898 17.1587 40.8868 17.9998 39.3645 17.9998C39.0605 17.9998 38.6585 17.9691 38.3796 17.8949V16.1948C38.6517 16.2581 39.0496 16.2898 39.2911 16.2898C39.899 16.2898 40.0662 16.1216 40.2267 15.7664L37.0669 11.1828V10.7632H38.9556L41.1274 14.1494L43.034 10.7632H44.8188V11.1828L42.0183 15.9544Z" fill="black"/>
<path fill-rule="evenodd" clip-rule="evenodd" d="M48.595 17.999C47.606 17.999 46.7053 17.8872 45.8569 17.6636V15.9318C46.8628 16.194 47.6805 16.3198 48.6476 16.3198C50.4739 16.3198 50.5471 16.016 50.5471 15.6945C50.5471 15.3975 50.5471 15.1669 48.7415 15.1669H47.9239V13.4917H48.7415C50.3373 13.4917 50.3373 13.2156 50.3373 12.8603C50.3373 12.5357 50.2847 12.232 48.6267 12.232C47.6805 12.232 46.936 12.3784 46.0768 12.6257V10.898C46.8419 10.6784 47.711 10.5527 48.5633 10.5527H48.804C51.3223 10.5527 52.0132 11.4531 52.0132 12.5456V12.7555C52.0132 13.4362 51.6508 14.0014 50.4839 14.2636C51.8044 14.5386 52.227 15.1393 52.227 15.7953V16.0052C52.227 17.1085 51.4895 17.999 48.804 17.999H48.595Z" fill="black"/>
<path fill-rule="evenodd" clip-rule="evenodd" d="M57.7183 16.3208C59.9218 16.3208 59.9218 15.347 59.9218 14.2754C59.9218 13.2176 59.9218 12.2398 57.7183 12.2398C55.5147 12.2398 55.5147 13.2176 55.5147 14.2754C55.5147 15.347 55.5147 16.3208 57.7183 16.3208ZM53.625 14.0034C53.625 12.1044 54.4774 10.5508 57.5292 10.5508H57.9064C60.9622 10.5508 61.8105 12.1044 61.8105 14.0034V14.5475C61.8105 16.4465 60.9622 18.0001 57.9064 18.0001H57.5292C54.4774 18.0001 53.625 16.4465 53.625 14.5475V14.0034Z" fill="black"/>
<path fill-rule="evenodd" clip-rule="evenodd" d="M84.939 16.3208C87.1425 16.3208 87.1425 15.347 87.1425 14.2754C87.1425 13.2176 87.1425 12.2398 84.939 12.2398C82.7354 12.2398 82.7354 13.2176 82.7354 14.2754C82.7354 15.347 82.7354 16.3208 84.939 16.3208ZM80.8457 14.0034C80.8457 12.1044 81.6941 10.5508 84.7499 10.5508H85.1271C88.179 10.5508 89.0312 12.1044 89.0312 14.0034V14.5475C89.0312 16.4465 88.179 18.0001 85.1271 18.0001H84.7499C81.6941 18.0001 80.8457 16.4465 80.8457 14.5475V14.0034Z" fill="black"/>
<path fill-rule="evenodd" clip-rule="evenodd" d="M65.0596 15.168V16.2257C65.7505 16.2881 66.5297 16.3198 67.0849 16.3198C68.7648 16.3198 68.8382 16.0407 68.8382 15.6954C68.8382 15.3985 68.8382 15.168 66.9276 15.168H65.0596ZM65.0596 12.3259V13.4887H66.9276C68.6254 13.4887 68.6254 13.2166 68.6254 12.8603C68.6254 12.5149 68.5759 12.232 67.0532 12.232C66.5406 12.232 65.7505 12.2635 65.0596 12.3259ZM67.0116 10.5527H67.3047C69.6549 10.5527 70.3051 11.4958 70.3051 12.6506V12.8603C70.3051 13.4778 70.0012 14.0121 69.0578 14.2675C70.1577 14.5188 70.5179 15.0739 70.5179 15.6954V15.9012C70.5179 17.0559 69.8231 17.999 67.3047 17.999H67.0116C65.7407 17.999 64.3677 17.9259 63.1699 17.7893V10.7624C64.3677 10.6259 65.7407 10.5527 67.0116 10.5527Z" fill="black"/>
<path fill-rule="evenodd" clip-rule="evenodd" d="M73.7647 10.7612V13.4915H77.4353V10.7612H79.324V17.7891H77.4353V15.1668H73.7647V17.7891H71.875V10.7612H73.7647Z" fill="black"/>
<path fill-rule="evenodd" clip-rule="evenodd" d="M96.0772 10.7612H97.963V17.7891H96.0772V13.2786L92.3926 17.7891H90.5029V10.7612H92.3926V15.2716L96.0772 10.7612Z" fill="black"/>
<path fill-rule="evenodd" clip-rule="evenodd" d="M34.0485 2.10498V6.43716H32.8825V3.13812H30.7481V6.43716H29.582V2.10498H34.0485Z" fill="black"/>
<path fill-rule="evenodd" clip-rule="evenodd" d="M39.098 3.1391H36.1155V3.78423H38.4516V4.82135H36.1155V5.40414H39.098V6.43807H34.9492V2.10596H39.098V3.1391Z" fill="black"/>
<path fill-rule="evenodd" clip-rule="evenodd" d="M43.1013 3.65745C43.1013 3.27652 43.1013 3.01121 42.2282 3.01121C41.9549 3.01121 41.459 3.02907 41.0303 3.06759V4.24707C41.4312 4.29554 41.7808 4.30259 42.1827 4.30259C43.1013 4.30259 43.1013 4.03453 43.1013 3.65745ZM44.2633 3.7861C44.2633 4.64198 43.8903 5.33971 42.5459 5.33971H42.3608C41.8955 5.33971 41.452 5.33971 41.0303 5.27333V6.43898H39.8672V2.10385C40.6037 2.01964 41.452 1.97412 42.235 1.97412H42.4163C43.8654 1.97412 44.2633 2.67285 44.2633 3.5277V3.7861Z" fill="black"/>
<path fill-rule="evenodd" clip-rule="evenodd" d="M46.2047 4.82096V5.47314C46.6302 5.51566 47.1084 5.53254 47.451 5.53254C48.4885 5.53254 48.534 5.3583 48.534 5.14556C48.534 4.96353 48.534 4.82096 47.3569 4.82096H46.2047ZM46.2047 3.06852V3.78686H47.3569C48.4014 3.78686 48.4014 3.61967 48.4014 3.39995C48.4014 3.18319 48.3725 3.0092 47.4331 3.0092C47.1154 3.0092 46.6302 3.02981 46.2047 3.06852ZM47.4054 1.9751H47.5875C49.0368 1.9751 49.4377 2.55892 49.4377 3.26743V3.39995C49.4377 3.78003 49.2496 4.11149 48.6666 4.26583C49.3477 4.41922 49.5675 4.76163 49.5675 5.14556V5.27429C49.5675 5.9866 49.1417 6.56942 47.5875 6.56942H47.4054C46.6234 6.56942 45.7751 6.5239 45.0376 6.43688V2.10478C45.7751 2.02054 46.6234 1.9751 47.4054 1.9751Z" fill="black"/>
<path fill-rule="evenodd" clip-rule="evenodd" d="M56.2868 6.43709H55.1245V2.10498H56.2868V6.43709ZM51.5728 4.68466V5.47438C51.9986 5.51587 52.4984 5.5337 52.7707 5.5337C53.6438 5.5337 53.6438 5.34462 53.6438 5.07939C53.6438 4.82116 53.6438 4.62931 52.7222 4.62931C52.3231 4.62931 51.9747 4.63213 51.5728 4.68466ZM54.6773 5.20811C54.6773 5.95915 54.3 6.56684 52.9559 6.56684H52.7735C51.9916 6.56684 51.1432 6.52132 50.4067 6.43709V2.10498H51.5728V3.65856C51.9916 3.59219 52.439 3.59219 52.9033 3.59219H53.0844C54.3277 3.59219 54.6773 4.20671 54.6773 4.94989V5.20811Z" fill="black"/>
<path fill-rule="evenodd" clip-rule="evenodd" d="M60.3906 0.787384C60.3906 1.22302 60.0379 1.57555 59.6021 1.57555C59.1671 1.57555 58.8145 1.22302 58.8145 0.787384C58.8145 0.352698 59.1671 0 59.6021 0C60.0379 0 60.3906 0.352698 60.3906 0.787384Z" fill="black"/>
<path fill-rule="evenodd" clip-rule="evenodd" d="M60.7405 2.10986H61.8995V6.42134H60.7405V3.65264L58.4806 6.42134H57.3213V2.10986H58.4806V4.87464L60.7405 2.10986Z" fill="black"/>
</svg>
