<svg width="153" height="18" viewBox="0 0 153 18" fill="none" xmlns="http://www.w3.org/2000/svg">
<path fill-rule="evenodd" clip-rule="evenodd" d="M2.95209 5.69012C9.4253 5.06145 12.2406 7.04375 16.297 11.1528L17.8598 9.65756C18.2584 9.27242 18.116 8.62109 17.746 8.24163L10.0174 0.538964C9.44807 -0.0274082 8.73926 -0.259621 8.09308 0.403035L2.95209 5.69012Z" fill="#2C2C2B"/>
<path fill-rule="evenodd" clip-rule="evenodd" d="M0 8.77408C5.10114 8.35496 8.964 9.39992 11.5772 14.5737C11.7423 14.8994 11.7992 15.1741 11.9416 15.4658L15.2408 12.2431C11.6171 5.76381 1.99263 6.80876 0 8.77408Z" fill="#F39315"/>
<path fill-rule="evenodd" clip-rule="evenodd" d="M0.58923 9.95493L6.65253 16.1369C7.83388 17.3121 8.73626 18.7422 9.89198 17.5528C10.0542 17.3857 10.5012 17.0629 10.5012 16.8194C10.5012 16.151 9.74965 14.5709 9.44222 14.1064C8.3605 12.4696 7.26455 11.4048 5.36016 10.5751C3.86009 9.92628 2.20652 9.71133 0.58923 9.95493Z" fill="#2C2C2B"/>
<path fill-rule="evenodd" clip-rule="evenodd" d="M27.2365 2.58078V15.5196C27.2365 16.6523 27.4557 16.8845 28.3381 16.8845H30.5016C31.2673 16.8845 31.4438 16.2672 31.4438 15.4884V5.63353L35.0135 15.4289C35.4433 16.5617 35.6881 16.8675 36.5392 16.8675H38.3725C39.0272 16.8675 39.568 16.0746 39.9637 15.0268L43.3284 5.8176V15.0268C43.3284 17.2045 44.0771 16.9185 46.2149 16.9185C46.269 16.9213 46.3231 16.9213 46.3772 16.9185C46.692 16.9185 46.9939 16.7941 47.2165 16.5726C47.4391 16.3512 47.5642 16.0508 47.5642 15.7376C47.567 15.6838 47.567 15.63 47.5642 15.5762V2.38538C47.5642 1.43954 46.9949 1.00627 46.0327 1.01476H42.1727C41.8123 1.01546 41.4617 1.13108 41.1722 1.34464C40.8827 1.5582 40.6697 1.85845 40.5644 2.20131L37.5099 11.184L34.5068 2.97158C33.6528 0.462551 33.018 1.04591 28.3894 1.04591C27.7745 1.04591 27.2507 1.89547 27.2507 2.57229" fill="#2C2C2B"/>
<path fill-rule="evenodd" clip-rule="evenodd" d="M49.2921 2.04857L49.3348 3.10486C49.3348 3.95442 49.5682 4.33388 50.519 4.33388H58.6916L53.8353 13.2033C51.8911 17.1197 51.2192 16.8847 55.2415 16.8847C55.5915 16.8699 55.9297 16.7552 56.2159 16.5544C56.5021 16.3535 56.7242 16.0749 56.8556 15.7519L63.084 3.77601C63.7472 2.48751 63.4796 1.05459 61.7546 1.05459H50.6528C50.0037 1.05459 49.3063 1.39158 49.3063 2.00893" fill="#2C2C2B"/>
<path fill-rule="evenodd" clip-rule="evenodd" d="M69.0477 1.97755C69.0477 3.67666 68.9566 4.27135 70.2831 4.26852H74.9886V15.9046C74.9886 17.1875 77.0267 16.859 78.2536 16.859C78.4992 16.8331 78.7284 16.7243 78.903 16.5506C79.0775 16.3769 79.187 16.1489 79.213 15.9046V4.27135H84.0294C85.0115 4.27135 85.1539 3.72197 85.1539 2.36551C85.1539 1.5556 84.8692 1.01471 83.981 1.01471H70.3941C69.7479 1.01471 69.0477 1.34887 69.0477 1.96905" fill="#2C2C2B"/>
<path d="M152.579 16.9016H149.291C149.204 16.9078 149.117 16.8928 149.038 16.8577C148.958 16.8226 148.889 16.7687 148.835 16.7005L143.859 10.8414C142.769 9.55574 142.661 8.42866 143.657 7.12601L147.984 1.46229C148.037 1.38051 148.109 1.31229 148.194 1.26311C148.278 1.21393 148.373 1.18515 148.471 1.1791L151.545 1.19892C152.066 1.19892 152.026 1.42264 151.739 1.79361L147.17 7.69521C146.29 8.82796 146.484 9.33486 147.355 10.2807L152.806 16.5929C152.96 16.7685 152.806 16.9016 152.573 16.9016H152.579ZM138.772 16.9016C138.562 16.9016 138.502 16.8081 138.502 16.6411V1.48211C138.502 1.25556 138.829 1.12246 139.134 1.12246H142.029C142.365 1.12246 142.433 1.27255 142.433 1.52459V16.6014C142.433 16.8025 142.371 16.8846 142.092 16.8846" fill="#2C2C2B"/>
<path d="M117.77 14.0556V14.3133C117.771 14.6841 117.695 15.0511 117.548 15.3919C117.401 15.7327 117.186 16.0402 116.916 16.2956C116.291 16.6923 115.565 16.9044 114.824 16.9073C114.686 16.9068 114.548 16.8993 114.411 16.8847H108.846C108.689 16.8847 108.533 16.9045 108.376 16.9045C107.054 16.9037 105.768 16.4797 104.707 15.6953C103.629 14.7513 103.09 13.2004 103.09 11.0425V1.58412C103.09 1.22448 103.218 1.07156 103.628 1.07156H106.617C107.038 1.07156 107.087 1.29811 107.087 1.58412V10.0372C107.087 12.1385 107.349 13.8206 109.478 13.8206H112.871C113.191 13.8205 113.501 13.7094 113.748 13.5063C113.95 13.2684 114.061 12.9679 114.064 12.6567V1.58412C114.064 1.25563 114.149 1.07156 114.511 1.07156H117.357C117.702 1.07156 117.793 1.20749 117.793 1.57563L117.77 14.0556Z" fill="#2C2C2B"/>
<path fill-rule="evenodd" clip-rule="evenodd" d="M119.535 8.88177C119.535 13.4694 121.884 16.8846 126.629 16.8846H131.229C134.688 16.8846 136.791 14.2142 136.791 12.4981C136.791 11.1104 136.361 10.8244 134.494 10.8244C132.627 10.8244 133.139 13.8375 129.9 13.8375C124.901 13.8375 123.731 13.5119 123.489 8.92424C123.7 4.43858 125.735 4.31397 129.891 4.31397C133.156 4.31397 131.719 7.09486 135.268 7.17699C138.146 7.17699 136.407 1.07433 131.414 1.07433C127.585 1.07433 124.093 0.607068 121.511 3.21804C120.198 4.54052 119.549 6.87681 119.549 8.88177" fill="#2C2C2B"/>
<path fill-rule="evenodd" clip-rule="evenodd" d="M96.0081 11.2436L100.916 15.7745C101.431 16.2503 101.499 16.9073 100.631 16.9073H97.9239C97.5378 16.8932 97.1719 16.732 96.902 16.457L92.0883 11.7618C91.0408 10.7366 90.7419 8.64674 92.9423 8.67222L96.2131 8.69205C97.9467 8.69205 97.9894 7.23364 97.9894 5.86019C97.9894 4.59151 97.4827 3.64567 96.1049 3.64567H91.7012C91.4706 3.63332 91.2444 3.7126 91.0725 3.86607C90.9007 4.01954 90.7971 4.23465 90.7846 4.46408V16.0294C90.7846 16.5306 90.6736 16.879 90.1014 16.879H87.6761C87.5711 16.8742 87.4681 16.8489 87.373 16.8045C87.2779 16.76 87.1926 16.6973 87.122 16.6199C87.0514 16.5425 86.9968 16.452 86.9614 16.3536C86.9261 16.2552 86.9107 16.1508 86.916 16.0464V3.56921C86.916 1.96355 87.955 1.02054 89.5918 1.02054L97.3916 1.00071C98.6071 1.00071 99.8226 1.50479 100.497 2.5101C101.744 4.37063 101.533 7.58762 100.622 9.5586C100.346 10.0692 99.9346 10.4953 99.4332 10.7916C98.9318 11.0878 98.359 11.2431 97.7759 11.2407H96.0081" fill="#2C2C2B"/>
</svg>
