<svg width="14" height="14" viewBox="0 0 14 14" fill="none" xmlns="http://www.w3.org/2000/svg">
<path fill-rule="evenodd" clip-rule="evenodd" d="M6.31321 12.6264C2.82652 12.6264 0 9.7999 0 6.31321C0 2.82652 2.82652 0 6.31321 0C9.7999 0 12.6264 2.82652 12.6264 6.31321C12.6264 7.70611 12.1753 8.99364 11.4113 10.0377L14 12.6264L12.6264 14L10.0377 11.4113C8.99364 12.1753 7.70611 12.6264 6.31321 12.6264ZM6.31321 10.6839C8.72708 10.6839 10.6839 8.72708 10.6839 6.31321C10.6839 3.89935 8.72708 1.94253 6.31321 1.94253C3.89935 1.94253 1.94253 3.89935 1.94253 6.31321C1.94253 8.72708 3.89935 10.6839 6.31321 10.6839Z" fill="#6C6F80"/>
</svg>
