<svg width="50" height="50" viewBox="0 0 50 50" fill="none" xmlns="http://www.w3.org/2000/svg">
<path d="M25 1C29.7467 1 34.3869 2.40759 38.3337 5.04474C42.2805 7.68189 45.3566 11.4302 47.1731 15.8156C48.9896 20.201 49.4649 25.0266 48.5388 29.6822C47.6128 34.3377 45.327 38.6141 41.9706 41.9706C38.6141 45.327 34.3377 47.6128 29.6822 48.5388C25.0266 49.4649 20.201 48.9896 15.8156 47.1731C11.4302 45.3566 7.68188 42.2805 5.04473 38.3337C2.40758 34.3869 1 29.7468 1 25C0.999139 21.848 1.61933 18.7268 2.82514 15.8146C4.03094 12.9024 5.79874 10.2563 8.02751 8.02752C10.2563 5.79875 12.9024 4.03094 15.8146 2.82513C18.7268 1.61932 21.848 0.999139 25 1Z" fill="#F5F6FA" stroke="#6C6F80" stroke-linecap="round" stroke-linejoin="round"/>
<path d="M23.4663 29.8324C23.8174 29.8396 24.6786 30.0228 24.6786 30.2295C24.6786 30.2295 15.8425 37.3388 15.6497 37.4788C15.3633 37.6865 15.0432 37.8434 14.7033 37.9424C14.2464 38.0343 13.7757 38.0343 13.3188 37.9424C13.0093 37.862 12.7139 37.7351 12.4425 37.5663C12.1872 37.3712 11.9576 37.1449 11.759 36.8926C11.4726 36.4851 11.3081 36.0047 11.2849 35.5075C11.2616 35.0102 11.3804 34.5166 11.6275 34.0842C11.8028 33.7693 11.9518 33.6206 16.6399 29.0275L21.1243 24.601L23.3787 26.8316M23.4663 29.8324C22.9637 29.8324 22.3683 29.3748 22.253 28.9695C22.1579 28.6369 22.1985 28.47 22.253 28.1285C22.3074 27.7869 22.7024 27.5913 22.8962 27.3046C22.9668 27.2015 23.3787 26.8316 23.3787 26.8316M23.4663 29.8324C23.1977 29.8269 22.9374 29.7382 22.7214 29.5787C22.471 29.4061 22.292 29.1486 22.2179 28.854C22.1437 28.5594 22.1794 28.2479 22.3183 27.9777C22.3885 27.8202 22.4673 27.7239 22.8879 27.3127L23.3787 26.8316M23.4663 29.8324C23.8076 29.8606 24.1405 29.9526 24.4478 30.1036C24.8254 30.2845 25.1516 30.5571 25.3966 30.8964C25.6415 31.2357 25.7973 31.6309 25.8498 32.0458C25.8634 32.333 25.9477 32.6125 26.0952 32.8594C26.2091 33.0432 31.5195 38.2662 31.8087 38.4849C32.2113 38.7778 32.6874 38.9533 33.1841 38.9919C33.6807 39.0305 34.1784 38.9307 34.6216 38.7036C35.0726 38.4375 35.4755 38.0973 35.8133 37.6975C36.5582 36.9626 36.6896 36.7526 36.8824 36.3414C37.0675 35.8558 37.1071 35.3269 36.9963 34.8192C36.9101 34.4825 36.7615 34.165 36.5582 33.883C36.4092 33.6731 31.02 28.3801 30.8447 28.2576C30.6231 28.134 30.3786 28.0566 30.1262 28.0301C29.5362 28.0082 28.9718 27.7839 28.5281 27.3951C28.0843 27.0063 27.7884 26.4767 27.69 25.8955C27.6773 25.6446 27.6179 25.3984 27.5148 25.1693C27.379 24.9032 27.1436 24.7508 26.8715 24.6269C26.5993 24.503 26.3066 24.4148 26.0163 24.4869C25.7271 24.5656 25.5869 24.6706 25.0787 25.1606M23.3787 26.8316L21.7838 25.2218L17.5513 20.9612C16.1054 19.5089 14.8523 18.2666 14.7734 18.2141C14.6699 18.1452 14.5538 18.0977 14.4317 18.0741C14.1722 18.0287 13.9192 17.9523 13.6781 17.8466C13.4765 17.7416 13.3538 17.6279 12.8018 16.9718C12.171 16.2689 11.5856 15.5266 11.0492 14.7496C11.0169 14.6921 11 14.6273 11 14.5615C11 14.4956 11.0169 14.4308 11.0492 14.3734C11.3011 14.0443 11.5958 13.7501 11.9255 13.4985C11.9967 13.4762 12.0723 13.4718 12.1456 13.4855C12.2189 13.4992 12.2878 13.5307 12.3461 13.5772C12.5914 13.7435 13.8971 14.7146 14.8348 15.4932C15.0458 15.6271 15.2239 15.8067 15.3559 16.0188C15.4879 16.2308 15.5704 16.4698 15.5971 16.718C15.6169 16.8997 15.6867 17.0723 15.7987 17.2167C15.8425 17.2692 17.376 18.7477 19.2075 20.4975L23.589 24.6531L24.6055 25.6242M25.0787 25.1606L24.6055 25.6242M25.0787 25.1606C25.3626 24.9415 25.6528 24.6531 25.6528 24.6531C25.6528 24.6531 26.0163 24.3652 26.3529 24.448C26.8516 24.5706 27.3548 24.6564 27.5491 25.2501C27.5491 25.2501 27.8525 25.6317 27.9496 25.8439L29.5478 23.857C30.4241 22.9821 30.4241 22.9821 30.687 22.8509C30.9226 22.7319 31.1857 22.6775 31.4494 22.6934L31.9313 22.7809C33.3279 23.0479 34.774 22.7958 35.9973 22.0723C36.8245 21.5989 37.5264 20.9352 38.0446 20.1362C38.5629 19.3373 38.8825 18.4263 38.9768 17.4792C39.0077 17.1679 39.0077 16.8543 38.9768 16.5431C38.9768 16.5431 38.1881 16.9193 36.5056 17.8291L34.0607 19.1414L33.9205 19.0627L32.7901 18.3978L31.8087 17.8116V16.8055C31.8087 16.2544 31.8087 15.6769 31.8087 15.5195V15.2307L32.7989 14.6971L35.3401 13.3323L36.8999 12.4574L36.8035 12.3787C36.4978 12.1379 36.1757 11.9187 35.8396 11.7225C35.2027 11.3706 34.5085 11.1336 33.7891 11.0226C33.3602 10.9925 32.9298 10.9925 32.5009 11.0226C31.9761 11.0656 31.4583 11.1714 30.9586 11.3376C30.0183 11.654 29.1714 12.1985 28.4938 12.9223C27.8163 13.646 27.3293 14.5265 27.0766 15.4845C26.9463 15.963 26.8901 16.4587 26.9101 16.9543C26.8869 17.2454 26.8869 17.538 26.9101 17.8291C26.9618 18.0077 26.9776 18.1947 26.9565 18.3794C26.9355 18.5641 26.878 18.7428 26.7875 18.9052C26.2315 19.6045 25.6253 20.2624 24.9735 20.8737L22.5351 23.6536L23.1661 24.266L23.8846 24.9484L24.6055 25.6242" stroke="#6C6F80" stroke-width="1.5"/>
</svg>
