<svg width="50" height="50" viewBox="0 0 50 50" fill="none" xmlns="http://www.w3.org/2000/svg">
<path d="M25 1C29.7467 1 34.3869 2.40759 38.3337 5.04474C42.2805 7.68189 45.3566 11.4302 47.1731 15.8156C48.9896 20.201 49.4649 25.0266 48.5388 29.6822C47.6128 34.3377 45.327 38.6141 41.9706 41.9706C38.6141 45.327 34.3377 47.6128 29.6822 48.5388C25.0266 49.4649 20.201 48.9896 15.8156 47.1731C11.4302 45.3566 7.68188 42.2805 5.04473 38.3337C2.40758 34.3869 1 29.7468 1 25C0.999139 21.848 1.61933 18.7268 2.82514 15.8146C4.03094 12.9024 5.79874 10.2563 8.02751 8.02752C10.2563 5.79875 12.9024 4.03094 15.8146 2.82513C18.7268 1.61932 21.848 0.999139 25 1Z" fill="#F5F6FA" stroke="#6C6F80" stroke-linecap="round" stroke-linejoin="round"/>
<path d="M30.7077 36.966C30.4615 36.6016 30.0821 36.3518 29.6406 36.2629C29.1987 36.1747 28.7486 36.2579 28.3738 36.4972L25.9036 32.843C24.8012 31.2111 22.8674 30.3436 20.8845 30.5336L22.6906 29.6069C22.9584 29.4693 23.061 29.146 22.9198 28.8857C22.7781 28.6258 22.4473 28.5252 22.1779 28.6627L19.8659 29.8493C19.598 29.9869 19.4954 30.3102 19.6366 30.5705C19.726 30.7355 19.8929 30.8322 20.0713 30.8491C20.0114 30.9529 19.9809 31.0731 20.0044 31.2001C20.023 31.3005 20.0765 31.3824 20.1418 31.4538C19.9644 31.4992 19.8124 31.6217 19.7546 31.8048C19.6653 32.0863 19.8275 32.3854 20.1164 32.4723L22.6142 33.2236C22.668 33.2408 22.7225 33.2481 22.776 33.2481C23.0106 33.2481 23.2277 33.1003 23.3 32.8716C23.3894 32.5901 23.2271 32.291 22.9382 32.2041L20.9295 31.5993C22.5292 31.4217 24.0979 32.1142 24.9865 33.4289L27.4564 37.0836L27.0439 37.3477C26.668 37.588 26.411 37.9564 26.3197 38.3864C26.2292 38.8159 26.3143 39.2541 26.5619 39.6186L28.0091 41.7599C28.1139 41.9157 28.2888 42 28.4679 42C28.5713 42 28.676 41.9721 28.7689 41.9123C29.0216 41.7502 29.0924 41.42 28.9252 41.1734L27.4775 39.0318C27.3925 38.9053 27.3617 38.753 27.3944 38.6023C27.4262 38.4518 27.5156 38.3232 27.646 38.2399L28.3912 37.7635C28.4395 37.7493 28.4865 37.7287 28.5305 37.7005C28.5637 37.6794 28.5848 37.6489 28.611 37.6228L28.9768 37.3893C29.107 37.3063 29.2644 37.2768 29.418 37.3084C29.5724 37.3395 29.7047 37.4262 29.7909 37.5529L31.4873 40.0614C31.6525 40.3064 31.9935 40.376 32.2476 40.2137C32.5003 40.0516 32.5708 39.7204 32.4039 39.4743L30.7077 36.966Z" fill="#6C6F80" stroke="#6C6F80" stroke-width="0.3"/>
<path d="M30.7272 20.5554C31.4827 20.5554 32.0983 19.957 32.0983 19.2216V14.4043C32.0983 13.6688 31.483 13.0701 30.7272 13.0701L21.9973 13.0698C21.2411 13.0698 20.626 13.6683 20.626 14.404V19.221C20.626 19.9565 21.241 20.5549 21.9973 20.5549H30.7272V20.5554ZM28.5416 14.1378L25.0621 19.488L23.185 19.4877L26.6645 14.1375L28.5416 14.1378ZM31.001 14.4042V19.2212C31.001 19.3656 30.876 19.4877 30.7272 19.4877H26.361L29.8406 14.1375H30.7272C30.876 14.1377 31.001 14.2592 31.001 14.4042V14.4042ZM21.7237 14.4042C21.7237 14.2595 21.849 14.1375 21.9977 14.1375H25.3658L21.8995 19.4677C21.7977 19.4284 21.7235 19.332 21.7235 19.2213V14.4042L21.7237 14.4042Z" fill="#6C6F80" stroke="#6C6F80" stroke-width="0.3"/>
<path d="M18.8165 29.8026C19.0504 29.8026 19.268 29.6548 19.3406 29.4263L20.1125 26.998C20.2025 26.7166 20.0402 26.4175 19.7507 26.33C19.4578 26.2417 19.1535 26.4006 19.0644 26.6826L18.2922 29.1109C18.2028 29.3923 18.3645 29.6914 18.6545 29.7784C18.7082 29.7947 18.7628 29.8026 18.8165 29.8026L18.8165 29.8026Z" fill="#6C6F80" stroke="#6C6F80" stroke-width="0.3"/>
<path d="M17.6702 32.8728C17.3803 32.7858 17.0733 32.9439 16.9839 33.2256L16.212 35.6539C16.1229 35.9356 16.2849 36.2344 16.5743 36.3219C16.6286 36.3382 16.6831 36.3456 16.7366 36.3456C16.9707 36.3456 17.1883 36.1978 17.2606 35.9693L18.0326 33.5405C18.122 33.2583 17.9599 32.96 17.6702 32.8728V32.8728Z" fill="#6C6F80" stroke="#6C6F80" stroke-width="0.3"/>
<path d="M15.8845 31.199C15.9387 31.2156 15.9933 31.2235 16.047 31.2235C16.2811 31.2235 16.4985 31.0754 16.5711 30.847C16.6605 30.5655 16.4987 30.2664 16.2087 30.1795L13.7109 29.4284C13.4207 29.3389 13.114 29.4991 13.0246 29.7805C12.9352 30.0619 13.097 30.361 13.3869 30.448L15.8845 31.199Z" fill="#6C6F80" stroke="#6C6F80" stroke-width="0.3"/>
<path d="M19.6809 32.9813C19.5397 32.7214 19.2079 32.6205 18.9393 32.7583C18.6712 32.8959 18.5686 33.2192 18.7101 33.4795L19.9302 35.7276C20.0284 35.9086 20.2188 36.0127 20.4159 36.0127C20.5023 36.0127 20.5898 35.9924 20.6719 35.9508C20.9397 35.8132 21.0423 35.4899 20.9011 35.2296L19.6809 32.9813Z" fill="#6C6F80" stroke="#6C6F80" stroke-width="0.3"/>
<path d="M16.6437 29.6697C16.7419 29.8507 16.9328 29.9548 17.1299 29.9548C17.2158 29.9548 17.3033 29.9345 17.3854 29.8924C17.6535 29.7553 17.7561 29.4323 17.6149 29.1711L16.3961 26.9223C16.2543 26.6625 15.9236 26.5618 15.6544 26.6994C15.3863 26.8369 15.2837 27.1595 15.4244 27.4206L16.6437 29.6697Z" fill="#6C6F80" stroke="#6C6F80" stroke-width="0.3"/>
<path d="M16.6891 32.0822C16.5481 31.8223 16.2158 31.7214 15.9479 31.8592L13.6359 33.0448C13.3678 33.1818 13.2646 33.5049 13.4064 33.766C13.5047 33.947 13.695 34.0509 13.8921 34.0509C13.978 34.0509 14.066 34.0306 14.1476 33.9889L16.4596 32.8034C16.7279 32.6658 16.8308 32.343 16.6891 32.0822L16.6891 32.0822Z" fill="#6C6F80" stroke="#6C6F80" stroke-width="0.3"/>
<path d="M35.3279 14.6556H35.0044V13.2919C35.0041 10.374 32.5636 8 29.5633 8H23.167C20.1667 8 17.7253 10.374 17.7253 13.2914V14.6551H17.3986C16.4757 14.6551 15.7246 15.385 15.7246 16.2823V19.0144C15.7246 19.9117 16.4755 20.6419 17.3986 20.6419H17.7253V25.1768C17.7253 25.4714 17.971 25.7106 18.2743 25.7106C18.5775 25.7106 18.8232 25.4716 18.8232 25.1768V13.2917C18.8232 10.9628 20.7717 9.06782 23.1664 9.06782H29.5628C31.9579 9.06782 33.9057 10.9628 33.9057 13.2917V15.1719C33.9057 15.1779 33.9022 15.1832 33.9022 15.1895V20.1086C33.9022 20.1149 33.9057 20.1201 33.9057 20.1262V25.177C33.9057 27.5059 31.9579 29.4014 29.5628 29.4014H25.52C25.2174 29.4014 24.9717 29.6404 24.9717 29.9348C24.9717 30.2294 25.2174 30.4681 25.52 30.4681H29.5633C32.5635 30.4681 35.0041 28.0946 35.0041 25.177V20.6416H35.3276C36.2507 20.6416 37.0005 19.9114 37.0005 19.0142V16.282C37.0008 15.3848 36.251 14.6554 35.3279 14.6554L35.3279 14.6556ZM17.3987 19.5744C17.0809 19.5744 16.8228 19.3232 16.8228 19.0149V16.2828C16.8228 15.9745 17.0809 15.7236 17.3987 15.7236H17.7254V19.5746H17.3987V19.5744ZM35.903 19.0147C35.903 19.3232 35.6443 19.5741 35.3273 19.5741H35.0039V15.7234H35.3273C35.6443 15.7234 35.903 15.9742 35.903 16.2825V19.0147Z" fill="#6C6F80" stroke="#6C6F80" stroke-width="0.3"/>
</svg>
