<svg width="50" height="50" viewBox="0 0 50 50" fill="none" xmlns="http://www.w3.org/2000/svg">
<path d="M25 1C29.7467 1 34.3869 2.40759 38.3337 5.04474C42.2805 7.68189 45.3566 11.4302 47.1731 15.8156C48.9896 20.201 49.4649 25.0266 48.5388 29.6822C47.6128 34.3377 45.327 38.6141 41.9706 41.9706C38.6141 45.327 34.3377 47.6128 29.6822 48.5388C25.0266 49.4649 20.201 48.9896 15.8156 47.1731C11.4302 45.3566 7.68188 42.2805 5.04473 38.3337C2.40758 34.3869 1 29.7468 1 25C0.999139 21.848 1.61933 18.7268 2.82514 15.8146C4.03094 12.9024 5.79874 10.2563 8.02751 8.02752C10.2563 5.79875 12.9024 4.03094 15.8146 2.82513C18.7268 1.61932 21.848 0.999139 25 1Z" fill="#F5F6FA" stroke="#6C6F80" stroke-linecap="round" stroke-linejoin="round"/>
<path fill-rule="evenodd" clip-rule="evenodd" d="M22.7078 12.6378C22.7346 12.5865 22.7745 12.5443 22.8229 12.5159C22.9984 12.9744 23.2958 13.369 23.6791 13.6518C24.0624 13.9347 24.515 14.0934 24.9819 14.1089C24.9804 14.1746 24.9604 14.2384 24.9243 14.2918C22.6742 18.3926 20.4193 22.4882 18.1596 26.5787L17.7926 27.2495L18.5122 28.3928L23.6937 18.9871L24.5069 17.5084L24.5717 17.394L24.6148 17.3254L24.6508 17.3864L24.694 17.4398L26.7018 20.6639L33.776 31.998C33.9755 32.3474 34.2686 32.626 34.618 32.7984C34.6611 32.7984 34.7115 32.8365 34.7115 32.9051V33.6673C34.6611 33.6673 34.6467 33.6673 34.6395 33.6063C34.3589 32.9432 34.1862 32.8441 33.5601 33.1338L32.5094 33.5911L26.234 36.4113C26.1779 36.4415 26.114 36.4519 26.0519 36.4409C25.9897 36.4299 25.9325 36.3982 25.8886 36.3503C25.5144 35.9997 25.133 35.6643 24.7444 35.3213C24.6885 35.2644 24.622 35.2205 24.5492 35.1925C24.4763 35.1645 24.3987 35.153 24.3214 35.1588C24.2441 35.1645 24.1687 35.1874 24.1003 35.2259C24.0318 35.2644 23.9718 35.3176 23.924 35.3823C23.8744 35.446 23.8376 35.5198 23.8158 35.599C23.794 35.6783 23.7876 35.7615 23.797 35.8434C23.8065 35.9254 23.8315 36.0045 23.8706 36.0759C23.9098 36.1473 23.9622 36.2095 24.0247 36.2588L25.1186 37.2421C26.1693 38.1872 27.22 39.1324 28.2922 40.047C28.7911 40.4882 29.3868 40.7893 30.0245 40.9225C30.6621 41.0557 31.3212 41.0168 31.9409 40.8092C32.5346 40.6182 33.1142 40.3813 33.6752 40.1004L34.2725 39.826C34.7374 39.6315 35.1334 39.2884 35.4056 38.8444C35.6777 38.4005 35.8125 37.8777 35.791 37.3488V36.3655C35.791 35.2908 35.791 34.2237 35.791 33.149C35.7789 33.0766 35.7919 33.002 35.8276 32.939C35.8633 32.876 35.9193 32.8287 35.9853 32.806C36.3606 32.6182 36.6595 32.2935 36.8273 31.8913C36.8812 31.7608 36.9245 31.6257 36.9568 31.4874L37 31.3044V30.8014C36.9243 30.5393 36.828 30.2843 36.7121 30.0392C35.4983 27.5645 34.2845 25.0873 33.0707 22.6076L32.3511 21.167C31.7825 20.0008 31.2068 18.8346 30.6383 17.6608L27.04 10.3741C26.8596 9.98967 26.5878 9.66157 26.2515 9.42192C25.9153 9.18226 25.5259 9.03929 25.1218 9.00701C24.7176 8.97473 24.3124 9.05425 23.946 9.23778C23.5796 9.42132 23.2645 9.70257 23.0316 10.0539L17.8069 17.5846L16.7131 19.1624L15.9143 20.3133L14 23.1564L14.6261 23.4079C14.7655 23.4555 14.9153 23.4569 15.0554 23.412C15.1956 23.367 15.3195 23.2778 15.4105 23.1564L17.0801 20.7554L17.6198 19.9932C18.2028 19.1624 18.7785 18.3239 19.3542 17.4931L22.6862 12.6988L22.7078 12.6378ZM26.6083 13.6592L27.04 12.897C27.0887 12.933 27.1262 12.9834 27.148 13.0418V13.0799L29.3429 17.5694L34.9274 29.0025C35.0066 29.1626 35.0426 29.2312 34.8267 29.277C34.4037 29.381 34.035 29.6541 33.7976 30.0392L33.7472 29.9553L33.6752 29.8486L32.4878 27.9507C30.089 24.1193 27.6901 20.2854 25.2913 16.4489C25.251 16.3931 25.2292 16.3248 25.2292 16.2545C25.2292 16.1843 25.251 16.116 25.2913 16.0602C25.7519 15.2217 26.1765 14.4443 26.6083 13.6592ZM27.6733 37.8671L27.1048 37.3564L27.4646 37.1963L28.688 36.6628L29.53 36.2969C30.8614 35.7253 32.1855 35.146 33.5169 34.5591C33.6752 34.4905 33.74 34.5133 33.8048 34.6887C33.9775 35.1765 34.1574 35.6643 34.3373 36.1521L34.6036 36.861C34.6792 37.0309 34.7206 37.2157 34.7249 37.4035C34.7293 37.5914 34.6965 37.7781 34.6287 37.9517C34.561 38.1254 34.4598 38.2822 34.3315 38.412C34.2032 38.5418 34.0508 38.6417 33.8839 38.7055L33.776 38.7513L32.056 39.5135C31.5341 39.7534 30.9581 39.8293 30.3966 39.7319C29.8352 39.6346 29.312 39.3683 28.8895 38.9647C28.4578 38.5988 28.0548 38.233 27.6733 37.8671ZM26.234 11.5402C26.2284 11.8 26.1504 12.0522 26.0098 12.2651C25.8693 12.4781 25.6725 12.6423 25.4442 12.7372C25.2158 12.8321 24.9661 12.8535 24.7263 12.7986C24.4866 12.7437 24.2675 12.615 24.0965 12.4287C23.9256 12.2424 23.8104 12.0067 23.7655 11.7513C23.7205 11.4959 23.7478 11.2321 23.8439 10.9931C23.9401 10.754 24.1007 10.5504 24.3057 10.4077C24.5107 10.265 24.7509 10.1897 24.9962 10.1911C25.3284 10.1991 25.6443 10.345 25.8758 10.5974C26.1074 10.8497 26.236 11.1884 26.234 11.5402ZM35.8989 31.0758C35.898 31.1649 35.8805 31.2529 35.8474 31.3348C35.8144 31.4167 35.7664 31.4909 35.7063 31.5532C35.6461 31.6155 35.575 31.6646 35.4969 31.6978C35.4188 31.731 35.3354 31.7475 35.2513 31.7465C35.1666 31.7466 35.0827 31.7285 35.0048 31.6933C34.9269 31.6581 34.8566 31.6065 34.798 31.5416C34.7395 31.4768 34.694 31.4001 34.6643 31.3161C34.6346 31.232 34.6213 31.1425 34.6252 31.0529C34.6242 30.9638 34.6398 30.8754 34.6711 30.7927C34.7025 30.71 34.7488 30.6347 34.8077 30.571C34.8665 30.5073 34.9365 30.4565 35.0139 30.4215C35.0912 30.3864 35.1743 30.3679 35.2584 30.3669C35.3447 30.3679 35.43 30.3871 35.5092 30.4234C35.5884 30.4598 35.6599 30.5125 35.7195 30.5786C35.7792 30.6446 35.8258 30.7226 35.8566 30.808C35.8874 30.8934 35.9018 30.9844 35.8989 31.0758Z" fill="#6C6F80"/>
</svg>
