<svg width="50" height="50" viewBox="0 0 50 50" fill="none" xmlns="http://www.w3.org/2000/svg">
<path d="M25 1C29.7467 1 34.3869 2.40759 38.3337 5.04474C42.2805 7.68189 45.3566 11.4302 47.1731 15.8156C48.9896 20.201 49.4649 25.0266 48.5388 29.6822C47.6128 34.3377 45.327 38.6141 41.9706 41.9706C38.6141 45.327 34.3377 47.6128 29.6822 48.5388C25.0266 49.4649 20.201 48.9896 15.8156 47.1731C11.4302 45.3566 7.68188 42.2805 5.04473 38.3337C2.40758 34.3869 1 29.7468 1 25C0.999139 21.848 1.61933 18.7268 2.82514 15.8146C4.03094 12.9024 5.79874 10.2563 8.02751 8.02752C10.2563 5.79875 12.9024 4.03094 15.8146 2.82513C18.7268 1.61932 21.848 0.999139 25 1Z" fill="#F5F6FA" stroke="#6C6F80" stroke-linecap="round" stroke-linejoin="round"/>
<path fill-rule="evenodd" clip-rule="evenodd" d="M13.0228 32.3328C10.8084 34.5284 10.6914 34.6735 10.5473 34.9275C10.2935 35.3759 10.1714 35.8878 10.1953 36.4035C10.2192 36.9191 10.3881 37.4173 10.6823 37.8398C10.8864 38.1015 11.1223 38.3362 11.3845 38.5384C11.6632 38.7136 11.9667 38.8451 12.2846 38.9285C12.754 39.0238 13.2375 39.0238 13.7069 38.9285C14.056 38.8258 14.3849 38.6632 14.679 38.4477C14.8321 38.3297 19.0898 34.1292 20.8991 32.3237L13.0228 32.3328ZM31.989 11.0124C31.4499 11.057 30.918 11.1666 30.4048 11.339C29.4388 11.6671 28.5689 12.2318 27.8729 12.9823C27.1769 13.7329 26.6766 14.6459 26.4171 15.6394C26.2832 16.1356 26.2255 16.6497 26.2461 17.1635C26.2222 17.4655 26.2222 17.7689 26.2461 18.0708C26.2991 18.256 26.3153 18.4499 26.2937 18.6415C26.2721 18.833 26.2131 19.0183 26.12 19.1867C25.6783 19.7388 25.1904 20.2518 24.6618 20.72H37.498C38.1393 19.8456 38.5399 18.8158 38.6592 17.7351C38.691 17.4123 38.691 17.0871 38.6592 16.7644C38.6592 16.7644 37.8491 17.1545 36.1208 18.098L33.6093 19.4589L33.4653 19.3772L32.3041 18.6877L31.2959 18.0799V17.0365C31.2959 16.465 31.2959 15.8662 31.2959 15.7029V15.4035L32.3131 14.8501L34.9236 13.4348L36.5168 12.5275L36.4268 12.4458C36.1128 12.1962 35.7819 11.9688 35.4366 11.7654C34.7824 11.4004 34.0693 11.1547 33.3303 11.0396C32.8844 10.9985 32.4362 10.9894 31.989 11.0124Z" stroke="#6C6F80" stroke-width="1.4"/>
<path fill-rule="evenodd" clip-rule="evenodd" d="M25.0334 31.2475H14.3232C13.157 31.2711 12.0265 30.8414 11.1659 30.0473C10.3052 29.2532 9.78041 28.1556 9.70015 26.9819C9.6199 25.8082 9.99036 24.6484 10.7348 23.7426C11.4792 22.8369 12.5405 22.2547 13.6989 22.1167C13.9249 22.1167 14.1402 22.1167 14.3662 22.1167H35.7329C36.9376 22.0951 38.1015 22.5571 38.9685 23.401C39.8356 24.245 40.3347 25.4018 40.3561 26.6169C40.3775 27.8321 39.9194 29.006 39.0827 29.8805C38.246 30.755 37.0991 31.2584 35.8944 31.28C33.3863 31.28 30.8783 31.28 28.3595 31.28L25.0334 31.2475ZM27.606 20.3904H14.4954C14.1358 20.3847 13.7762 20.4028 13.419 20.4447C11.8433 20.6539 10.4064 21.4624 9.40208 22.7048C8.39778 23.9472 7.90198 25.5296 8.0161 27.1285C8.13021 28.7274 8.8456 30.2219 10.016 31.3064C11.1863 32.3909 12.7233 32.9835 14.3124 32.9629H35.7437C36.0494 32.961 36.3548 32.9429 36.6586 32.9086C38.2109 32.6824 39.6216 31.8743 40.6092 30.6453C41.5968 29.4164 42.0887 27.8571 41.9868 26.2785C41.8849 24.6999 41.1967 23.2181 40.0595 22.1287C38.9222 21.0394 37.4196 20.4225 35.8513 20.4012H27.606V20.3904Z" fill="#6C6F80"/>
<path d="M14.2474 29.3255C13.7259 29.3211 13.2173 29.1609 12.786 28.8651C12.3547 28.5692 12.0201 28.151 11.8244 27.6634C11.6288 27.1757 11.5809 26.6404 11.6868 26.1253C11.7927 25.6102 12.0477 25.1383 12.4195 24.7694C12.7913 24.4004 13.2633 24.151 13.7757 24.0525C14.288 23.9541 14.8178 24.0112 15.2981 24.2165C15.7783 24.4217 16.1874 24.766 16.4736 25.2058C16.7599 25.6456 16.9104 26.1611 16.9061 26.6872C16.8948 27.3909 16.6097 28.0619 16.1124 28.5554C15.615 29.049 14.9452 29.3255 14.2474 29.3255ZM13.3217 26.6546C13.3188 26.9091 13.4155 27.1544 13.5909 27.3373C13.7662 27.5202 14.006 27.6261 14.2582 27.6318C14.5106 27.6291 14.7523 27.5283 14.9328 27.3503C15.1132 27.1722 15.2186 26.9308 15.2269 26.6764C15.2284 26.5486 15.2046 26.4217 15.1571 26.3032C15.1096 26.1847 15.0393 26.0769 14.9502 25.9861C14.8611 25.8952 14.755 25.823 14.6381 25.7738C14.5211 25.7245 14.3957 25.6992 14.2689 25.6992C14.1442 25.6977 14.0203 25.7215 13.9048 25.769C13.7892 25.8165 13.6842 25.8868 13.5959 25.9758C13.5077 26.0648 13.438 26.1707 13.3909 26.2873C13.3438 26.4039 13.3203 26.5288 13.3217 26.6546Z" fill="#6C6F80"/>
<path d="M38.4668 26.6654C38.4667 27.1929 38.3112 27.7084 38.02 28.1465C37.7288 28.5847 37.315 28.9256 36.8312 29.1259C36.3474 29.3262 35.8155 29.3769 35.3031 29.2716C34.7907 29.1663 34.3209 28.9098 33.9534 28.5345C33.5859 28.1592 33.3373 27.6822 33.2392 27.1641C33.1411 26.646 33.198 26.1102 33.4025 25.6247C33.6071 25.1393 33.9501 24.7261 34.388 24.4378C34.8259 24.1495 35.339 23.999 35.8619 24.0054C36.5539 24.0195 37.2132 24.3053 37.6997 24.8021C38.1861 25.2988 38.4613 25.9673 38.4668 26.6654ZM34.8823 26.6654C34.8765 26.9199 34.9705 27.1664 35.1438 27.3514C35.3172 27.5364 35.5558 27.6449 35.8081 27.6534C36.0633 27.6508 36.3077 27.5488 36.4902 27.3687C36.6727 27.1887 36.7793 26.9445 36.7876 26.6871C36.7848 26.4336 36.6845 26.191 36.5078 26.0107C36.331 25.8304 36.0917 25.7265 35.8403 25.7209C35.7174 25.718 35.595 25.7396 35.4803 25.7844C35.3656 25.8292 35.2607 25.8964 35.1718 25.9821C35.0828 26.0678 35.0115 26.1703 34.9618 26.2839C34.9121 26.3974 34.8851 26.5196 34.8823 26.6437V26.6654Z" fill="#6C6F80"/>
<path d="M18.8009 26.6438C18.8051 26.1182 18.9637 25.6057 19.2565 25.1709C19.5493 24.7361 19.9633 24.3985 20.4462 24.2008C20.9291 24.0032 21.4592 23.9542 21.9696 24.0602C22.48 24.1662 22.9479 24.4223 23.3141 24.7962C23.6803 25.1702 23.9285 25.6451 24.0273 26.1612C24.1261 26.6773 24.0711 27.2114 23.8693 27.696C23.6674 28.1805 23.3277 28.594 22.8931 28.884C22.4585 29.174 21.9484 29.3276 21.4273 29.3255C21.0801 29.3241 20.7365 29.2535 20.4164 29.1179C20.0963 28.9822 19.8059 28.7841 19.5618 28.5349C19.3178 28.2858 19.125 27.9905 18.9944 27.6659C18.8638 27.3414 18.798 26.994 18.8009 26.6438ZM21.4381 25.6993C21.1858 25.6992 20.9438 25.7996 20.7644 25.9784C20.5851 26.1573 20.4829 26.4003 20.4801 26.6547C20.4826 26.9075 20.5811 27.1497 20.7553 27.3315C20.9295 27.5132 21.1661 27.6207 21.4165 27.6318C21.6735 27.6318 21.9199 27.5289 22.1016 27.3456C22.2832 27.1624 22.3853 26.9138 22.3853 26.6547C22.3867 26.5306 22.3639 26.4075 22.3182 26.2924C22.2724 26.1772 22.2046 26.0723 22.1186 25.9836C22.0327 25.8949 21.9302 25.8241 21.8172 25.7753C21.7041 25.7265 21.5826 25.7007 21.4596 25.6993H21.4381Z" fill="#6C6F80"/>
<path d="M26.0138 26.6547C26.0159 26.1286 26.1726 25.615 26.4642 25.1787C26.7557 24.7425 27.169 24.4033 27.6517 24.2039C28.1344 24.0046 28.6648 23.9541 29.176 24.0588C29.6871 24.1636 30.156 24.4189 30.5233 24.7924C30.8906 25.1659 31.1399 25.6409 31.2395 26.1573C31.3392 26.6737 31.2848 27.2083 31.0832 27.6935C30.8817 28.1787 30.542 28.5928 30.1071 28.8833C29.6723 29.1737 29.1618 29.3277 28.6402 29.3255C28.2935 29.3255 27.9502 29.2563 27.6301 29.1218C27.31 28.9873 27.0195 28.7902 26.7754 28.5419C26.5312 28.2936 26.3382 27.999 26.2075 27.6751C26.0768 27.3512 26.0109 27.0044 26.0138 26.6547ZM29.5982 26.6547C29.5982 26.5283 29.5733 26.4032 29.5251 26.2865C29.4768 26.1699 29.4061 26.0641 29.317 25.9752C29.2279 25.8864 29.1222 25.8162 29.006 25.7689C28.8898 25.7215 28.7655 25.6978 28.6402 25.6993C28.4503 25.6993 28.2646 25.7562 28.1069 25.8629C27.9491 25.9696 27.8263 26.1211 27.7541 26.2983C27.6819 26.4755 27.6636 26.6704 27.7015 26.8581C27.7393 27.0458 27.8316 27.218 27.9667 27.3527C28.1017 27.4874 28.2734 27.5785 28.46 27.6146C28.6465 27.6506 28.8395 27.6299 29.0143 27.5551C29.1892 27.4803 29.338 27.3548 29.442 27.1945C29.546 27.0341 29.6003 26.8462 29.5982 26.6547Z" fill="#6C6F80"/>
</svg>
