<svg width="50" height="50" viewBox="0 0 50 50" fill="none" xmlns="http://www.w3.org/2000/svg">
<path d="M25 1C29.7467 1 34.3869 2.40759 38.3337 5.04474C42.2805 7.68189 45.3566 11.4302 47.1731 15.8156C48.9896 20.201 49.4649 25.0266 48.5388 29.6822C47.6128 34.3377 45.327 38.6141 41.9706 41.9706C38.6141 45.327 34.3377 47.6128 29.6822 48.5388C25.0266 49.4649 20.201 48.9896 15.8156 47.1731C11.4302 45.3566 7.68188 42.2805 5.04473 38.3337C2.40758 34.3869 1 29.7468 1 25C0.999139 21.848 1.61933 18.7268 2.82514 15.8146C4.03094 12.9024 5.79874 10.2563 8.02751 8.02752C10.2563 5.79875 12.9024 4.03094 15.8146 2.82513C18.7268 1.61932 21.848 0.999139 25 1Z" fill="#F5F6FA" stroke="#6C6F80" stroke-linecap="round" stroke-linejoin="round"/>
<path d="M36.7069 33.6601L38.4129 28.5351V28.5349C38.4506 28.4217 38.4212 28.2968 38.3369 28.2124L33.8276 23.6944C33.7401 23.6069 33.6095 23.5788 33.4936 23.6225L29.7421 25.0493C29.6423 25.0871 29.5685 25.1733 29.5461 25.2778C29.5238 25.3824 29.5558 25.4912 29.6313 25.5669L33.5672 29.5103L32.555 32.5425L29.5248 33.5568L25.5886 29.6132C25.5133 29.5378 25.4047 29.5057 25.3002 29.5281C25.196 29.5506 25.1102 29.6245 25.0722 29.7243L23.6484 33.4832C23.6045 33.599 23.6326 33.7301 23.7201 33.8178L28.2294 38.3355H28.2292C28.3135 38.4202 28.4381 38.4499 28.5514 38.4118L33.6738 36.7021L35.8754 38.9076C35.9344 38.9668 36.0145 39 36.0981 39C36.1815 39 36.2616 38.9668 36.3206 38.9074L38.9082 36.3112C39.0307 36.1881 39.0307 35.9886 38.9078 35.8657L36.7069 33.6601ZM36.0974 38.239L33.9812 36.1187V36.1185C33.897 36.0341 33.7723 36.0046 33.6593 36.0424L28.5369 37.7519L24.3087 33.5161L25.4878 30.4036L29.2176 34.1403C29.3019 34.2248 29.4265 34.2542 29.5395 34.2166L32.9033 33.0909C32.997 33.0597 33.0707 32.9858 33.1019 32.8917L34.2255 29.5252C34.2634 29.412 34.234 29.2869 34.1495 29.2024L30.4202 25.4657L33.5265 24.2844L37.7545 28.5204L36.0482 33.6454C36.0105 33.7586 36.0399 33.8835 36.1242 33.968L38.2403 36.0886L36.0974 38.239Z" fill="#6C6F80" stroke="#6C6F80" stroke-width="0.6"/>
<path d="M11.3145 23.2408H13.1138C13.2981 23.931 13.572 24.5939 13.928 25.213L12.6556 26.488C12.5966 26.547 12.5634 26.6272 12.5634 26.7108C12.5634 26.7943 12.5966 26.8746 12.6556 26.9337L15.2433 29.5269L15.2436 29.5266C15.3024 29.5858 15.3825 29.619 15.4659 29.619C15.5492 29.619 15.6294 29.5858 15.6884 29.5266L16.9603 28.2522C17.5781 28.6095 18.2397 28.8842 18.9284 29.0693V30.8729C18.9284 30.9565 18.9615 31.0367 19.0205 31.0956C19.0796 31.1548 19.1597 31.188 19.2431 31.188H22.903C22.9864 31.188 23.0665 31.1548 23.1256 31.0956C23.1846 31.0367 23.2177 30.9565 23.2177 30.8729V29.0702C23.9064 28.8853 24.5682 28.6111 25.186 28.2545L26.4586 29.5295V29.5293C26.5834 29.6476 26.7787 29.6476 26.9034 29.5293L29.4911 26.9361L29.4913 26.9364C29.5504 26.8772 29.5835 26.797 29.5835 26.7134C29.5835 26.6299 29.5504 26.5496 29.4913 26.4905L28.2196 25.2161C28.576 24.5974 28.8501 23.9344 29.0347 23.2445H30.8348C30.9182 23.2445 30.9983 23.2113 31.0573 23.1522C31.1164 23.093 31.1495 23.0128 31.1493 22.9292V19.2622C31.1495 19.1787 31.1164 19.0984 31.0573 19.0393C30.9983 18.9802 30.9182 18.947 30.8348 18.947H29.036C28.8514 18.257 28.5775 17.5939 28.2214 16.9749L29.4939 15.7002V15.6999C29.553 15.641 29.5861 15.5608 29.5861 15.4772C29.5861 15.3937 29.553 15.3134 29.4939 15.2543L26.906 12.6613C26.8469 12.6022 26.7668 12.569 26.6834 12.569C26.6001 12.569 26.52 12.6022 26.4609 12.6613L25.189 13.9355C24.5714 13.5784 23.91 13.3038 23.2212 13.1187V11.3151C23.2212 11.2315 23.188 11.1515 23.1292 11.0923C23.0702 11.0332 22.9901 11 22.9067 11H19.2467C19.1631 11 19.0832 11.0332 19.0242 11.0923C18.9652 11.1515 18.932 11.2315 18.932 11.3151V13.1175C18.2431 13.3025 17.5815 13.5769 16.9635 13.9335L15.691 12.6587C15.6322 12.5996 15.5521 12.5664 15.4687 12.5664C15.3853 12.5664 15.3052 12.5996 15.2461 12.6587L12.658 15.2518L12.6582 15.2516C12.5991 15.3108 12.566 15.391 12.566 15.4746C12.566 15.5581 12.5991 15.6384 12.6582 15.6975L13.9301 16.9717C13.5735 17.5904 13.2994 18.2533 13.1146 18.9435H11.3145C11.2311 18.9435 11.151 18.9767 11.0922 19.0356C11.0331 19.0947 11 19.175 11 19.2585V22.9255C11 23.0093 11.0331 23.0893 11.0922 23.1485C11.151 23.2076 11.2311 23.2408 11.3145 23.2408L11.3145 23.2408ZM11.6292 19.5738H13.3596C13.5053 19.5738 13.632 19.4733 13.6655 19.3313C13.8525 18.5384 14.1659 17.781 14.5934 17.0881C14.6702 16.9637 14.6515 16.8028 14.5482 16.6994L13.3254 15.4745L15.4685 13.3273L16.6922 14.5528C16.7953 14.6559 16.9557 14.6746 17.0797 14.5981C17.7714 14.17 18.5276 13.8567 19.319 13.67C19.461 13.6364 19.5612 13.5093 19.5612 13.3631V11.6303H22.5921V13.3642C22.5921 13.5102 22.6924 13.6373 22.8341 13.6709C23.6255 13.858 24.3813 14.1718 25.0728 14.6001C25.1968 14.6773 25.3576 14.6586 25.4608 14.5551L26.6836 13.3299L28.8267 15.4771L27.6033 16.7027H27.6035C27.5001 16.806 27.4815 16.967 27.5583 17.0912C27.9856 17.7842 28.2983 18.5417 28.4846 19.3347C28.5182 19.477 28.645 19.5772 28.7909 19.5775H30.5204V22.6141H28.7898C28.6441 22.6141 28.5175 22.7144 28.4839 22.8566C28.2969 23.6492 27.9838 24.4067 27.5563 25.0998C27.4797 25.224 27.4983 25.3849 27.6015 25.4883L28.824 26.7134L26.6811 28.8606L25.4577 27.6349V27.6351C25.3547 27.5315 25.1939 27.5126 25.0699 27.5898C24.3782 28.0177 23.6221 28.3312 22.8309 28.5179C22.6889 28.5515 22.5886 28.6784 22.5884 28.8246V30.5576H19.5575V28.8239C19.5575 28.6777 19.4575 28.5508 19.3155 28.517C18.5241 28.3299 17.7681 28.0161 17.0764 27.5878C16.9525 27.5111 16.7918 27.5297 16.6887 27.6331L15.4659 28.8582L13.3229 26.711L14.5459 25.4852L14.5461 25.485C14.6493 25.3819 14.6679 25.2209 14.5911 25.0967C14.1641 24.4037 13.8514 23.646 13.6653 22.8532C13.6317 22.7109 13.5049 22.6104 13.3589 22.6104H11.6292V19.5738Z" fill="#6C6F80" stroke="#6C6F80" stroke-width="0.6"/>
<path d="M21.0753 26.3906C22.4774 26.3906 23.8222 25.8325 24.8139 24.8392C25.8053 23.8456 26.3623 22.4982 26.3623 21.0934C26.3623 19.6885 25.8053 18.3411 24.8139 17.3477C23.8222 16.3541 22.4774 15.7961 21.0753 15.7961C19.673 15.7961 18.3282 16.3541 17.3367 17.3477C16.345 18.3411 15.7881 19.6885 15.7881 21.0934C15.7896 22.4977 16.3472 23.8442 17.3385 24.8374C18.3296 25.8304 19.6735 26.389 21.0754 26.3906L21.0753 26.3906ZM21.0753 16.4266C22.3106 16.4266 23.4954 16.9185 24.3688 17.7936C25.2425 18.6689 25.7332 19.8558 25.7332 21.0936C25.7332 22.3313 25.2425 23.5183 24.3688 24.3934C23.4954 25.2688 22.3106 25.7604 21.0753 25.7604C19.8398 25.7604 18.655 25.2687 17.7816 24.3934C16.9079 23.5183 16.4172 22.3313 16.4172 21.0936C16.4186 19.8562 16.9099 18.67 17.7831 17.7951C18.6563 16.9202 19.8402 16.4282 21.0753 16.4266Z" fill="#6C6F80" stroke="#6C6F80" stroke-width="0.6"/>
</svg>
