<svg width="50" height="50" viewBox="0 0 50 50" fill="none" xmlns="http://www.w3.org/2000/svg">
<path d="M25 1C29.7467 1 34.3869 2.40759 38.3337 5.04474C42.2805 7.68189 45.3566 11.4302 47.1731 15.8156C48.9896 20.201 49.4649 25.0266 48.5388 29.6822C47.6128 34.3377 45.327 38.6141 41.9706 41.9706C38.6141 45.327 34.3377 47.6128 29.6822 48.5388C25.0266 49.4649 20.201 48.9896 15.8156 47.1731C11.4302 45.3566 7.68188 42.2805 5.04473 38.3337C2.40758 34.3869 1 29.7468 1 25C0.999139 21.848 1.61933 18.7268 2.82514 15.8146C4.03094 12.9024 5.79874 10.2563 8.02751 8.02752C10.2563 5.79875 12.9024 4.03094 15.8146 2.82513C18.7268 1.61932 21.848 0.999139 25 1Z" fill="#F5F6FA" stroke="#6C6F80" stroke-linecap="round" stroke-linejoin="round"/>
<mask id="path-2-inside-1_540_20617" fill="white">
<path d="M27.1007 25.9003C27.1007 25.027 26.407 24.3592 25.4998 24.3592H13.6008C12.6937 24.3592 12 25.027 12 25.9003V32.6299C12 33.5032 12.6937 34.1711 13.6008 34.1711H25.4998C26.407 34.1711 27.1007 33.5032 27.1007 32.6299V31.7565H29.4485V33.9656C29.4485 34.2738 29.6619 34.4793 29.9821 34.4793H32.9169C33.2371 34.4793 33.4505 34.2738 33.4505 33.9656V33.5032H34.1442V35.9691H33.8241C33.5039 35.9691 33.2904 36.1746 33.2904 36.4828V38.4864C33.2904 38.7946 33.5039 39.0001 33.8241 39.0001H38.3063C38.6265 39.0001 38.8399 38.7946 38.8399 38.4864V36.4828C38.8399 36.1746 38.6265 35.9691 38.3063 35.9691H37.9862V33.5032H38.4664C38.7866 33.5032 39 33.2977 39 32.9895V24.9237C39 24.6154 38.7866 24.41 38.4664 24.41H37.9862V21.9441H38.3063C38.6265 21.9441 38.8399 21.7386 38.8399 21.4303V19.4268C38.8399 19.1186 38.6265 18.9131 38.3063 18.9131H33.8241C33.5039 18.9131 33.2904 19.1186 33.2904 19.4268V21.4303C33.2904 21.7386 33.5039 21.9441 33.8241 21.9441H34.1442V24.41H33.4505V23.9476C33.4505 23.6394 33.2371 23.4339 32.9169 23.4339H29.9821C29.6619 23.4339 29.4485 23.6394 29.4485 23.9476V26.7731H27.1007V25.9003ZM16.9091 30.3184H26.0335V31.2431H16.9091V30.3184ZM26.0335 25.9003V26.1058H16.9091V25.3866H25.5005C25.7673 25.3866 26.0341 25.6435 26.0341 25.9003H26.0335ZM13.0672 32.6299V25.9003C13.0672 25.6435 13.2806 25.3866 13.6008 25.3866H15.8419V26.6196C15.8419 26.9278 16.0554 27.1333 16.3755 27.1333H26.0341V29.2909H16.9098V28.88C16.9098 28.5717 16.6963 28.3662 16.3762 28.3662C16.056 28.3662 15.8426 28.5717 15.8426 28.88V33.1439H13.6014C13.2813 33.1439 13.0678 32.9384 13.0678 32.6302L13.0672 32.6299ZM25.5005 33.1436H16.9091V32.2703H26.0335V32.6299C26.0335 32.9381 25.7666 33.1436 25.4998 33.1436H25.5005ZM37.7203 38.024H34.3052V37.0479H37.7736V38.024H37.7203ZM36.9199 36.0205H35.159V33.5546H36.9199V36.0205ZM34.3052 19.9405H37.7203V20.9166H34.2519V19.9405H34.3052ZM35.159 21.9441H36.9199V24.41H35.159V21.9441ZM34.6254 25.4374H37.9337V32.5779H33.3981V25.4374H34.6254ZM30.5166 24.4613H32.3842V33.5546H30.5166V24.4613ZM29.4494 27.8005V30.7802H27.1016V27.8005H29.4494Z"/>
</mask>
<path d="M27.1007 25.9003C27.1007 25.027 26.407 24.3592 25.4998 24.3592H13.6008C12.6937 24.3592 12 25.027 12 25.9003V32.6299C12 33.5032 12.6937 34.1711 13.6008 34.1711H25.4998C26.407 34.1711 27.1007 33.5032 27.1007 32.6299V31.7565H29.4485V33.9656C29.4485 34.2738 29.6619 34.4793 29.9821 34.4793H32.9169C33.2371 34.4793 33.4505 34.2738 33.4505 33.9656V33.5032H34.1442V35.9691H33.8241C33.5039 35.9691 33.2904 36.1746 33.2904 36.4828V38.4864C33.2904 38.7946 33.5039 39.0001 33.8241 39.0001H38.3063C38.6265 39.0001 38.8399 38.7946 38.8399 38.4864V36.4828C38.8399 36.1746 38.6265 35.9691 38.3063 35.9691H37.9862V33.5032H38.4664C38.7866 33.5032 39 33.2977 39 32.9895V24.9237C39 24.6154 38.7866 24.41 38.4664 24.41H37.9862V21.9441H38.3063C38.6265 21.9441 38.8399 21.7386 38.8399 21.4303V19.4268C38.8399 19.1186 38.6265 18.9131 38.3063 18.9131H33.8241C33.5039 18.9131 33.2904 19.1186 33.2904 19.4268V21.4303C33.2904 21.7386 33.5039 21.9441 33.8241 21.9441H34.1442V24.41H33.4505V23.9476C33.4505 23.6394 33.2371 23.4339 32.9169 23.4339H29.9821C29.6619 23.4339 29.4485 23.6394 29.4485 23.9476V26.7731H27.1007V25.9003ZM16.9091 30.3184H26.0335V31.2431H16.9091V30.3184ZM26.0335 25.9003V26.1058H16.9091V25.3866H25.5005C25.7673 25.3866 26.0341 25.6435 26.0341 25.9003H26.0335ZM13.0672 32.6299V25.9003C13.0672 25.6435 13.2806 25.3866 13.6008 25.3866H15.8419V26.6196C15.8419 26.9278 16.0554 27.1333 16.3755 27.1333H26.0341V29.2909H16.9098V28.88C16.9098 28.5717 16.6963 28.3662 16.3762 28.3662C16.056 28.3662 15.8426 28.5717 15.8426 28.88V33.1439H13.6014C13.2813 33.1439 13.0678 32.9384 13.0678 32.6302L13.0672 32.6299ZM25.5005 33.1436H16.9091V32.2703H26.0335V32.6299C26.0335 32.9381 25.7666 33.1436 25.4998 33.1436H25.5005ZM37.7203 38.024H34.3052V37.0479H37.7736V38.024H37.7203ZM36.9199 36.0205H35.159V33.5546H36.9199V36.0205ZM34.3052 19.9405H37.7203V20.9166H34.2519V19.9405H34.3052ZM35.159 21.9441H36.9199V24.41H35.159V21.9441ZM34.6254 25.4374H37.9337V32.5779H33.3981V25.4374H34.6254ZM30.5166 24.4613H32.3842V33.5546H30.5166V24.4613ZM29.4494 27.8005V30.7802H27.1016V27.8005H29.4494Z" fill="#6C6F80" stroke="#6C6F80" stroke-width="2.66667" mask="url(#path-2-inside-1_540_20617)"/>
<path d="M29.6857 15.0108L31.0097 18.8601L31.0097 18.8603C31.039 18.9454 31.0162 19.0392 30.9508 19.1026L27.4511 22.496C27.3832 22.5617 27.2818 22.5829 27.1919 22.55L24.2804 21.4783C24.2029 21.4499 24.1456 21.3852 24.1283 21.3068C24.1109 21.2282 24.1358 21.1464 24.1943 21.0896L27.249 18.1277L26.4635 15.8502L24.1117 15.0884L21.0568 18.0504C20.9984 18.107 20.9141 18.1311 20.833 18.1143C20.7521 18.0974 20.6855 18.042 20.656 17.967L19.551 15.1437C19.517 15.0566 19.5388 14.9582 19.6067 14.8923L23.1064 11.4991L23.1062 11.4991C23.1716 11.4355 23.2683 11.4132 23.3562 11.4418L27.3318 12.726L29.0404 11.0694C29.0862 11.0249 29.1484 11 29.2132 11C29.278 11 29.3401 11.0249 29.3859 11.0695L31.3942 13.0196C31.4892 13.112 31.4892 13.2618 31.3938 13.3541L29.6857 15.0108ZM29.2127 11.5716L27.5703 13.1641L27.5703 13.1643C27.5049 13.2277 27.4082 13.2498 27.3205 13.2214L23.345 11.9374L20.0635 15.1189L20.9786 17.4567L23.8733 14.6501C23.9387 14.5867 24.0354 14.5645 24.1231 14.5928L26.7337 15.4383C26.8065 15.4618 26.8637 15.5173 26.8879 15.5879L27.7599 18.1165C27.7893 18.2015 27.7665 18.2955 27.701 18.3589L24.8066 21.1656L27.2174 22.0529L30.4987 18.8712L29.1745 15.0218C29.1452 14.9368 29.1681 14.843 29.2335 14.7796L30.8758 13.1867L29.2127 11.5716Z" fill="#6C6F80" stroke="#6C6F80"/>
</svg>
