<svg width="42" height="42" viewBox="0 0 42 42" fill="none" xmlns="http://www.w3.org/2000/svg">
<path d="M38.25 19.875C38.25 9.72679 30.0232 1.5 19.875 1.5C9.72679 1.5 1.5 9.72679 1.5 19.875C1.5 30.0232 9.72679 38.25 19.875 38.25" stroke="#27203E" stroke-width="2" stroke-linecap="round" stroke-linejoin="round"/>
<path d="M31.8 28.5C29.9775 28.5 28.5 30.2217 28.5 32.3455C28.5 36.1909 32.4 39.6868 34.5 40.5C36.6 39.6868 40.5 36.1909 40.5 32.3455C40.5 30.2217 39.0225 28.5 37.2 28.5C36.0839 28.5 35.0972 29.1457 34.5 30.1339C33.9028 29.1457 32.9161 28.5 31.8 28.5Z" stroke="#27203E" stroke-width="2" stroke-linecap="round" stroke-linejoin="round"/>
<path d="M20.25 25.5C23.1495 25.5 25.5 23.1495 25.5 20.25C25.5 17.3505 23.1495 15 20.25 15C17.3505 15 15 17.3505 15 20.25C15 23.1495 17.3505 25.5 20.25 25.5Z" stroke="#27203E" stroke-width="2"/>
</svg>
