<svg width="25" height="14" viewBox="0 0 25 14" fill="none" xmlns="http://www.w3.org/2000/svg">
<path d="M5.76382 1.44514C6.43384 3.12527 7.28299 4.70934 8.40138 6.13139C8.54972 6.32063 8.7367 6.48888 8.93368 6.62586C9.22139 6.8265 9.49285 6.75599 9.60983 6.42179C9.73357 6.07109 9.84712 5.36035 9.85387 4.99208C9.87233 4.0298 9.85111 3.39916 9.80019 2.43807C9.76719 1.8225 9.55168 1.282 8.65996 1.11886C8.38457 1.06828 8.35899 0.838109 8.53592 0.608503C8.90423 0.130478 9.41733 0.0542951 9.97374 0.024146C10.8755 -0.0253134 11.7806 0.0150515 12.6835 0.024146C13.0513 0.0275721 13.4212 0.0576591 13.7834 0.137828C14.2559 0.242416 14.5088 0.578914 14.5867 1.04722C14.627 1.28879 14.6477 1.53714 14.6421 1.78158C14.6186 2.83193 14.5688 3.88173 14.557 4.93153C14.552 5.34359 14.5816 5.76593 14.6684 6.16721C14.7899 6.72646 15.1649 6.86687 15.5484 6.46278C16.0353 5.94956 16.4647 5.37206 16.8677 4.78552C17.5998 3.71865 18.1467 2.54782 18.6174 1.34061C18.8609 0.717699 19.0473 0.582403 19.7072 0.580721C20.9476 0.577855 22.188 0.576734 23.4285 0.580721C23.6484 0.581842 23.8785 0.602896 24.0861 0.669984C24.4231 0.779119 24.5569 1.05818 24.478 1.41231C24.2938 2.24216 23.8522 2.94749 23.3792 3.62559C22.6202 4.71345 21.8248 5.77521 21.0479 6.85054C20.9488 6.98752 20.8615 7.1336 20.7803 7.28191C20.4898 7.81507 20.5099 8.114 20.9336 8.55789C21.6081 9.2644 22.3302 9.92538 22.9835 10.6512C23.4581 11.1792 23.8975 11.7521 24.2737 12.3552C24.7495 13.1179 24.4556 13.8363 23.5667 13.9642C23.0076 14.0444 20.2761 13.9649 20.1349 13.9642C19.4006 13.9609 18.7569 13.7022 18.2385 13.1958C17.662 12.632 17.138 12.0136 16.5844 11.4253C16.4176 11.248 16.2396 11.078 16.0476 10.9296C15.5948 10.5789 15.1503 10.6568 14.9388 11.1968C14.758 11.6606 14.6018 12.8786 14.5945 12.9826C14.5564 13.5266 14.2156 13.8733 13.6155 13.9068C11.8831 14.0023 10.2043 13.8062 8.64045 12.9554C7.31495 12.2346 6.25649 11.2156 5.33962 10.0271C3.88315 8.13942 2.73273 6.06443 1.68243 3.92851C1.62875 3.81932 0.564953 1.52076 0.536366 1.41219C0.441341 1.04865 0.529986 0.701379 0.832482 0.581842C1.02106 0.507341 4.52844 0.581593 4.58678 0.584769C5.14644 0.615541 5.52807 0.855302 5.76382 1.44514Z" fill="#6C6F80"/>
</svg>
