<svg width="21" height="16" viewBox="0 0 21 16" fill="none" xmlns="http://www.w3.org/2000/svg">
<path d="M20.043 2.498C20.5 4.28 20.5 8 20.5 8C20.5 8 20.5 11.72 20.043 13.502C19.789 14.487 19.046 15.262 18.105 15.524C16.396 16 10.5 16 10.5 16C10.5 16 4.607 16 2.895 15.524C1.95 15.258 1.208 14.484 0.957 13.502C0.5 11.72 0.5 8 0.5 8C0.5 8 0.5 4.28 0.957 2.498C1.211 1.513 1.954 0.738 2.895 0.476C4.607 -1.78814e-07 10.5 0 10.5 0C10.5 0 16.396 -1.78814e-07 18.105 0.476C19.05 0.742 19.792 1.516 20.043 2.498ZM8.5 11.5L14.5 8L8.5 4.5V11.5Z" fill="#6C6F80"/>
</svg>
